<?xml version="1.0" standalone="no"?>
<!DOCTYPE svg PUBLIC "-//W3C//DTD SVG 1.1//EN" "http://www.w3.org/Graphics/SVG/1.1/DTD/svg11.dtd" >
<svg>
<metadata>
Created by FontForge 20090914 at Thu Oct 17 21:47:50 2024
 By www-data
Copyright 2010 The Yanone Kaffeesatz Project Authors (https://github.com/yanone/kaffeesatz)
</metadata>
<defs>
<font id="YanoneKaffeesatz-Regular" horiz-adv-x="437" >
  <font-face 
    font-family="Yanone Kaffeesatz"
    font-weight="400"
    font-stretch="normal"
    units-per-em="1000"
    panose-1="0 0 0 0 0 0 0 0 0 0"
    ascent="800"
    descent="-200"
    x-height="499.999"
    cap-height="700"
    bbox="-101.999 -263.003 936.997 1072"
    underline-thickness="50"
    underline-position="-75"
    unicode-range="U+000D-U+FB02"
  />
<missing-glyph horiz-adv-x="500" 
d="M50 -200v935h400v-935h-400zM100 -150h300v835h-300v-835z" />
    <glyph glyph-name="fi" unicode="fi" horiz-adv-x="402" 
d="M79 0l-0.00195312 431.001h-69c0 22 0.333008 37.667 1 47s2.5 15.333 5.5 18s7.83301 4 14.5 4h48v61c0 39.333 5.33301 70.833 16 94.5s24.834 41.5 42.501 53.5s37 20 58 24s42.167 6 63.5 6c37.333 0 65.833 -4.16699 85.5 -12.5s29.5 -20.5 29.5 -36.5
c0 -6.66699 -0.666992 -14.5 -2 -23.5s-3.33301 -16.833 -6 -23.5c-14 6.66699 -30.167 12 -48.5 16s-36.833 6 -55.5 6c-13.333 0 -26.166 -1 -38.499 -3s-23.333 -6.5 -33 -13.5s-17.167 -17.333 -22.5 -31s-8 -32.167 -8 -55.5v-62h70c0 -21.333 -0.5 -36.833 -1.5 -46.5
s-2.5 -15.834 -4.5 -18.501s-5.66699 -4 -11 -4h-53v-415l-2 -8c-1.33301 -5.33301 -6 -8 -14 -8h-65zM274.998 0.000976562l-0.00292969 463c0 12.667 2.33301 21.5 7 26.5s12.834 8 24.501 9s28.5 1.5 50.5 1.5v-484c0 -5.33301 -1.16699 -9 -3.5 -11
s-9.16602 -3.33301 -20.499 -4s-30.666 -1 -57.999 -1z" />
    <glyph glyph-name="fl" unicode="fl" horiz-adv-x="412" 
d="M79 0l-0.000976562 431.001h-69c0 22 0.333008 37.667 1 47s2.5 15.333 5.5 18s7.83301 4 14.5 4h48v61c0 39.333 5.16699 70.833 15.5 94.5s23.5 41.334 39.5 53.001s33.167 19.5 51.5 23.5s35.166 6 50.499 6c25.333 0 49.333 -3.16699 72 -9.5s42 -14.5 58 -24.5
l-61 -49c-8.66699 6 -19 10.167 -31 12.5s-23 3.5 -33 3.5c-8.66699 0 -17.667 -0.833008 -27 -2.5s-18.166 -5.83398 -26.499 -12.501s-15 -16.5 -20 -29.5s-7.5 -30.833 -7.5 -53.5v-73h80c0 -21.333 -0.333008 -36.833 -1 -46.5s-2.16699 -15.834 -4.5 -18.501
s-6.16602 -4 -11.499 -4h-63v-415l-2 -8c-1.33301 -5.33301 -6.33301 -8 -15 -8h-64zM284.999 0.000976562v696l81 8v-688l-2 -8c-1.33301 -5.33301 -6 -8 -14 -8h-46.5h-16h-2.5z" />
    <glyph glyph-name="f_f" unicode="ff" horiz-adv-x="456" 
d="M81 0v431.001h-69c0 22 0.333008 37.667 1 47s2.5 15.333 5.5 18s7.83301 4 14.5 4h48v69c0 38 5.33301 68 16 90s24.334 38.333 41.001 49s34 17.667 52 21s34 5 48 5c24.667 0 47.167 -4 67.5 -12s37.833 -17.667 52.5 -29l-48 -48
c-9.33301 6.66699 -19.5 11.667 -30.5 15s-24.5 5 -40.5 5c-6.66699 0 -14.334 -0.833008 -23.001 -2.5s-17 -5.16699 -25 -10.5s-14.833 -14 -20.5 -26s-8.5 -28 -8.5 -48v-78h100c0 -21.333 -0.5 -36.833 -1.5 -46.5s-2.5 -15.834 -4.5 -18.501s-6 -4 -12 -4h-82v-415
l-2 -8c-1.33301 -5.33301 -6 -8 -14 -8h-65zM284 0.000976562v431.001h-62c0 22 0.333008 37.667 1 47s2.5 15.333 5.5 18s7.83301 4 14.5 4h41v61c0 39.333 5.33301 70.833 16 94.5s24.334 41.5 41.001 53.5s34.834 20 54.501 24s38.5 6 56.5 6
c32.667 0 56.334 -3.83301 71.001 -11.5s22 -19.5 22 -35.5c0 -4 -0.833008 -9.66699 -2.5 -17s-3.83398 -14.666 -6.50098 -21.999c-12.667 5.33301 -24.834 8.66602 -36.501 9.99902s-23.167 2 -34.5 2c-13.333 0 -25.833 -1 -37.5 -3s-22.334 -6.5 -32.001 -13.5
s-17.167 -16.833 -22.5 -29.5s-8 -30 -8 -52v-67h90c0 -21.333 -0.5 -36.833 -1.5 -46.5s-2.5 -15.834 -4.5 -18.501s-6 -4 -12 -4h-72v-415l-2 -8c-1.33301 -5.33301 -6.33301 -8 -15 -8h-64z" />
    <glyph glyph-name="f_f_i" unicode="ffi" horiz-adv-x="606" 
d="M79 0v431.001h-69c0 22 0.333008 37.667 1 47s2.5 15.333 5.5 18s7.83301 4 14.5 4h48v69c0 38 5.33301 68 16 90s24.167 38.333 40.5 49s33.5 17.667 51.5 21s34.333 5 49 5c24 0 46.333 -4 67 -12s38 -17.667 52 -29l-48 -48c-9.33301 6.66699 -19.5 11.667 -30.5 15
s-24.5 5 -40.5 5c-6.66699 0 -14.334 -0.833008 -23.001 -2.5s-17 -5.16699 -25 -10.5s-14.667 -14 -20 -26s-8 -28 -8 -48v-78h99c0 -21.333 -0.333008 -36.833 -1 -46.5s-2.16699 -15.834 -4.5 -18.501s-6.16602 -4 -11.499 -4h-82v-415l-2 -8
c-1.33301 -5.33301 -6.33301 -8 -15 -8h-64zM281 0.000976562l-0.00195312 431.001h-68c0 22 0.166992 37.667 0.5 47s2 15.333 5 18s8.16699 4 15.5 4h47v61c0 39.333 5.33301 70.833 16 94.5s24.834 41.5 42.501 53.5s37.167 20 58.5 24s42.666 6 63.999 6
c36.667 0 65 -4.16699 85 -12.5s30 -20.5 30 -36.5c0 -6.66699 -0.833008 -14.5 -2.5 -23.5s-3.83398 -16.833 -6.50098 -23.5c-14 6.66699 -30.167 12 -48.5 16s-36.833 6 -55.5 6c-13.333 0 -26.166 -1 -38.499 -3s-23.166 -6.5 -32.499 -13.5s-16.833 -17.333 -22.5 -31
s-8.5 -32.167 -8.5 -55.5v-62h70c0 -21.333 -0.333008 -36.833 -1 -46.5s-2.16699 -15.834 -4.5 -18.501s-6.16602 -4 -11.499 -4h-53v-415l-2 -8c-1.33301 -5.33301 -6 -8 -14 -8h-65zM476.998 0.00195312v463c0 12.667 2.33301 21.5 7 26.5s13 8 25 9s29 1.5 51 1.5v-484
c0 -5.33301 -1.33301 -9 -4 -11s-9.5 -3.33301 -20.5 -4s-30.5 -1 -58.5 -1z" />
    <glyph glyph-name="f_f_l" unicode="ffl" horiz-adv-x="616" 
d="M79 0v431.001h-69c0 22 0.333008 37.667 1 47s2.5 15.333 5.5 18s7.83301 4 14.5 4h48v69c0 38 5.33301 68 16 90s24.167 38.333 40.5 49s33.5 17.667 51.5 21s34.333 5 49 5c24 0 46.333 -4 67 -12s38 -17.667 52 -29l-48 -48c-9.33301 6.66699 -19.5 11.667 -30.5 15
s-24.5 5 -40.5 5c-6.66699 0 -14.334 -0.833008 -23.001 -2.5s-17 -5.16699 -25 -10.5s-14.667 -14 -20 -26s-8 -28 -8 -48v-78h99c0 -21.333 -0.333008 -36.833 -1 -46.5s-2.16699 -15.834 -4.5 -18.501s-6.16602 -4 -11.499 -4h-82v-415l-2 -8
c-1.33301 -5.33301 -6.33301 -8 -15 -8h-64zM281 0.000976562l0.000976562 431.001h-61c0 22 0.166992 37.667 0.5 47s2 15.333 5 18s8.16699 4 15.5 4h40v61c0 39.333 5.16699 70.833 15.5 94.5s23.666 41.5 39.999 53.5s33.5 20 51.5 24s34.667 6 50 6
c31.333 0 58 -3.66699 80 -11s39.333 -15 52 -23l-62 -56l-16 8.5c-10.667 5.66699 -26.667 8.5 -48 8.5c-9.33301 0 -18.833 -1 -28.5 -3s-18.5 -6 -26.5 -12s-14.5 -15.167 -19.5 -27.5s-7.5 -29.5 -7.5 -51.5v-72h69c0 -21.333 -0.333008 -36.833 -1 -46.5
s-2 -15.834 -4 -18.501s-6 -4 -12 -4h-52v-415l-2 -8c-1.33301 -5.33301 -6 -8 -14 -8h-65zM489.001 0.00195312l-0.000976562 699l81 6v-689c0 -5.33301 -1.16699 -9 -3.5 -11s-9.16602 -3.33301 -20.499 -4s-30.333 -1 -57 -1z" />
    <glyph glyph-name=".notdef" horiz-adv-x="500" 
d="M50 -200v935h400v-935h-400zM100 -150h300v835h-300v-835z" />
    <glyph glyph-name="NULL" horiz-adv-x="0" 
 />
    <glyph glyph-name="NULL" horiz-adv-x="0" 
 />
    <glyph glyph-name="CR" unicode="&#xd;" horiz-adv-x="158" 
 />
    <glyph glyph-name="space" unicode=" " horiz-adv-x="158" 
 />
    <glyph glyph-name="exclam" unicode="!" horiz-adv-x="195" 
d="M59 214l-14 468.998c0 7.33301 2.66699 12.5 8 15.5s16 5 32 6s39.667 1.5 71 1.5l-16 -455c-0.666992 -11.333 -3.5 -19.666 -8.5 -24.999s-13.167 -8.66602 -24.5 -9.99902s-27.333 -2 -48 -2zM97 -7.00195c-20.667 0 -35 5.16699 -43 15.5s-12 24.166 -12 41.499
c0 15.333 4.83301 28.833 14.5 40.5s23.167 17.5 40.5 17.5c20.667 0 35.167 -5.33301 43.5 -16s12.5 -24.667 12.5 -42c0 -15.333 -4.83301 -28.666 -14.5 -39.999s-23.5 -17 -41.5 -17z" />
    <glyph glyph-name="quotedbl" unicode="&#x22;" horiz-adv-x="264" 
d="M45 583c0 2 -0.835938 9.83301 -2.50293 23.5s-3.33398 30 -5.00098 49s-3.16699 38 -4.5 57s-2.16602 35 -2.49902 48s0.833984 20.167 3.50098 21.5c3.33301 2.66699 10 4 20 4s20.333 -0.166992 31 -0.5s19.334 -1.16602 26.001 -2.49902
c0 -13.333 -0.666992 -30.833 -2 -52.5s-3.16602 -43.334 -5.49902 -65.001s-4.83301 -40 -7.5 -55s-4.66699 -23.167 -6 -24.5c-0.666992 -0.666992 -4.66699 -1.16699 -12 -1.5l-22 -1zM167.997 583c-0.666992 2 -1.66797 9.83301 -3.00098 23.5s-2.83301 30 -4.5 49
s-3.16699 38 -4.5 57s-2.16602 35 -2.49902 48s0.5 20.167 2.5 21.5c4 2.66699 11 4 21 4s20.333 -0.166992 31 -0.5s19 -1.16602 25 -2.49902c0 -13.333 -0.666992 -30.833 -2 -52.5s-3 -43.334 -5 -65.001s-4.33301 -40 -7 -55s-4.66699 -23.167 -6 -24.5
c-0.666992 -0.666992 -4.66699 -1.16699 -12 -1.5l-22 -1z" />
    <glyph glyph-name="numbersign" unicode="#" horiz-adv-x="418" 
d="M245 107l20.001 380c0.666992 8.66699 6.5 13.5 17.5 14.5s28.833 1.5 53.5 1.5l-20 -380c-0.666992 -8 -6.33398 -12.667 -17.001 -14s-28.667 -2 -54 -2zM78.001 107l20.001 380c0.666992 8.66699 6.66699 13.5 18 14.5s29.333 1.5 54 1.5l-20 -380
c-0.666992 -8 -6.33398 -12.667 -17.001 -14s-29 -2 -55 -2zM27.002 190c0 26 0.833008 43.167 2.5 51.5s6.5 12.5 14.5 12.5h346c0 -24.667 -0.666992 -41.5 -2 -50.5s-6 -13.5 -14 -13.5h-347zM27.002 360c0 26 0.833008 43.167 2.5 51.5s6.5 12.5 14.5 12.5h346
c0 -24.667 -0.666992 -41.5 -2 -50.5s-6 -13.5 -14 -13.5h-347z" />
    <glyph glyph-name="dollar" unicode="$" horiz-adv-x="418" 
d="M184 -8c-30.667 0 -55.668 2.83203 -75.001 8.49902s-33.666 11.834 -42.999 18.501s-14 12.667 -14 18c0 2.66699 1 8.33398 3 17.001s4.66699 17.667 8 27s7 16.333 11 21c10 -8 23.833 -14.833 41.5 -20.5s39.5 -8.5 65.5 -8.5c30.667 0 53.834 7.5 69.501 22.5
s23.5 35.833 23.5 62.5c0 19.333 -4.16699 36.333 -12.5 51s-22.833 32.667 -43.5 54l-112 114c-18 19.333 -31.333 38.166 -40 56.499s-13 36.5 -13 54.5c0 40.667 14.5 72.334 43.5 95.001s69.5 34 121.5 34c34.667 0 62 -2.16699 82 -6.5s34.5 -9.33301 43.5 -15
s13.5 -10.5 13.5 -14.5c0 -5.33301 -1.5 -13.833 -4.5 -25.5s-8.16699 -21.834 -15.5 -30.501c-6.66699 4 -18.834 8.33301 -36.501 13s-38.167 7 -61.5 7c-29.333 0 -52.833 -4 -70.5 -12s-26.5 -22.667 -26.5 -44c0 -14 3.5 -27 10.5 -39s17.833 -25.667 32.5 -41
l121 -121c20 -20 34.5 -40.333 43.5 -61s13.5 -44 13.5 -70c0 -29.333 -5.33301 -56.5 -16 -81.5s-29 -45.167 -55 -60.5s-62 -23 -108 -23zM162.999 -122.001v140h74v-108c0 -14 -6 -22.833 -18 -26.5s-30.667 -5.5 -56 -5.5zM180.999 568.999v135c0 14 6.16699 23 18.5 27
s30.5 6 54.5 6v-172z" />
    <glyph glyph-name="percent" unicode="%" horiz-adv-x="691" 
d="M180 339c-30 0 -55 4.66797 -75 14.001s-35.167 27.333 -45.5 54s-15.5 66 -15.5 118c0 63.333 12.5 109.666 37.5 138.999s59.833 44 104.5 44c30 0 54.667 -5.33301 74 -16s34 -29 44 -55s15 -63 15 -111c0 -64.667 -11.833 -112 -35.5 -142s-58.167 -45 -103.5 -45z
M182 402.001c12 0 22.666 3.66797 31.999 11.001s16.666 20 21.999 38s8 42.667 8 74c0 33.333 -2.16699 58.666 -6.5 75.999s-10.666 29 -18.999 35s-19.166 9 -32.499 9c-19.333 0 -34.833 -8.33301 -46.5 -25s-17.5 -49 -17.5 -97c0 -34 2.16699 -59.667 6.5 -77
s11 -29 20 -35s20.167 -9 33.5 -9zM165.999 -7.99805l-7.50098 2.49707c-5 1.66699 -10.667 3.83398 -17 6.50098s-12.166 5.83398 -17.499 9.50098s-8 7.83398 -8 12.501l403 686l12 -4.5c8 -3 15.667 -7.16699 23 -12.5s11 -11.333 11 -18c0 -2 -5.66699 -13 -17 -33
l-45.5 -79l-64 -109l-73.5 -124.5l-73 -124.5l-63.5 -108l-45.5 -76zM507.998 -9.00098c-30 0 -55 4.66797 -75 14.001s-35.167 27.333 -45.5 54s-15.5 66 -15.5 118c0 63.333 12.5 109.666 37.5 138.999s59.833 44 104.5 44c30 0 54.667 -5.33301 74 -16s34 -29 44 -55
s15 -63 15 -111c0 -64.667 -11.833 -112 -35.5 -142s-58.167 -45 -103.5 -45zM509.998 54c12 0 22.666 3.66797 31.999 11.001s16.666 20 21.999 38s8 42.667 8 74c0 33.333 -2.16699 58.666 -6.5 75.999s-10.666 29 -18.999 35s-19.166 9 -32.499 9
c-19.333 0 -34.833 -8.33301 -46.5 -25s-17.5 -49 -17.5 -97c0 -34 2.16699 -59.667 6.5 -77s11 -29 20 -35s20.167 -9 33.5 -9z" />
    <glyph glyph-name="ampersand" unicode="&#x26;" horiz-adv-x="502" 
d="M435 -10c-6 0 -17.1631 7.49609 -33.4961 22.4961s-35.833 35.667 -58.5 62s-46.834 56 -72.501 89s-50.834 67.833 -75.501 104.5s-47.167 73.334 -67.5 110.001s-36.5 71.334 -48.5 104.001s-18 61.334 -18 86.001c0 30 6.5 55.333 19.5 76s32 36.167 57 46.5
s55.167 15.5 90.5 15.5c44 0 79.833 -4.83301 107.5 -14.5s41.5 -20.5 41.5 -32.5c0 -10 -1.83301 -20.667 -5.5 -32s-8.5 -20.666 -14.5 -27.999c-18.667 13.333 -37.834 22.5 -57.501 27.5s-40.5 7.5 -62.5 7.5c-16.667 0 -31.834 -1.66699 -45.501 -5
s-24.667 -10.5 -33 -21.5s-12.5 -27.5 -12.5 -49.5c0 -19.333 6.33301 -44 19 -74s29.5 -62.667 50.5 -98s44.167 -71 69.5 -107s50.833 -69.667 76.5 -101s49.667 -58 72 -80s40.5 -36.333 54.5 -43c-1.33301 -10.667 -5 -21 -11 -31s-13 -18.167 -21 -24.5
s-15 -9.5 -21 -9.5zM212.004 -10.0039c-36.667 0 -67.166 4.99707 -91.499 14.9971s-43.166 23.5 -56.499 40.5s-23 36.333 -29 58s-9 43.834 -9 66.501c0 33.333 7.16699 63.5 21.5 90.5s32.5 50.333 54.5 70s44.667 34.5 68 44.5l35 -57
c-18.667 -9.33301 -35 -20.666 -49 -33.999s-25.167 -29.5 -33.5 -48.5s-12.5 -41.5 -12.5 -67.5c0 -12.667 1.66699 -25.167 5 -37.5s8.66602 -23.166 15.999 -32.499s17.333 -17 30 -23s28 -9 46 -9c27.333 0 49.833 5.66699 67.5 17s31.667 26 42 44
s17.833 37.333 22.5 58s7.66699 40.5 9 59.5s2 34.5 2 46.5c0 35.333 -2.66699 65.666 -8 90.999s-12.5 47.333 -21.5 66s-19.167 34.667 -30.5 48c12.667 2.66699 26.334 4.5 41.001 5.5s28.667 1.66699 42 2s24 0.5 32 0.5c14.667 0 28.167 -0.166992 40.5 -0.5
s24.833 -1.16602 37.5 -2.49902c0 -0.666992 0.333008 -4 1 -10s1 -12.667 1 -20c0 -10 -2.33301 -18.5 -7 -25.5s-16.334 -10.5 -35.001 -10.5l-49 1c5.33301 -8.66699 10.666 -19 15.999 -31s9.83301 -27.667 13.5 -47s5.5 -45 5.5 -77c0 -17.333 -1.33301 -38.5 -4 -63.5
s-8.16699 -50.667 -16.5 -77s-20.5 -51 -36.5 -74s-37 -41.5 -63 -55.5s-58.333 -21 -97 -21z" />
    <glyph glyph-name="quotesingle" unicode="'" horiz-adv-x="141" 
d="M45 583c0 2 -0.835938 9.83301 -2.50293 23.5s-3.33398 30 -5.00098 49s-3.16699 38 -4.5 57s-2.16602 35 -2.49902 48s0.833984 20.167 3.50098 21.5c3.33301 2.66699 10 4 20 4s20.333 -0.166992 31 -0.5s19.334 -1.16602 26.001 -2.49902
c0 -13.333 -0.666992 -30.833 -2 -52.5s-3.16602 -43.334 -5.49902 -65.001s-4.83301 -40 -7.5 -55s-4.66699 -23.167 -6 -24.5c-0.666992 -0.666992 -4.66699 -1.16699 -12 -1.5l-22 -1z" />
    <glyph glyph-name="parenleft" unicode="(" horiz-adv-x="292" 
d="M227 -195c-4 0 -12 6.33301 -24 19s-25.833 32.167 -41.5 58.5s-30.834 60 -45.501 101s-26.834 89.333 -36.501 145s-14.5 119.5 -14.5 191.5c0 66.667 5 126.167 15 178.5s22.333 97.666 37 135.999s29.834 70 45.501 95s29.5 43.5 41.5 55.5s19.333 18 22 18
c13.333 0 23.166 -3.66699 29.499 -11s11.5 -21 15.5 -41c-14.667 -19.333 -29.334 -42.666 -44.001 -69.999s-28 -58.666 -40 -93.999s-21.5 -74.833 -28.5 -118.5s-10.5 -92.167 -10.5 -145.5c0 -58 3.83301 -111.667 11.5 -161s17.667 -93.5 30 -132.5
s25.833 -72.5 40.5 -100.5s28.334 -49.333 41.001 -64c-3.33301 -18.667 -8.16602 -33.334 -14.499 -44.001s-16.166 -16 -29.499 -16z" />
    <glyph glyph-name="parenright" unicode=")" horiz-adv-x="292" 
d="M66 -195c-14 0 -23.998 5.33301 -29.998 16s-11 25.334 -15 44.001c14 18 28.167 40.833 42.5 68.5s27.666 60.334 39.999 98.001s22.333 80.834 30 129.501s11.5 102.667 11.5 162c0 49.333 -3.5 95.666 -10.5 138.999s-16.167 83.333 -27.5 120
s-24.333 69.167 -39 97.5s-30.334 52.166 -47.001 71.499c4 20 9.33301 33.667 16 41s16.334 11 29.001 11c2.66699 0 10 -5.83301 22 -17.5s25.833 -29.667 41.5 -54s30.834 -55.666 45.501 -93.999s27 -83.833 37 -136.5s15 -113 15 -181
c0 -67.333 -4.83301 -128.333 -14.5 -183s-21.834 -102.834 -36.501 -144.501s-29.834 -76.334 -45.501 -104.001s-29.5 -48.5 -41.5 -62.5s-19.667 -21 -23 -21z" />
    <glyph glyph-name="asterisk" unicode="*" horiz-adv-x="470" 
d="M136 259c-6 -8.66699 -13.666 -11.167 -22.999 -7.5s-18.333 10.5 -27 20.5s-15.334 19.333 -20.001 28l121 123c6 6 12 8.5 18 7.5s12.333 -6.16699 19 -15.5zM175.001 459l-159 44.001c0 16 3 29.5 9 40.5s13.333 18.667 22 23s16 5.16602 22 2.49902l130 -82
c1.33301 -12 -0.5 -20.333 -5.5 -25s-11.167 -5.66699 -18.5 -3zM327.001 245.001l-78.001 159.001c-3.33301 6.66699 -3.66602 12.167 -0.999023 16.5s10.334 8.83301 23.001 13.5l115 -135c6.66699 -8 7 -15.833 1 -23.5s-14.833 -14.334 -26.5 -20.001
s-22.834 -9.16699 -33.501 -10.5zM221 504.002l-22 163c-1.33301 10 2.66699 16.333 12 19s20.5 3.16699 33.5 1.5s24.167 -5.16699 33.5 -10.5l-20 -158c-1.33301 -7.33301 -4.33301 -12.5 -9 -15.5s-14 -2.83301 -28 0.5zM280 455.002c-8 11.333 -11.5 19.833 -10.5 25.5
s5.16699 10.5 12.5 14.5l148 80c9.33301 -6.66699 16 -16 20 -28s5.33301 -23.333 4 -34s-6.33301 -17 -15 -19z" />
    <glyph glyph-name="plus" unicode="+" horiz-adv-x="418" 
d="M34 246c0 26 0.666992 44.333 2 55s6.33301 16 15 16h333c0 -24.667 -0.666992 -42.667 -2 -54s-6 -17 -14 -17h-334zM174 107v334c0 8 5.5 12.667 16.5 14s29.167 2 54.5 2v-334c0 -8 -5.5 -12.667 -16.5 -14s-29.167 -2 -54.5 -2z" />
    <glyph glyph-name="comma" unicode="," horiz-adv-x="183" 
d="M70 -103c-7.33301 0 -13.8262 1.66797 -19.4932 5.00098s-9.83398 9.33301 -12.501 18c11.333 19.333 18.666 34.833 21.999 46.5s5.66602 24.834 6.99902 39.501c-8.66699 4.66699 -14.834 11.167 -18.501 19.5s-5.5 18.166 -5.5 29.499c0 14.667 4.66699 27 14 37
s21.666 15 36.999 15c17.333 0 30.666 -4.83301 39.999 -14.5s14 -24.834 14 -45.501c0 -18 -3 -36 -9 -54s-13.5 -34.167 -22.5 -48.5s-17.833 -25.833 -26.5 -34.5s-15.334 -13 -20.001 -13z" />
    <glyph glyph-name="hyphen" unicode="-" horiz-adv-x="278" 
d="M37 246c0 26 0.666992 44.333 2 55s6.33301 16 15 16h187c0 -24.667 -0.666992 -42.667 -2 -54s-6 -17 -14 -17h-188z" />
    <glyph glyph-name="period" unicode="." horiz-adv-x="183" 
d="M93 -6c-21.333 0 -36 4.99902 -44 14.999s-12 24 -12 42c0 15.333 4.83301 28.833 14.5 40.5s23.5 17.5 41.5 17.5c20.667 0 35.167 -5.33301 43.5 -16s12.5 -24.667 12.5 -42c0 -15.333 -5 -28.666 -15 -39.999s-23.667 -17 -41 -17z" />
    <glyph glyph-name="slash" unicode="/" horiz-adv-x="335" 
d="M10 -20l225 763c2 6.66699 4.83301 11.5 8.5 14.5s11.5 5 23.5 6s31.333 1.5 58 1.5l-225 -765c-1.33301 -6 -4 -10.5 -8 -13.5s-12 -4.83301 -24 -5.5s-31.333 -1 -58 -1z" />
    <glyph glyph-name="zero" unicode="0" horiz-adv-x="418" 
d="M206 -9c-46 0 -81.832 11.668 -107.499 35.001s-43.667 57.666 -54 102.999s-15.5 101 -15.5 167c0 99.333 14.333 174.833 43 226.5s75 77.5 139 77.5c64.667 0 110.5 -23.333 137.5 -70s40.5 -116.667 40.5 -210c0 -72 -5.5 -132.5 -16.5 -181.5
s-29.833 -85.833 -56.5 -110.5s-63.334 -37 -110.001 -37zM208.001 65.001c23.333 0 41.998 8.83203 55.998 26.499s24.167 45.334 30.5 83.001s9.5 86.5 9.5 146.5c0 68 -6.16699 119.5 -18.5 154.5s-35.833 52.5 -70.5 52.5c-38 0 -64 -21 -78 -63s-21 -100.333 -21 -175
c0 -54.667 2.83301 -98.5 8.5 -131.5s15.334 -56.833 29.001 -71.5s31.834 -22 54.501 -22z" />
    <glyph glyph-name="one" unicode="1" horiz-adv-x="418" 
d="M30 0c-0.666992 8 -1.16699 17.334 -1.5 28.001s-0.5 20 -0.5 28c0 4 3 7 9 9s14 3.83301 24 5.5s21.333 2.83398 34 3.50098s25.667 1.16699 39 1.5s26 0.5 38 0.5l12 441c-7.33301 -0.666992 -15.833 -1.5 -25.5 -2.5s-19.667 -2.5 -30 -4.5l-28.5 -5.5
c-8.66699 -1.66699 -15.834 -3.16699 -21.501 -4.5l-8.5 -2c-4 7.33301 -7.16699 15.666 -9.5 24.999s-3.5 18.666 -3.5 27.999c0 3.33301 5.5 7 16.5 11s24.667 8.16699 41 12.5s33.5 8.5 51.5 12.5s34.333 7.16699 49 9.5s25.334 3.5 32.001 3.5c4 0 8.33301 -0.5 13 -1.5
s8 -2.16699 10 -3.5l-13 -519h74c15.333 0 28.833 0.666992 40.5 2l17.5 2c0 -28 -0.666992 -48.333 -2 -61s-6 -19 -14 -19h-343z" />
    <glyph glyph-name="two" unicode="2" horiz-adv-x="418" 
d="M32 0c-0.666992 4 -1.33496 8.66992 -2.00195 14.0029s-1 9 -1 11c0 14 1.83301 25.333 5.5 34s9.83398 21 18.501 37c17.333 29.333 36.5 57 57.5 83l61.5 74c20 23.333 38.333 46.166 55 68.499s30 44.333 40 66s15 43.5 15 65.5c0 14.667 -2.5 27.167 -7.5 37.5
s-13 18.166 -24 23.499s-26.167 8 -45.5 8c-18 0 -36.167 -1.5 -54.5 -4.5s-35.5 -7.16699 -51.5 -12.5s-29.333 -11.333 -40 -18c-4 10.667 -6.66699 21.667 -8 33s-2 20.333 -2 27c0 8.66699 8 17 24 25s37.5 14.667 64.5 20s56.5 8 88.5 8
c38.667 0 68.667 -5.33301 90 -16s36.333 -26 45 -46s13 -44.667 13 -74c0 -27.333 -5 -53.5 -15 -78.5s-23.5 -49.667 -40.5 -74s-36 -48.666 -57 -72.999l-63.5 -76.5c-21.333 -26.667 -42 -55.334 -62 -86.001h134c14 0 27.833 0.333008 41.5 1s26.334 1.66699 38.001 3
s21 2.33301 28 3l10.5 1c0 -30.667 -0.666992 -52.334 -2 -65.001s-6 -19 -14 -19h-340z" />
    <glyph glyph-name="three" unicode="3" horiz-adv-x="418" 
d="M152 -100c-37.333 0 -64.6699 4.99805 -82.0029 14.998s-26 21.333 -26 34c0 14 1.33301 25.833 4 35.5l7 24.5c11.333 -10 25.333 -17.667 42 -23s35.334 -8 56.001 -8c29.333 0 54.166 7.33301 74.499 22s35.833 35 46.5 61s16 55.667 16 89
c0 21.333 -4.33301 38.833 -13 52.5s-20.5 24.167 -35.5 31.5s-32 12.5 -51 15.5s-38.833 4.16699 -59.5 3.5l-1 52c42 20 74.5 43.333 97.5 70s34.5 54 34.5 82c0 10 -1.5 20 -4.5 30s-9.66699 18.333 -20 25s-26.166 10 -47.499 10c-28 0 -53.667 -3.16699 -77 -9.5
s-43.333 -15.166 -60 -26.499c-5.33301 10.667 -8.33301 21.834 -9 33.501s-1 20.5 -1 26.5c0 13.333 15.5 25.666 46.5 36.999s72.833 17 125.5 17c36 0 64 -5.5 84 -16.5s34.167 -25.5 42.5 -43.5s12.5 -37.667 12.5 -59c0 -26.667 -5.16699 -51.167 -15.5 -73.5
s-23.666 -42.166 -39.999 -59.499s-34.166 -33 -53.499 -47c24.667 -2.66699 47 -9.33398 67 -20.001s35.833 -26.5 47.5 -47.5s17.5 -48.167 17.5 -81.5c0 -55.333 -9.66699 -101.666 -29 -138.999s-46 -65.5 -80 -84.5s-72.667 -28.5 -116 -28.5z" />
    <glyph glyph-name="four" unicode="4" horiz-adv-x="418" 
d="M235 0l0.000976562 130.004h-181c-10 10 -16.833 21.667 -20.5 35s-5.5 25.666 -5.5 36.999c0 8 3.33301 21.667 10 41s15.667 41.833 27 67.5s24.166 52.5 38.499 80.5s29.333 55.333 45 82s31 50.5 46 71.5s28.833 36.833 41.5 47.5c6 4.66699 12 8.16699 18 10.5
s12.333 3.5 19 3.5c10 0 19 -1.33301 27 -4s14.333 -5.33398 19 -8.00098l-3 -388c19.333 0 36.5 0.5 51.5 1.5l22.5 1.5l2 -6.5c1.33301 -4.33301 2 -11.833 2 -22.5c-0.666992 -12.667 -3 -24.167 -7 -34.5s-10.667 -15.5 -20 -15.5h-51v-104
c0 -8.66699 -1.16699 -14.834 -3.5 -18.501s-9 -5.83398 -20 -6.50098s-30.167 -1 -57.5 -1zM98.001 206.004l136.999 -0.000976562l11 288c-12 -14 -25.333 -32.5 -40 -55.5s-29.167 -48.167 -43.5 -75.5s-27.166 -54.666 -38.499 -81.999s-20 -52.333 -26 -75z" />
    <glyph glyph-name="five" unicode="5" horiz-adv-x="418" 
d="M148 -100c-40 0 -68.998 5.16699 -86.998 15.5s-27 18.833 -27 25.5c0 14.667 0.666992 26.834 2 36.501s3.66602 19.5 6.99902 29.5c12 -10 25.833 -17.667 41.5 -23s34.5 -8 56.5 -8c36.667 0 66 9.66699 88 29s38.167 44.333 48.5 75s15.5 63 15.5 97
c0 28.667 -3.66699 52.334 -11 71.001s-17.666 33 -30.999 43s-29.5 17.167 -48.5 21.5s-40.167 6.5 -63.5 6.5c-21.333 0 -40.666 -1.83301 -57.999 -5.5s-30.333 -6.5 -39 -8.5l29 295h306c0 -20 -0.833008 -35.333 -2.5 -46s-5.66699 -17.834 -12 -21.501
s-15.833 -5.5 -28.5 -5.5c-4.66699 0 -12.834 0.166992 -24.501 0.5s-24.834 0.666016 -39.501 0.999023l-44.5 1c-15 0.333008 -29 0.666016 -42 0.999023s-23.5 0.5 -31.5 0.5h-12l-15 -150c3.33301 0.666992 9.66602 1.66699 18.999 3s22.333 2 39 2
c19.333 0.666992 40.333 -1 63 -5s44.167 -12.5 64.5 -25.5s36.833 -32.333 49.5 -58s19 -60.167 19 -103.5c0 -59.333 -8.16699 -111.166 -24.5 -155.499s-41.5 -78.5 -75.5 -102.5s-77.667 -36 -131 -36z" />
    <glyph glyph-name="six" unicode="6" horiz-adv-x="418" 
d="M201 -8c-38 0 -68.5039 7.33105 -91.5039 21.998s-40.167 35.834 -51.5 63.501s-18.666 61 -21.999 100s-5 82.5 -5 130.5c0 74.667 5.66699 137.167 17 187.5s27.333 90.666 48 120.999s44.834 52.166 72.501 65.499s57.5 20 89.5 20c18.667 0 36.334 -1 53.001 -3
s30.167 -5.5 40.5 -10.5s15.5 -11.833 15.5 -20.5c0 -8 -0.5 -17.167 -1.5 -27.5s-3.16699 -20.5 -6.5 -30.5c-12.667 4.66699 -26.834 8.33398 -42.501 11.001s-32.834 4 -51.501 4c-33.333 0 -62.166 -11.333 -86.499 -34s-42.666 -59 -54.999 -109
s-17.166 -116 -14.499 -198c-0.666992 -39.333 0.833008 -72.833 4.5 -100.5s9.5 -50.167 17.5 -67.5s18.167 -30.333 30.5 -39s26.833 -13 43.5 -13c23.333 0 42.833 7.33301 58.5 22s27.5 34.334 35.5 59.001s12 52.334 12 83.001c0 44 -7.5 77.667 -22.5 101
s-37.167 35 -66.5 35c-26 0 -50.333 -9 -73 -27s-43 -46.333 -61 -85v74c15.333 38 35.5 66.333 60.5 85s57.5 28 97.5 28c42.667 0 77.5 -15 104.5 -45s40.5 -79.667 40.5 -149c0 -85.333 -16 -148.833 -48 -190.5s-79.333 -62.5 -142 -62.5z" />
    <glyph glyph-name="seven" unicode="7" horiz-adv-x="418" 
d="M163 -88c-20 0 -36.167 0.498047 -48.5 1.49805s-21.166 3.16699 -26.499 6.5s-8 8 -8 14c5.33301 42 13.666 85.667 24.999 131s24.5 90.333 39.5 135s31 87.5 48 128.5s34.167 78.833 51.5 113.5s33.666 64.334 48.999 89.001c-12 -1.33301 -29.167 -2.33301 -51.5 -3
s-48.333 -1 -78 -1h-96.5c-5.33301 0 -9.83301 3.5 -13.5 10.5s-6.16699 16.167 -7.5 27.5s-2 23 -2 35h360c-40.667 -79.333 -77.5 -157.333 -110.5 -234s-60.667 -152.667 -83 -228s-38.166 -150.666 -47.499 -225.999z" />
    <glyph glyph-name="eight" unicode="8" horiz-adv-x="418" 
d="M218 -8c-44.667 0 -80.667 8.66797 -108 26.001s-47.166 40.5 -59.499 69.5s-18.5 61.167 -18.5 96.5c0 30.667 5.66699 58.834 17 84.501s26.5 48.334 45.5 68.001s40.167 35.167 63.5 46.5l52 23c18.667 11.333 35.667 23.666 51 36.999s27.666 28.166 36.999 44.499
s14 34.166 14 53.499c0 16 -2.66699 29.5 -8 40.5s-12.333 20.167 -21 27.5s-18.5 12.666 -29.5 15.999s-22.167 5 -33.5 5c-18 0 -34.667 -3.33301 -50 -10s-27.5 -16.5 -36.5 -29.5s-13.5 -30.167 -13.5 -51.5c0 -17.333 3.33301 -32.5 10 -45.5
s16.334 -24.833 29.001 -35.5c11.333 -11.333 27.5 -24 48.5 -38l65.5 -45.5c22.667 -16.333 42.334 -33.5 59.001 -51.5c19.333 -19.333 34.166 -40.166 44.499 -62.499s15.5 -48.5 15.5 -78.5c0 -35.333 -6.5 -67.333 -19.5 -96s-32.333 -51.5 -58 -68.5
s-57.834 -25.5 -96.501 -25.5zM212 70.001c30.667 0 55.165 10.165 73.498 30.498s27.5 48.166 27.5 83.499c0 27.333 -4.66699 48.333 -14 63s-19.666 27.334 -30.999 38.001c-17.333 18 -37.833 34.667 -61.5 50l-69.5 46c-22.667 15.333 -41.667 31.333 -57 48
c-13.333 12.667 -23.5 28.334 -30.5 47.001s-10.5 38 -10.5 58c0 38.667 7.66699 70.667 23 96s36 44.333 62 57s54.333 19 85 19c23.333 0 45.666 -2.5 66.999 -7.5s40.333 -13.333 57 -25s29.834 -28 39.501 -49s14.5 -47.833 14.5 -80.5c0 -30.667 -6 -57.667 -18 -81
s-27.333 -43.166 -46 -59.499s-37.667 -30.833 -57 -43.5l-47 -23c-20 -10 -38.5 -22.167 -55.5 -36.5s-30.667 -30.833 -41 -49.5s-15.5 -39.667 -15.5 -63c0 -36 9.33301 -64.667 28 -86s44.334 -32 77.001 -32z" />
    <glyph glyph-name="nine" unicode="9" horiz-adv-x="418" 
d="M138 -104c-24 0 -45.001 2.33203 -63.001 6.99902s-27 13.334 -27 26.001c0 8 0.833008 17.333 2.5 28s3.5 19.334 5.5 26.001c11.333 -2.66699 23 -5 35 -7s24.333 -3 37 -3c38 0 69 8.66699 93 26s42.5 41.333 55.5 72s22 66.5 27 107.5s7.5 84.833 7.5 131.5
c0 37.333 -1.16699 70 -3.5 98s-6.66602 51.667 -12.999 71s-15.666 33.833 -27.999 43.5s-28.5 14.5 -48.5 14.5c-34 0 -61 -14 -81 -42s-30 -70.333 -30 -127c0 -44.667 8.16699 -78.5 24.5 -101.5s38.166 -34.5 65.499 -34.5c26 0 50.333 8.66699 73 26
s43 44.666 61 81.999v-73c-16.667 -35.333 -36.834 -62.5 -60.501 -81.5s-56.167 -28.5 -97.5 -28.5c-27.333 0 -52 7.66699 -74 23s-39.333 37.833 -52 67.5s-19 66.5 -19 110.5c0 85.333 15.833 148.5 47.5 189.5s78.834 61.5 141.501 61.5c36 0 65 -5.33301 87 -16
s39 -28.167 51 -52.5s20.5 -56.5 25.5 -96.5s7.83301 -89 8.5 -147c-0.666992 -135.333 -21 -236 -61 -302s-103.333 -99 -190 -99z" />
    <glyph glyph-name="colon" unicode=":" horiz-adv-x="183" 
d="M93 329c-20.667 0 -35.167 5 -43.5 15s-12.5 24 -12.5 42c0 15.333 4.83301 28.833 14.5 40.5s23.5 17.5 41.5 17.5c20.667 0 35.167 -5.5 43.5 -16.5s12.5 -24.833 12.5 -41.5c0 -16 -5 -29.5 -15 -40.5s-23.667 -16.5 -41 -16.5zM93 -6
c-20.667 0 -35.167 4.99902 -43.5 14.999s-12.5 24 -12.5 42c0 15.333 4.83301 28.833 14.5 40.5s23.5 17.5 41.5 17.5c20.667 0 35.167 -5.33301 43.5 -16s12.5 -24.667 12.5 -42c0 -15.333 -5 -28.666 -15 -39.999s-23.667 -17 -41 -17z" />
    <glyph glyph-name="semicolon" unicode=";" horiz-adv-x="183" 
d="M66 -103c-7.33301 0 -13.999 1.66797 -19.999 5.00098s-10 9.33301 -12 18c11.333 19.333 18.666 34.833 21.999 46.5s5.33301 24.834 6 39.501c-8 4.66699 -13.833 11.167 -17.5 19.5s-5.5 18.166 -5.5 29.499c0 14.667 4.66699 27 14 37s21.333 15 36 15
c18 0 31.667 -4.83301 41 -14.5s14 -24.834 14 -45.501c0 -18 -3.16699 -36 -9.5 -54s-14 -34.167 -23 -48.5s-17.667 -25.833 -26 -34.5s-14.833 -13 -19.5 -13zM91.001 329.001c-20.667 0 -35 5 -43 15s-12 24 -12 42c0 15.333 4.66699 28.833 14 40.5s23 17.5 41 17.5
c20.667 0 35.167 -5.5 43.5 -16.5s12.5 -24.833 12.5 -41.5c0 -16 -4.83301 -29.5 -14.5 -40.5s-23.5 -16.5 -41.5 -16.5z" />
    <glyph glyph-name="less" unicode="&#x3c;" horiz-adv-x="400" 
d="M324 96c-6 0 -15 2.33105 -27 6.99805l-245 108c-8.66699 14.667 -13 30.334 -13 47.001c0 9.33301 2.16699 17.833 6.5 25.5s10.833 13.834 19.5 18.501l264 128c8.66699 -8 15.5 -17 20.5 -27s7.83301 -18.667 8.5 -26c0 -12 -5 -20.333 -15 -25l-198 -97l215 -96
c0 -18 -4 -33 -12 -45s-16 -18 -24 -18z" />
    <glyph glyph-name="equal" unicode="=" horiz-adv-x="418" 
d="M34 339c0 26 0.666992 44.333 2 55s6.33301 16 15 16h333c0 -24.667 -0.666992 -42.667 -2 -54s-6 -17 -14 -17h-334zM34 153c0 26 0.666992 44.333 2 55s6.33301 16 15 16h333c0 -24.667 -0.666992 -42.667 -2 -54s-6 -17 -14 -17h-334z" />
    <glyph glyph-name="greater" unicode="&#x3e;" horiz-adv-x="400" 
d="M74 85c-8.66699 8.66699 -15.333 18.0029 -20 28.0029s-7.33398 18.667 -8.00098 26c0 12 4.66699 20.333 14 25l199 97l-216 96c1.33301 17.333 5.83301 32.166 13.5 44.499s15.5 18.5 23.5 18.5c5.33301 0 14.333 -2.33301 27 -7l244 -108
c9.33301 -14.667 14 -30.334 14 -47.001c0 -9.33301 -2.16699 -17.833 -6.5 -25.5s-11.166 -13.834 -20.499 -18.501z" />
    <glyph glyph-name="question" unicode="?" horiz-adv-x="295" 
d="M93 209l-5 12c-3.33301 8 -6 18.833 -8 32.5s-2.16699 29 -0.5 46s7.16699 34.5 16.5 52.5c10.667 20 21.834 38.167 33.501 54.5l32.5 47c10 15 18.167 30.333 24.5 46s9.5 32.834 9.5 51.501c0 16 -2.16699 29 -6.5 39s-10.333 17.833 -18 23.5s-16.5 9.5 -26.5 11.5
s-20 3 -30 3c-22 0 -40 -3.16699 -54 -9.5s-24 -11.5 -30 -15.5c-3.33301 10 -6.16602 20.333 -8.49902 31s-3.5 21.667 -3.5 33c0 8.66699 6.33301 16 19 22s28.667 11 48 15s38.666 6 57.999 6c20.667 0 39.667 -2.83301 57 -8.5s32.166 -14.334 44.499 -26.001
s21.666 -26.167 27.999 -43.5s9.5 -37.666 9.5 -60.999c0 -30.667 -4 -57.334 -12 -80.001s-18 -43 -30 -61s-24.167 -35 -36.5 -51s-23.166 -32 -32.499 -48c-9.33301 -16.667 -13.5 -33 -12.5 -49s3.16699 -29.833 6.5 -41.5s3.33301 -19.5 0 -23.5
c-2.66699 -3.33301 -8.5 -5.83301 -17.5 -7.5s-18.5 -2.5 -28.5 -2.5s-19 0.666992 -27 2zM130 -6c-20.667 0 -35.167 4.99902 -43.5 14.999s-12.5 24 -12.5 42c0 15.333 4.83301 28.833 14.5 40.5s23.5 17.5 41.5 17.5c20.667 0 35.167 -5.33301 43.5 -16
s12.5 -24.667 12.5 -42c0 -15.333 -4.83301 -28.666 -14.5 -39.999s-23.5 -17 -41.5 -17z" />
    <glyph glyph-name="at" unicode="@" horiz-adv-x="738" 
d="M375 -190c-36.667 0 -71.5059 2.82617 -104.506 8.49316s-63.167 16.834 -90.5 33.501s-50.833 41.667 -70.5 75s-35 77.333 -46 132s-16.5 123 -16.5 205c0 74 8.33301 137.5 25 190.5s40.167 96.333 70.5 130s66.833 58.334 109.5 74.001s90 23.5 142 23.5
c64.667 0 119.334 -10.167 164.001 -30.5s78.334 -54.333 101.001 -102s34 -111.167 34 -190.5c0 -65.333 -3.66699 -119.666 -11 -162.999s-17.166 -78 -29.499 -104s-25.666 -45.5 -39.999 -58.5s-28.5 -21.5 -42.5 -25.5s-26.667 -6 -38 -6
c-23.333 0 -42.333 6.66699 -57 20s-24.667 27 -30 41l12 38c8.66699 -8.66699 19 -15.667 31 -21s23.667 -8 35 -8c8 0 16 2.83301 24 8.5s15.667 15 23 28s14 29.667 20 50s10.667 45.333 14 75s5 64.5 5 104.5c0 67.333 -6.5 120.833 -19.5 160.5
s-35.333 68.167 -67 85.5s-75.167 26 -130.5 26c-56.667 0 -104.667 -10.667 -144 -32s-68.833 -57.833 -88.5 -109.5s-29.5 -123.5 -29.5 -215.5c0 -60 3.33301 -111.167 10 -153.5s16.5 -77.166 29.5 -104.499s29 -48.666 48 -63.999s41.167 -26.166 66.5 -32.499
s53.666 -9.5 84.999 -9.5c34.667 0 65.834 1.83301 93.501 5.5s52.834 8.83398 75.501 15.501s43.667 14 63 22c6 -8.66699 11.167 -18.167 15.5 -28.5s6.5 -20.166 6.5 -29.499c0 -10 -9.83301 -19.833 -29.5 -29.5s-48.167 -17.834 -85.5 -24.501
s-81.666 -10 -132.999 -10zM367.994 61.9932c8.66699 0 16.665 1.66699 23.998 5s13.5 8.66602 18.5 15.999s7.5 18 7.5 32l4 143c-3.33301 0.666992 -8.16602 1.33398 -14.499 2.00098s-13.166 1 -20.499 1c-14 0 -26.5 -3 -37.5 -9s-19.5 -16.833 -25.5 -32.5
s-9.33301 -38.167 -10 -67.5c0 -24 2 -42.5 6 -55.5s10 -22 18 -27s18 -7.5 30 -7.5zM361.992 0.993164c-23.333 0 -44.502 3.33789 -63.502 10.0049s-34.167 21.167 -45.5 43.5s-16.666 55.833 -15.999 100.5c0.666992 43.333 6.83398 76.666 18.501 99.999
s27.167 39.666 46.5 48.999s40 14 62 14c10 0 20.167 -0.666992 30.5 -2s19.833 -4.33301 28.5 -9l0.5 20.5c0.333008 13.667 0.5 27.167 0.5 40.5c1.33301 15.333 -0.5 27.166 -5.5 35.499s-12.167 14.166 -21.5 17.499s-20.333 5 -33 5
c-20.667 0 -38.667 -1.83301 -54 -5.5s-30.666 -9.83398 -45.999 -18.501c-3.33301 7.33301 -5.66602 15.833 -6.99902 25.5s-2 16.5 -2 20.5c0.666992 8 3.66699 14.667 9 20c9.33301 5.33301 24.166 11 44.499 17s47.833 9 82.5 9c36 0 63.667 -8.16699 83 -24.5
s28.333 -46.833 27 -91.5l-5 -201c-0.666992 -24 -1.5 -45 -2.5 -63s-2.16699 -33.333 -3.5 -46c-0.666992 -10 -2.83398 -18.5 -6.50098 -25.5s-6.5 -11.167 -8.5 -12.5c-5.33301 -7.33301 -17.5 -14 -36.5 -20s-44.5 -9 -76.5 -9z" />
    <glyph glyph-name="A" unicode="A" 
d="M56 -2c-5.33301 0 -12.6641 0.333984 -21.9971 1.00098l-29 2l178 688c2 9.33301 12.333 14 31 14c6.66699 0 13.5 -0.333008 20.5 -1s12.833 -1.33398 17.5 -2.00098l179 -685c1.33301 -5.33301 -0.166992 -9.5 -4.5 -12.5s-14.5 -4.5 -30.5 -4.5
c-6 0 -12.833 0.166992 -20.5 0.5s-16.834 0.833008 -27.501 1.5l-94 394c-5.33301 22.667 -10.333 45.667 -15 69s-8.83398 45.833 -12.501 67.5s-6.16699 40.5 -7.5 56.5c-1.33301 -16 -3.83301 -34.833 -7.5 -56.5s-7.83398 -44.167 -12.501 -67.5s-10 -46.333 -16 -69
l-89 -380c-1.33301 -5.33301 -4 -9.33301 -8 -12s-14 -4 -30 -4zM108.002 178.001v74h239v-74h-239z" />
    <glyph glyph-name="B" unicode="B" horiz-adv-x="376" 
d="M43 0v681.001c0 6 1.83301 10.667 5.5 14s10.834 5 21.501 5h99c20 0 40 -2.16699 60 -6.5s38 -12 54 -23s29 -26.5 39 -46.5s15 -46.333 15 -79c0 -36.667 -5 -66.334 -15 -89.001s-22.333 -39.834 -37 -51.501s-29.334 -18.5 -44.001 -20.5
c11.333 -0.666992 23.833 -3.16699 37.5 -7.5s26.667 -11.666 39 -21.999s22.333 -24.833 30 -43.5s11.5 -43 11.5 -73c0 -33.333 -3.16699 -63 -9.5 -89s-15.333 -48.333 -27 -67s-25.5 -34.167 -41.5 -46.5s-33.333 -21.333 -52 -27s-38.667 -8.5 -60 -8.5h-126z
M126 71.001h44.9971c12.667 0 24.5 3 35.5 9s20.833 15.5 29.5 28.5s15.5 29.5 20.5 49.5s7.5 44.333 7.5 73c0 26 -2.16699 46.5 -6.5 61.5s-10.666 26.333 -18.999 34s-18.166 12.5 -29.499 14.5s-23.666 3 -36.999 3h-46v-273zM125.997 414.001h49c14 0 26.5 4 37.5 12
s19.667 20.667 26 38s9.5 39.333 9.5 66c0 27.333 -3.5 48 -10.5 62s-16.167 23.5 -27.5 28.5s-23.333 7.5 -36 7.5h-48v-214z" />
    <glyph glyph-name="C" unicode="C" horiz-adv-x="341" 
d="M196 -10c-19.333 0 -37.334 2.33594 -54.001 7.00293s-31.834 13.334 -45.501 26.001s-25.5 31.167 -35.5 55.5s-17.667 56.333 -23 96s-8 88.5 -8 146.5c0 68.667 3.83301 126.167 11.5 172.5s18.167 83.666 31.5 111.999s28.5 50.166 45.5 65.499
s34.833 25.666 53.5 30.999s37 8 55 8c24.667 0 43.834 -2.83301 57.501 -8.5s23.167 -12.667 28.5 -21s8 -16.833 8 -25.5c0 -9.33301 -1.33301 -18.333 -4 -27s-5.66699 -16 -9 -22c-3.33301 2.66699 -8.16602 5.83398 -14.499 9.50098s-13.833 7 -22.5 10
s-18 4.5 -28 4.5c-12.667 0 -25.167 -2.16699 -37.5 -6.5s-24 -12.666 -35 -24.999s-20.5 -29.833 -28.5 -52.5s-14.5 -52 -19.5 -88s-7.5 -80.333 -7.5 -133c0 -50.667 2.5 -92 7.5 -124s11.833 -56.833 20.5 -74.5s19.167 -29.834 31.5 -36.501s25.833 -10 40.5 -10
c19.333 0 37.333 3.33301 54 10s29.334 13.667 38.001 21c3.33301 -6.66699 6.33301 -14.334 9 -23.001s4 -17.334 4 -26.001c0 -12.667 -5.16699 -24.5 -15.5 -35.5s-24.833 -19.833 -43.5 -26.5s-40.334 -10 -65.001 -10z" />
    <glyph glyph-name="D" unicode="D" horiz-adv-x="387" 
d="M44 0l-0.00195312 681.002c0 6 1.83301 10.667 5.5 14s10.834 5 21.501 5h97c32.667 0 61.334 -5 86.001 -15s45 -26.833 61 -50.5s28.167 -55.834 36.5 -96.501s12.5 -91.334 12.5 -152.001c0 -73.333 -4.33301 -134.833 -13 -184.5s-21.5 -89.167 -38.5 -118.5
s-37.5 -50.5 -61.5 -63.5s-51.333 -19.5 -82 -19.5h-125zM124.998 77.002h44.999c13.333 0 26 3.66699 38 11s22.833 21.833 32.5 43.5s17.334 53.5 23.001 95.5s8.5 97.667 8.5 167c0 46 -2.16699 84 -6.5 114s-10.666 53.667 -18.999 71s-18.833 29.333 -31.5 36
s-27.334 10 -44.001 10h-46v-548z" />
    <glyph glyph-name="E" unicode="E" horiz-adv-x="320" 
d="M44 0v684l2.5 8c1.66699 5.33301 6.5 8 14.5 8h240c0 -22 -0.333008 -38 -1 -48s-2 -16.667 -4 -20s-5.33301 -5 -10 -5h-161v-554h172c0 -22.667 -0.333008 -39.167 -1 -49.5s-2 -16.833 -4 -19.5s-5.66699 -4 -11 -4h-237zM55 344l-0.000976562 74h221
c0 -30.667 -0.666992 -50.667 -2 -60s-5.66602 -14 -12.999 -14h-206z" />
    <glyph glyph-name="F" unicode="F" horiz-adv-x="312" 
d="M44 0l0.000976562 684.001l2.5 8c1.66699 5.33301 6.5 8 14.5 8h240c0 -22 -0.333008 -37.833 -1 -47.5s-2 -15.834 -4 -18.501s-5.33301 -4 -10 -4h-161v-614l-1 -8c-0.666992 -5.33301 -5.33398 -8 -14.001 -8h-66zM55.001 344.001l-0.000976562 74h221
c0 -30.667 -0.666992 -50.667 -2 -60s-5.66602 -14 -12.999 -14h-206z" />
    <glyph glyph-name="G" unicode="G" horiz-adv-x="385" 
d="M218 -10c-33.333 0 -62 5 -86 15s-43.5 27.333 -58.5 52s-26 59.5 -33 104.5s-10.5 102.5 -10.5 172.5c0 78.667 5 142.5 15 191.5s24.333 87 43 114s41.167 45.5 67.5 55.5s56.166 15 89.499 15c32.667 0 58.5 -5.16699 77.5 -15.5s28.5 -22.166 28.5 -35.499
c0 -9.33301 -1 -18.5 -3 -27.5s-4.33301 -17.5 -7 -25.5c-8.66699 7.33301 -20 13.166 -34 17.499s-29.333 6.5 -46 6.5c-25.333 0 -47.166 -4.66699 -65.499 -14s-33.333 -25 -45 -47s-20.167 -51.667 -25.5 -89s-8 -84 -8 -140c0 -59.333 2.16699 -107 6.5 -143
s11 -63.167 20 -81.5s20 -30.5 33 -36.5s27.5 -9 43.5 -9c12 0 22 1.33301 30 4s14.5 6 19.5 10s8.16699 7.33301 9.5 10v249h-74v51c0 11.333 6.33301 17 19 17h131v-376c-8 -6.66699 -18.167 -13.5 -30.5 -20.5s-27.333 -12.833 -45 -17.5s-38.167 -7 -61.5 -7z" />
    <glyph glyph-name="H" unicode="H" horiz-adv-x="409" 
d="M284 0l-0.000976562 684c0 5.33301 1.16699 9 3.5 11s9 3.33301 20 4s30.167 1 57.5 1v-684c0 -5.33301 -1 -9 -3 -11s-8.66699 -3.33301 -20 -4s-30.666 -1 -57.999 -1zM43.999 0v684c0 5.33301 1 9 3 11s8.66699 3.33301 20 4s30.666 1 57.999 1v-684
c0 -5.33301 -1 -9 -3 -11s-8.66699 -3.33301 -20 -4s-30.666 -1 -57.999 -1zM83.999 339v76h237v-76h-237z" />
    <glyph glyph-name="I" unicode="I" horiz-adv-x="169" 
d="M43 0l-0.00195312 663c0 12.667 1.33301 21.5 4 26.5s9.83398 8 21.501 9s30.834 1.5 57.501 1.5v-684c0 -5.33301 -1.33301 -9 -4 -11s-9.5 -3.33301 -20.5 -4s-30.5 -1 -58.5 -1z" />
    <glyph glyph-name="J" unicode="J" horiz-adv-x="300" 
d="M119 -9c-26.667 0 -47.666 2.83203 -62.999 8.49902s-26.166 13 -32.499 22s-9.5 18.5 -9.5 28.5c0 10.667 1.5 19.834 4.5 27.501s5.5 13.834 7.5 18.501c9.33301 -8 21.333 -15.5 36 -22.5s30.334 -10.5 47.001 -10.5c19.333 0 33.666 4.66699 42.999 14
s15.333 22.833 18 40.5s4 39.5 4 65.5v480c0 12.667 1.16699 21.5 3.5 26.5s9.16602 8 20.499 9s30.666 1.5 57.999 1.5v-535c0 -24.667 -2 -47.667 -6 -69s-11 -39.833 -21 -55.5s-23.833 -27.834 -41.5 -36.501s-40.5 -13 -68.5 -13z" />
    <glyph glyph-name="K" unicode="K" horiz-adv-x="389" 
d="M334 -2c-9.33301 0 -18.666 0.333008 -27.999 1l-29 2c-6.66699 38.667 -13.834 74.167 -21.501 106.5s-15.667 61.5 -24 87.5s-18 49.167 -29 69.5s-23.5 38.166 -37.5 53.499c-8.66699 8.66699 -18.167 15.667 -28.5 21s-20.5 9.33301 -30.5 12v14l177 330
c9.33301 2.66699 18.666 4.33398 27.999 5.00098s17.333 1 24 1c30 0 41 -8 33 -24l-161 -279c40 -30 73.333 -76.833 100 -140.5s46.667 -143.5 60 -239.5c0.666992 -7.33301 -1.16602 -12.5 -5.49902 -15.5s-13.5 -4.5 -27.5 -4.5zM42 0l0.00195312 684
c0 5.33301 1.16699 9 3.5 11s9.16602 3.33301 20.499 4s30.666 1 57.999 1v-684c0 -5.33301 -1 -9 -3 -11s-8.83301 -3.33301 -20.5 -4s-31.167 -1 -58.5 -1z" />
    <glyph glyph-name="L" unicode="L" horiz-adv-x="314" 
d="M43 0v677.001c0 7.33301 1.33301 12.666 4 15.999s9.66699 5.33301 21 6s30.333 1 57 1v-624h172v-60c0 -6.66699 -1.5 -11 -4.5 -13s-6.83301 -3 -11.5 -3h-238z" />
    <glyph glyph-name="M" unicode="M" horiz-adv-x="489" 
d="M220 154l-51.999 160.001c-2 5.33301 -5.16699 16 -9.5 32l-16 56.5l-19 66.5l-17.5 64c-5.33301 20 -9.83301 36.167 -13.5 48.5l-5.5 18.5l32 100l95 -303c3.33301 -10 6.83301 -21.333 10.5 -34s7 -24.834 10 -36.501s5.66699 -21.334 8 -29.001l3.5 -11.5l2.5 11.5
c1.66699 7.66699 4 17.334 7 29.001l9.5 35.5c3.33301 12 6.66602 23 9.99902 33l88 289l36 -88l-5 -18l-13 -47l-17.5 -63l-18.5 -66l-16 -55.5c-4.66699 -15.667 -8 -26.5 -10 -32.5l-53 -152c-2 -5.33301 -5.66699 -8 -11 -8h-35zM43.001 0.000976562
l-0.000976562 683.999c0 7.33301 1.66699 11.833 5 13.5s7.33301 2.5 12 2.5h59l5 -128l-21 -33l1.5 -14c1 -9.33301 2 -21.833 3 -37.5s2.33301 -33.667 4 -54l5 -63c1.66699 -21.667 3 -43.167 4 -64.5s1.5 -40.666 1.5 -57.999l2 -232c0 -5.33301 -1.5 -9 -4.5 -11
s-10.167 -3.33301 -21.5 -4s-29.666 -1 -54.999 -1zM362 0l4 244.001c0 17.333 0.5 36.666 1.5 57.999s2.33301 43.333 4 66s3.16699 44.5 4.5 65.5s2.66602 39.833 3.99902 56.5s2.33301 30 3 40l1 15l-21 19v120c2 4.66699 3.83301 8.5 5.5 11.5s5.16699 4.5 10.5 4.5h47
h16.5h2.5v-684c0 -5.33301 -1.16699 -9 -3.5 -11s-9.16602 -3.33301 -20.499 -4s-31 -1 -59 -1z" />
    <glyph glyph-name="N" unicode="N" horiz-adv-x="444" 
d="M324 0l-115 274.999l-16.5 45.5l-22.5 66.5l-24.5 74.5l-23 69.5l-16.5 51.5l-6 19.5l-46 50l6 48h62l112 -270c4.66699 -11.333 10.5 -27.166 17.5 -47.499l22.5 -67l24 -73l22 -67.5c6.66699 -20.667 12.167 -37.167 16.5 -49.5l6.5 -18.5l49 -59l-8 -48h-60z
M43 -0.000976562v684c0 10.667 5.66699 16 17 16l64 -16l-11 -117c1.33301 -9.33301 2.5 -22.333 3.5 -39s1.83301 -35.167 2.5 -55.5l2 -63.5l2 -63c0.666992 -20 1 -37.667 1 -53v-34v-243c0 -5.33301 -1.16699 -9 -3.5 -11s-9 -3.33301 -20 -4s-30.167 -1 -57.5 -1z
M384 -0.000976562l-63.998 16l9 134c-1.33301 10 -2.33301 23.167 -3 39.5s-1.33398 34.333 -2.00098 54l-2 60.5c-0.666992 20.667 -1.16699 40.5 -1.5 59.5s-0.5 35.833 -0.5 50.5v34v236c0 5.33301 1.16699 9 3.5 11s9.16602 3.33301 20.499 4s30.333 1 57 1v-684
c0 -10.667 -5.66699 -16 -17 -16z" />
    <glyph glyph-name="O" unicode="O" horiz-adv-x="429" 
d="M211 -10c-32.667 0 -60.499 5.5 -83.499 16.5s-41.667 30.167 -56 57.5s-24.833 64.5 -31.5 111.5s-10 106.5 -10 178.5c0 88.667 7 159 21 211s35.167 89.167 63.5 111.5s64.166 33.5 107.499 33.5c32 0 59.333 -5.83301 82 -17.5s41 -31 55 -58s24.167 -63 30.5 -108
s9.5 -101.5 9.5 -169.5c0 -92 -6.5 -164.667 -19.5 -218s-33.333 -91.5 -61 -114.5s-63.5 -34.5 -107.5 -34.5zM214.001 74c24.667 0 43.833 9.16699 57.5 27.5s23.667 48.333 30 90s9.5 96.167 9.5 163.5c0 66.667 -2.66699 119.834 -8 159.501s-14.5 68.167 -27.5 85.5
s-31.5 26 -55.5 26c-23.333 0 -42.333 -9.33301 -57 -28s-25.334 -49.334 -32.001 -92.001s-10 -100 -10 -172c0 -62 2.83301 -112 8.5 -150s15.334 -65.833 29.001 -83.5s32.167 -26.5 55.5 -26.5z" />
    <glyph glyph-name="P" unicode="P" horiz-adv-x="360" 
d="M71 284c-10 0 -15.332 1.66895 -15.999 5.00195s-1 9 -1 17v375c0 2 0.166992 5.66699 0.5 11s4.16602 8 11.499 8h93c42 0 76.667 -6.83301 104 -20.5s47.5 -35 60.5 -64s19.5 -66.833 19.5 -113.5c0 -41.333 -4.83301 -75.833 -14.5 -103.5s-23 -49.834 -40 -66.501
s-36.5 -28.834 -58.5 -36.501s-45.333 -11.5 -70 -11.5h-89zM43.001 0.00195312v684c0 5.33301 1.16699 9.33301 3.5 12s6.83301 4 13.5 4h48c8 0 12.667 -2.66699 14 -8l2 -8v-668c0 -5.33301 -1.16699 -9 -3.5 -11s-9 -3.33301 -20 -4s-30.167 -1 -57.5 -1z
M122.001 359.002h46.001c18.667 0 34.167 5 46.5 15s21.833 26.167 28.5 48.5s10 52.166 10 89.499c0 23.333 -2.33301 43.833 -7 61.5s-12.834 31.334 -24.501 41.001s-27.5 14.5 -47.5 14.5h-52v-270z" />
    <glyph glyph-name="Q" unicode="Q" horiz-adv-x="429" 
d="M320 -137c-35.333 0 -63.5 11 -84.5 33s-37.167 58 -48.5 108l92 19c4.66699 -34 11 -58 19 -72s20.667 -21 38 -21c10 0 20.5 1.33301 31.5 4s21.167 7 30.5 13c4 -6 7 -13.333 9 -22s3 -16 3 -22c0 -10 -5.16699 -18 -15.5 -24s-22.5 -10.167 -36.5 -12.5
s-26.667 -3.5 -38 -3.5zM211 -10c-32.667 0 -60.499 5.5 -83.499 16.5s-41.667 30.167 -56 57.5s-24.833 64.5 -31.5 111.5s-10 106.5 -10 178.5c0 88.667 7 159 21 211s35.167 89.167 63.5 111.5s64.166 33.5 107.499 33.5c32 0 59.333 -5.83301 82 -17.5s41 -31 55 -58
s24.167 -63 30.5 -108s9.5 -101.5 9.5 -169.5c0 -92 -6.5 -164.667 -19.5 -218s-33.333 -91.5 -61 -114.5s-63.5 -34.5 -107.5 -34.5zM214.001 74c24.667 0 43.833 9.16699 57.5 27.5s23.667 48.333 30 90s9.5 96.167 9.5 163.5c0 66.667 -2.66699 119.834 -8 159.501
s-14.5 68.167 -27.5 85.5s-31.5 26 -55.5 26c-23.333 0 -42.333 -9.33301 -57 -28s-25.334 -49.334 -32.001 -92.001s-10 -100 -10 -172c0 -62 2.83301 -112 8.5 -150s15.334 -65.833 29.001 -83.5s32.167 -26.5 55.5 -26.5z" />
    <glyph glyph-name="R" unicode="R" horiz-adv-x="372" 
d="M71 284c-10 0 -15.332 1.66895 -15.999 5.00195s-1 9 -1 17v375c0 2 0.166992 5.66699 0.5 11s4.16602 8 11.499 8h93c42 0 76.667 -6.83301 104 -20.5s47.5 -35 60.5 -64s19.5 -66.833 19.5 -113.5c0 -41.333 -4.83301 -75.833 -14.5 -103.5s-23 -49.834 -40 -66.501
s-36.5 -28.834 -58.5 -36.501s-45.333 -11.5 -70 -11.5h-89zM43.001 0.00195312l-0.000976562 684l2.5 8c1.66699 5.33301 6.5 8 14.5 8h48c8 0 12.667 -2.66699 14 -8l2 -8v-668c0 -5.33301 -1.16699 -9 -3.5 -11s-9.16602 -3.33301 -20.499 -4s-30.333 -1 -57 -1z
M309 -1.99805c-6 0 -13.1709 0.166992 -21.5039 0.5s-17.166 0.833008 -26.499 1.5c-3.33301 57.333 -10.166 105.5 -20.499 144.5s-21.333 70 -33 93s-21.834 39.5 -30.501 49.5l-13 15l-2 6c-1.33301 4 1.33398 8 8.00098 12l44 24c8 0 13.667 -3 17 -9l16 -18
c10.667 -12 23.334 -30.833 38.001 -56.5s28.334 -58.5 41.001 -98.5s20.667 -88 24 -144c0 -7.33301 -2 -12.5 -6 -15.5s-15.667 -4.5 -35 -4.5zM121.996 359.002l46.001 -0.00195312c18.667 0 34.167 4.83301 46.5 14.5s21.833 25.334 28.5 47.001s10 50.167 10 85.5
c0 25.333 -2.33301 47.333 -7 66s-12.834 32.834 -24.501 42.501s-27.5 14.5 -47.5 14.5h-52v-270z" />
    <glyph glyph-name="S" unicode="S" horiz-adv-x="358" 
d="M157 -10c-46 0 -79.4971 6.49707 -100.497 19.4971s-31.5 26.5 -31.5 40.5c0 8 1.66699 17.5 5 28.5s8.66602 20.833 15.999 29.5c10.667 -10 24.5 -18.333 41.5 -25s37.5 -10 61.5 -10c35.333 0 60.5 9.33301 75.5 28s22.5 43.334 22.5 74.001
c0 22.667 -4.16699 43.667 -12.5 63s-23.5 41.666 -45.5 66.999l-100 117c-22.667 28 -38.834 53.167 -48.501 75.5s-14.5 45.5 -14.5 69.5c0 42 14.833 76.333 44.5 103s72.167 40 127.5 40c47.333 0 81 -4.83301 101 -14.5s30 -21.5 30 -35.5
c0 -6.66699 -1.66699 -14.167 -5 -22.5s-8.33301 -16.166 -15 -23.499c-6.66699 4.66699 -18.834 9.83398 -36.501 15.501s-38.167 8.5 -61.5 8.5c-30 0 -53.833 -6 -71.5 -18s-26.5 -29 -26.5 -51c0 -18 4.16699 -34.5 12.5 -49.5s19.833 -31.5 34.5 -49.5l108 -123
c26 -30.667 43.667 -58.667 53 -84s14 -53.666 14 -84.999c0 -33.333 -5.5 -64.333 -16.5 -93s-29.333 -51.667 -55 -69s-61.167 -26 -106.5 -26z" />
    <glyph glyph-name="T" unicode="T" horiz-adv-x="373" 
d="M144 0l-0.000976562 688l2 1.5c1.33301 1 6 1.5 14 1.5h48c8.66699 0 13.667 -0.5 15 -1.5l2 -1.5v-672c0 -5.33301 -1.16699 -9 -3.5 -11s-9.16602 -3.33301 -20.499 -4s-30.333 -1 -57 -1zM7.99902 624v60c0 10.667 5.66699 16 17 16h340v-60
c0 -6 -1.33301 -10.167 -4 -12.5s-7 -3.5 -13 -3.5h-340z" />
    <glyph glyph-name="U" unicode="U" 
d="M223 -10c-40 0 -72.001 5.66699 -96.001 17s-42 26.833 -54 46.5s-20 42.5 -24 68.5s-6 53.333 -6 82v479c0 6 1.33301 10 4 12s9.66699 3.33301 21 4s31 1 59 1v-498c0 -20 1 -38.5 3 -55.5s6.5 -31.5 13.5 -43.5s16.833 -21.333 29.5 -28s29.334 -10 50.001 -10
c18 0 35 1.83301 51 5.5s28.333 7.5 37 11.5v601c0 6 1.33301 10 4 12s9.66699 3.33301 21 4s30.333 1 57 1v-674c-12 -8 -33.333 -16 -64 -24s-66 -12 -106 -12z" />
    <glyph glyph-name="V" unicode="V" horiz-adv-x="420" 
d="M194 -7c-12.667 0 -22.832 5.5 -30.499 16.5s-13.5 24.833 -17.5 41.5l-24 102.5l-29.5 132l-31 139.5l-27.5 126l-19.5 91l-7.5 34c-2 8.66699 -2.33301 14.834 -1 18.501s7.66602 5.5 18.999 5.5h66l83 -387c6 -29.333 11.333 -58.833 16 -88.5l13 -84l11 -71.5
c2.66699 21.333 5.83398 45.166 9.50098 71.499s7.83398 54.333 12.501 84l14 88.5l75 363c1.33301 8 3.16602 14 5.49902 18s7.5 6 15.5 6h70l-154 -703c-10.667 -1.33301 -20.834 -2.33301 -30.501 -3s-22.167 -1 -37.5 -1z" />
    <glyph glyph-name="W" unicode="W" horiz-adv-x="654" 
d="M451 -8c-12 0 -21.334 5.16699 -28.001 15.5s-12 24.166 -16 41.499l-51 225c-2.66699 16 -5.83398 36.333 -9.50098 61s-7.16699 50.334 -10.5 77.001l-9 75l-6.5 57l-2.5 22l-24 77c-2 8.66699 -1.66699 14.667 1 18s8 5 16 5h54l70 -353c6 -30 10.833 -58 14.5 -84
s6.66699 -50.5 9 -73.5l6.5 -66.5h6c2 31.333 5.16699 67 9.5 107s9.5 79 15.5 117l64 363c1.33301 8 3.33301 14 6 18s7.66699 6 15 6h69l-131 -703c-9.33301 -0.666992 -17.166 -1.5 -23.499 -2.5s-12.666 -1.66699 -18.999 -2s-14.833 -0.5 -25.5 -0.5zM166.999 -7
c-10 0 -18.5 5.83105 -25.5 17.498s-12.167 26.5 -15.5 44.5l-20.5 103l-26 131l-26 138.5l-23.5 125c-7.33301 37.667 -13 67.667 -17 90l-6 33.5c-2 8.66699 -2 14.834 0 18.501s7.66699 5.5 17 5.5h67l72 -387c5.33301 -30 9.83301 -58.167 13.5 -84.5
s6.83398 -51 9.50098 -74s5 -45.167 7 -66.5h6c2 40 5.16699 78.5 9.5 115.5s9.83301 73.5 16.5 109.5l61 329c1.33301 8.66699 3.16602 14.834 5.49902 18.501s7.5 5.5 15.5 5.5h35c10.667 0 16.5 -2 17.5 -6s0.833008 -9.66699 -0.5 -17l-27 -78l-2.5 -22l-6.5 -56.5
l-8.5 -74c-3 -26.333 -6.16699 -51.833 -9.5 -76.5s-6.33301 -45 -9 -61l-55 -278c-12 -1.33301 -23.167 -2.33301 -33.5 -3s-23.833 -1 -40.5 -1z" />
    <glyph glyph-name="X" unicode="X" horiz-adv-x="424" 
d="M9 0l161 382.001l44 29l7.5 26.5c5 17.667 12 40.167 21 67.5s18.5 54.666 28.5 81.999l38 100c2 4 4.16699 7 6.5 9s9.5 3.16699 21.5 3.5s32 0.5 60 0.5l-146 -375l-33 -10l-9.5 -27.5l-24 -69c-9.66699 -27.667 -20.5 -55.5 -32.5 -83.5l-55 -125
c-4 -6.66699 -10 -10 -18 -10h-70zM315 0.000976562l-55.002 135l-30.5 83.5l-24 69l-9.5 27.5l-27 28l-133 343c-2 4.66699 -1.5 8 1.5 10s11.5 3.16699 25.5 3.5s36.667 0.5 68 0.5l41 -113c10.667 -28 20.167 -55.5 28.5 -82.5l20.5 -67l8 -26.5l28 -17l154 -380
c2.66699 -4 3.33398 -7.33301 2.00098 -10s-4.66602 -4 -9.99902 -4h-88z" />
    <glyph glyph-name="Y" unicode="Y" horiz-adv-x="364" 
d="M207 234l-45.998 0.999023l-155 452c-1.33301 4.66699 -0.833008 7.83398 1.5 9.50098s10.166 2.66699 23.499 3s35.666 0.5 66.999 0.5l40 -137l15.5 -55.5c5.66699 -21 11 -41.833 16 -62.5s9 -39.167 12 -55.5s4.83301 -28.166 5.5 -35.499
c0.666992 7.33301 2.66699 19.166 6 35.499s7.5 34.833 12.5 55.5s10.333 41.5 16 62.5l15.5 55.5l35 122c1.33301 5.33301 3.5 9 6.5 11s10.5 3.16699 22.5 3.5s31.667 0.5 59 0.5zM144.002 -0.000976562v342h81v-326c0 -5.33301 -1.16699 -9 -3.5 -11s-9 -3.33301 -20 -4
s-30.167 -1 -57.5 -1z" />
    <glyph glyph-name="Z" unicode="Z" horiz-adv-x="385" 
d="M32 0c-3.33301 3.33301 -6.33301 7.66602 -9 12.999s-4 11.666 -4 18.999c0 6 0.666992 11.833 2 17.5s3.33301 11.834 6 18.501l239 559h-186c-8.66699 0 -17 -0.166992 -25 -0.5s-14.333 -1.16602 -19 -2.49902v59c0 11.333 5.66699 17 17 17h299
c2.66699 -3.33301 4.66699 -7 6 -11s2 -9.33301 2 -16c0 -11.333 -2.66699 -23.333 -8 -36l-243 -564h193c11.333 0 22 0.5 32 1.5s19 2.83301 27 5.5v-64c0 -4.66699 -1.16699 -8.5 -3.5 -11.5s-6.83301 -4.5 -13.5 -4.5h-312z" />
    <glyph glyph-name="bracketleft" unicode="[" horiz-adv-x="385" 
d="M121 -199v995.003c0 7.33301 1 12.666 3 15.999s7.33301 5.66602 16 6.99902s23.334 2 44.001 2h192c0 -22 -0.333008 -38.333 -1 -49s-2.83398 -17.667 -6.50098 -21s-10.167 -5 -19.5 -5h-146v-869h172c0 -24.667 -0.5 -42.334 -1.5 -53.001s-3.5 -17.167 -7.5 -19.5
s-10 -3.5 -18 -3.5h-227z" />
    <glyph glyph-name="backslash" unicode="\" horiz-adv-x="329" 
d="M237 -30l-225.001 773c-2 6.66699 -1.83301 11.5 0.5 14.5s9.33301 5 21 6s30.834 1.5 57.501 1.5l227 -775c2 -6 1.66699 -10.5 -1 -13.5s-10 -4.83301 -22 -5.5s-31.333 -1 -58 -1z" />
    <glyph glyph-name="bracketright" unicode="]" horiz-adv-x="385" 
d="M9 -200c0 22 0.5 38.3359 1.5 49.0029s3.5 17.667 7.5 21s10 5 18 5h146v871h-172c0 25.333 0.666992 43.166 2 53.499s4 16.666 8 18.999s9.66699 3.5 17 3.5h227v-997c0 -6.66699 -1 -11.834 -3 -15.501s-7.33301 -6.16699 -16 -7.5s-23 -2 -43 -2h-193z" />
    <glyph glyph-name="asciicircum" unicode="^" horiz-adv-x="430" 
d="M85 208c-11.333 0 -20.168 4.33105 -26.501 12.998s-9.83301 18 -10.5 28l173 149l145 -128c5.33301 -4 9 -8.16699 11 -12.5s3 -8.83301 3 -13.5c0 -9.33301 -3.66699 -17.666 -11 -24.999s-16.666 -11.666 -27.999 -12.999l-129 87l-102 -75c-6 -4 -11 -6.66699 -15 -8
s-7.33301 -2 -10 -2z" />
    <glyph glyph-name="underscore" unicode="_" horiz-adv-x="377" 
d="M14 -109c0 25.333 0.666992 43.5 2 54.5s6 16.5 14 16.5h334c0 -24.667 -0.666992 -42.667 -2 -54s-6.33301 -17 -15 -17h-333z" />
    <glyph glyph-name="grave" unicode="`" horiz-adv-x="269" 
d="M189 553c-8 4.66699 -19.1641 11.668 -33.4971 21.001s-28.833 19.333 -43.5 30s-27.834 20.667 -39.501 30s-19.5 16.333 -23.5 21c2 12 6.33301 25.167 13 39.5s15 21.5 25 21.5c2 0 7.66699 -3.66699 17 -11l35 -28.5c14 -11.667 28.167 -24.334 42.5 -38.001
s27.166 -27.167 38.499 -40.5l-3.5 -11c-2.33301 -7.33301 -5.83301 -14.833 -10.5 -22.5s-10.334 -11.5 -17.001 -11.5z" />
    <glyph glyph-name="a" unicode="a" horiz-adv-x="354" 
d="M172 -10c-18.667 0 -36.501 1.49902 -53.501 4.49902s-32.167 9.66699 -45.5 20s-24 25.5 -32 45.5s-12 47.333 -12 82s3.66699 62.834 11 84.501s17.333 38.334 30 50.001s27 19.5 43 23.5s32.333 6 49 6c10.667 0 23.167 -1 37.5 -3s26.5 -5.33301 36.5 -10v14v32.5
v32.5c0 16 -2.5 28.167 -7.5 36.5s-12 14.333 -21 18s-20.167 5.5 -33.5 5.5c-26 0 -51 -2.33301 -75 -7s-43.333 -10 -58 -16c-4.66699 8 -7.66699 16.167 -9 24.5s-2 15.833 -2 22.5c0 4.66699 0.833008 9.66699 2.5 15s4.5 9.33301 8.5 12
c8.66699 5.33301 26.667 11.166 54 17.499s60 9.5 98 9.5c43.333 0 74.833 -9 94.5 -27s29.5 -49.667 29.5 -95v-53c0 -38 -0.166992 -76.167 -0.5 -114.5s-0.833008 -74.333 -1.5 -108s-2 -63.167 -4 -88.5c-13.333 -8 -31.666 -15.667 -54.999 -23s-51.333 -11 -84 -11z
M179.999 57.999c10.667 0 21.002 1.66504 31.002 4.99805s17 7.33301 21 12c1.33301 10.667 2.16602 25.334 2.49902 44.001s0.666016 38.334 0.999023 59.001s0.5 40 0.5 58c-6.66699 3.33301 -14.5 5.66602 -23.5 6.99902s-16.833 2 -23.5 2
c-10.667 0 -20.5 -1.16699 -29.5 -3.5s-16.833 -7 -23.5 -14s-12 -17.167 -16 -30.5s-6 -31 -6 -53c0 -18 1.5 -32.667 4.5 -44s7.5 -20.166 13.5 -26.499s13 -10.5 21 -12.5s17 -3 27 -3z" />
    <glyph glyph-name="b" unicode="b" horiz-adv-x="385" 
d="M164 -10c-26.667 0 -49.8311 2.66699 -69.498 8s-35.5 12.666 -47.5 21.999v677c0 12.667 2.16699 21.667 6.5 27s12.333 8.5 24 9.5s28.5 1.5 50.5 1.5v-260c14 10.667 29.5 19.167 46.5 25.5s37.167 9.5 60.5 9.5c26.667 0 49 -6.33301 67 -19
s31.667 -33.334 41 -62.001s14 -67.334 14 -116.001c0 -57.333 -3.83301 -105.666 -11.5 -144.999s-18.334 -70.666 -32.001 -93.999s-28.834 -41.166 -45.501 -53.499s-34 -20.5 -52 -24.5s-35.333 -6 -52 -6zM175.003 62c8.66699 0 18.3359 2.66602 29.0029 7.99902
s20.667 16 30 32s17.166 39.5 23.499 70.5s9.5 71.833 9.5 122.5c0 36 -2.66699 64.333 -8 85s-12.833 35.334 -22.5 44.001s-22.5 13 -38.5 13c-12.667 0 -24.834 -2.16699 -36.501 -6.5s-22.834 -11.5 -33.501 -21.5v-334c4.66699 -3.33301 10.667 -6.33301 18 -9
s17 -4 29 -4z" />
    <glyph glyph-name="c" unicode="c" horiz-adv-x="312" 
d="M180 -10c-24.667 0 -46.166 3.16211 -64.499 9.49512s-33.833 18.333 -46.5 36s-22.167 42.834 -28.5 75.501s-9.5 75.334 -9.5 128.001c0 60 5.33301 108 16 144s24.834 63.167 42.501 81.5s37 30.5 58 36.5s41.833 9 62.5 9c23.333 0 43 -4.16699 59 -12.5
s24 -19.166 24 -32.499c0 -5.33301 -0.5 -12 -1.5 -20s-3.16699 -16.333 -6.5 -25c-8 4.66699 -18.333 8.83398 -31 12.501s-26 5.5 -40 5.5c-11.333 0 -22.833 -2.16699 -34.5 -6.5s-22.5 -13.166 -32.5 -26.499s-17.833 -33.333 -23.5 -60s-8.5 -62 -8.5 -106
c0 -35.333 1.83301 -64.5 5.5 -87.5s9.16699 -41 16.5 -54s16.666 -22.167 27.999 -27.5s24.333 -8 39 -8c16 0 31.167 2.5 45.5 7.5s25.833 10.167 34.5 15.5c2.66699 -8.66699 4.5 -16.5 5.5 -23.5s1.5 -13.833 1.5 -20.5c0 -14 -10.333 -26 -31 -36
s-47.334 -15 -80.001 -15z" />
    <glyph glyph-name="d" unicode="d" horiz-adv-x="381" 
d="M193 -10c-22 0 -42.6689 2.50098 -62.002 7.50098s-36.666 15.667 -51.999 32s-27.166 40.666 -35.499 72.999s-12.5 75.5 -12.5 129.5c0 66 6.83301 119.5 20.5 160.5s32 70.833 55 89.5s48.833 28 77.5 28c15.333 0 29 -1.66699 41 -5s22 -8.33301 30 -15v208
c0 12.667 2.16699 21.5 6.5 26.5s12.5 8 24.5 9s28.667 1.5 50 1.5v-715c-16 -8 -36.167 -15 -60.5 -21s-51.833 -9 -82.5 -9zM195.998 63.001c11.333 0 22.0029 1.16602 32.0029 3.49902s19 6.16602 27 11.499v348c-6 5.33301 -12.5 8.83301 -19.5 10.5
s-15.833 2.5 -26.5 2.5s-21.334 -2.66699 -32.001 -8s-20.334 -15.166 -29.001 -29.499s-15.334 -34.333 -20.001 -60s-7 -59.167 -7 -100.5c0 -38 1.66699 -68.667 5 -92s8.33301 -41.166 15 -53.499s14.5 -20.833 23.5 -25.5s19.5 -7 31.5 -7z" />
    <glyph glyph-name="e" unicode="e" horiz-adv-x="360" 
d="M189 -10c-22.667 0 -43.8359 3.16602 -63.5029 9.49902s-36.667 17.833 -51 34.5s-25.333 40.334 -33 71.001s-11.5 70.334 -11.5 119.001c0 62.667 5 113 15 151s23.333 66.667 40 86s35.667 32.333 57 39s43 10 65 10c42 0 73.667 -13.333 95 -40s32 -67 32 -121
c0 -22 -0.833008 -44.667 -2.5 -68s-4.83398 -44 -9.50098 -62c-22.667 -4.66699 -48 -8 -76 -10s-54.667 -3.5 -80 -4.5s-46.166 -1.5 -62.499 -1.5h-24.5l1 66l19 -0.5c12.667 -0.333008 28.167 -0.333008 46.5 0s37 1.33301 56 3s35.167 4.5 48.5 8.5
c2 9.33301 3.33301 19.333 4 30s1 20.667 1 30c-0.666992 36 -4.83398 61.5 -12.501 76.5s-22.5 22.5 -44.5 22.5c-11.333 0 -22.166 -3.16699 -32.499 -9.5s-19.5 -17.333 -27.5 -33s-14.167 -37.167 -18.5 -64.5s-6.5 -62.333 -6.5 -105
c0 -31.333 1.83301 -57.333 5.5 -78s9.33398 -36.667 17.001 -48s17.334 -19.5 29.001 -24.5s25.834 -7.5 42.501 -7.5c20 0 39.833 2.66699 59.5 8s37.5 13 53.5 23c3.33301 -8 5.5 -17.167 6.5 -27.5s1.5 -19.5 1.5 -27.5c0 -10 -6.33301 -19.333 -19 -28
s-29.5 -15.334 -50.5 -20.001s-44.167 -7 -69.5 -7z" />
    <glyph glyph-name="f" unicode="f" horiz-adv-x="255" 
d="M81 0l-0.00195312 431.004h-69c0 22 0.333008 37.667 1 47s2.5 15.333 5.5 18s7.83301 4 14.5 4h48v61c0 38.667 5.16699 69.667 15.5 93s23.833 41.166 40.5 53.499s34.834 20.666 54.501 24.999s38.834 6.5 57.501 6.5c30.667 0 53.834 -3.66699 69.501 -11
s23.5 -17.333 23.5 -30c0 -6.66699 -0.833008 -14 -2.5 -22s-3.83398 -15.667 -6.50098 -23c-12 5.33301 -24 8.66602 -36 9.99902s-23.667 2 -35 2c-13.333 0 -25.833 -1 -37.5 -3s-22.334 -6.5 -32.001 -13.5s-17.167 -16.833 -22.5 -29.5s-8 -30 -8 -52v-67h90
c0 -21.333 -0.333008 -36.833 -1 -46.5s-2.16699 -15.834 -4.5 -18.501s-6.16602 -4 -11.499 -4h-73v-415c0 -0.666992 -0.833008 -3.5 -2.5 -8.5s-6.16699 -7.5 -13.5 -7.5h-65z" />
    <glyph glyph-name="g" unicode="g" horiz-adv-x="393" 
d="M183 -197c-44.667 0 -78.666 5.66602 -101.999 16.999s-39 25.333 -47 42s-12 33.334 -12 50.001c0 23.333 6.66699 44.833 20 64.5s30.166 37 50.499 52s41.833 25.833 64.5 32.5l30 -24c-12.667 -5.33301 -25.334 -13.666 -38.001 -24.999s-23 -24 -31 -38
s-12 -28.333 -12 -43c0 -10 2.16699 -19.167 6.5 -27.5s12.666 -14.666 24.999 -18.999s29.833 -6.5 52.5 -6.5c36 0 62 8.5 78 25.5s24 34.167 24 51.5c0 15.333 -3.33301 27.166 -10 35.499s-18.167 14.666 -34.5 18.999s-39.166 7.5 -68.499 9.5
c-28 2.66699 -52.667 6.66699 -74 12s-38 12.666 -50 21.999s-18 20.666 -18 33.999c0.666992 10.667 4.33398 21.834 11.001 33.501s16.167 23.667 28.5 36s26.833 24.166 43.5 35.499l50 -17c-4 -2.66699 -9.66699 -7.5 -17 -14.5s-14 -14.667 -20 -23
s-9 -16.166 -9 -23.499c0 -8.66699 11.333 -15 34 -19s50.667 -8 84 -12c26 -4 49 -10.167 69 -18.5s35.5 -20.166 46.5 -35.499s16.5 -36.333 16.5 -63c0 -28.667 -6.66699 -55.5 -20 -80.5s-34 -45 -62 -60s-64.333 -22.5 -109 -22.5zM195.001 153.999
c-40 0 -71.332 7.66797 -93.999 23.001s-38.667 36.166 -48 62.499s-14 55.5 -14 87.5c0 44 7 79.5 21 106.5s33.667 46.5 59 58.5s54.333 18 87 18c7.33301 0 16.5 -1 27.5 -3s21.167 -4.66699 30.5 -8l17 -36c23.333 -9.33301 41.833 -25 55.5 -47s20.5 -51 20.5 -87
c0 -35.333 -5.5 -66 -16.5 -92s-28.333 -46.333 -52 -61s-54.834 -22 -93.501 -22zM199.002 216c18 0 32.498 4.99902 43.498 14.999s19.167 24.833 24.5 44.5s8 43.834 8 72.501c0 36.667 -6 62.834 -18 78.501s-30.333 23.5 -55 23.5c-14 0 -27 -3.83301 -39 -11.5
s-21.333 -20.334 -28 -38.001s-10 -41.5 -10 -71.5c0 -23.333 1.83301 -43.5 5.5 -60.5s10.834 -30 21.501 -39s26.334 -13.5 47.001 -13.5zM355 431.999c-10 0 -22 1.83203 -36 5.49902s-28 7.66699 -42 12s-25.5 8.16602 -34.5 11.499l-13.5 5l-9 36h155
c2 -3.33301 3.83301 -8.16602 5.5 -14.499s2.5 -14.166 2.5 -23.499c0 -11.333 -2.5 -19.5 -7.5 -24.5s-11.833 -7.5 -20.5 -7.5z" />
    <glyph glyph-name="h" unicode="h" horiz-adv-x="380" 
d="M45 0l-0.000976562 698c0 12.667 2.16699 21.5 6.5 26.5s12.333 8 24 9s28.5 1.5 50.5 1.5v-264c15.333 13.333 33.166 23.166 53.499 29.499s39.833 9.5 58.5 9.5c28.667 0 50.5 -5.16699 65.5 -15.5s25.167 -25.166 30.5 -44.499s8 -43.333 8 -72v-362
c0 -5.33301 -1.5 -9 -4.5 -11s-10.333 -3.33301 -22 -4s-30.5 -1 -56.5 -1v356c0 22 -3.5 40.667 -10.5 56s-22.833 23 -47.5 23c-11.333 0 -23.666 -2 -36.999 -6s-26 -11.333 -38 -22v-391c0 -5.33301 -1.16699 -9 -3.5 -11s-9.16602 -3.33301 -20.499 -4
s-30.333 -1 -57 -1z" />
    <glyph glyph-name="i" unicode="i" horiz-adv-x="175" 
d="M46 0l-0.000976562 463c0 12.667 2.33301 21.5 7 26.5s13 8 25 9s29 1.5 51 1.5v-484c0 -5.33301 -1.16699 -9 -3.5 -11s-9.16602 -3.33301 -20.499 -4s-31 -1 -59 -1zM84.999 569c-12.667 0.666992 -22.667 5.5 -30 14.5s-11 25.167 -11 48.5
c0.666992 18 4.66699 32.5 12 43.5s19 16.5 35 16.5c15.333 0 26 -4.33301 32 -13s8.66699 -23.667 8 -45c0 -20 -3.83301 -35.833 -11.5 -47.5s-19.167 -17.5 -34.5 -17.5z" />
    <glyph glyph-name="j" unicode="j" horiz-adv-x="184" 
d="M4 -196c-37.333 0 -64.332 4.83496 -80.999 14.502s-25 22.5 -25 38.5c0 7.33301 0.833008 14.666 2.5 21.999s4.5 14 8.5 20c11.333 -6 24 -10.833 38 -14.5s29.667 -5.5 47 -5.5s30.166 3.33301 38.499 10s14 17.167 17 31.5s4.5 33.166 4.5 56.499v486
c0 12.667 2.16699 21.5 6.5 26.5s12.333 8 24 9s28.5 1.5 50.5 1.5v-536c0 -29.333 -3.5 -56 -10.5 -80s-19.833 -43.333 -38.5 -58s-46 -22 -82 -22zM90.001 569.002c-12.667 0.666992 -22.667 5.5 -30 14.5s-11 25.167 -11 48.5c0.666992 18 4.66699 32.5 12 43.5
s19 16.5 35 16.5c15.333 0 26 -4.33301 32 -13s8.66699 -23.667 8 -45c0 -20 -3.83301 -35.833 -11.5 -47.5s-19.167 -17.5 -34.5 -17.5z" />
    <glyph glyph-name="k" unicode="k" horiz-adv-x="376" 
d="M46 0l-0.000976562 697.998c0 12.667 2.16699 21.5 6.5 26.5s12.5 8 24.5 9s29 1.5 51 1.5v-271c16.667 14 36.334 25.167 59.001 33.5s44.667 12.5 66 12.5c22 0 39.167 -4 51.5 -12s21 -18.5 26 -31.5s7.5 -27.167 7.5 -42.5c0 -21.333 -3 -40.333 -9 -57
s-13.667 -31.5 -23 -44.5s-18.5 -24 -27.5 -33s-16.833 -15.833 -23.5 -20.5c16 -6.66699 31 -17.5 45 -32.5s25.833 -33.833 35.5 -56.5s15.834 -49.334 18.501 -80.001c1.33301 -12 1.83301 -25.167 1.5 -39.5s-1.5 -29.166 -3.5 -44.499
c-0.666992 -5.33301 -2.33398 -9.16602 -5.00098 -11.499s-10.167 -3.66602 -22.5 -3.99902s-33.833 -0.5 -64.5 -0.5c2.66699 24.667 4 47.167 4 67.5s-1.33301 38.833 -4 55.5c-3.33301 20 -8 37 -14 51s-13 25.167 -21 33.5s-16.5 14 -25.5 17s-18.167 3.5 -27.5 1.5
c-6 -1.33301 -12.5 -3.5 -19.5 -6.5s-12.833 -5.83301 -17.5 -8.5l-7 -4v-191c0 -5.33301 -1.16699 -9 -3.5 -11s-9 -3.33301 -20 -4s-30.5 -1 -58.5 -1zM127.999 264.998c23.333 10 44 21.001 62 33.001s32.167 26.167 42.5 42.5s15.5 34.833 15.5 55.5
c0 27.333 -12.333 41 -37 41c-14 0 -28 -3.83301 -42 -11.5s-27.667 -19.834 -41 -36.501v-124z" />
    <glyph glyph-name="l" unicode="l" horiz-adv-x="173" 
d="M46 0v698c0 12.667 2.16699 21.5 6.5 26.5s12.5 8 24.5 9s28.667 1.5 50 1.5v-719c0 -5.33301 -1.16699 -9 -3.5 -11s-9 -3.33301 -20 -4s-30.167 -1 -57.5 -1z" />
    <glyph glyph-name="m" unicode="m" horiz-adv-x="563" 
d="M46 0v476.999c22 10 45.833 18 71.5 24s52.167 9 79.5 9c39.333 0 68 -8.66699 86 -26s29.5 -42 34.5 -74s7.5 -70.333 7.5 -115v-279c0 -5.33301 -1.33301 -9 -4 -11s-9.66699 -3.33301 -21 -4s-30 -1 -56 -1v372c0 16.667 -0.833008 29.834 -2.5 39.501
s-6 16.667 -13 21s-18.167 6.5 -33.5 6.5c-11.333 0 -22.5 -1.33301 -33.5 -4s-22.5 -7 -34.5 -13v-406c0 -5.33301 -1.33301 -9 -4 -11s-9.5 -3.33301 -20.5 -4s-29.833 -1 -56.5 -1zM244 -0.000976562l-0.00292969 436c6 14.667 17.833 27.5 35.5 38.5
s38.334 19.667 62.001 26s46.5 9.5 68.5 9.5c33.333 0 58 -5.5 74 -16.5s26.333 -27 31 -48s7 -46.5 7 -76.5v-353c0 -5.33301 -1.33301 -9 -4 -11s-9.66699 -3.33301 -21 -4s-30 -1 -56 -1v370c0 24 -3.16699 41.333 -9.5 52s-19.5 16 -39.5 16
c-10.667 0 -21.667 -1.33301 -33 -4s-22.666 -7.66699 -33.999 -15v-403c0 -5.33301 -1 -9 -3 -11s-8.66699 -3.33301 -20 -4s-30.666 -1 -57.999 -1z" />
    <glyph glyph-name="n" unicode="n" horiz-adv-x="382" 
d="M45 0l-0.00292969 476.002c13.333 6 29 11.5 47 16.5s36.667 9.16699 56 12.5s38 5 56 5c34.667 0 62.334 -4.5 83.001 -13.5s35.334 -23.167 44.001 -42.5s13 -45.333 13 -78v-360c0 -5.33301 -1.33301 -9 -4 -11s-9.66699 -3.33301 -21 -4s-31 -1 -59 -1v352
c0 31.333 -3.66699 53.666 -11 66.999s-23.333 20 -48 20c-11.333 0 -24 -1.33301 -38 -4s-26.333 -7.33398 -37 -14.001v-405c0 -5.33301 -1.16699 -9 -3.5 -11s-9.16602 -3.33301 -20.499 -4s-30.333 -1 -57 -1z" />
    <glyph glyph-name="o" unicode="o" horiz-adv-x="376" 
d="M184 -10c-25.333 0 -47.833 3.16602 -67.5 9.49902s-36.167 18.5 -49.5 36.5s-23.333 44.167 -30 78.5s-10 79.5 -10 135.5c0 91.333 14.667 157.5 44 198.5s70 61.5 122 61.5c35.333 0 64.5 -7.33301 87.5 -22s40.167 -40.667 51.5 -78s17 -89.666 17 -156.999
c0 -93.333 -14 -160.5 -42 -201.5s-69 -61.5 -123 -61.5zM186 58.999c14.667 0 27.499 5.16699 38.499 15.5s19.833 29.5 26.5 57.5s10 68 10 120c0 53.333 -2.66699 93.5 -8 120.5s-13 45.167 -23 54.5s-23.333 14 -40 14c-14.667 0 -27.667 -5.16699 -39 -15.5
s-20.166 -29.5 -26.499 -57.5s-9.5 -68 -9.5 -120c0 -40.667 1.66699 -73.667 5 -99s7.83301 -44.5 13.5 -57.5s13.167 -21.667 22.5 -26s19.333 -6.5 30 -6.5z" />
    <glyph glyph-name="p" unicode="p" horiz-adv-x="382" 
d="M85 -197c-14 0 -23.998 2.49902 -29.998 7.49902s-9 14.167 -9 27.5v632c20 12.667 42.667 22.5 68 29.5s51.333 10.5 78 10.5c33.333 0 62.166 -5.83301 86.499 -17.5s43.166 -32.667 56.499 -63s20 -72.833 20 -127.5c0 -53.333 -3 -98.5 -9 -135.5
s-14 -67.167 -24 -90.5s-21.5 -41.166 -34.5 -53.499s-26.333 -20.833 -40 -25.5s-27.5 -7 -41.5 -7c-18 0 -33.833 2.66699 -47.5 8s-24.167 12 -31.5 20v-208c-6.66699 -2 -13.667 -3.66699 -21 -5s-14.333 -2 -21 -2zM181.002 62.999c8 0 16.667 2.33301 26 7
s18.5 14.667 27.5 30s16.333 38.333 22 69s8.5 72 8.5 124c0 40 -2.83301 70.5 -8.5 91.5s-14.167 35.333 -25.5 43s-25.666 11.5 -42.999 11.5c-22.667 0 -43 -6.33301 -61 -19v-324c7.33301 -12 15.666 -20.5 24.999 -25.5s19 -7.5 29 -7.5z" />
    <glyph glyph-name="q" unicode="q" horiz-adv-x="387" 
d="M294 -198c-6 0 -11.833 0.334961 -17.5 1.00195l-16.5 2v229c-9.33301 -14 -22 -24.833 -38 -32.5s-35 -11.5 -57 -11.5c-16 0 -31.833 2.83301 -47.5 8.5s-30.167 16.334 -43.5 32.001s-24 38.667 -32 69s-12 69.833 -12 118.5c0 55.333 5.33301 101.666 16 138.999
s25.334 67.166 44.001 89.499s40.5 38.5 65.5 48.5s51.5 15 79.5 15c22.667 0 42.5 -2.5 59.5 -7.5s32.833 -12.833 47.5 -23.5v-642c0 -15.333 -2.83301 -24.833 -8.5 -28.5s-18.834 -5.83398 -39.501 -6.50098zM194 61.002c13.333 0 26.002 4.33203 38.002 12.999
s21.333 21.334 28 38.001v313c-4.66699 4.66699 -10.834 8.16699 -18.501 10.5s-16.834 3.5 -27.501 3.5c-19.333 0 -35.833 -6.83301 -49.5 -20.5s-24.167 -36.5 -31.5 -68.5s-11 -75.333 -11 -130c0 -34 2 -61.333 6 -82s9.5 -36.667 16.5 -48s15 -19 24 -23
s17.5 -6 25.5 -6z" />
    <glyph glyph-name="r" unicode="r" horiz-adv-x="263" 
d="M45 0l-0.00195312 465c19.333 14 40.666 25 63.999 33s47.333 12 72 12c26 0 44.167 -3.5 54.5 -10.5s15.5 -17.5 15.5 -31.5c0 -5.33301 -0.666992 -12.5 -2 -21.5s-3.66602 -17.833 -6.99902 -26.5c-7.33301 4 -15 7 -23 9s-16.333 3 -25 3
c-11.333 0 -22.833 -1.83301 -34.5 -5.5s-22.167 -9.16699 -31.5 -16.5l-1 -394c0 -5.33301 -1.16699 -9 -3.5 -11s-9.16602 -3.33301 -20.499 -4s-30.666 -1 -57.999 -1z" />
    <glyph glyph-name="s" unicode="s" horiz-adv-x="345" 
d="M152 -10c-35.333 0 -64.499 4.16504 -87.499 12.498s-34.5 21.166 -34.5 38.499c0 6 1 13.167 3 21.5s5.66699 16.833 11 25.5c14.667 -8.66699 30.167 -15 46.5 -19s34.166 -6 53.499 -6c25.333 0 45.166 5.16699 59.499 15.5s21.5 25.833 21.5 46.5
c0 13.333 -2.83301 26.333 -8.5 39s-16.167 25.667 -31.5 39l-97 83c-22.667 18.667 -37.834 36.834 -45.501 54.501s-11.5 34.834 -11.5 51.501c0 23.333 5.83301 43.833 17.5 61.5s29.667 31.5 54 41.5s54.833 15 91.5 15c34.667 0 60.834 -3.33301 78.501 -10
s30 -14.167 37 -22.5s10.5 -16.166 10.5 -23.499c0 -14 -6 -27.667 -18 -41c-14.667 9.33301 -30 16 -46 20s-33.333 6 -52 6c-24 0 -43.167 -4.16699 -57.5 -12.5s-21.5 -20.166 -21.5 -35.499c0 -8.66699 2.5 -17.667 7.5 -27s15.833 -21 32.5 -35l93 -75
c22 -20.667 37.333 -40.334 46 -59.001s13 -40.667 13 -66c0 -44 -14.667 -78.167 -44 -102.5s-69.666 -36.5 -120.999 -36.5z" />
    <glyph glyph-name="t" unicode="t" horiz-adv-x="291" 
d="M182 -10c-28 0 -48.834 6.16797 -62.501 18.501s-22.5 29.666 -26.5 51.999s-6 48.5 -6 78.5v291h-68c0 21.333 0.166992 36.833 0.5 46.5s1.83301 16 4.5 19s6.66699 4.5 12 4.5h51v152c0 10 2.16699 16.833 6.5 20.5s12.333 5.83398 24 6.50098s28.5 1 50.5 1v-180h102
c0 -20.667 -0.166992 -36 -0.5 -46s-1.66602 -16.5 -3.99902 -19.5s-6.16602 -4.5 -11.499 -4.5h-86v-291c0 -14 0.5 -27.167 1.5 -39.5s4 -22 9 -29s13.5 -10.5 25.5 -10.5c11.333 0 21.333 1.16699 30 3.5s18 6.16602 28 11.499
c1.33301 -5.33301 2.66602 -11.333 3.99902 -18s2 -14.334 2 -23.001c0 -12 -4.5 -21.167 -13.5 -27.5s-20 -10.666 -33 -12.999s-26.167 -3.5 -39.5 -3.5z" />
    <glyph glyph-name="u" unicode="u" horiz-adv-x="389" 
d="M194 -10c-40 0 -70.6699 6 -92.0029 18s-36.166 30.333 -44.499 55s-12.5 55.667 -12.5 93v328c0 5.33301 1 9 3 11s8.83301 3.33301 20.5 4s31.5 1 59.5 1v-351c0 -21.333 1.83301 -38.5 5.5 -51.5s10.334 -22.333 20.001 -28s23.5 -8.5 41.5 -8.5
c9.33301 0 20.333 1.33301 33 4s24.334 7.33398 35.001 14.001v405c0 5.33301 1.16699 9 3.5 11s9 3.33301 20 4s30.167 1 57.5 1v-474c-19.333 -10.667 -42.333 -19.334 -69 -26.001s-53.667 -10 -81 -10z" />
    <glyph glyph-name="v" unicode="v" horiz-adv-x="344" 
d="M156 -6c-10 0 -17.499 4.66602 -22.499 13.999s-9.5 21 -13.5 35l-102 432c-1.33301 8.66699 -1 14.667 1 18s9.33301 5.33301 22 6s34 1 64 1l32 -160l14.5 -83c5 -29.333 9.33301 -56.833 13 -82.5s6.5 -46.667 8.5 -63l3 -24.5h2l3 24.5l8 63
c3.33301 25.667 7.33301 53.167 12 82.5s9.66699 57 15 83l27 142c1.33301 6 3.16602 10.167 5.49902 12.5s9.33301 3.83301 21 4.5s31.167 1 58.5 1l-115 -503c-7.33301 -1.33301 -17 -2.16602 -29 -2.49902s-21.333 -0.5 -28 -0.5z" />
    <glyph glyph-name="w" unicode="w" horiz-adv-x="540" 
d="M366 -6c-7.33301 0 -15.3379 4.16699 -24.0049 12.5s-15 21.5 -19 39.5l-13 67c-5.33301 25.333 -10.166 51.666 -14.499 78.999s-8.16602 54 -11.499 80s-6.16602 49.5 -8.49902 70.5s-4 37.833 -5 50.5l-1.5 19l-12 46c-0.666992 4.66699 0.5 10.5 3.5 17.5
s7.5 10.5 13.5 10.5h40l39 -210c4.66699 -18.667 8.83398 -38.667 12.501 -60s6.83398 -41.333 9.50098 -60l6.5 -45.5l2.5 -17.5h5c2 20.667 4.5 44.834 7.5 72.501s6.66699 56.5 11 86.5l12.5 85l26 145c0.666992 6 2.5 10.167 5.5 12.5s10 3.83301 21 4.5
s28.833 1 53.5 1l-5.5 -27l-15 -72l-20.5 -99l-22.5 -107.5l-21.5 -98.5l-16 -72c-4 -18 -6.33301 -27 -7 -27l-13.5 -1.5c-9 -1 -21.833 -1.5 -38.5 -1.5zM146.995 -6c-8.66699 0 -15.832 4.66602 -21.499 13.999s-10.167 21 -13.5 35l-17 74.5l-20.5 93l-21 98l-19 88
l-13.5 63l-5 23.5c-0.666992 6 0.5 10 3.5 12s10.833 3.33301 23.5 4s33 1 61 1l30 -163c5.33301 -28 10.166 -56.333 14.499 -85s8 -55 11 -79s5.33301 -43.333 7 -58l2.5 -22h6c1.33301 12 3.5 28.5 6.5 49.5s6.5 43.667 10.5 68l11 67.5l31 191
c1.33301 7.33301 3.66602 12 6.99902 14s10 3 20 3h22c6.66699 0 9.66699 -1.66699 9 -5s-2.5 -7.16602 -5.5 -11.499s-4.83301 -8.16602 -5.5 -11.499l-2 -45l-2 -18.5l-5.5 -51c-2.33301 -21.667 -5.16602 -45.5 -8.49902 -71.5s-7 -52.833 -11 -80.5
s-9 -53.834 -15 -78.501l-22 -116l-12 -0.5c-8 -0.333008 -17.167 -0.833008 -27.5 -1.5s-19.833 -1 -28.5 -1z" />
    <glyph glyph-name="x" unicode="x" horiz-adv-x="410" 
d="M15 0l149.999 275.998l40 29l9.5 21l23.5 51c9.33301 20 18.333 38.333 27 55l31 54c2 4.66699 4.66699 8 8 10s10.833 3.16699 22.5 3.5s31.5 0.5 59.5 0.5l-147 -267l-30 -10l-7 -15.5l-17.5 -40c-7 -16.333 -14.833 -33.666 -23.5 -51.999s-17 -35.166 -25 -50.499
l-29 -49c-2 -5.33301 -5.33301 -9 -10 -11s-13.167 -3.33301 -25.5 -4s-31.166 -1 -56.499 -1zM300.999 -0.00195312l-37.001 66c-8.66699 14.667 -17.167 31 -25.5 49l-24 51.5l-18.5 40l-7 15.5l-18 12l-136 253c-2 4 -2.16699 6.83301 -0.5 8.5
s8.83398 2.83398 21.501 3.50098s34 1 64 1l37 -68l27 -54.5c9.33301 -19.667 17 -36.667 23 -51l9 -21.5l30 -17l145 -269c3.33301 -6 4.16602 -10.333 2.49902 -13s-9.16699 -4.33398 -22.5 -5.00098s-36.666 -1 -69.999 -1z" />
    <glyph glyph-name="y" unicode="y" horiz-adv-x="356" 
d="M77 -193c-29.333 0 -50.168 3.66992 -62.501 11.0029s-18.5 16.666 -18.5 27.999c0 8 1 16.333 3 25s5 15.667 9 21c6.66699 -4.66699 16 -8.5 28 -11.5s23.667 -4.5 35 -4.5c16 0 30.333 7.66699 43 23s22.667 43.666 30 84.999l-120 494
c-2 7.33301 -2.16699 12.5 -0.5 15.5s8.33398 4.83301 20.001 5.5s31.5 1 59.5 1l54 -239c4 -20 7.66699 -40.333 11 -61s6 -39.834 8 -57.501s3.83301 -31.834 5.5 -42.501l2.5 -16l1.5 16c1 10.667 2.66699 24.834 5 42.501l8 58c3 21 6.16699 41.5 9.5 61.5l45 214
c1.33301 8.66699 3.33301 14.5 6 17.5s10 4.83301 22 5.5s31.667 1 59 1l-123 -527c-10 -42 -21.167 -75.167 -33.5 -99.5s-27 -41.5 -44 -51.5s-37.833 -15 -62.5 -15z" />
    <glyph glyph-name="z" unicode="z" horiz-adv-x="335" 
d="M34 0l-6.49707 9.5c-4.33301 6.33301 -6.5 16.5 -6.5 30.5c0 6 0.5 11.333 1.5 16s2.5 9.66699 4.5 15l195 360h-103c-18.667 0 -35.834 -0.333008 -51.501 -1s-28.834 -1.66699 -39.501 -3c-1.33301 8 -2.16602 15.333 -2.49902 22s-0.5 12 -0.5 16
c0 12 2 20.833 6 26.5s10.667 8.5 20 8.5h254l4.5 -6c3 -4 4.5 -10.333 4.5 -19c0 -4 -0.666992 -9.16699 -2 -15.5s-4 -14.5 -8 -24.5l-188 -360h88c28 0 50 1.16699 66 3.5s29 4.83301 39 7.5c1.33301 -4.66699 2.16602 -10.667 2.49902 -18s0.5 -13.333 0.5 -18
c-0.666992 -16.667 -2.83398 -29.167 -6.50098 -37.5s-12.167 -12.5 -25.5 -12.5h-246z" />
    <glyph glyph-name="braceleft" unicode="{" horiz-adv-x="277" 
d="M227 -150c-50 0 -85.499 11.4971 -106.499 34.4971s-31.5 56.5 -31.5 100.5c0 34.667 2.33301 67 7 97s7 63.333 7 100c0 26 -4.66699 44.667 -14 56s-23 18.666 -41 21.999c-2.66699 5.33301 -4.5 11 -5.5 17s-1.5 11.333 -1.5 16c0 19.333 5.66699 33 17 41
c8.66699 5.33301 16.334 11 23.001 17s12 14.667 16 26s6 28 6 50c0 35.333 -2.33301 70 -7 104s-7 65.667 -7 95c0 28 6.66699 50.5 20 67.5s31.666 29.667 54.999 38s50 12.5 80 12.5c5.33301 -7.33301 9.33301 -15.5 12 -24.5s4 -17.5 4 -25.5c0 -17.333 -5 -27 -15 -29
c-16 -0.666992 -29.5 -4.16699 -40.5 -10.5s-19.167 -15.166 -24.5 -26.499s-8 -25.666 -8 -42.999c0 -24.667 1.66699 -52.334 5 -83.001s5 -64 5 -100c0 -32.667 -5 -56.167 -15 -70.5s-23 -24.833 -39 -31.5c17.333 -6.66699 30.666 -16.667 39.999 -30s14 -35 14 -65
c0 -35.333 -1.66699 -68.166 -5 -98.499s-5 -58.5 -5 -84.5c0 -25.333 3 -44.666 9 -57.999s15 -22.666 27 -27.999s27 -9 45 -11c0.666992 -6.66699 1.16699 -12.5 1.5 -17.5s0.5 -9.5 0.5 -13.5c0 -13.333 -2.33301 -24 -7 -32s-11.667 -12 -21 -12z" />
    <glyph glyph-name="bar" unicode="|" horiz-adv-x="324" 
d="M121 -200v993.002c0 7.33301 1.33301 12.5 4 15.5s9.66699 4.83301 21 5.5s30.333 1 57 1v-995c0 -6.66699 -1.33301 -11.334 -4 -14.001s-9.66699 -4.33398 -21 -5.00098s-30.333 -1 -57 -1z" />
    <glyph glyph-name="braceright" unicode="}" horiz-adv-x="277" 
d="M33 -150c-4.66699 7.33301 -8.33496 15.5 -11.002 24.5s-4 17.833 -4 26.5c0 16.667 5 25.667 15 27c15.333 2 28.5 6 39.5 12s19.167 14.667 24.5 26s8 25.666 8 42.999c0 24.667 -1.66699 52.334 -5 83.001s-5 63.667 -5 99c0 33.333 4.83301 57.166 14.5 71.499
s22.5 24.833 38.5 31.5c-16 6.66699 -28.833 16.667 -38.5 30s-14.5 35 -14.5 65c0 36 1.66699 68.833 5 98.5s5 57.834 5 84.501c0 25.333 -3 44.5 -9 57.5s-15 22.333 -27 28s-26.667 9.83398 -44 12.501c-1.33301 6 -2.33301 11.5 -3 16.5s-1 9.5 -1 13.5
c0 13.333 2.66699 24 8 32s12.333 12 21 12c50 0 85.5 -11.5 106.5 -34.5s31.5 -56.5 31.5 -100.5c0 -34 -2.33301 -66 -7 -96s-7 -63.667 -7 -101c0 -26.667 4.66699 -45.5 14 -56.5s23 -18.167 41 -21.5c2.66699 -6 4.5 -11.833 5.5 -17.5s1.5 -10.834 1.5 -15.501
c0 -10 -1.66699 -18.333 -5 -25s-7.66602 -11.667 -12.999 -15c-8 -6 -15.333 -12 -22 -18s-12 -14.667 -16 -26s-6 -28 -6 -50c0 -36 2.33301 -70.833 7 -104.5s7 -65.167 7 -94.5c0 -28 -6.66699 -50.667 -20 -68s-31.666 -30 -54.999 -38s-50 -12 -80 -12z" />
    <glyph glyph-name="asciitilde" unicode="~" horiz-adv-x="400" 
d="M263 212c-17.333 0 -31.833 2.16699 -43.5 6.5s-21.667 9.5 -30 15.5s-16.833 11.167 -25.5 15.5s-19.334 6.5 -32.001 6.5s-24.167 -3 -34.5 -9s-19.666 -12 -27.999 -18s-16.166 -9.66699 -23.499 -11c-8.66699 -0.666992 -16.5 3.33301 -23.5 12
s-10.833 20.667 -11.5 36c6 9.33301 15.167 18.833 27.5 28.5s27.333 17.834 45 24.501s36.5 10 56.5 10c17.333 0 31.166 -2.16699 41.499 -6.5s19.5 -9.33301 27.5 -15s16.667 -10.667 26 -15s21 -6.5 35 -6.5s27.167 3.5 39.5 10.5s22.5 15.167 30.5 24.5
c12.667 8 24 7.16699 34 -2.5s15.667 -23.834 17 -42.501c-6 -8.66699 -15 -18 -27 -28s-26.5 -18.5 -43.5 -25.5s-36.167 -10.5 -57.5 -10.5z" />
    <glyph glyph-name="uni00A0" unicode="&#xa0;" horiz-adv-x="158" 
 />
    <glyph glyph-name="exclamdown" unicode="&#xa1;" horiz-adv-x="195" 
d="M44 -197l17 452.001c0.666992 12 3.5 20.667 8.5 26s13.167 8.66602 24.5 9.99902s27.333 2 48 2l13 -467c0.666992 -6.66699 -1.83301 -11.667 -7.5 -15s-16.5 -5.5 -32.5 -6.5s-39.667 -1.5 -71 -1.5zM102 393.001c-20 0 -34.333 5.33301 -43 16s-13 24.667 -13 42
c0 16 5 29.5 15 40.5s23.667 16.5 41 16.5c20.667 0 35.167 -5 43.5 -15s12.5 -24 12.5 -42c0 -15.333 -4.83301 -28.833 -14.5 -40.5s-23.5 -17.5 -41.5 -17.5z" />
    <glyph glyph-name="cent" unicode="&#xa2;" horiz-adv-x="418" 
d="M248 -10c-25.333 0 -48.1699 1.83203 -68.5029 5.49902s-37.666 13 -51.999 28s-25.333 38.667 -33 71s-11.5 76.833 -11.5 133.5c0 61.333 5.33301 110.5 16 147.5s24.834 65.167 42.501 84.5s37 32.5 58 39.5s41.833 10.5 62.5 10.5c20 0 38.833 -3.83301 56.5 -11.5
s26.5 -15.5 26.5 -23.5c0 -1.33301 -0.166992 -5.5 -0.5 -12.5s-1.16602 -14.667 -2.49902 -23s-3.33301 -15.833 -6 -22.5c-8.66699 4.66699 -18.5 8.66699 -29.5 12s-23.5 5 -37.5 5c-12 0 -24.333 -2 -37 -6s-24.167 -12.833 -34.5 -26.5s-18.5 -34 -24.5 -61
s-9 -63.5 -9 -109.5c0 -38.667 1.83301 -69.167 5.5 -91.5s9.5 -38.833 17.5 -49.5s17.667 -17.5 29 -20.5s25 -4.5 41 -4.5c13.333 0 27.333 2.33301 42 7s26.667 10 36 16c2.66699 -7.33301 4.66699 -16.166 6 -26.499s2 -18.5 2 -24.5c0 -6.66699 -4.5 -13.667 -13.5 -21
s-20.667 -13.5 -35 -18.5s-29.833 -7.5 -46.5 -7.5zM188.996 -133.001v146h74v-114c0 -14 -6.16699 -22.833 -18.5 -26.5s-30.833 -5.5 -55.5 -5.5zM212.996 494.999v96c0 14 6.16699 23.167 18.5 27.5s30.5 6.5 54.5 6.5v-130h-73z" />
    <glyph glyph-name="sterling" unicode="&#xa3;" horiz-adv-x="366" 
d="M89 0c-2.66699 36 -4.83203 72.5 -6.49902 109.5s-3 73.5 -4 109.5s-1.5 70 -1.5 102c0 51.333 3.83301 94.5 11.5 129.5s18.334 63.167 32.001 84.5s30.5 36.666 50.5 45.999s42.333 14 67 14c17.333 0 33.5 -2 48.5 -6s27.333 -9.83301 37 -17.5s14.5 -17.5 14.5 -29.5
c0 -8.66699 -0.833008 -16.667 -2.5 -24s-4.5 -16 -8.5 -26c-10.667 7.33301 -21.667 12.666 -33 15.999s-24 5 -38 5c-14.667 0 -27.834 -2.5 -39.501 -7.5s-21.834 -14 -30.501 -27s-15.5 -31.167 -20.5 -54.5s-7.5 -53.666 -7.5 -90.999
c0 -48.667 0.666992 -93.167 2 -133.5s3.33301 -80.166 6 -119.499l156 -6c2.66699 -6.66699 4.33398 -13.167 5.00098 -19.5s1 -12.166 1 -17.499c0 -8.66699 -2.33301 -15.834 -7 -21.501s-10.834 -9.66699 -18.501 -12s-16.167 -3.5 -25.5 -3.5h-188zM15.002 277
c0 25.333 0.666992 43.5 2 54.5s6 16.5 14 16.5h257c0 -25.333 -0.666992 -43.5 -2 -54.5s-6 -16.5 -14 -16.5h-257z" />
    <glyph glyph-name="currency" unicode="&#xa4;" horiz-adv-x="572" 
d="M286 52c-68 0 -118.167 18.166 -150.5 54.499s-48.5 92.833 -48.5 169.5c0 78.667 16.5 136.5 49.5 173.5s84.5 55.5 154.5 55.5c66.667 0 115.5 -17.667 146.5 -53s46.5 -90.666 46.5 -165.999c0 -80 -16 -139 -48 -177s-82 -57 -150 -57zM62 -2.00098
c-18 18 -30.332 31.5 -36.999 40.5s-7.33398 16.167 -2.00098 21.5l112 111l38 -62zM132.001 376.999l-120 119c17.333 18 30.5 30.5 39.5 37.5s16.167 7.5 21.5 1.5l97 -96zM498.001 9.99902l-96 97.001l40 59l118 -117c-18 -18 -31.333 -30.333 -40 -37
s-16 -7.33398 -22 -2.00098zM288.001 121c40 0 69.832 13.5 89.499 40.5s29.5 69.167 29.5 126.5c0 51.333 -9.33301 89.166 -28 113.499s-46.667 36.5 -84 36.5c-43.333 0 -75.333 -13.667 -96 -41s-31 -69.333 -31 -126c0 -51.333 9.83301 -89.166 29.5 -113.499
s49.834 -36.5 90.501 -36.5zM444 379l-39 63l105 105c18 -18 30.5 -31.333 37.5 -40s7.5 -16 1.5 -22z" />
    <glyph glyph-name="yen" unicode="&#xa5;" horiz-adv-x="418" 
d="M185 235l-155 451.999c-0.666992 4.66699 0 7.83398 2 9.50098s9.83301 2.66699 23.5 3s35.834 0.5 66.501 0.5l39 -137c5.33301 -16 10.666 -33.5 15.999 -52.5l15 -55.5c4.66699 -18 8.66699 -34.333 12 -49s5 -25.667 5 -33c1.33301 7.33301 3.5 18.333 6.5 33
s7 31 12 49l16 55.5l15.5 52.5l37 122c2 5.33301 4.33301 9 7 11s10 3.16699 22 3.5s31.667 0.5 59 0.5l-153 -466zM38 175.999c0 24.667 1.83301 42.167 5.5 52.5s12.5 15.5 26.5 15.5h116v-68h-148zM168 -0.000976562l-0.000976562 342h81v-326c0 -5.33301 -1 -9 -3 -11
s-8.66699 -3.33301 -20 -4s-30.666 -1 -57.999 -1zM37.999 340.999c0 24.667 1.83301 42.167 5.5 52.5s12.5 15.5 26.5 15.5h97v-68h-129zM230.999 175.999v68h148c0 -24.667 -1.83301 -42.167 -5.5 -52.5s-12.5 -15.5 -26.5 -15.5h-116zM241.999 340.999v68h136
c0 -24.667 -1.66699 -42.167 -5 -52.5s-12 -15.5 -26 -15.5h-105z" />
    <glyph glyph-name="brokenbar" unicode="&#xa6;" horiz-adv-x="227" 
d="M112 -198c-4 0 -9.83301 0.332031 -17.5 0.999023s-14.834 2 -21.501 4v385c0 12.667 3 21.334 9 26.001s17 7 33 7c6 0 12.5 -0.5 19.5 -1.5s13.5 -2.5 19.5 -4.5v-388c0 -12 -2.66699 -19.833 -8 -23.5s-16.666 -5.5 -33.999 -5.5zM112 325.999
c-4 0 -9.83301 0.333984 -17.5 1.00098s-14.834 1.66699 -21.501 3v381c0 12 3 20.333 9 25s17 7 33 7c6 0 12.5 -0.333008 19.5 -1s13.5 -2.33398 19.5 -5.00098v-383c0 -11.333 -2.66699 -18.833 -8 -22.5s-16.666 -5.5 -33.999 -5.5z" />
    <glyph glyph-name="section" unicode="&#xa7;" horiz-adv-x="348" 
d="M213 191l-22.0029 72.001c13.333 4.66699 24 12.834 32 24.501s12 21.834 12 30.501c0 13.333 -2.5 24.833 -7.5 34.5s-12.167 20.167 -21.5 31.5c-8.66699 12 -20.334 23.667 -35.001 35l-46.5 36.5c-16.333 13 -30.166 27.167 -41.499 42.5
c-13.333 17.333 -22.833 32.5 -28.5 45.5s-8.5 27.5 -8.5 43.5c0 24.667 6.66699 45.5 20 62.5s31.333 30.167 54 39.5s48.334 14 77.001 14c32.667 0 57.667 -4.83301 75 -14.5s28 -18.834 32 -27.501c2 -5.33301 3 -11 3 -17c0 -8.66699 -1.5 -17.334 -4.5 -26.001
s-6.83301 -16.667 -11.5 -24c-10.667 8 -22.5 13.833 -35.5 17.5s-28.167 5.5 -45.5 5.5c-23.333 0 -41.166 -4.33301 -53.499 -13s-18.5 -19.667 -18.5 -33c0 -10 2.5 -19 7.5 -27s12.5 -17.667 22.5 -29c8 -9.33301 18.5 -20.166 31.5 -32.499l40.5 -39.5
c14 -14 25.667 -27.333 35 -40c12 -14.667 21 -28.834 27 -42.501s9 -29.834 9 -48.501c0 -13.333 -3.16699 -27.833 -9.5 -43.5s-16.666 -30.5 -30.999 -44.5s-33.5 -25 -57.5 -33zM148.997 -3.99902c-32 0 -56.6689 4.8291 -74.002 14.4961s-28 19.167 -32 28.5
c-1.33301 2.66699 -2.16602 5.5 -2.49902 8.5s-0.5 5.5 -0.5 7.5c0 18 5.33301 34.667 16 50c10.667 -7.33301 22.334 -13 35.001 -17s27.667 -6 45 -6c24 0 42 4.5 54 13.5s18 19.833 18 32.5c0 10.667 -2.33301 20 -7 28s-12.334 17.667 -23.001 29
c-8 8.66699 -18.5 19.334 -31.5 32.001l-40 39.5c-13.667 13.667 -25.5 26.834 -35.5 39.501c-11.333 14.667 -20.166 29 -26.499 43s-9.5 30.333 -9.5 49c0 13.333 3.16699 27.833 9.5 43.5s16.5 30.334 30.5 44.001s32.667 24.5 56 32.5l22 -73
c-13.333 -4 -23.666 -11.667 -30.999 -23s-11 -21.333 -11 -30c0 -12.667 2.66699 -24 8 -34s12.666 -21 21.999 -33c8 -11.333 19.5 -22.833 34.5 -34.5l46.5 -36.5c16 -12.667 30 -27 42 -43c13.333 -16.667 22.833 -31.5 28.5 -44.5s8.5 -27.833 8.5 -44.5
c0 -24 -6.66699 -44.667 -20 -62s-31.5 -30.666 -54.5 -39.999s-48.833 -14 -77.5 -14z" />
    <glyph glyph-name="dieresis" unicode="&#xa8;" horiz-adv-x="269" 
d="M73 572c-12.667 0 -22.5 4.33301 -29.5 13s-10.167 24.334 -9.5 47.001c0 17.333 3.5 31.166 10.5 41.499s18.167 15.5 33.5 15.5c14.667 0 25 -4.16699 31 -12.5s8.66699 -22.5 8 -42.5c0 -20 -3.66699 -35.333 -11 -46s-18.333 -16 -33 -16zM192 572
c-12.667 0 -22.499 4.33301 -29.499 13s-10.5 24.334 -10.5 47.001c0.666992 17.333 4.66699 31.166 12 41.499s18.333 15.5 33 15.5c15.333 0 25.666 -4.16699 30.999 -12.5s8 -22.5 8 -42.5s-3.66699 -35.333 -11 -46s-18.333 -16 -33 -16z" />
    <glyph glyph-name="copyright" unicode="&#xa9;" horiz-adv-x="472" 
d="M234 320c-32.667 0 -61.332 3.83398 -85.999 11.501s-45.334 20.167 -62.001 37.5s-29.167 40.166 -37.5 68.499s-12.5 62.833 -12.5 103.5c0 76 18.167 131.5 54.5 166.5s86.833 52.5 151.5 52.5c44 0 80.333 -7 109 -21s50 -36.667 64 -68s21 -74 21 -128
c0 -71.333 -17.333 -126.333 -52 -165s-84.667 -58 -150 -58zM243.002 417.001c-19.333 0 -35.332 2.33203 -47.999 6.99902s-22.167 15.167 -28.5 31.5s-9.5 41.5 -9.5 75.5c0 30.667 2.83301 55.167 8.5 73.5s13.167 32 22.5 41s19.333 15 30 18s21 4.5 31 4.5
s20 -1.83301 30 -5.5s15 -7.16699 15 -10.5c0 -2.66699 -0.666992 -7.66699 -2 -15s-2.66602 -13 -3.99902 -17c-4.66699 2 -9.83398 3.83301 -15.501 5.5s-11.834 2.5 -18.501 2.5c-7.33301 0 -15 -2 -23 -6s-14.5 -12.833 -19.5 -26.5s-7.5 -35.5 -7.5 -65.5
c0 -22.667 1.66699 -39 5 -49s8.16602 -16.5 14.499 -19.5s14.5 -4.5 24.5 -4.5c6.66699 0 13.334 1.16699 20.001 3.5l18 6.5c2 -4 3.66699 -9.33301 5 -16s2 -11 2 -13c0 -5.33301 -5.16699 -10.166 -15.5 -14.499s-21.833 -6.5 -34.5 -6.5zM232.003 379
c26.667 0 50.668 5.33496 72.001 16.002s38.5 28.167 51.5 52.5s19.5 56.5 19.5 96.5c0 38 -5 68.667 -15 92s-24.833 40.666 -44.5 51.999s-44.5 17 -74.5 17c-42.667 0 -77.334 -12 -104.001 -36s-40 -66.667 -40 -128c0 -41.333 5.33301 -73.833 16 -97.5
s26 -40.334 46 -50.001s44.333 -14.5 73 -14.5z" />
    <glyph glyph-name="ordfeminine" unicode="&#xaa;" horiz-adv-x="322" 
d="M154 288c-20 0 -38.6689 2.66797 -56.002 8.00098s-31.166 16.833 -41.499 34.5s-15.5 44.5 -15.5 80.5c0 32 4.66699 57 14 75s22.166 30.5 38.499 37.5s35.166 10.5 56.499 10.5c11.333 0 22.833 -1 34.5 -3s21.5 -4.33301 29.5 -7v57c0 17.333 -3 30 -9 38
s-13.667 13.333 -23 16s-19.333 4 -30 4c-18.667 0 -36.167 -2.33301 -52.5 -7s-30.5 -9.66699 -42.5 -15c-5.33301 6.66699 -8.66602 16.5 -9.99902 29.5s0.333984 22.5 5.00098 28.5c9.33301 10 24 18.333 44 25s46.667 10 80 10c20.667 0 38.834 -3.5 54.501 -10.5
s28.167 -17.833 37.5 -32.5s14 -34.334 14 -59.001v-291c-12.667 -6 -30.667 -12.333 -54 -19s-48 -10 -74 -10zM163.998 346.001c9.33301 0 18.8311 1.33203 28.498 3.99902s16.834 5.33398 21.501 8.00098v110c-6 2 -13.167 3.83301 -21.5 5.5s-15.166 2.5 -20.499 2.5
c-12.667 0 -24 -1.33301 -34 -4s-17.833 -8.66699 -23.5 -18s-8.5 -24.333 -8.5 -45c0 -16.667 2.5 -29.5 7.5 -38.5s12 -15.333 21 -19s18.833 -5.5 29.5 -5.5z" />
    <glyph glyph-name="guillemotleft" unicode="&#xab;" horiz-adv-x="416" 
d="M166 0l-10.5 15.999l-27.5 41.5l-36 55.5l-35.5 58.5c-11 19 -20.167 35.833 -27.5 50.5s-11 24.667 -11 30c0 6 3.5 16.167 10.5 30.5s16 30.833 27 49.5l35 57.5l35 54.5l27.5 40.5l11 15.5c10.667 0 19.5 -3.33301 26.5 -10s12.333 -13.5 16 -20.5l5.5 -10.5
c0 -6.66699 -2.83301 -16.167 -8.5 -28.5s-13 -26.166 -22 -41.499l-28.5 -47l-28.5 -44.5l-22 -33l-8.5 -12.5l8.5 -12l22.5 -32l29.5 -44c10.333 -16 20 -31.667 29 -47s16.333 -29.333 22 -42s8.5 -22 8.5 -28l-5.5 -12c-3.66699 -8 -9 -15.833 -16 -23.5
s-15.833 -11.5 -26.5 -11.5zM337 24.999l-10.5 13.998l-27.5 36.5l-35.5 49l-35.5 52.5c-11.333 17.333 -20.5 32.5 -27.5 45.5s-10.5 22.5 -10.5 28.5c0 5.33301 3.5 14.5 10.5 27.5s16 28 27 45l34.5 52.5l34.5 50l27 37l10.5 14c10 0 18.5 -3.16699 25.5 -9.5
s12.333 -12.666 16 -18.999l5.5 -9.5c0 -7.33301 -3.83301 -18.5 -11.5 -33.5s-17.167 -31.167 -28.5 -48.5l-34 -50.5l-28.5 -40l-11.5 -15.5l12 -15c8 -10 17.667 -22.833 29 -38.5l34.5 -49c11.667 -17 21.334 -32.667 29.001 -47s11.5 -25.166 11.5 -32.499l-5.5 -11.5
c-3.66699 -7.66699 -8.83398 -15 -15.501 -22s-15 -10.5 -25 -10.5z" />
    <glyph glyph-name="logicalnot" unicode="&#xac;" horiz-adv-x="400" 
d="M40 232c-4 12.667 -6 25.332 -6 37.999c0 10.667 2.16699 19.834 6.5 27.501s10.833 11.5 19.5 11.5h298v-77h-318zM321 103.998c-10.667 0 -20 2.33203 -28 6.99902s-12 11.334 -12 20.001v178h77v-198c-12 -4.66699 -24.333 -7 -37 -7z" />
    <glyph glyph-name="uni00AD" unicode="&#xad;" horiz-adv-x="278" 
d="M37 246c0 26 0.666992 44.333 2 55s6.33301 16 15 16h187c0 -24.667 -0.666992 -42.667 -2 -54s-6 -17 -14 -17h-188z" />
    <glyph glyph-name="registered" unicode="&#xae;" horiz-adv-x="472" 
d="M234 320c-32.667 0 -61.332 3.83398 -85.999 11.501s-45.334 20.167 -62.001 37.5s-29.167 40.166 -37.5 68.499s-12.5 62.833 -12.5 103.5c0 76 18.167 131.5 54.5 166.5s86.833 52.5 151.5 52.5c44 0 80.333 -7 109 -21s50 -36.667 64 -68s21 -74 21 -128
c0 -71.333 -17.333 -126.333 -52 -165s-84.667 -58 -150 -58zM176.002 417.001v248l1 2.5c0.666992 1.66699 2.66699 2.5 6 2.5h20c3.33301 0 6 -0.833008 8 -2.5l3 -2.5v-240c0 -4 -2 -6.33301 -6 -7s-14.667 -1 -32 -1zM274.002 417.001
c-2.66699 31.333 -7.5 54.498 -14.5 69.498s-13.667 25 -20 30l-9.5 7.5l-1 2.5c-0.666992 1.66699 0.333008 2.83398 3 3.50098l19 11h6.5c2.33301 0 3.83301 -0.666992 4.5 -2l12 -9.5c8 -6.33301 16.167 -17.666 24.5 -33.999s13.833 -39.5 16.5 -69.5
c0 -3.33301 -0.833008 -5.83301 -2.5 -7.5s-6.16699 -2.5 -13.5 -2.5h-11.5c-5 0 -9.5 0.333008 -13.5 1zM232.002 378.999c26.667 0 50.668 5.33496 72.001 16.002s38.5 28.167 51.5 52.5s19.5 56.5 19.5 96.5c0 38 -5 68.667 -15 92s-24.833 40.666 -44.5 51.999
s-44.5 17 -74.5 17c-42.667 0 -77.334 -12 -104.001 -36s-40 -66.667 -40 -128c0 -41.333 5.33301 -73.833 16 -97.5s26 -40.334 46 -50.001s44.333 -14.5 73 -14.5zM230.003 551.001c12 0 21.332 3.83301 27.999 11.5s10 20.167 10 37.5c0 11.333 -2.66699 20.333 -8 27
s-14.666 10 -27.999 10h-16.5h-5.5v-85h4.5c3 0 6.16699 -0.166992 9.5 -0.5s5.33301 -0.5 6 -0.5zM189.002 517.001c-4.66699 0 -7.16699 0.666992 -7.5 2s-0.5 3.66602 -0.5 6.99902v138c0 0.666992 0.166992 1.83398 0.5 3.50098s1.83301 2.5 4.5 2.5h41
c28 0 48.5 -6.33301 61.5 -19s19.5 -30.667 19.5 -54c0 -26.667 -7.83301 -46.667 -23.5 -60s-34.5 -20 -56.5 -20h-39z" />
    <glyph glyph-name="macron" unicode="&#xaf;" horiz-adv-x="269" 
d="M6 587c-2 6.66699 -3.33496 13.002 -4.00195 19.002s-1 12 -1 18c0 11.333 2.83301 20.833 8.5 28.5s13.834 11.5 24.501 11.5h227c2.66699 -6.66699 4.66699 -12.834 6 -18.501s2 -11.167 2 -16.5c-0.666992 -12.667 -3.66699 -22.834 -9 -30.501
s-12.666 -11.5 -21.999 -11.5h-232z" />
    <glyph glyph-name="degree" unicode="&#xb0;" horiz-adv-x="358" 
d="M177 552c-30 0 -53.166 6.49902 -69.499 19.499s-24.5 38.833 -24.5 77.5c0 34 9 58.667 27 74s42.333 23 73 23c32 0 55.5 -6.66699 70.5 -20s22.5 -38.666 22.5 -75.999c0 -32.667 -8.33301 -57.167 -25 -73.5s-41.334 -24.5 -74.001 -24.5zM178.001 603.999
c13.333 0 24.168 3.5 32.501 10.5s12.5 18.833 12.5 35.5c0 16 -3.33301 27.333 -10 34s-16.334 10 -29.001 10c-14.667 0 -26 -3.5 -34 -10.5s-12 -18.833 -12 -35.5c0 -15.333 3.5 -26.5 10.5 -33.5s16.833 -10.5 29.5 -10.5z" />
    <glyph glyph-name="plusminus" unicode="&#xb1;" horiz-adv-x="419" 
d="M35 289c0 26 0.666992 44.333 2 55s6.33301 16 15 16h333c0 -24.667 -0.666992 -42.667 -2 -54s-6 -17 -14 -17h-334zM175 150v334c0 8 5.5 12.667 16.5 14s29.167 2 54.5 2v-334c0 -8 -5.5 -12.667 -16.5 -14s-29.167 -2 -54.5 -2zM34 14c0 26 0.666992 44.333 2 55
s6.33301 16 15 16h333c0 -24.667 -0.666992 -42.667 -2 -54s-6 -17 -14 -17h-334z" />
    <glyph glyph-name="uni00B2" unicode="&#xb2;" horiz-adv-x="384" 
d="M46 289c-2 5.33301 -3.49707 10.165 -4.49707 14.498s-1.5 8.5 -1.5 12.5c0 8 1 15.667 3 23s5.33301 13.666 10 18.999c20 23.333 40.333 44.833 61 64.5l58 55c18 17 32.333 33.333 43 49s16 31.834 16 48.501c0 10 -1.66699 18.833 -5 26.5s-9.5 14 -18.5 19
s-22.5 7.5 -40.5 7.5c-20.667 0 -39.167 -4 -55.5 -12s-31.5 -16.667 -45.5 -26c-6.66699 11.333 -10.834 20.5 -12.501 27.5s-2.5 14.167 -2.5 21.5c0 12.667 7.83301 24.334 23.5 35.001s35.5 19.334 59.5 26.001s47.667 10 71 10c32.667 0 58 -4.33301 76 -13
s30.667 -21.167 38 -37.5s11 -34.833 11 -55.5c0 -24 -5.83301 -46.667 -17.5 -68s-26.334 -41.833 -44.001 -61.5s-35.834 -38.5 -54.501 -56.5s-36 -35.667 -52 -53h176c3.33301 -14 5 -25.667 5 -35c0 -27.333 -8.66699 -41 -26 -41h-271z" />
    <glyph glyph-name="uni00B3" unicode="&#xb3;" horiz-adv-x="384" 
d="M164 279c-27.333 0 -50.0049 2.66602 -68.0049 7.99902s-31 11.333 -39 18c-8.66699 6 -13 16 -13 30c0 18 6.66699 32.667 20 44c10.667 -6.66699 23.834 -12.5 39.501 -17.5s34.834 -7.5 57.501 -7.5c28.667 0 51.667 5.33301 69 16s26 26 26 46
c0 14.667 -5 26.834 -15 36.501s-24 15.5 -42 17.5c-9.33301 1.33301 -20.666 2.16602 -33.999 2.49902s-25.666 0.5 -36.999 0.5c-2 2 -4.16699 7.5 -6.5 16.5s-3.5 15.833 -3.5 20.5c0 6.66699 1.83301 12.5 5.5 17.5s10.5 7.5 20.5 7.5c19.333 0 38.166 -1 56.499 -3
s33.833 -4.66699 46.5 -8c28.667 -6 51.167 -18.333 67.5 -37s24.5 -40 24.5 -64c0 -33.333 -7.66699 -60.666 -23 -81.999s-36.166 -37 -62.499 -47s-56.166 -15 -89.499 -15zM257.995 504.999l-76 18.001c19.333 12 33 23.5 41 34.5s12 22.833 12 35.5
c0 7.33301 -2 14.333 -6 21s-10.667 12.167 -20 16.5s-22 6.5 -38 6.5c-20.667 0 -39.667 -3 -57 -9s-33 -14 -47 -24c-10 10.667 -15.333 23 -16 37s2.33301 24 9 30c11.333 10 29 19 53 27s54.333 12 91 12c29.333 0 52.833 -3.83301 70.5 -11.5
s30.5 -18.334 38.5 -32.001s12 -29.167 12 -46.5c0 -20.667 -5.5 -41 -16.5 -61s-27.833 -38 -50.5 -54z" />
    <glyph glyph-name="acute" unicode="&#xb4;" horiz-adv-x="271" 
d="M81 560c-6 0 -11.3311 3.66602 -15.998 10.999s-8.33398 14.833 -11.001 22.5l-4 11.5c11.333 12.667 24.166 25.834 38.499 39.501s28.5 26.5 42.5 38.5s25.833 21.5 35.5 28.5s15.5 10.5 17.5 10.5c9.33301 0 17.5 -7.16699 24.5 -21.5s11.167 -27.5 12.5 -39.5
c-3.33301 -4.66699 -11 -11.5 -23 -20.5l-40 -29.5l-43 -30c-14 -9.33301 -25.333 -16.333 -34 -21z" />
    <glyph glyph-name="uni00B5" unicode="&#xb5;" horiz-adv-x="395" 
d="M80 -195c-6 0 -12.168 0.5 -18.501 1.5s-11.833 2.16699 -16.5 3.5v660c0 12 3 20.833 9 26.5s16.667 8.5 32 8.5c5.33301 0 11.666 -0.333008 18.999 -1s14 -2 20 -4v-369c0 -22.667 6.33301 -39.167 19 -49.5s29.667 -15.5 51 -15.5c15.333 0 29 1.5 41 4.5
s22.667 6.5 32 10.5v389c0 12 2.5 20.833 7.5 26.5s15.833 8.5 32.5 8.5c4.66699 0 11.167 -0.333008 19.5 -1s15.5 -2 21.5 -4v-476c-19.333 -8.66699 -42.666 -16.5 -69.999 -23.5s-55.666 -10.5 -84.999 -10.5c-32 0 -55 8.33301 -69 25v-178
c0 -12.667 -4.5 -21.167 -13.5 -25.5s-19.5 -6.5 -31.5 -6.5z" />
    <glyph glyph-name="paragraph" unicode="&#xb6;" horiz-adv-x="541" 
d="M312 -3c-9.33301 0 -17.499 0.666992 -24.499 2s-12.5 2.66602 -16.5 3.99902v202c-10 -5.33301 -22.5 -9.16602 -37.5 -11.499s-29.167 -3.5 -42.5 -3.5c-20.667 0 -40.5 3.66699 -59.5 11s-35.833 19.5 -50.5 36.5s-26.334 40.333 -35.001 70s-13 67.167 -13 112.5
c0 68.667 8.33301 124.167 25 166.5s39.834 73.5 69.501 93.5s64.167 30 103.5 30c25.333 0 48.166 -2.83301 68.499 -8.5s37.833 -12.167 52.5 -19.5v-656c0 -12.667 -4.16699 -20.667 -12.5 -24s-17.5 -5 -27.5 -5zM211.001 256
c8 -0.666992 17.835 0.167969 29.502 2.50098s21.5 6.16602 29.5 11.499v360c-4 2 -10.167 4.16699 -18.5 6.5s-19.166 3.5 -32.499 3.5c-32.667 0 -57.834 -17.667 -75.501 -53s-26.5 -88.333 -26.5 -159c0 -47.333 4.66699 -83.333 14 -108s21.166 -41.5 35.499 -50.5
s29.166 -13.5 44.499 -13.5zM453.003 -2.99805c-4 0 -9.83301 0.333008 -17.5 1s-14.834 2 -21.501 4v656c0 12 3 20.333 9 25s17 7 33 7c6 0 12.5 -0.5 19.5 -1.5s13.5 -2.5 19.5 -4.5v-658c0 -12 -2.66699 -19.833 -8 -23.5s-16.666 -5.5 -33.999 -5.5z" />
    <glyph glyph-name="periodcentered" unicode="&#xb7;" horiz-adv-x="221" 
d="M109 212c-20.667 0 -35.167 5 -43.5 15s-12.5 24 -12.5 42c0 15.333 4.83301 28.833 14.5 40.5s23.5 17.5 41.5 17.5c20.667 0 35.167 -5.5 43.5 -16.5s12.5 -24.833 12.5 -41.5c0 -16 -5 -29.5 -15 -40.5s-23.667 -16.5 -41 -16.5z" />
    <glyph glyph-name="cedilla" unicode="&#xb8;" horiz-adv-x="269" 
d="M126 -206c-14.667 0 -27.668 2 -39.001 6l-17 6l2 9c1.33301 6 3 12.333 5 19s4 11 6 13c3.33301 3.33301 9 2.5 17 -2.5s17.333 -7.5 28 -7.5s18.5 3 23.5 9s7.5 14.333 7.5 25c0 12.667 -2.66699 21.334 -8 26.001s-12.666 7 -21.999 7
c-12.667 0 -22.667 -0.833008 -30 -2.5l-11 -2.5l19 103h45l-12 -61l0.5 0.5c0.333008 0.333008 5.83301 0.5 16.5 0.5c12.667 0 24.167 -4.83301 34.5 -14.5s15.5 -26.167 15.5 -49.5c0 -17.333 -3.5 -32.333 -10.5 -45s-16.5 -22.334 -28.5 -29.001s-26 -10 -42 -10z" />
    <glyph glyph-name="uni00B9" unicode="&#xb9;" horiz-adv-x="382" 
d="M49 289c-2 7.33301 -3.33203 13.999 -3.99902 19.999s-1 11 -1 15c0 13.333 2 23.5 6 30.5s11.333 10.5 22 10.5h93v256l-107 -21c-3.33301 5.33301 -6 11.333 -8 18s-3 13.334 -3 20.001c0 10 2.66699 18 8 24s11.666 10.667 18.999 14
c15.333 5.33301 33.166 10.666 53.499 15.999s39.333 9.66602 57 12.999s30.167 5 37.5 5c3.33301 0 7.83301 -0.166992 13.5 -0.5s9.5 -1.16602 11.5 -2.49902v-342h87l2 -18.5c0.666992 -6.33301 1 -12.166 1 -17.499c0 -14 -1.66699 -24.167 -5 -30.5
s-9.66602 -9.5 -18.999 -9.5h-264z" />
    <glyph glyph-name="ordmasculine" unicode="&#xba;" horiz-adv-x="338" 
d="M165 289c-27.333 0 -50.667 5.83105 -70 17.498s-34.166 32.834 -44.499 63.501s-15.5 73.667 -15.5 129c0 74 12.667 127.667 38 161s59 50 101 50c29.333 0 53.5 -5.83301 72.5 -17.5s33.167 -32.667 42.5 -63s14 -73.166 14 -128.499
c0 -72 -11.833 -125.333 -35.5 -160s-57.834 -52 -102.501 -52zM165.999 355.998c21.333 0 38.168 10.667 50.501 32s18.5 58.333 18.5 111c0 37.333 -2.33301 66 -7 86s-11.5 33.833 -20.5 41.5s-20.167 11.5 -33.5 11.5c-21.333 0 -38.333 -10.333 -51 -31
s-19 -58.334 -19 -113.001c0 -36.667 2.33301 -65.167 7 -85.5s11.667 -34.166 21 -41.499s20.666 -11 33.999 -11z" />
    <glyph glyph-name="guillemotright" unicode="&#xbb;" horiz-adv-x="414" 
d="M248 0l-6.99707 2.49902c-4.66699 1.66699 -10.334 4.33398 -17.001 8.00098s-12.334 8.5 -17.001 14.5s-7 13.333 -7 22c0 6 2.83301 15.167 8.5 27.5s13.167 26.333 22.5 42s19.166 31.334 29.499 47.001l29 44l22 32.5l8.5 12l-8.5 12.5l-22 33l-28.5 44.5
c-10 16 -19.333 31.667 -28 47s-16 29.166 -22 41.499s-9 21.833 -9 28.5c0 7.33301 2.5 13.5 7.5 18.5s10.667 9.16699 17 12.5s12 5.83301 17 7.5l7.5 2.5l10.5 -15.5l27 -40.5l35 -54.5l35 -57.5c11 -18.667 20 -35.167 27 -49.5s10.5 -24.5 10.5 -30.5
c0 -5.33301 -3.5 -15.333 -10.5 -30s-16.167 -31.5 -27.5 -50.5l-36 -58.5l-35.5 -55.5l-27.5 -41.5zM76.0029 21.999l-11 4.5c-7.33301 3 -14.666 8 -21.999 15s-11 16.167 -11 27.5c0 7.33301 4 18.166 12 32.499s17.667 30 29 47s22.666 33.167 33.999 48.5l29 38l12 15
c1.33301 0 -1.66699 5.16699 -9 15.5l-28 40l-34.5 51c-11.667 17.667 -21.5 34 -29.5 49s-12 26.167 -12 33.5c0 10 3.5 18 10.5 24s14.333 10.333 22 13l11.5 4l10.5 -14l27 -37.5l35 -50.5c12.333 -18 24 -35.833 35 -53.5s20 -33 27 -46s10.5 -22.5 10.5 -28.5
s-3.66699 -15.667 -11 -29s-16.5 -28.666 -27.5 -45.999s-22.833 -35 -35.5 -53l-35.5 -49.5l-27.5 -36.5z" />
    <glyph glyph-name="onequarter" unicode="&#xbc;" horiz-adv-x="959" 
d="M45 289c-1.33301 7.33301 -2.33301 13.999 -3 19.999s-1 11 -1 15c0 13.333 1.83301 23.5 5.5 30.5s10.834 10.5 21.501 10.5h94v256l-108 -21c-3.33301 5.33301 -5.83301 11.333 -7.5 18s-2.5 13.334 -2.5 20.001c0 10 2.5 18 7.5 24s11.167 10.667 18.5 14
c16 5.33301 34.167 10.666 54.5 15.999s39.333 9.66602 57 12.999s30.167 5 37.5 5c3.33301 0 7.66602 -0.166992 12.999 -0.5s9.33301 -1.16602 12 -2.49902v-342h86c1.33301 -6 2.33301 -12.167 3 -18.5s1 -12.166 1 -17.499c0 -14 -1.83301 -24.167 -5.5 -30.5
s-10.167 -9.5 -19.5 -9.5h-264zM338 -10.001c-8 0 -17.502 2.49902 -28.502 7.49902s-20.5 12.167 -28.5 21.5l335 672c2 5.33301 5 9.83301 9 13.5s10.333 5.5 19 5.5s17.834 -2.16699 27.501 -6.5s18.834 -11.833 27.501 -22.5l-337 -676
c-1.33301 -3.33301 -4 -6.66602 -8 -9.99902s-9.33301 -5 -16 -5zM824.998 -6.00195c-10 0 -21 1.33008 -33 3.99707v72h-171c-4.66699 5.33301 -8.16699 11.5 -10.5 18.5s-3.5 14.167 -3.5 21.5c0 8.66699 2.33301 19.667 7 33c6 20.667 14.5 42.334 25.5 65.001
s23.5 45.334 37.5 68.001s28.5 44 43.5 64s29.167 36.667 42.5 50c12 13.333 23.833 21.833 35.5 25.5s23.5 5.5 35.5 5.5c6 0 12 -0.5 18 -1.5s11.333 -2.16699 16 -3.5v-269h59c2 -4.66699 3.66699 -10.167 5 -16.5s2 -13.5 2 -21.5
c0 -11.333 -2.33301 -20.666 -7 -27.999s-10.667 -11 -18 -11h-41v-51c0 -16.667 -14.333 -25 -43 -25zM681.998 141.995l112.004 -0.000976562l4 186c-10.667 -8 -21.834 -19.167 -33.501 -33.5s-22.834 -30.166 -33.501 -47.499s-20.334 -35 -29.001 -53
s-15.334 -35.333 -20.001 -52z" />
    <glyph glyph-name="onehalf" unicode="&#xbd;" horiz-adv-x="947" 
d="M45 289c-1.33301 7.33301 -2.33301 13.999 -3 19.999s-1 11 -1 15c0 13.333 1.83301 23.5 5.5 30.5s10.834 10.5 21.501 10.5h94v256l-108 -21c-3.33301 5.33301 -5.83301 11.333 -7.5 18s-2.5 13.334 -2.5 20.001c0 10 2.5 18 7.5 24s11.167 10.667 18.5 14
c16 5.33301 34.167 10.666 54.5 15.999s39.333 9.66602 57 12.999s30.167 5 37.5 5c3.33301 0 7.66602 -0.166992 12.999 -0.5s9.33301 -1.16602 12 -2.49902v-342h86c1.33301 -6 2.33301 -12.167 3 -18.5s1 -12.166 1 -17.499c0 -14 -1.83301 -24.167 -5.5 -30.5
s-10.167 -9.5 -19.5 -9.5h-264zM338 -10.001c-8 0 -17.502 2.49902 -28.502 7.49902s-20.5 12.167 -28.5 21.5l335 672c2 5.33301 5 9.83301 9 13.5s10.333 5.5 19 5.5s17.834 -2.16699 27.501 -6.5s18.834 -11.833 27.501 -22.5l-337 -676
c-1.33301 -3.33301 -4 -6.66602 -8 -9.99902s-9.33301 -5 -16 -5zM612.998 -0.00195312c-2 5.33301 -3.50293 10.165 -4.50293 14.498s-1.5 8.5 -1.5 12.5c0 8 0.833008 15.667 2.5 23s4.83398 13.666 9.50098 18.999c20.667 23.333 41.334 44.833 62.001 64.5l57.5 55
c17.667 17 32 33.333 43 49s16.5 31.834 16.5 48.501c0 10 -1.83301 18.833 -5.5 26.5s-10 14 -19 19s-22.167 7.5 -39.5 7.5c-21.333 0 -40.166 -4 -56.499 -12s-31.5 -16.667 -45.5 -26c-6 11.333 -10 20.5 -12 27.5s-3 14.167 -3 21.5
c0 12.667 7.83301 24.334 23.5 35.001s35.5 19.334 59.5 26.001s47.667 10 71 10c32.667 0 58 -4.33301 76 -13s30.667 -21.167 38 -37.5s11 -34.833 11 -55.5c0 -24 -5.66699 -46.667 -17 -68s-25.833 -41.833 -43.5 -61.5s-36 -38.5 -55 -56.5s-36.167 -35.667 -51.5 -53
h176c3.33301 -14 5 -25.667 5 -35c0 -27.333 -8.66699 -41 -26 -41h-271z" />
    <glyph glyph-name="threequarters" unicode="&#xbe;" horiz-adv-x="961" 
d="M161 279c-28 0 -51.002 2.66602 -69.002 7.99902s-30.667 11.333 -38 18c-8.66699 6 -13 16 -13 30c0 18 6.66699 32.667 20 44c10 -6.66699 22.833 -12.5 38.5 -17.5s34.834 -7.5 57.501 -7.5c28.667 0 51.667 5.33301 69 16s26 26 26 46c0 14.667 -5 26.834 -15 36.501
s-24 15.5 -42 17.5c-8.66699 1.33301 -19.667 2.16602 -33 2.49902s-26 0.5 -38 0.5c-1.33301 2 -3.16602 7.5 -5.49902 16.5s-3.5 15.833 -3.5 20.5c0 6.66699 1.83301 12.5 5.5 17.5s10.167 7.5 19.5 7.5c19.333 0 38.333 -1 57 -3s34 -4.66699 46 -8
c28.667 -6 51.334 -18.333 68.001 -37s25 -40 25 -64c0 -33.333 -7.66699 -60.666 -23 -81.999s-36.333 -37 -63 -47s-56.334 -15 -89.001 -15zM254.998 504.999l-76.002 18.001c19.333 12 32.833 23.5 40.5 34.5s11.5 22.833 11.5 35.5c0 7.33301 -1.83301 14.333 -5.5 21
s-10.167 12.167 -19.5 16.5s-22.333 6.5 -39 6.5c-20.667 0 -39.667 -3 -57 -9s-32.666 -14 -45.999 -24c-10 10.667 -15.5 23 -16.5 37s2.16699 24 9.5 30c10.667 10 28.167 19 52.5 27s54.833 12 91.5 12c28.667 0 51.834 -3.83301 69.501 -11.5
s30.5 -18.334 38.5 -32.001s12 -29.167 12 -46.5c0 -20.667 -5.5 -41 -16.5 -61s-27.5 -38 -49.5 -54zM339.996 -10c-8 0 -17.502 2.49902 -28.502 7.49902s-20.5 12.167 -28.5 21.5l335 672c2 5.33301 5 9.83301 9 13.5s10.333 5.5 19 5.5s17.834 -2.16699 27.501 -6.5
s18.834 -11.833 27.501 -22.5l-337 -676c-1.33301 -3.33301 -4 -6.66602 -8 -9.99902s-9.33301 -5 -16 -5zM826.994 -6.00098c-10 0 -21 1.33008 -33 3.99707v72h-171c-4.66699 5.33301 -8.16699 11.5 -10.5 18.5s-3.5 14.167 -3.5 21.5c0 8.66699 2.33301 19.667 7 33
c6 20.667 14.5 42.334 25.5 65.001s23.5 45.334 37.5 68.001s28.5 44 43.5 64s29.167 36.667 42.5 50c12 13.333 23.833 21.833 35.5 25.5s23.5 5.5 35.5 5.5c6 0 12 -0.5 18 -1.5s11.333 -2.16699 16 -3.5v-269h59c2 -4.66699 3.66699 -10.167 5 -16.5s2 -13.5 2 -21.5
c0 -11.333 -2.33301 -20.666 -7 -27.999s-10.667 -11 -18 -11h-41v-51c0 -16.667 -14.333 -25 -43 -25zM683.994 141.996l112.004 -0.000976562l4 186c-10.667 -8 -21.834 -19.167 -33.501 -33.5s-22.834 -30.166 -33.501 -47.499s-20.334 -35 -29.001 -53
s-15.334 -35.333 -20.001 -52z" />
    <glyph glyph-name="questiondown" unicode="&#xbf;" horiz-adv-x="306" 
d="M153 -195c-20.667 0 -39.5 2.83203 -56.5 8.49902s-31.667 14.334 -44 26.001s-21.833 26.167 -28.5 43.5s-10 37.666 -10 60.999c0 30 4 56.333 12 79s18 43.167 30 61.5s24.167 35.333 36.5 51s23.166 31.834 32.499 48.501s13.5 33 12.5 49s-3.16699 29.833 -6.5 41.5
s-3.33301 19.5 0 23.5s9.33301 6.66699 18 8s18.167 2 28.5 2s19.166 -0.666992 26.499 -2l5 -12.5c3.33301 -8.33301 6 -19.166 8 -32.499s2.33301 -28.5 1 -45.5s-7 -34.5 -17 -52.5c-10.667 -20 -21.834 -38.167 -33.501 -54.5l-32.5 -47
c-10 -15 -18.167 -30.5 -24.5 -46.5s-9.5 -33.333 -9.5 -52c0 -15.333 2.33301 -28 7 -38s10.834 -17.833 18.501 -23.5s16.334 -9.66699 26.001 -12s19.834 -3.5 30.501 -3.5c22 0 39.833 3.33301 53.5 10s23.5 12 29.5 16c4 -10.667 7 -21 9 -31s3 -21.333 3 -34
c0 -7.33301 -6.33301 -14.333 -19 -21s-28.5 -11.834 -47.5 -15.501s-38.5 -5.5 -58.5 -5.5zM167 391.999c-20 0 -34.333 5.33105 -43 15.998s-13 24.334 -13 41.001c0 16 5 29.5 15 40.5s23.667 16.5 41 16.5c20.667 0 35.167 -5 43.5 -15s12.5 -24 12.5 -42
c0 -15.333 -4.83301 -28.666 -14.5 -39.999s-23.5 -17 -41.5 -17z" />
    <glyph glyph-name="Agrave" unicode="&#xc0;" 
d="M56 -2c-5.33301 0 -12.6641 0.333984 -21.9971 1.00098l-29 2l178 688c2 9.33301 12.333 14 31 14c6.66699 0 13.5 -0.333008 20.5 -1s12.833 -1.33398 17.5 -2.00098l179 -685c1.33301 -5.33301 -0.166992 -9.5 -4.5 -12.5s-14.5 -4.5 -30.5 -4.5
c-6 0 -12.833 0.166992 -20.5 0.5s-16.834 0.833008 -27.501 1.5l-94 394c-5.33301 22.667 -10.333 45.667 -15 69s-8.83398 45.833 -12.501 67.5s-6.16699 40.5 -7.5 56.5c-1.33301 -16 -3.83301 -34.833 -7.5 -56.5s-7.83398 -44.167 -12.501 -67.5s-10 -46.333 -16 -69
l-89 -380c-1.33301 -5.33301 -4 -9.33301 -8 -12s-14 -4 -30 -4zM108.002 178.001v74h239v-74h-239zM259.002 753.001c-8 4.66699 -19.1641 11.668 -33.4971 21.001s-28.833 19.333 -43.5 30s-27.834 20.667 -39.501 30s-19.5 16.333 -23.5 21c2 12 6.33301 25.167 13 39.5
s15 21.5 25 21.5c2 0 7.66699 -3.66699 17 -11l35 -28.5c14 -11.667 28.167 -24.334 42.5 -38.001s27.166 -27.167 38.499 -40.5l-3.5 -11c-2.33301 -7.33301 -5.83301 -14.833 -10.5 -22.5s-10.334 -11.5 -17.001 -11.5z" />
    <glyph glyph-name="Aacute" unicode="&#xc1;" 
d="M56 -2c-5.33301 0 -12.6641 0.333984 -21.9971 1.00098l-29 2l178 688c2 9.33301 12.333 14 31 14c6.66699 0 13.5 -0.333008 20.5 -1s12.833 -1.33398 17.5 -2.00098l179 -685c1.33301 -5.33301 -0.166992 -9.5 -4.5 -12.5s-14.5 -4.5 -30.5 -4.5
c-6 0 -12.833 0.166992 -20.5 0.5s-16.834 0.833008 -27.501 1.5l-94 394c-5.33301 22.667 -10.333 45.667 -15 69s-8.83398 45.833 -12.501 67.5s-6.16699 40.5 -7.5 56.5c-1.33301 -16 -3.83301 -34.833 -7.5 -56.5s-7.83398 -44.167 -12.501 -67.5s-10 -46.333 -16 -69
l-89 -380c-1.33301 -5.33301 -4 -9.33301 -8 -12s-14 -4 -30 -4zM108.002 178.001v74h239v-74h-239zM170.002 760.001c-6 0 -11.3311 3.66602 -15.998 10.999s-8.33398 14.833 -11.001 22.5l-4 11.5c11.333 12.667 24.166 25.834 38.499 39.501s28.5 26.5 42.5 38.5
s25.833 21.5 35.5 28.5s15.5 10.5 17.5 10.5c9.33301 0 17.5 -7.16699 24.5 -21.5s11.167 -27.5 12.5 -39.5c-3.33301 -4.66699 -11 -11.5 -23 -20.5l-40 -29.5l-43 -30c-14 -9.33301 -25.333 -16.333 -34 -21z" />
    <glyph glyph-name="Acircumflex" unicode="&#xc2;" 
d="M56 -2c-5.33301 0 -12.6641 0.333984 -21.9971 1.00098l-29 2l178 688c2 9.33301 12.333 14 31 14c6.66699 0 13.5 -0.333008 20.5 -1s12.833 -1.33398 17.5 -2.00098l179 -685c1.33301 -5.33301 -0.166992 -9.5 -4.5 -12.5s-14.5 -4.5 -30.5 -4.5
c-6 0 -12.833 0.166992 -20.5 0.5s-16.834 0.833008 -27.501 1.5l-94 394c-5.33301 22.667 -10.333 45.667 -15 69s-8.83398 45.833 -12.501 67.5s-6.16699 40.5 -7.5 56.5c-1.33301 -16 -3.83301 -34.833 -7.5 -56.5s-7.83398 -44.167 -12.501 -67.5s-10 -46.333 -16 -69
l-89 -380c-1.33301 -5.33301 -4 -9.33301 -8 -12s-14 -4 -30 -4zM108.002 178.001v74h239v-74h-239zM288.002 761.001l-8.49902 8c-5.66699 5.33301 -12.167 12.333 -19.5 21l-21.5 26c-7 8.66699 -12.5 16 -16.5 22l-8.5 -11.5
c-5.66699 -7.66699 -12.834 -16.667 -21.501 -27s-17.167 -19.166 -25.5 -26.499s-14.5 -11 -18.5 -11c-14 0 -25.5 2.16699 -34.5 6.5s-16.167 9.83301 -21.5 16.5l114 123c5.33301 2 11 3 17 3c4.66699 0 9 -0.833008 13 -2.5s8 -4.83398 12 -9.50098l15 -15
c10 -10 21.333 -22 34 -36s24 -27.167 34 -39.5s15 -20.5 15 -24.5c0 -7.33301 -6 -13 -18 -17s-25.333 -6 -40 -6z" />
    <glyph glyph-name="Atilde" unicode="&#xc3;" 
d="M56 -2c-5.33301 0 -12.6641 0.333984 -21.9971 1.00098l-29 2l178 688c2 9.33301 12.333 14 31 14c6.66699 0 13.5 -0.333008 20.5 -1s12.833 -1.33398 17.5 -2.00098l179 -685c1.33301 -5.33301 -0.166992 -9.5 -4.5 -12.5s-14.5 -4.5 -30.5 -4.5
c-6 0 -12.833 0.166992 -20.5 0.5s-16.834 0.833008 -27.501 1.5l-94 394c-5.33301 22.667 -10.333 45.667 -15 69s-8.83398 45.833 -12.501 67.5s-6.16699 40.5 -7.5 56.5c-1.33301 -16 -3.83301 -34.833 -7.5 -56.5s-7.83398 -44.167 -12.501 -67.5s-10 -46.333 -16 -69
l-89 -380c-1.33301 -5.33301 -4 -9.33301 -8 -12s-14 -4 -30 -4zM108.002 178.001v74h239v-74h-239zM258.002 762.001c-14 0 -24.668 2.49902 -32.001 7.49902s-13.5 10.5 -18.5 16.5s-10.167 11.5 -15.5 16.5s-12.333 7.5 -21 7.5c-12 0 -21.5 -3.16699 -28.5 -9.5
s-12.667 -12.666 -17 -18.999s-8.83301 -9.5 -13.5 -9.5c-7.33301 0 -14.166 3.33301 -20.499 10s-11.166 13.334 -14.499 20.001l-5 10c16.667 28 35.167 47.5 55.5 58.5s39.5 16.5 57.5 16.5c10.667 0 19.5 -2.33301 26.5 -7s13 -10.167 18 -16.5
s10.833 -11.833 17.5 -16.5s15 -7 25 -7c16 0 27.667 3.16699 35 9.5s13 12.666 17 18.999s8.33301 9.5 13 9.5c6 0 11.167 -3.66699 15.5 -11s7.66602 -14.833 9.99902 -22.5l3.5 -11.5c-1.33301 -2.66699 -4.83301 -7.66699 -10.5 -15s-13.334 -15.333 -23.001 -24
s-20.667 -16.167 -33 -22.5s-26.166 -9.5 -41.499 -9.5z" />
    <glyph glyph-name="Adieresis" unicode="&#xc4;" 
d="M56 -2c-5.33301 0 -12.6641 0.333984 -21.9971 1.00098l-29 2l178 688c2 9.33301 12.333 14 31 14c6.66699 0 13.5 -0.333008 20.5 -1s12.833 -1.33398 17.5 -2.00098l179 -685c1.33301 -5.33301 -0.166992 -9.5 -4.5 -12.5s-14.5 -4.5 -30.5 -4.5
c-6 0 -12.833 0.166992 -20.5 0.5s-16.834 0.833008 -27.501 1.5l-94 394c-5.33301 22.667 -10.333 45.667 -15 69s-8.83398 45.833 -12.501 67.5s-6.16699 40.5 -7.5 56.5c-1.33301 -16 -3.83301 -34.833 -7.5 -56.5s-7.83398 -44.167 -12.501 -67.5s-10 -46.333 -16 -69
l-89 -380c-1.33301 -5.33301 -4 -9.33301 -8 -12s-14 -4 -30 -4zM108.002 178.001v74h239v-74h-239zM157.002 772.001c-12.667 0 -22.5 4.33301 -29.5 13s-10.167 24.334 -9.5 47.001c0 17.333 3.5 31.166 10.5 41.499s18.167 15.5 33.5 15.5c14.667 0 25 -4.16699 31 -12.5
s8.66699 -22.5 8 -42.5c0 -20 -3.66699 -35.333 -11 -46s-18.333 -16 -33 -16zM276.002 772.001c-12.667 0 -22.499 4.33301 -29.499 13s-10.5 24.334 -10.5 47.001c0.666992 17.333 4.66699 31.166 12 41.499s18.333 15.5 33 15.5c15.333 0 25.666 -4.16699 30.999 -12.5
s8 -22.5 8 -42.5s-3.66699 -35.333 -11 -46s-18.333 -16 -33 -16z" />
    <glyph glyph-name="Aring" unicode="&#xc5;" 
d="M56 -2c-5.33301 0 -12.6641 0.333984 -21.9971 1.00098l-29 2l178 688c2 9.33301 12.333 14 31 14c6.66699 0 13.5 -0.333008 20.5 -1s12.833 -1.33398 17.5 -2.00098l179 -685c1.33301 -5.33301 -0.166992 -9.5 -4.5 -12.5s-14.5 -4.5 -30.5 -4.5
c-6 0 -12.833 0.166992 -20.5 0.5s-16.834 0.833008 -27.501 1.5l-94 394c-5.33301 22.667 -10.333 45.667 -15 69s-8.83398 45.833 -12.501 67.5s-6.16699 40.5 -7.5 56.5c-1.33301 -16 -3.83301 -34.833 -7.5 -56.5s-7.83398 -44.167 -12.501 -67.5s-10 -46.333 -16 -69
l-89 -380c-1.33301 -5.33301 -4 -9.33301 -8 -12s-14 -4 -30 -4zM108.002 178.001v74h239v-74h-239zM216.002 742.001c-30 0 -53.166 6.83301 -69.499 20.5s-24.5 39.167 -24.5 76.5c0 34 9 58.833 27 74.5s42.667 23.5 74 23.5s54.666 -6.83301 69.999 -20.5
s23 -39.167 23 -76.5c0 -32.667 -8.5 -57.167 -25.5 -73.5s-41.833 -24.5 -74.5 -24.5zM218.003 797.001c12 0 21.832 3.33301 29.499 10s11.5 17.667 11.5 33c0 14.667 -3 25.167 -9 31.5s-15 9.5 -27 9.5c-13.333 0 -23.666 -3.16699 -30.999 -9.5s-11 -17.5 -11 -33.5
c0 -13.333 3.16699 -23.5 9.5 -30.5s15.5 -10.5 27.5 -10.5z" />
    <glyph glyph-name="AE" unicode="&#xc6;" horiz-adv-x="615" 
d="M68 -2c-5.33301 0 -12.668 0.333008 -22.001 1l-29 2l293 685c2 4.66699 5.33301 8.16699 10 10.5s10 3.5 16 3.5h24c-2 -12.667 -6.16699 -31 -12.5 -55s-14.166 -51 -23.499 -81l-29.5 -90.5c-10.333 -30.333 -20.5 -57.833 -30.5 -82.5l-158 -377
c-2 -4.66699 -5.33301 -8.5 -10 -11.5s-14 -4.5 -28 -4.5zM127.998 178l30 74h206v-74h-236zM338.998 0v684l2.5 8c1.66699 5.33301 6.5 8 14.5 8h239c0 -22 -0.166992 -38 -0.5 -48s-1.5 -16.667 -3.5 -20s-5.66699 -5 -11 -5h-160v-554h171
c0 -22.667 -0.166992 -39.167 -0.5 -49.5s-1.5 -16.833 -3.5 -19.5s-5.66699 -4 -11 -4h-237zM349.998 344l-0.000976562 74h221c0 -30.667 -0.666992 -50.667 -2 -60s-5.66602 -14 -12.999 -14h-206z" />
    <glyph glyph-name="Ccedilla" unicode="&#xc7;" horiz-adv-x="341" 
d="M196 -10c-19.333 0 -37.334 2.33594 -54.001 7.00293s-31.834 13.334 -45.501 26.001s-25.5 31.167 -35.5 55.5s-17.667 56.333 -23 96s-8 88.5 -8 146.5c0 68.667 3.83301 126.167 11.5 172.5s18.167 83.666 31.5 111.999s28.5 50.166 45.5 65.499
s34.833 25.666 53.5 30.999s37 8 55 8c24.667 0 43.834 -2.83301 57.501 -8.5s23.167 -12.667 28.5 -21s8 -16.833 8 -25.5c0 -9.33301 -1.33301 -18.333 -4 -27s-5.66699 -16 -9 -22c-3.33301 2.66699 -8.16602 5.83398 -14.499 9.50098s-13.833 7 -22.5 10
s-18 4.5 -28 4.5c-12.667 0 -25.167 -2.16699 -37.5 -6.5s-24 -12.666 -35 -24.999s-20.5 -29.833 -28.5 -52.5s-14.5 -52 -19.5 -88s-7.5 -80.333 -7.5 -133c0 -50.667 2.5 -92 7.5 -124s11.833 -56.833 20.5 -74.5s19.167 -29.834 31.5 -36.501s25.833 -10 40.5 -10
c19.333 0 37.333 3.33301 54 10s29.334 13.667 38.001 21c3.33301 -6.66699 6.33301 -14.334 9 -23.001s4 -17.334 4 -26.001c0 -12.667 -5.16699 -24.5 -15.5 -35.5s-24.833 -19.833 -43.5 -26.5s-40.334 -10 -65.001 -10zM195.999 -205.997c-14.667 0 -27.668 2 -39.001 6
l-17 6l2 9c1.33301 6 3 12.333 5 19s4 11 6 13c3.33301 3.33301 9 2.5 17 -2.5s17.333 -7.5 28 -7.5s18.5 3 23.5 9s7.5 14.333 7.5 25c0 12.667 -2.66699 21.334 -8 26.001s-12.666 7 -21.999 7c-12.667 0 -22.667 -0.833008 -30 -2.5l-11 -2.5l19 103h45l-12 -61l0.5 0.5
c0.333008 0.333008 5.83301 0.5 16.5 0.5c12.667 0 24.167 -4.83301 34.5 -14.5s15.5 -26.167 15.5 -49.5c0 -17.333 -3.5 -32.333 -10.5 -45s-16.5 -22.334 -28.5 -29.001s-26 -10 -42 -10z" />
    <glyph glyph-name="Egrave" unicode="&#xc8;" horiz-adv-x="320" 
d="M44 0v684l2.5 8c1.66699 5.33301 6.5 8 14.5 8h240c0 -22 -0.333008 -38 -1 -48s-2 -16.667 -4 -20s-5.33301 -5 -10 -5h-161v-554h172c0 -22.667 -0.333008 -39.167 -1 -49.5s-2 -16.833 -4 -19.5s-5.66699 -4 -11 -4h-237zM55 344l-0.000976562 74h221
c0 -30.667 -0.666992 -50.667 -2 -60s-5.66602 -14 -12.999 -14h-206zM209.999 753c-8 4.66699 -19.1641 11.668 -33.4971 21.001s-28.833 19.333 -43.5 30s-27.834 20.667 -39.501 30s-19.5 16.333 -23.5 21c2 12 6.33301 25.167 13 39.5s15 21.5 25 21.5
c2 0 7.66699 -3.66699 17 -11l35 -28.5c14 -11.667 28.167 -24.334 42.5 -38.001s27.166 -27.167 38.499 -40.5l-3.5 -11c-2.33301 -7.33301 -5.83301 -14.833 -10.5 -22.5s-10.334 -11.5 -17.001 -11.5z" />
    <glyph glyph-name="Eacute" unicode="&#xc9;" horiz-adv-x="320" 
d="M44 0v684l2.5 8c1.66699 5.33301 6.5 8 14.5 8h240c0 -22 -0.333008 -38 -1 -48s-2 -16.667 -4 -20s-5.33301 -5 -10 -5h-161v-554h172c0 -22.667 -0.333008 -39.167 -1 -49.5s-2 -16.833 -4 -19.5s-5.66699 -4 -11 -4h-237zM55 344l-0.000976562 74h221
c0 -30.667 -0.666992 -50.667 -2 -60s-5.66602 -14 -12.999 -14h-206zM121.999 760c-6 0 -11.3311 3.66602 -15.998 10.999s-8.33398 14.833 -11.001 22.5l-4 11.5c11.333 12.667 24.166 25.834 38.499 39.501s28.5 26.5 42.5 38.5s25.833 21.5 35.5 28.5
s15.5 10.5 17.5 10.5c9.33301 0 17.5 -7.16699 24.5 -21.5s11.167 -27.5 12.5 -39.5c-3.33301 -4.66699 -11 -11.5 -23 -20.5l-40 -29.5l-43 -30c-14 -9.33301 -25.333 -16.333 -34 -21z" />
    <glyph glyph-name="Ecircumflex" unicode="&#xca;" horiz-adv-x="320" 
d="M44 0v684l2.5 8c1.66699 5.33301 6.5 8 14.5 8h240c0 -22 -0.333008 -38 -1 -48s-2 -16.667 -4 -20s-5.33301 -5 -10 -5h-161v-554h172c0 -22.667 -0.333008 -39.167 -1 -49.5s-2 -16.833 -4 -19.5s-5.66699 -4 -11 -4h-237zM55 344l-0.000976562 74h221
c0 -30.667 -0.666992 -50.667 -2 -60s-5.66602 -14 -12.999 -14h-206zM238.999 761l-8.49902 8c-5.66699 5.33301 -12.167 12.333 -19.5 21l-21.5 26c-7 8.66699 -12.5 16 -16.5 22l-8.5 -11.5c-5.66699 -7.66699 -12.834 -16.667 -21.501 -27
s-17.167 -19.166 -25.5 -26.499s-14.5 -11 -18.5 -11c-14 0 -25.5 2.16699 -34.5 6.5s-16.167 9.83301 -21.5 16.5l114 123c5.33301 2 11 3 17 3c4.66699 0 9 -0.833008 13 -2.5s8 -4.83398 12 -9.50098l15 -15c10 -10 21.333 -22 34 -36s24 -27.167 34 -39.5
s15 -20.5 15 -24.5c0 -7.33301 -6 -13 -18 -17s-25.333 -6 -40 -6z" />
    <glyph glyph-name="Edieresis" unicode="&#xcb;" horiz-adv-x="320" 
d="M44 0v684l2.5 8c1.66699 5.33301 6.5 8 14.5 8h240c0 -22 -0.333008 -38 -1 -48s-2 -16.667 -4 -20s-5.33301 -5 -10 -5h-161v-554h172c0 -22.667 -0.333008 -39.167 -1 -49.5s-2 -16.833 -4 -19.5s-5.66699 -4 -11 -4h-237zM55 344l-0.000976562 74h221
c0 -30.667 -0.666992 -50.667 -2 -60s-5.66602 -14 -12.999 -14h-206zM107.999 772c-12.667 0 -22.5 4.33301 -29.5 13s-10.167 24.334 -9.5 47.001c0 17.333 3.5 31.166 10.5 41.499s18.167 15.5 33.5 15.5c14.667 0 25 -4.16699 31 -12.5s8.66699 -22.5 8 -42.5
c0 -20 -3.66699 -35.333 -11 -46s-18.333 -16 -33 -16zM226.999 772c-12.667 0 -22.499 4.33301 -29.499 13s-10.5 24.334 -10.5 47.001c0.666992 17.333 4.66699 31.166 12 41.499s18.333 15.5 33 15.5c15.333 0 25.666 -4.16699 30.999 -12.5s8 -22.5 8 -42.5
s-3.66699 -35.333 -11 -46s-18.333 -16 -33 -16z" />
    <glyph glyph-name="Igrave" unicode="&#xcc;" horiz-adv-x="169" 
d="M43 0l-0.00195312 663c0 12.667 1.33301 21.5 4 26.5s9.83398 8 21.501 9s30.834 1.5 57.501 1.5v-684c0 -5.33301 -1.33301 -9 -4 -11s-9.5 -3.33301 -20.5 -4s-30.5 -1 -58.5 -1zM124.998 753c-8 4.66699 -19.1641 11.668 -33.4971 21.001s-28.833 19.333 -43.5 30
s-27.834 20.667 -39.501 30s-19.5 16.333 -23.5 21c2 12 6.33301 25.167 13 39.5s15 21.5 25 21.5c2 0 7.66699 -3.66699 17 -11l35 -28.5c14 -11.667 28.167 -24.334 42.5 -38.001s27.166 -27.167 38.499 -40.5l-3.5 -11c-2.33301 -7.33301 -5.83301 -14.833 -10.5 -22.5
s-10.334 -11.5 -17.001 -11.5z" />
    <glyph glyph-name="Iacute" unicode="&#xcd;" horiz-adv-x="169" 
d="M43 0l-0.00195312 663c0 12.667 1.33301 21.5 4 26.5s9.83398 8 21.501 9s30.834 1.5 57.501 1.5v-684c0 -5.33301 -1.33301 -9 -4 -11s-9.5 -3.33301 -20.5 -4s-30.5 -1 -58.5 -1zM36.998 760c-6 0 -11.3311 3.66602 -15.998 10.999s-8.33398 14.833 -11.001 22.5
l-4 11.5c11.333 12.667 24.166 25.834 38.499 39.501s28.5 26.5 42.5 38.5s25.833 21.5 35.5 28.5s15.5 10.5 17.5 10.5c9.33301 0 17.5 -7.16699 24.5 -21.5s11.167 -27.5 12.5 -39.5c-3.33301 -4.66699 -11 -11.5 -23 -20.5l-40 -29.5l-43 -30
c-14 -9.33301 -25.333 -16.333 -34 -21z" />
    <glyph glyph-name="Icircumflex" unicode="&#xce;" horiz-adv-x="169" 
d="M43 0l-0.00195312 663c0 12.667 1.33301 21.5 4 26.5s9.83398 8 21.501 9s30.834 1.5 57.501 1.5v-684c0 -5.33301 -1.33301 -9 -4 -11s-9.5 -3.33301 -20.5 -4s-30.5 -1 -58.5 -1zM153.998 761l-8.49902 8c-5.66699 5.33301 -12.167 12.333 -19.5 21l-21.5 26
c-7 8.66699 -12.5 16 -16.5 22l-8.5 -11.5c-5.66699 -7.66699 -12.834 -16.667 -21.501 -27s-17.167 -19.166 -25.5 -26.499s-14.5 -11 -18.5 -11c-14 0 -25.5 2.16699 -34.5 6.5s-16.167 9.83301 -21.5 16.5l114 123c5.33301 2 11 3 17 3c4.66699 0 9 -0.833008 13 -2.5
s8 -4.83398 12 -9.50098l15 -15c10 -10 21.333 -22 34 -36s24 -27.167 34 -39.5s15 -20.5 15 -24.5c0 -7.33301 -6 -13 -18 -17s-25.333 -6 -40 -6z" />
    <glyph glyph-name="Idieresis" unicode="&#xcf;" horiz-adv-x="169" 
d="M43 0l-0.00195312 663c0 12.667 1.33301 21.5 4 26.5s9.83398 8 21.501 9s30.834 1.5 57.501 1.5v-684c0 -5.33301 -1.33301 -9 -4 -11s-9.5 -3.33301 -20.5 -4s-30.5 -1 -58.5 -1zM22.998 772c-12.667 0 -22.5 4.33301 -29.5 13s-10.167 24.334 -9.5 47.001
c0 17.333 3.5 31.166 10.5 41.499s18.167 15.5 33.5 15.5c14.667 0 25 -4.16699 31 -12.5s8.66699 -22.5 8 -42.5c0 -20 -3.66699 -35.333 -11 -46s-18.333 -16 -33 -16zM141.998 772c-12.667 0 -22.499 4.33301 -29.499 13s-10.5 24.334 -10.5 47.001
c0.666992 17.333 4.66699 31.166 12 41.499s18.333 15.5 33 15.5c15.333 0 25.666 -4.16699 30.999 -12.5s8 -22.5 8 -42.5s-3.66699 -35.333 -11 -46s-18.333 -16 -33 -16z" />
    <glyph glyph-name="Eth" unicode="&#xd0;" horiz-adv-x="387" 
d="M44 0l-0.00195312 680.999c0 6 1.83301 10.667 5.5 14s10.834 5 21.501 5h97c32.667 0 61.334 -5 86.001 -15s45 -26.667 61 -50s28.167 -54.666 36.5 -93.999s12.5 -88.333 12.5 -147c0 -75.333 -4.33301 -138.333 -13 -189s-21.5 -91 -38.5 -121
s-37.5 -51.5 -61.5 -64.5s-51.333 -19.5 -82 -19.5h-125zM3.99805 330.999c0 25.333 0.833008 43.333 2.5 54s6.5 16 14.5 16h183c0 -24.667 -0.666992 -42.5 -2 -53.5s-6 -16.5 -14 -16.5h-184zM124.998 77.999l44.999 -1c13.333 0 26 3.66699 38 11
s22.833 21.833 32.5 43.5s17.334 53.5 23.001 95.5s8.5 97.667 8.5 167c0 46 -2.16699 84 -6.5 114s-10.666 53.667 -18.999 71s-18.833 29.333 -31.5 36s-27.334 10 -44.001 10h-46v-547z" />
    <glyph glyph-name="Ntilde" unicode="&#xd1;" horiz-adv-x="444" 
d="M324 0l-115 274.999l-16.5 45.5l-22.5 66.5l-24.5 74.5l-23 69.5l-16.5 51.5l-6 19.5l-46 50l6 48h62l112 -270c4.66699 -11.333 10.5 -27.166 17.5 -47.499l22.5 -67l24 -73l22 -67.5c6.66699 -20.667 12.167 -37.167 16.5 -49.5l6.5 -18.5l49 -59l-8 -48h-60z
M43 -0.000976562v684c0 10.667 5.66699 16 17 16l64 -16l-11 -117c1.33301 -9.33301 2.5 -22.333 3.5 -39s1.83301 -35.167 2.5 -55.5l2 -63.5l2 -63c0.666992 -20 1 -37.667 1 -53v-34v-243c0 -5.33301 -1.16699 -9 -3.5 -11s-9 -3.33301 -20 -4s-30.167 -1 -57.5 -1z
M384 -0.000976562l-63.998 16l9 134c-1.33301 10 -2.33301 23.167 -3 39.5s-1.33398 34.333 -2.00098 54l-2 60.5c-0.666992 20.667 -1.16699 40.5 -1.5 59.5s-0.5 35.833 -0.5 50.5v34v236c0 5.33301 1.16699 9 3.5 11s9.16602 3.33301 20.499 4s30.333 1 57 1v-684
c0 -10.667 -5.66699 -16 -17 -16zM261.002 761.999c-14 0 -24.668 2.49902 -32.001 7.49902s-13.5 10.5 -18.5 16.5s-10.167 11.5 -15.5 16.5s-12.333 7.5 -21 7.5c-12 0 -21.5 -3.16699 -28.5 -9.5s-12.667 -12.666 -17 -18.999s-8.83301 -9.5 -13.5 -9.5
c-7.33301 0 -14.166 3.33301 -20.499 10s-11.166 13.334 -14.499 20.001l-5 10c16.667 28 35.167 47.5 55.5 58.5s39.5 16.5 57.5 16.5c10.667 0 19.5 -2.33301 26.5 -7s13 -10.167 18 -16.5s10.833 -11.833 17.5 -16.5s15 -7 25 -7c16 0 27.667 3.16699 35 9.5
s13 12.666 17 18.999s8.33301 9.5 13 9.5c6 0 11.167 -3.66699 15.5 -11s7.66602 -14.833 9.99902 -22.5l3.5 -11.5c-1.33301 -2.66699 -4.83301 -7.66699 -10.5 -15s-13.334 -15.333 -23.001 -24s-20.667 -16.167 -33 -22.5s-26.166 -9.5 -41.499 -9.5z" />
    <glyph glyph-name="Ograve" unicode="&#xd2;" horiz-adv-x="429" 
d="M211 -10c-32.667 0 -60.499 5.5 -83.499 16.5s-41.667 30.167 -56 57.5s-24.833 64.5 -31.5 111.5s-10 106.5 -10 178.5c0 88.667 7 159 21 211s35.167 89.167 63.5 111.5s64.166 33.5 107.499 33.5c32 0 59.333 -5.83301 82 -17.5s41 -31 55 -58s24.167 -63 30.5 -108
s9.5 -101.5 9.5 -169.5c0 -92 -6.5 -164.667 -19.5 -218s-33.333 -91.5 -61 -114.5s-63.5 -34.5 -107.5 -34.5zM214.001 74c24.667 0 43.833 9.16699 57.5 27.5s23.667 48.333 30 90s9.5 96.167 9.5 163.5c0 66.667 -2.66699 119.834 -8 159.501s-14.5 68.167 -27.5 85.5
s-31.5 26 -55.5 26c-23.333 0 -42.333 -9.33301 -57 -28s-25.334 -49.334 -32.001 -92.001s-10 -100 -10 -172c0 -62 2.83301 -112 8.5 -150s15.334 -65.833 29.001 -83.5s32.167 -26.5 55.5 -26.5zM255 753c-8 4.66699 -19.1641 11.668 -33.4971 21.001
s-28.833 19.333 -43.5 30s-27.834 20.667 -39.501 30s-19.5 16.333 -23.5 21c2 12 6.33301 25.167 13 39.5s15 21.5 25 21.5c2 0 7.66699 -3.66699 17 -11l35 -28.5c14 -11.667 28.167 -24.334 42.5 -38.001s27.166 -27.167 38.499 -40.5l-3.5 -11
c-2.33301 -7.33301 -5.83301 -14.833 -10.5 -22.5s-10.334 -11.5 -17.001 -11.5z" />
    <glyph glyph-name="Oacute" unicode="&#xd3;" horiz-adv-x="429" 
d="M211 -10c-32.667 0 -60.499 5.5 -83.499 16.5s-41.667 30.167 -56 57.5s-24.833 64.5 -31.5 111.5s-10 106.5 -10 178.5c0 88.667 7 159 21 211s35.167 89.167 63.5 111.5s64.166 33.5 107.499 33.5c32 0 59.333 -5.83301 82 -17.5s41 -31 55 -58s24.167 -63 30.5 -108
s9.5 -101.5 9.5 -169.5c0 -92 -6.5 -164.667 -19.5 -218s-33.333 -91.5 -61 -114.5s-63.5 -34.5 -107.5 -34.5zM214.001 74c24.667 0 43.833 9.16699 57.5 27.5s23.667 48.333 30 90s9.5 96.167 9.5 163.5c0 66.667 -2.66699 119.834 -8 159.501s-14.5 68.167 -27.5 85.5
s-31.5 26 -55.5 26c-23.333 0 -42.333 -9.33301 -57 -28s-25.334 -49.334 -32.001 -92.001s-10 -100 -10 -172c0 -62 2.83301 -112 8.5 -150s15.334 -65.833 29.001 -83.5s32.167 -26.5 55.5 -26.5zM167 760c-6 0 -11.3311 3.66602 -15.998 10.999
s-8.33398 14.833 -11.001 22.5l-4 11.5c11.333 12.667 24.166 25.834 38.499 39.501s28.5 26.5 42.5 38.5s25.833 21.5 35.5 28.5s15.5 10.5 17.5 10.5c9.33301 0 17.5 -7.16699 24.5 -21.5s11.167 -27.5 12.5 -39.5c-3.33301 -4.66699 -11 -11.5 -23 -20.5l-40 -29.5
l-43 -30c-14 -9.33301 -25.333 -16.333 -34 -21z" />
    <glyph glyph-name="Ocircumflex" unicode="&#xd4;" horiz-adv-x="429" 
d="M211 -10c-32.667 0 -60.499 5.5 -83.499 16.5s-41.667 30.167 -56 57.5s-24.833 64.5 -31.5 111.5s-10 106.5 -10 178.5c0 88.667 7 159 21 211s35.167 89.167 63.5 111.5s64.166 33.5 107.499 33.5c32 0 59.333 -5.83301 82 -17.5s41 -31 55 -58s24.167 -63 30.5 -108
s9.5 -101.5 9.5 -169.5c0 -92 -6.5 -164.667 -19.5 -218s-33.333 -91.5 -61 -114.5s-63.5 -34.5 -107.5 -34.5zM214.001 74c24.667 0 43.833 9.16699 57.5 27.5s23.667 48.333 30 90s9.5 96.167 9.5 163.5c0 66.667 -2.66699 119.834 -8 159.501s-14.5 68.167 -27.5 85.5
s-31.5 26 -55.5 26c-23.333 0 -42.333 -9.33301 -57 -28s-25.334 -49.334 -32.001 -92.001s-10 -100 -10 -172c0 -62 2.83301 -112 8.5 -150s15.334 -65.833 29.001 -83.5s32.167 -26.5 55.5 -26.5zM284 761l-8.49902 8c-5.66699 5.33301 -12.167 12.333 -19.5 21l-21.5 26
c-7 8.66699 -12.5 16 -16.5 22l-8.5 -11.5c-5.66699 -7.66699 -12.834 -16.667 -21.501 -27s-17.167 -19.166 -25.5 -26.499s-14.5 -11 -18.5 -11c-14 0 -25.5 2.16699 -34.5 6.5s-16.167 9.83301 -21.5 16.5l114 123c5.33301 2 11 3 17 3c4.66699 0 9 -0.833008 13 -2.5
s8 -4.83398 12 -9.50098l15 -15c10 -10 21.333 -22 34 -36s24 -27.167 34 -39.5s15 -20.5 15 -24.5c0 -7.33301 -6 -13 -18 -17s-25.333 -6 -40 -6z" />
    <glyph glyph-name="Otilde" unicode="&#xd5;" horiz-adv-x="429" 
d="M211 -10c-32.667 0 -60.499 5.5 -83.499 16.5s-41.667 30.167 -56 57.5s-24.833 64.5 -31.5 111.5s-10 106.5 -10 178.5c0 88.667 7 159 21 211s35.167 89.167 63.5 111.5s64.166 33.5 107.499 33.5c32 0 59.333 -5.83301 82 -17.5s41 -31 55 -58s24.167 -63 30.5 -108
s9.5 -101.5 9.5 -169.5c0 -92 -6.5 -164.667 -19.5 -218s-33.333 -91.5 -61 -114.5s-63.5 -34.5 -107.5 -34.5zM214.001 74c24.667 0 43.833 9.16699 57.5 27.5s23.667 48.333 30 90s9.5 96.167 9.5 163.5c0 66.667 -2.66699 119.834 -8 159.501s-14.5 68.167 -27.5 85.5
s-31.5 26 -55.5 26c-23.333 0 -42.333 -9.33301 -57 -28s-25.334 -49.334 -32.001 -92.001s-10 -100 -10 -172c0 -62 2.83301 -112 8.5 -150s15.334 -65.833 29.001 -83.5s32.167 -26.5 55.5 -26.5zM254 762c-14 0 -24.668 2.49902 -32.001 7.49902s-13.5 10.5 -18.5 16.5
s-10.167 11.5 -15.5 16.5s-12.333 7.5 -21 7.5c-12 0 -21.5 -3.16699 -28.5 -9.5s-12.667 -12.666 -17 -18.999s-8.83301 -9.5 -13.5 -9.5c-7.33301 0 -14.166 3.33301 -20.499 10s-11.166 13.334 -14.499 20.001l-5 10c16.667 28 35.167 47.5 55.5 58.5
s39.5 16.5 57.5 16.5c10.667 0 19.5 -2.33301 26.5 -7s13 -10.167 18 -16.5s10.833 -11.833 17.5 -16.5s15 -7 25 -7c16 0 27.667 3.16699 35 9.5s13 12.666 17 18.999s8.33301 9.5 13 9.5c6 0 11.167 -3.66699 15.5 -11s7.66602 -14.833 9.99902 -22.5l3.5 -11.5
c-1.33301 -2.66699 -4.83301 -7.66699 -10.5 -15s-13.334 -15.333 -23.001 -24s-20.667 -16.167 -33 -22.5s-26.166 -9.5 -41.499 -9.5z" />
    <glyph glyph-name="Odieresis" unicode="&#xd6;" horiz-adv-x="429" 
d="M211 -10c-32.667 0 -60.499 5.5 -83.499 16.5s-41.667 30.167 -56 57.5s-24.833 64.5 -31.5 111.5s-10 106.5 -10 178.5c0 88.667 7 159 21 211s35.167 89.167 63.5 111.5s64.166 33.5 107.499 33.5c32 0 59.333 -5.83301 82 -17.5s41 -31 55 -58s24.167 -63 30.5 -108
s9.5 -101.5 9.5 -169.5c0 -92 -6.5 -164.667 -19.5 -218s-33.333 -91.5 -61 -114.5s-63.5 -34.5 -107.5 -34.5zM214.001 74c24.667 0 43.833 9.16699 57.5 27.5s23.667 48.333 30 90s9.5 96.167 9.5 163.5c0 66.667 -2.66699 119.834 -8 159.501s-14.5 68.167 -27.5 85.5
s-31.5 26 -55.5 26c-23.333 0 -42.333 -9.33301 -57 -28s-25.334 -49.334 -32.001 -92.001s-10 -100 -10 -172c0 -62 2.83301 -112 8.5 -150s15.334 -65.833 29.001 -83.5s32.167 -26.5 55.5 -26.5zM153 772c-12.667 0 -22.5 4.33301 -29.5 13s-10.167 24.334 -9.5 47.001
c0 17.333 3.5 31.166 10.5 41.499s18.167 15.5 33.5 15.5c14.667 0 25 -4.16699 31 -12.5s8.66699 -22.5 8 -42.5c0 -20 -3.66699 -35.333 -11 -46s-18.333 -16 -33 -16zM272 772c-12.667 0 -22.499 4.33301 -29.499 13s-10.5 24.334 -10.5 47.001
c0.666992 17.333 4.66699 31.166 12 41.499s18.333 15.5 33 15.5c15.333 0 25.666 -4.16699 30.999 -12.5s8 -22.5 8 -42.5s-3.66699 -35.333 -11 -46s-18.333 -16 -33 -16z" />
    <glyph glyph-name="multiply" unicode="&#xd7;" horiz-adv-x="418" 
d="M284 144l-213 237c18 17.333 31.5 29.5 40.5 36.5s16.167 7.5 21.5 1.5l213 -236c-18 -17.333 -31.333 -29.5 -40 -36.5s-16 -7.83301 -22 -2.5zM133 144c-5.33301 -5.33301 -12.5 -4.5 -21.5 2.5s-22.5 19.167 -40.5 36.5l213 236c6 6 13.333 5.5 22 -1.5
s22 -19.167 40 -36.5z" />
    <glyph glyph-name="Oslash" unicode="&#xd8;" horiz-adv-x="436" 
d="M222 710c43.333 0 78.1709 -10.668 104.504 -32.001s45.5 -57.666 57.5 -108.999s18 -122 18 -212c0 -92 -6.5 -164.667 -19.5 -218s-33.333 -91.5 -61 -114.5s-63.5 -34.5 -107.5 -34.5c-32.667 0 -60.334 5.5 -83.001 16.5s-41.334 30.167 -56.001 57.5
s-25.334 64.5 -32.001 111.5s-10 106.5 -10 178.5c0 88.667 6.66699 159 20 211s34.166 89.167 62.499 111.5s63.833 33.5 106.5 33.5zM222.005 626.999c-23.333 0 -42.168 -9.33398 -56.501 -28.001s-24.833 -49.5 -31.5 -92.5s-10 -100.5 -10 -172.5
c0 -62 2.33301 -112 7 -150s13.334 -65.833 26.001 -83.5s30.667 -26.5 54 -26.5c16 0 30.5 3.5 43.5 10.5s24 20.333 33 40s15.667 48.167 20 85.5s6.5 85.666 6.5 144.999c0 66.667 -2.5 119.834 -7.5 159.501s-14.333 68.334 -28 86.001s-32.5 26.5 -56.5 26.5z
M67.0029 121.998l11 -2.49902c7.33301 -1.66699 14.666 -4.66699 21.999 -9s11.666 -9.83301 12.999 -16.5c0.666992 -2.66699 -0.833008 -9.33398 -4.5 -20.001s-8 -22.5 -13 -35.5l-14 -35c-4.33301 -10.333 -7.16602 -16.833 -8.49902 -19.5c-7.33301 0 -17 2 -29 6
s-19 10.333 -21 19c-0.666992 2 1.33301 8.83301 6 20.5l15.5 39c5.66699 14.333 10.834 26.833 15.501 37.5zM101.003 89.999l195.001 552.002l10 -2c6.66699 -1.33301 13.667 -3.83301 21 -7.5s11.333 -8.83398 12 -15.501c0.666992 -2 -2.5 -13.167 -9.5 -33.5l-27.5 -80
l-37.5 -107.5l-41.5 -116l-38 -106.5l-28 -77.5l-11 -29l-10.5 2c-7 1.33301 -14.333 3.66602 -22 6.99902s-11.834 8 -12.501 14zM371.004 556.001l-8.5 2c-5.66699 1.33301 -12.167 3.5 -19.5 6.5s-14 6.5 -20 10.5s-9.33301 8 -10 12l4.5 12l11 30l13.5 37
c4.66699 12.667 9 23.834 13 33.501l8 19.5l12 -2c8 -1.33301 16.333 -3.83301 25 -7.5s13.667 -8.83398 15 -15.501c0 -2 -1.33301 -8.16699 -4 -18.5s-6.16699 -22 -10.5 -35l-13.5 -39l-11.5 -32.5z" />
    <glyph glyph-name="Ugrave" unicode="&#xd9;" 
d="M223 -10c-40 0 -72.001 5.66699 -96.001 17s-42 26.833 -54 46.5s-20 42.5 -24 68.5s-6 53.333 -6 82v479c0 6 1.33301 10 4 12s9.66699 3.33301 21 4s31 1 59 1v-498c0 -20 1 -38.5 3 -55.5s6.5 -31.5 13.5 -43.5s16.833 -21.333 29.5 -28s29.334 -10 50.001 -10
c18 0 35 1.83301 51 5.5s28.333 7.5 37 11.5v601c0 6 1.33301 10 4 12s9.66699 3.33301 21 4s30.333 1 57 1v-674c-12 -8 -33.333 -16 -64 -24s-66 -12 -106 -12zM258.999 753c-8 4.66699 -19.1641 11.668 -33.4971 21.001s-28.833 19.333 -43.5 30
s-27.834 20.667 -39.501 30s-19.5 16.333 -23.5 21c2 12 6.33301 25.167 13 39.5s15 21.5 25 21.5c2 0 7.66699 -3.66699 17 -11l35 -28.5c14 -11.667 28.167 -24.334 42.5 -38.001s27.166 -27.167 38.499 -40.5l-3.5 -11c-2.33301 -7.33301 -5.83301 -14.833 -10.5 -22.5
s-10.334 -11.5 -17.001 -11.5z" />
    <glyph glyph-name="Uacute" unicode="&#xda;" 
d="M223 -10c-40 0 -72.001 5.66699 -96.001 17s-42 26.833 -54 46.5s-20 42.5 -24 68.5s-6 53.333 -6 82v479c0 6 1.33301 10 4 12s9.66699 3.33301 21 4s31 1 59 1v-498c0 -20 1 -38.5 3 -55.5s6.5 -31.5 13.5 -43.5s16.833 -21.333 29.5 -28s29.334 -10 50.001 -10
c18 0 35 1.83301 51 5.5s28.333 7.5 37 11.5v601c0 6 1.33301 10 4 12s9.66699 3.33301 21 4s30.333 1 57 1v-674c-12 -8 -33.333 -16 -64 -24s-66 -12 -106 -12zM169.999 760c-6 0 -11.3311 3.66602 -15.998 10.999s-8.33398 14.833 -11.001 22.5l-4 11.5
c11.333 12.667 24.166 25.834 38.499 39.501s28.5 26.5 42.5 38.5s25.833 21.5 35.5 28.5s15.5 10.5 17.5 10.5c9.33301 0 17.5 -7.16699 24.5 -21.5s11.167 -27.5 12.5 -39.5c-3.33301 -4.66699 -11 -11.5 -23 -20.5l-40 -29.5l-43 -30
c-14 -9.33301 -25.333 -16.333 -34 -21z" />
    <glyph glyph-name="Ucircumflex" unicode="&#xdb;" 
d="M223 -10c-40 0 -72.001 5.66699 -96.001 17s-42 26.833 -54 46.5s-20 42.5 -24 68.5s-6 53.333 -6 82v479c0 6 1.33301 10 4 12s9.66699 3.33301 21 4s31 1 59 1v-498c0 -20 1 -38.5 3 -55.5s6.5 -31.5 13.5 -43.5s16.833 -21.333 29.5 -28s29.334 -10 50.001 -10
c18 0 35 1.83301 51 5.5s28.333 7.5 37 11.5v601c0 6 1.33301 10 4 12s9.66699 3.33301 21 4s30.333 1 57 1v-674c-12 -8 -33.333 -16 -64 -24s-66 -12 -106 -12zM287.999 761l-8.49902 8c-5.66699 5.33301 -12.167 12.333 -19.5 21l-21.5 26c-7 8.66699 -12.5 16 -16.5 22
l-8.5 -11.5c-5.66699 -7.66699 -12.834 -16.667 -21.501 -27s-17.167 -19.166 -25.5 -26.499s-14.5 -11 -18.5 -11c-14 0 -25.5 2.16699 -34.5 6.5s-16.167 9.83301 -21.5 16.5l114 123c5.33301 2 11 3 17 3c4.66699 0 9 -0.833008 13 -2.5s8 -4.83398 12 -9.50098l15 -15
c10 -10 21.333 -22 34 -36s24 -27.167 34 -39.5s15 -20.5 15 -24.5c0 -7.33301 -6 -13 -18 -17s-25.333 -6 -40 -6z" />
    <glyph glyph-name="Udieresis" unicode="&#xdc;" 
d="M223 -10c-40 0 -72.001 5.66699 -96.001 17s-42 26.833 -54 46.5s-20 42.5 -24 68.5s-6 53.333 -6 82v479c0 6 1.33301 10 4 12s9.66699 3.33301 21 4s31 1 59 1v-498c0 -20 1 -38.5 3 -55.5s6.5 -31.5 13.5 -43.5s16.833 -21.333 29.5 -28s29.334 -10 50.001 -10
c18 0 35 1.83301 51 5.5s28.333 7.5 37 11.5v601c0 6 1.33301 10 4 12s9.66699 3.33301 21 4s30.333 1 57 1v-674c-12 -8 -33.333 -16 -64 -24s-66 -12 -106 -12zM156.999 772c-12.667 0 -22.5 4.33301 -29.5 13s-10.167 24.334 -9.5 47.001
c0 17.333 3.5 31.166 10.5 41.499s18.167 15.5 33.5 15.5c14.667 0 25 -4.16699 31 -12.5s8.66699 -22.5 8 -42.5c0 -20 -3.66699 -35.333 -11 -46s-18.333 -16 -33 -16zM275.999 772c-12.667 0 -22.499 4.33301 -29.499 13s-10.5 24.334 -10.5 47.001
c0.666992 17.333 4.66699 31.166 12 41.499s18.333 15.5 33 15.5c15.333 0 25.666 -4.16699 30.999 -12.5s8 -22.5 8 -42.5s-3.66699 -35.333 -11 -46s-18.333 -16 -33 -16z" />
    <glyph glyph-name="Yacute" unicode="&#xdd;" horiz-adv-x="364" 
d="M207 234l-45.998 0.999023l-155 452c-1.33301 4.66699 -0.833008 7.83398 1.5 9.50098s10.166 2.66699 23.499 3s35.666 0.5 66.999 0.5l40 -137l15.5 -55.5c5.66699 -21 11 -41.833 16 -62.5s9 -39.167 12 -55.5s4.83301 -28.166 5.5 -35.499
c0.666992 7.33301 2.66699 19.166 6 35.499s7.5 34.833 12.5 55.5s10.333 41.5 16 62.5l15.5 55.5l35 122c1.33301 5.33301 3.5 9 6.5 11s10.5 3.16699 22.5 3.5s31.667 0.5 59 0.5zM144.002 -0.000976562v342h81v-326c0 -5.33301 -1.16699 -9 -3.5 -11s-9 -3.33301 -20 -4
s-30.167 -1 -57.5 -1zM134.002 759.999c-6 0 -11.3311 3.66602 -15.998 10.999s-8.33398 14.833 -11.001 22.5l-4 11.5c11.333 12.667 24.166 25.834 38.499 39.501s28.5 26.5 42.5 38.5s25.833 21.5 35.5 28.5s15.5 10.5 17.5 10.5c9.33301 0 17.5 -7.16699 24.5 -21.5
s11.167 -27.5 12.5 -39.5c-3.33301 -4.66699 -11 -11.5 -23 -20.5l-40 -29.5l-43 -30c-14 -9.33301 -25.333 -16.333 -34 -21z" />
    <glyph glyph-name="Thorn" unicode="&#xde;" horiz-adv-x="360" 
d="M43 0v680.001c0 8.66699 3.83301 14.167 11.5 16.5s22.5 3.5 44.5 3.5h25v-134h35c42 0 76.667 -6.83301 104 -20.5s47.5 -35 60.5 -64s19.5 -66.5 19.5 -112.5c0 -41.333 -4.83301 -76 -14.5 -104s-23 -50.333 -40 -67s-36.5 -28.834 -58.5 -36.501
s-45.333 -11.5 -70 -11.5h-36v-134c0 -5.33301 -1.33301 -9 -4 -11s-9.66699 -3.33301 -21 -4s-30 -1 -56 -1zM168 225.001c18.667 0 34.168 5 46.501 15s21.833 26.167 28.5 48.5s10 52.166 10 89.499c0 23.333 -2.33301 43.833 -7 61.5s-12.834 31.334 -24.501 41.001
s-27.5 14.5 -47.5 14.5c-10.667 0 -19.667 -0.166992 -27 -0.5s-15 -0.833008 -23 -1.5v-265c5.33301 0 11.5 -0.5 18.5 -1.5s15.5 -1.5 25.5 -1.5z" />
    <glyph glyph-name="germandbls" unicode="&#xdf;" horiz-adv-x="465" 
d="M84 -9c-15.333 0 -26.6709 1.83691 -34.0039 5.50391l-11 5.5l5.5 19c3.66699 12.667 5.5 30.334 5.5 53.001l-3 476c0 54 14.667 93.333 44 118s68.333 37 117 37c36.667 0 67.834 -4.16699 93.501 -12.5s46.334 -19.5 62.001 -33.5s27.167 -29.5 34.5 -46.5
s11 -34.167 11 -51.5c0 -18.667 -3.66699 -33.834 -11 -45.501s-16.333 -21.834 -27 -30.501s-21.5 -16.834 -32.5 -24.501s-20.167 -15.834 -27.5 -24.501s-11 -19.667 -11 -33s5.16699 -26.333 15.5 -39s23.333 -26 39 -40s31.167 -29.833 46.5 -47.5
s28.333 -37.667 39 -60s16 -48.5 16 -78.5c0 -45.333 -13.333 -81.166 -40 -107.499s-63.334 -39.5 -110.001 -39.5c-40 0 -69.833 5.16699 -89.5 15.5s-29.5 20.166 -29.5 29.499c0 14 2.33301 25.5 7 34.5s9.33398 15.833 14.001 20.5
c4.66699 -4.66699 13.834 -10.334 27.501 -17.001s31.167 -10 52.5 -10c23.333 0 42 6.16699 56 18.5s21 30.5 21 54.5c0 21.333 -5.16699 40.833 -15.5 58.5s-23.166 34.334 -38.499 50.001l-45.5 47.5c-15 16 -27.833 32.5 -38.5 49.5s-16 35.833 -16 56.5
c0 18 3.83301 33.333 11.5 46s17 23.5 28 32.5l32.5 25.5c10.667 8 19.834 16.667 27.501 26s11.5 19.666 11.5 30.999c0 12 -4 23.167 -12 33.5s-19.833 18.833 -35.5 25.5s-35.834 10 -60.501 10c-32.667 0 -55 -9.66699 -67 -29s-18 -51.333 -18 -96l3 -460
c0 -18.667 -3 -32.167 -9 -40.5s-19 -12.5 -39 -12.5z" />
    <glyph glyph-name="agrave" unicode="&#xe0;" horiz-adv-x="354" 
d="M172 -10c-18.667 0 -36.501 1.49902 -53.501 4.49902s-32.167 9.66699 -45.5 20s-24 25.5 -32 45.5s-12 47.333 -12 82s3.66699 62.834 11 84.501s17.333 38.334 30 50.001s27 19.5 43 23.5s32.333 6 49 6c10.667 0 23.167 -1 37.5 -3s26.5 -5.33301 36.5 -10v14v32.5
v32.5c0 16 -2.5 28.167 -7.5 36.5s-12 14.333 -21 18s-20.167 5.5 -33.5 5.5c-26 0 -51 -2.33301 -75 -7s-43.333 -10 -58 -16c-4.66699 8 -7.66699 16.167 -9 24.5s-2 15.833 -2 22.5c0 4.66699 0.833008 9.66699 2.5 15s4.5 9.33301 8.5 12
c8.66699 5.33301 26.667 11.166 54 17.499s60 9.5 98 9.5c43.333 0 74.833 -9 94.5 -27s29.5 -49.667 29.5 -95v-53c0 -38 -0.166992 -76.167 -0.5 -114.5s-0.833008 -74.333 -1.5 -108s-2 -63.167 -4 -88.5c-13.333 -8 -31.666 -15.667 -54.999 -23s-51.333 -11 -84 -11z
M179.999 57.999c10.667 0 21.002 1.66504 31.002 4.99805s17 7.33301 21 12c1.33301 10.667 2.16602 25.334 2.49902 44.001s0.666016 38.334 0.999023 59.001s0.5 40 0.5 58c-6.66699 3.33301 -14.5 5.66602 -23.5 6.99902s-16.833 2 -23.5 2
c-10.667 0 -20.5 -1.16699 -29.5 -3.5s-16.833 -7 -23.5 -14s-12 -17.167 -16 -30.5s-6 -31 -6 -53c0 -18 1.5 -32.667 4.5 -44s7.5 -20.166 13.5 -26.499s13 -10.5 21 -12.5s17 -3 27 -3zM215.001 552.997c-8 4.66699 -19.1641 11.668 -33.4971 21.001
s-28.833 19.333 -43.5 30s-27.834 20.667 -39.501 30s-19.5 16.333 -23.5 21c2 12 6.33301 25.167 13 39.5s15 21.5 25 21.5c2 0 7.66699 -3.66699 17 -11l35 -28.5c14 -11.667 28.167 -24.334 42.5 -38.001s27.166 -27.167 38.499 -40.5l-3.5 -11
c-2.33301 -7.33301 -5.83301 -14.833 -10.5 -22.5s-10.334 -11.5 -17.001 -11.5z" />
    <glyph glyph-name="aacute" unicode="&#xe1;" horiz-adv-x="354" 
d="M172 -10c-18.667 0 -36.501 1.49902 -53.501 4.49902s-32.167 9.66699 -45.5 20s-24 25.5 -32 45.5s-12 47.333 -12 82s3.66699 62.834 11 84.501s17.333 38.334 30 50.001s27 19.5 43 23.5s32.333 6 49 6c10.667 0 23.167 -1 37.5 -3s26.5 -5.33301 36.5 -10v14v32.5
v32.5c0 16 -2.5 28.167 -7.5 36.5s-12 14.333 -21 18s-20.167 5.5 -33.5 5.5c-26 0 -51 -2.33301 -75 -7s-43.333 -10 -58 -16c-4.66699 8 -7.66699 16.167 -9 24.5s-2 15.833 -2 22.5c0 4.66699 0.833008 9.66699 2.5 15s4.5 9.33301 8.5 12
c8.66699 5.33301 26.667 11.166 54 17.499s60 9.5 98 9.5c43.333 0 74.833 -9 94.5 -27s29.5 -49.667 29.5 -95v-53c0 -38 -0.166992 -76.167 -0.5 -114.5s-0.833008 -74.333 -1.5 -108s-2 -63.167 -4 -88.5c-13.333 -8 -31.666 -15.667 -54.999 -23s-51.333 -11 -84 -11z
M179.999 57.999c10.667 0 21.002 1.66504 31.002 4.99805s17 7.33301 21 12c1.33301 10.667 2.16602 25.334 2.49902 44.001s0.666016 38.334 0.999023 59.001s0.5 40 0.5 58c-6.66699 3.33301 -14.5 5.66602 -23.5 6.99902s-16.833 2 -23.5 2
c-10.667 0 -20.5 -1.16699 -29.5 -3.5s-16.833 -7 -23.5 -14s-12 -17.167 -16 -30.5s-6 -31 -6 -53c0 -18 1.5 -32.667 4.5 -44s7.5 -20.166 13.5 -26.499s13 -10.5 21 -12.5s17 -3 27 -3zM126.001 559.997c-6 0 -11.3311 3.66602 -15.998 10.999
s-8.33398 14.833 -11.001 22.5l-4 11.5c11.333 12.667 24.166 25.834 38.499 39.501s28.5 26.5 42.5 38.5s25.833 21.5 35.5 28.5s15.5 10.5 17.5 10.5c9.33301 0 17.5 -7.16699 24.5 -21.5s11.167 -27.5 12.5 -39.5c-3.33301 -4.66699 -11 -11.5 -23 -20.5l-40 -29.5
l-43 -30c-14 -9.33301 -25.333 -16.333 -34 -21z" />
    <glyph glyph-name="acircumflex" unicode="&#xe2;" horiz-adv-x="354" 
d="M172 -10c-18.667 0 -36.501 1.49902 -53.501 4.49902s-32.167 9.66699 -45.5 20s-24 25.5 -32 45.5s-12 47.333 -12 82s3.66699 62.834 11 84.501s17.333 38.334 30 50.001s27 19.5 43 23.5s32.333 6 49 6c10.667 0 23.167 -1 37.5 -3s26.5 -5.33301 36.5 -10v14v32.5
v32.5c0 16 -2.5 28.167 -7.5 36.5s-12 14.333 -21 18s-20.167 5.5 -33.5 5.5c-26 0 -51 -2.33301 -75 -7s-43.333 -10 -58 -16c-4.66699 8 -7.66699 16.167 -9 24.5s-2 15.833 -2 22.5c0 4.66699 0.833008 9.66699 2.5 15s4.5 9.33301 8.5 12
c8.66699 5.33301 26.667 11.166 54 17.499s60 9.5 98 9.5c43.333 0 74.833 -9 94.5 -27s29.5 -49.667 29.5 -95v-53c0 -38 -0.166992 -76.167 -0.5 -114.5s-0.833008 -74.333 -1.5 -108s-2 -63.167 -4 -88.5c-13.333 -8 -31.666 -15.667 -54.999 -23s-51.333 -11 -84 -11z
M179.999 57.999c10.667 0 21.002 1.66504 31.002 4.99805s17 7.33301 21 12c1.33301 10.667 2.16602 25.334 2.49902 44.001s0.666016 38.334 0.999023 59.001s0.5 40 0.5 58c-6.66699 3.33301 -14.5 5.66602 -23.5 6.99902s-16.833 2 -23.5 2
c-10.667 0 -20.5 -1.16699 -29.5 -3.5s-16.833 -7 -23.5 -14s-12 -17.167 -16 -30.5s-6 -31 -6 -53c0 -18 1.5 -32.667 4.5 -44s7.5 -20.166 13.5 -26.499s13 -10.5 21 -12.5s17 -3 27 -3zM244.001 560.997l-8.49902 8c-5.66699 5.33301 -12.167 12.333 -19.5 21l-21.5 26
c-7 8.66699 -12.5 16 -16.5 22l-8.5 -11.5c-5.66699 -7.66699 -12.834 -16.667 -21.501 -27s-17.167 -19.166 -25.5 -26.499s-14.5 -11 -18.5 -11c-14 0 -25.5 2.16699 -34.5 6.5s-16.167 9.83301 -21.5 16.5l114 123c5.33301 2 11 3 17 3c4.66699 0 9 -0.833008 13 -2.5
s8 -4.83398 12 -9.50098l15 -15c10 -10 21.333 -22 34 -36s24 -27.167 34 -39.5s15 -20.5 15 -24.5c0 -7.33301 -6 -13 -18 -17s-25.333 -6 -40 -6z" />
    <glyph glyph-name="atilde" unicode="&#xe3;" horiz-adv-x="354" 
d="M172 -10c-18.667 0 -36.501 1.49902 -53.501 4.49902s-32.167 9.66699 -45.5 20s-24 25.5 -32 45.5s-12 47.333 -12 82s3.66699 62.834 11 84.501s17.333 38.334 30 50.001s27 19.5 43 23.5s32.333 6 49 6c10.667 0 23.167 -1 37.5 -3s26.5 -5.33301 36.5 -10v14v32.5
v32.5c0 16 -2.5 28.167 -7.5 36.5s-12 14.333 -21 18s-20.167 5.5 -33.5 5.5c-26 0 -51 -2.33301 -75 -7s-43.333 -10 -58 -16c-4.66699 8 -7.66699 16.167 -9 24.5s-2 15.833 -2 22.5c0 4.66699 0.833008 9.66699 2.5 15s4.5 9.33301 8.5 12
c8.66699 5.33301 26.667 11.166 54 17.499s60 9.5 98 9.5c43.333 0 74.833 -9 94.5 -27s29.5 -49.667 29.5 -95v-53c0 -38 -0.166992 -76.167 -0.5 -114.5s-0.833008 -74.333 -1.5 -108s-2 -63.167 -4 -88.5c-13.333 -8 -31.666 -15.667 -54.999 -23s-51.333 -11 -84 -11z
M179.999 57.999c10.667 0 21.002 1.66504 31.002 4.99805s17 7.33301 21 12c1.33301 10.667 2.16602 25.334 2.49902 44.001s0.666016 38.334 0.999023 59.001s0.5 40 0.5 58c-6.66699 3.33301 -14.5 5.66602 -23.5 6.99902s-16.833 2 -23.5 2
c-10.667 0 -20.5 -1.16699 -29.5 -3.5s-16.833 -7 -23.5 -14s-12 -17.167 -16 -30.5s-6 -31 -6 -53c0 -18 1.5 -32.667 4.5 -44s7.5 -20.166 13.5 -26.499s13 -10.5 21 -12.5s17 -3 27 -3zM214.001 561.997c-14 0 -24.668 2.49902 -32.001 7.49902s-13.5 10.5 -18.5 16.5
s-10.167 11.5 -15.5 16.5s-12.333 7.5 -21 7.5c-12 0 -21.5 -3.16699 -28.5 -9.5s-12.667 -12.666 -17 -18.999s-8.83301 -9.5 -13.5 -9.5c-7.33301 0 -14.166 3.33301 -20.499 10s-11.166 13.334 -14.499 20.001l-5 10c16.667 28 35.167 47.5 55.5 58.5
s39.5 16.5 57.5 16.5c10.667 0 19.5 -2.33301 26.5 -7s13 -10.167 18 -16.5s10.833 -11.833 17.5 -16.5s15 -7 25 -7c16 0 27.667 3.16699 35 9.5s13 12.666 17 18.999s8.33301 9.5 13 9.5c6 0 11.167 -3.66699 15.5 -11s7.66602 -14.833 9.99902 -22.5l3.5 -11.5
c-1.33301 -2.66699 -4.83301 -7.66699 -10.5 -15s-13.334 -15.333 -23.001 -24s-20.667 -16.167 -33 -22.5s-26.166 -9.5 -41.499 -9.5z" />
    <glyph glyph-name="adieresis" unicode="&#xe4;" horiz-adv-x="354" 
d="M172 -10c-18.667 0 -36.501 1.49902 -53.501 4.49902s-32.167 9.66699 -45.5 20s-24 25.5 -32 45.5s-12 47.333 -12 82s3.66699 62.834 11 84.501s17.333 38.334 30 50.001s27 19.5 43 23.5s32.333 6 49 6c10.667 0 23.167 -1 37.5 -3s26.5 -5.33301 36.5 -10v14v32.5
v32.5c0 16 -2.5 28.167 -7.5 36.5s-12 14.333 -21 18s-20.167 5.5 -33.5 5.5c-26 0 -51 -2.33301 -75 -7s-43.333 -10 -58 -16c-4.66699 8 -7.66699 16.167 -9 24.5s-2 15.833 -2 22.5c0 4.66699 0.833008 9.66699 2.5 15s4.5 9.33301 8.5 12
c8.66699 5.33301 26.667 11.166 54 17.499s60 9.5 98 9.5c43.333 0 74.833 -9 94.5 -27s29.5 -49.667 29.5 -95v-53c0 -38 -0.166992 -76.167 -0.5 -114.5s-0.833008 -74.333 -1.5 -108s-2 -63.167 -4 -88.5c-13.333 -8 -31.666 -15.667 -54.999 -23s-51.333 -11 -84 -11z
M179.999 57.999c10.667 0 21.002 1.66504 31.002 4.99805s17 7.33301 21 12c1.33301 10.667 2.16602 25.334 2.49902 44.001s0.666016 38.334 0.999023 59.001s0.5 40 0.5 58c-6.66699 3.33301 -14.5 5.66602 -23.5 6.99902s-16.833 2 -23.5 2
c-10.667 0 -20.5 -1.16699 -29.5 -3.5s-16.833 -7 -23.5 -14s-12 -17.167 -16 -30.5s-6 -31 -6 -53c0 -18 1.5 -32.667 4.5 -44s7.5 -20.166 13.5 -26.499s13 -10.5 21 -12.5s17 -3 27 -3zM113.001 571.997c-12.667 0 -22.5 4.33301 -29.5 13s-10.167 24.334 -9.5 47.001
c0 17.333 3.5 31.166 10.5 41.499s18.167 15.5 33.5 15.5c14.667 0 25 -4.16699 31 -12.5s8.66699 -22.5 8 -42.5c0 -20 -3.66699 -35.333 -11 -46s-18.333 -16 -33 -16zM232.001 571.997c-12.667 0 -22.499 4.33301 -29.499 13s-10.5 24.334 -10.5 47.001
c0.666992 17.333 4.66699 31.166 12 41.499s18.333 15.5 33 15.5c15.333 0 25.666 -4.16699 30.999 -12.5s8 -22.5 8 -42.5s-3.66699 -35.333 -11 -46s-18.333 -16 -33 -16z" />
    <glyph glyph-name="aring" unicode="&#xe5;" horiz-adv-x="354" 
d="M172 -10c-18.667 0 -36.501 1.49902 -53.501 4.49902s-32.167 9.66699 -45.5 20s-24 25.5 -32 45.5s-12 47.333 -12 82s3.66699 62.834 11 84.501s17.333 38.334 30 50.001s27 19.5 43 23.5s32.333 6 49 6c10.667 0 23.167 -1 37.5 -3s26.5 -5.33301 36.5 -10v14v32.5
v32.5c0 16 -2.5 28.167 -7.5 36.5s-12 14.333 -21 18s-20.167 5.5 -33.5 5.5c-26 0 -51 -2.33301 -75 -7s-43.333 -10 -58 -16c-4.66699 8 -7.66699 16.167 -9 24.5s-2 15.833 -2 22.5c0 4.66699 0.833008 9.66699 2.5 15s4.5 9.33301 8.5 12
c8.66699 5.33301 26.667 11.166 54 17.499s60 9.5 98 9.5c43.333 0 74.833 -9 94.5 -27s29.5 -49.667 29.5 -95v-53c0 -38 -0.166992 -76.167 -0.5 -114.5s-0.833008 -74.333 -1.5 -108s-2 -63.167 -4 -88.5c-13.333 -8 -31.666 -15.667 -54.999 -23s-51.333 -11 -84 -11z
M179.999 57.999c10.667 0 21.002 1.66504 31.002 4.99805s17 7.33301 21 12c1.33301 10.667 2.16602 25.334 2.49902 44.001s0.666016 38.334 0.999023 59.001s0.5 40 0.5 58c-6.66699 3.33301 -14.5 5.66602 -23.5 6.99902s-16.833 2 -23.5 2
c-10.667 0 -20.5 -1.16699 -29.5 -3.5s-16.833 -7 -23.5 -14s-12 -17.167 -16 -30.5s-6 -31 -6 -53c0 -18 1.5 -32.667 4.5 -44s7.5 -20.166 13.5 -26.499s13 -10.5 21 -12.5s17 -3 27 -3zM172.001 541.997c-30 0 -53.166 6.83301 -69.499 20.5s-24.5 39.167 -24.5 76.5
c0 34 9 58.833 27 74.5s42.667 23.5 74 23.5s54.666 -6.83301 69.999 -20.5s23 -39.167 23 -76.5c0 -32.667 -8.5 -57.167 -25.5 -73.5s-41.833 -24.5 -74.5 -24.5zM174.002 596.997c12 0 21.832 3.33301 29.499 10s11.5 17.667 11.5 33c0 14.667 -3 25.167 -9 31.5
s-15 9.5 -27 9.5c-13.333 0 -23.666 -3.16699 -30.999 -9.5s-11 -17.5 -11 -33.5c0 -13.333 3.16699 -23.5 9.5 -30.5s15.5 -10.5 27.5 -10.5z" />
    <glyph glyph-name="ae" unicode="&#xe6;" horiz-adv-x="582" 
d="M400 -9c-23.333 0 -44.001 2.66797 -62.001 8.00098s-33.333 16 -46 32s-22.334 39.5 -29.001 70.5s-10 71.833 -10 122.5c0 64.667 4.33301 116 13 154s20.667 66.5 36 85.5s32.833 31.5 52.5 37.5s40.834 9 63.501 9c41.333 0 72.833 -13 94.5 -39s32.5 -66 32.5 -120
c0 -22 -0.833008 -45 -2.5 -69s-4.83398 -45 -9.50098 -63c-34 -4.66699 -65.667 -6.66699 -95 -6s-55.166 2.66699 -77.499 6s-39.666 6.33301 -51.999 9l-18.5 4l1 67l16 -4.5c10.667 -3 24.5 -6.16699 41.5 -9.5s35.5 -5.66602 55.5 -6.99902s39 -0.666016 57 2.00098
c2 9.33301 3.33301 19.666 4 30.999s1 21.666 1 30.999c-0.666992 36 -5 61.167 -13 75.5s-23 21.5 -45 21.5c-11.333 0 -22 -3.16699 -32 -9.5s-19 -17.333 -27 -33s-14.167 -37 -18.5 -64s-6.5 -62.167 -6.5 -105.5c0 -35.333 1.66699 -63.5 5 -84.5
s8.66602 -36.833 15.999 -47.5s16.333 -17.5 27 -20.5s23.334 -4.5 38.001 -4.5c24 0 46 2.66699 66 8s38.333 13 55 23c2.66699 -8 4.66699 -19.333 6 -34s2 -27.667 2 -39c0 -4.66699 -6.5 -9.83398 -19.5 -15.501s-29.833 -10.667 -50.5 -15s-43.667 -6.5 -69 -6.5z
M177.999 58.001c10 0 21.167 1.5 33.5 4.5s20.5 6.83301 24.5 11.5v176c-7.33301 2.66699 -15.333 4.66699 -24 6s-16.334 2 -23.001 2c-10.667 0 -20.5 -1.5 -29.5 -4.5s-16.833 -8.5 -23.5 -16.5s-12 -19.167 -16 -33.5s-6 -32.5 -6 -54.5
c0 -27.333 2.66699 -47.5 8 -60.5s12.833 -21.333 22.5 -25s20.834 -5.5 33.501 -5.5zM171.999 -8.99902c-18.667 -0.666992 -36.498 0.5 -53.498 3.5s-32.167 9.5 -45.5 19.5s-24 25.667 -32 47s-12 50.666 -12 87.999c0 34.667 3.66699 63 11 85s17.333 39.333 30 52
s26.667 21.334 42 26.001s31.333 7 48 7c12 0 25.167 -1 39.5 -3s26.5 -5.33301 36.5 -10v12v29v31c0 15.333 -3 27.333 -9 36s-14 14.667 -24 18s-21.667 5 -35 5c-25.333 0 -48.666 -2.16699 -69.999 -6.5s-40 -11.166 -56 -20.499c-4.66699 8 -7.5 17.333 -8.5 28
s-1.5 17.667 -1.5 21c0 5.33301 1 10.166 3 14.499s4.33301 7.5 7 9.5c9.33301 6 26.666 12 51.999 18s59.666 9 102.999 9c38.667 0 66.167 -9 82.5 -27s24.5 -49.667 24.5 -95v-367c-14 -8 -31.333 -15 -52 -21s-47.334 -9 -80.001 -9z" />
    <glyph glyph-name="ccedilla" unicode="&#xe7;" horiz-adv-x="312" 
d="M180 -10c-24.667 0 -46.166 3.16211 -64.499 9.49512s-33.833 18.333 -46.5 36s-22.167 42.834 -28.5 75.501s-9.5 75.334 -9.5 128.001c0 60 5.33301 108 16 144s24.834 63.167 42.501 81.5s37 30.5 58 36.5s41.833 9 62.5 9c23.333 0 43 -4.16699 59 -12.5
s24 -19.166 24 -32.499c0 -5.33301 -0.5 -12 -1.5 -20s-3.16699 -16.333 -6.5 -25c-8 4.66699 -18.333 8.83398 -31 12.501s-26 5.5 -40 5.5c-11.333 0 -22.833 -2.16699 -34.5 -6.5s-22.5 -13.166 -32.5 -26.499s-17.833 -33.333 -23.5 -60s-8.5 -62 -8.5 -106
c0 -35.333 1.83301 -64.5 5.5 -87.5s9.16699 -41 16.5 -54s16.666 -22.167 27.999 -27.5s24.333 -8 39 -8c16 0 31.167 2.5 45.5 7.5s25.833 10.167 34.5 15.5c2.66699 -8.66699 4.5 -16.5 5.5 -23.5s1.5 -13.833 1.5 -20.5c0 -14 -10.333 -26 -31 -36
s-47.334 -15 -80.001 -15zM160.001 -206.005c-14.667 0 -27.668 2 -39.001 6l-17 6l2 9c1.33301 6 3 12.333 5 19s4 11 6 13c3.33301 3.33301 9 2.5 17 -2.5s17.333 -7.5 28 -7.5s18.5 3 23.5 9s7.5 14.333 7.5 25c0 12.667 -2.66699 21.334 -8 26.001s-12.666 7 -21.999 7
c-12.667 0 -22.667 -0.833008 -30 -2.5l-11 -2.5l19 103h45l-12 -61l0.5 0.5c0.333008 0.333008 5.83301 0.5 16.5 0.5c12.667 0 24.167 -4.83301 34.5 -14.5s15.5 -26.167 15.5 -49.5c0 -17.333 -3.5 -32.333 -10.5 -45s-16.5 -22.334 -28.5 -29.001s-26 -10 -42 -10z" />
    <glyph glyph-name="egrave" unicode="&#xe8;" horiz-adv-x="360" 
d="M189 -10c-22.667 0 -43.8359 3.16602 -63.5029 9.49902s-36.667 17.833 -51 34.5s-25.333 40.334 -33 71.001s-11.5 70.334 -11.5 119.001c0 62.667 5 113 15 151s23.333 66.667 40 86s35.667 32.333 57 39s43 10 65 10c42 0 73.667 -13.333 95 -40s32 -67 32 -121
c0 -22 -0.833008 -44.667 -2.5 -68s-4.83398 -44 -9.50098 -62c-22.667 -4.66699 -48 -8 -76 -10s-54.667 -3.5 -80 -4.5s-46.166 -1.5 -62.499 -1.5h-24.5l1 66l19 -0.5c12.667 -0.333008 28.167 -0.333008 46.5 0s37 1.33301 56 3s35.167 4.5 48.5 8.5
c2 9.33301 3.33301 19.333 4 30s1 20.667 1 30c-0.666992 36 -4.83398 61.5 -12.501 76.5s-22.5 22.5 -44.5 22.5c-11.333 0 -22.166 -3.16699 -32.499 -9.5s-19.5 -17.333 -27.5 -33s-14.167 -37.167 -18.5 -64.5s-6.5 -62.333 -6.5 -105
c0 -31.333 1.83301 -57.333 5.5 -78s9.33398 -36.667 17.001 -48s17.334 -19.5 29.001 -24.5s25.834 -7.5 42.501 -7.5c20 0 39.833 2.66699 59.5 8s37.5 13 53.5 23c3.33301 -8 5.5 -17.167 6.5 -27.5s1.5 -19.5 1.5 -27.5c0 -10 -6.33301 -19.333 -19 -28
s-29.5 -15.334 -50.5 -20.001s-44.167 -7 -69.5 -7zM228.998 552.999c-8 4.66699 -19.1641 11.668 -33.4971 21.001s-28.833 19.333 -43.5 30s-27.834 20.667 -39.501 30s-19.5 16.333 -23.5 21c2 12 6.33301 25.167 13 39.5s15 21.5 25 21.5c2 0 7.66699 -3.66699 17 -11
l35 -28.5c14 -11.667 28.167 -24.334 42.5 -38.001s27.166 -27.167 38.499 -40.5l-3.5 -11c-2.33301 -7.33301 -5.83301 -14.833 -10.5 -22.5s-10.334 -11.5 -17.001 -11.5z" />
    <glyph glyph-name="eacute" unicode="&#xe9;" horiz-adv-x="360" 
d="M189 -10c-22.667 0 -43.8359 3.16602 -63.5029 9.49902s-36.667 17.833 -51 34.5s-25.333 40.334 -33 71.001s-11.5 70.334 -11.5 119.001c0 62.667 5 113 15 151s23.333 66.667 40 86s35.667 32.333 57 39s43 10 65 10c42 0 73.667 -13.333 95 -40s32 -67 32 -121
c0 -22 -0.833008 -44.667 -2.5 -68s-4.83398 -44 -9.50098 -62c-22.667 -4.66699 -48 -8 -76 -10s-54.667 -3.5 -80 -4.5s-46.166 -1.5 -62.499 -1.5h-24.5l1 66l19 -0.5c12.667 -0.333008 28.167 -0.333008 46.5 0s37 1.33301 56 3s35.167 4.5 48.5 8.5
c2 9.33301 3.33301 19.333 4 30s1 20.667 1 30c-0.666992 36 -4.83398 61.5 -12.501 76.5s-22.5 22.5 -44.5 22.5c-11.333 0 -22.166 -3.16699 -32.499 -9.5s-19.5 -17.333 -27.5 -33s-14.167 -37.167 -18.5 -64.5s-6.5 -62.333 -6.5 -105
c0 -31.333 1.83301 -57.333 5.5 -78s9.33398 -36.667 17.001 -48s17.334 -19.5 29.001 -24.5s25.834 -7.5 42.501 -7.5c20 0 39.833 2.66699 59.5 8s37.5 13 53.5 23c3.33301 -8 5.5 -17.167 6.5 -27.5s1.5 -19.5 1.5 -27.5c0 -10 -6.33301 -19.333 -19 -28
s-29.5 -15.334 -50.5 -20.001s-44.167 -7 -69.5 -7zM140.998 559.999c-6 0 -11.3311 3.66602 -15.998 10.999s-8.33398 14.833 -11.001 22.5l-4 11.5c11.333 12.667 24.166 25.834 38.499 39.501s28.5 26.5 42.5 38.5s25.833 21.5 35.5 28.5s15.5 10.5 17.5 10.5
c9.33301 0 17.5 -7.16699 24.5 -21.5s11.167 -27.5 12.5 -39.5c-3.33301 -4.66699 -11 -11.5 -23 -20.5l-40 -29.5l-43 -30c-14 -9.33301 -25.333 -16.333 -34 -21z" />
    <glyph glyph-name="ecircumflex" unicode="&#xea;" horiz-adv-x="360" 
d="M189 -10c-22.667 0 -43.8359 3.16602 -63.5029 9.49902s-36.667 17.833 -51 34.5s-25.333 40.334 -33 71.001s-11.5 70.334 -11.5 119.001c0 62.667 5 113 15 151s23.333 66.667 40 86s35.667 32.333 57 39s43 10 65 10c42 0 73.667 -13.333 95 -40s32 -67 32 -121
c0 -22 -0.833008 -44.667 -2.5 -68s-4.83398 -44 -9.50098 -62c-22.667 -4.66699 -48 -8 -76 -10s-54.667 -3.5 -80 -4.5s-46.166 -1.5 -62.499 -1.5h-24.5l1 66l19 -0.5c12.667 -0.333008 28.167 -0.333008 46.5 0s37 1.33301 56 3s35.167 4.5 48.5 8.5
c2 9.33301 3.33301 19.333 4 30s1 20.667 1 30c-0.666992 36 -4.83398 61.5 -12.501 76.5s-22.5 22.5 -44.5 22.5c-11.333 0 -22.166 -3.16699 -32.499 -9.5s-19.5 -17.333 -27.5 -33s-14.167 -37.167 -18.5 -64.5s-6.5 -62.333 -6.5 -105
c0 -31.333 1.83301 -57.333 5.5 -78s9.33398 -36.667 17.001 -48s17.334 -19.5 29.001 -24.5s25.834 -7.5 42.501 -7.5c20 0 39.833 2.66699 59.5 8s37.5 13 53.5 23c3.33301 -8 5.5 -17.167 6.5 -27.5s1.5 -19.5 1.5 -27.5c0 -10 -6.33301 -19.333 -19 -28
s-29.5 -15.334 -50.5 -20.001s-44.167 -7 -69.5 -7zM257.998 560.999l-8.49902 8c-5.66699 5.33301 -12.167 12.333 -19.5 21l-21.5 26c-7 8.66699 -12.5 16 -16.5 22l-8.5 -11.5c-5.66699 -7.66699 -12.834 -16.667 -21.501 -27s-17.167 -19.166 -25.5 -26.499
s-14.5 -11 -18.5 -11c-14 0 -25.5 2.16699 -34.5 6.5s-16.167 9.83301 -21.5 16.5l114 123c5.33301 2 11 3 17 3c4.66699 0 9 -0.833008 13 -2.5s8 -4.83398 12 -9.50098l15 -15c10 -10 21.333 -22 34 -36s24 -27.167 34 -39.5s15 -20.5 15 -24.5c0 -7.33301 -6 -13 -18 -17
s-25.333 -6 -40 -6z" />
    <glyph glyph-name="edieresis" unicode="&#xeb;" horiz-adv-x="360" 
d="M189 -10c-22.667 0 -43.8359 3.16602 -63.5029 9.49902s-36.667 17.833 -51 34.5s-25.333 40.334 -33 71.001s-11.5 70.334 -11.5 119.001c0 62.667 5 113 15 151s23.333 66.667 40 86s35.667 32.333 57 39s43 10 65 10c42 0 73.667 -13.333 95 -40s32 -67 32 -121
c0 -22 -0.833008 -44.667 -2.5 -68s-4.83398 -44 -9.50098 -62c-22.667 -4.66699 -48 -8 -76 -10s-54.667 -3.5 -80 -4.5s-46.166 -1.5 -62.499 -1.5h-24.5l1 66l19 -0.5c12.667 -0.333008 28.167 -0.333008 46.5 0s37 1.33301 56 3s35.167 4.5 48.5 8.5
c2 9.33301 3.33301 19.333 4 30s1 20.667 1 30c-0.666992 36 -4.83398 61.5 -12.501 76.5s-22.5 22.5 -44.5 22.5c-11.333 0 -22.166 -3.16699 -32.499 -9.5s-19.5 -17.333 -27.5 -33s-14.167 -37.167 -18.5 -64.5s-6.5 -62.333 -6.5 -105
c0 -31.333 1.83301 -57.333 5.5 -78s9.33398 -36.667 17.001 -48s17.334 -19.5 29.001 -24.5s25.834 -7.5 42.501 -7.5c20 0 39.833 2.66699 59.5 8s37.5 13 53.5 23c3.33301 -8 5.5 -17.167 6.5 -27.5s1.5 -19.5 1.5 -27.5c0 -10 -6.33301 -19.333 -19 -28
s-29.5 -15.334 -50.5 -20.001s-44.167 -7 -69.5 -7zM126.998 571.999c-12.667 0 -22.5 4.33301 -29.5 13s-10.167 24.334 -9.5 47.001c0 17.333 3.5 31.166 10.5 41.499s18.167 15.5 33.5 15.5c14.667 0 25 -4.16699 31 -12.5s8.66699 -22.5 8 -42.5
c0 -20 -3.66699 -35.333 -11 -46s-18.333 -16 -33 -16zM245.998 571.999c-12.667 0 -22.499 4.33301 -29.499 13s-10.5 24.334 -10.5 47.001c0.666992 17.333 4.66699 31.166 12 41.499s18.333 15.5 33 15.5c15.333 0 25.666 -4.16699 30.999 -12.5s8 -22.5 8 -42.5
s-3.66699 -35.333 -11 -46s-18.333 -16 -33 -16z" />
    <glyph glyph-name="igrave" unicode="&#xec;" horiz-adv-x="175" 
d="M46 0l-0.000976562 463c0 12.667 2.33301 21.5 7 26.5s13 8 25 9s29 1.5 51 1.5v-484c0 -5.33301 -1.16699 -9 -3.5 -11s-9.16602 -3.33301 -20.499 -4s-31 -1 -59 -1zM127.999 553c-8 4.66699 -19.1641 11.668 -33.4971 21.001s-28.833 19.333 -43.5 30
s-27.834 20.667 -39.501 30s-19.5 16.333 -23.5 21c2 12 6.33301 25.167 13 39.5s15 21.5 25 21.5c2 0 7.66699 -3.66699 17 -11l35 -28.5c14 -11.667 28.167 -24.334 42.5 -38.001s27.166 -27.167 38.499 -40.5l-3.5 -11c-2.33301 -7.33301 -5.83301 -14.833 -10.5 -22.5
s-10.334 -11.5 -17.001 -11.5z" />
    <glyph glyph-name="iacute" unicode="&#xed;" horiz-adv-x="175" 
d="M46 0l-0.000976562 463c0 12.667 2.33301 21.5 7 26.5s13 8 25 9s29 1.5 51 1.5v-484c0 -5.33301 -1.16699 -9 -3.5 -11s-9.16602 -3.33301 -20.499 -4s-31 -1 -59 -1zM38.999 560c-6 0 -11.3311 3.66602 -15.998 10.999s-8.33398 14.833 -11.001 22.5l-4 11.5
c11.333 12.667 24.166 25.834 38.499 39.501s28.5 26.5 42.5 38.5s25.833 21.5 35.5 28.5s15.5 10.5 17.5 10.5c9.33301 0 17.5 -7.16699 24.5 -21.5s11.167 -27.5 12.5 -39.5c-3.33301 -4.66699 -11 -11.5 -23 -20.5l-40 -29.5l-43 -30
c-14 -9.33301 -25.333 -16.333 -34 -21z" />
    <glyph glyph-name="icircumflex" unicode="&#xee;" horiz-adv-x="175" 
d="M46 0l-0.000976562 463c0 12.667 2.33301 21.5 7 26.5s13 8 25 9s29 1.5 51 1.5v-484c0 -5.33301 -1.16699 -9 -3.5 -11s-9.16602 -3.33301 -20.499 -4s-31 -1 -59 -1zM156.999 561l-8.49902 8c-5.66699 5.33301 -12.167 12.333 -19.5 21l-21.5 26
c-7 8.66699 -12.5 16 -16.5 22l-8.5 -11.5c-5.66699 -7.66699 -12.834 -16.667 -21.501 -27s-17.167 -19.166 -25.5 -26.499s-14.5 -11 -18.5 -11c-14 0 -25.5 2.16699 -34.5 6.5s-16.167 9.83301 -21.5 16.5l114 123c5.33301 2 11 3 17 3c4.66699 0 9 -0.833008 13 -2.5
s8 -4.83398 12 -9.50098l15 -15c10 -10 21.333 -22 34 -36s24 -27.167 34 -39.5s15 -20.5 15 -24.5c0 -7.33301 -6 -13 -18 -17s-25.333 -6 -40 -6z" />
    <glyph glyph-name="idieresis" unicode="&#xef;" horiz-adv-x="175" 
d="M46 0l-0.000976562 463c0 12.667 2.33301 21.5 7 26.5s13 8 25 9s29 1.5 51 1.5v-484c0 -5.33301 -1.16699 -9 -3.5 -11s-9.16602 -3.33301 -20.499 -4s-31 -1 -59 -1zM25.999 572c-12.667 0 -22.5 4.33301 -29.5 13s-10.167 24.334 -9.5 47.001
c0 17.333 3.5 31.166 10.5 41.499s18.167 15.5 33.5 15.5c14.667 0 25 -4.16699 31 -12.5s8.66699 -22.5 8 -42.5c0 -20 -3.66699 -35.333 -11 -46s-18.333 -16 -33 -16zM144.999 572c-12.667 0 -22.499 4.33301 -29.499 13s-10.5 24.334 -10.5 47.001
c0.666992 17.333 4.66699 31.166 12 41.499s18.333 15.5 33 15.5c15.333 0 25.666 -4.16699 30.999 -12.5s8 -22.5 8 -42.5s-3.66699 -35.333 -11 -46s-18.333 -16 -33 -16z" />
    <glyph glyph-name="eth" unicode="&#xf0;" horiz-adv-x="408" 
d="M209 -10c-40 0 -73.332 8.66699 -99.999 26s-46.5 45.5 -59.5 84.5s-19.5 91.167 -19.5 156.5c0 82 14.5 144.5 43.5 187.5s67.833 64.5 116.5 64.5c30 0 54.667 -6.33301 74 -19s35 -32 47 -58l3 -89c-12.667 33.333 -27.334 57.333 -44.001 72s-36.334 22 -59.001 22
s-41.167 -8.66699 -55.5 -26s-25.166 -40.5 -32.499 -69.5s-11 -61.5 -11 -97.5c0 -64.667 8.33301 -111.834 25 -141.501s40 -44.5 70 -44.5c20.667 0 37 5.83301 49 17.5s21 28.167 27 49.5s10 45.833 12 73.5s3 56.834 3 87.501c0 54 -3.33301 101.667 -10 143
s-17 78.166 -31 110.499s-32 62 -54 89s-48.333 53.167 -79 78.5c6.66699 11.333 15.5 20.333 26.5 27s21.833 10 32.5 10c5.33301 0 10.833 -1 16.5 -3s10.167 -5 13.5 -9c55.333 -45.333 97 -103.666 125 -174.999s42 -160.666 42 -267.999
c0 -40.667 -2.33301 -78.834 -7 -114.501s-13 -67.5 -25 -95.5s-29.167 -49.833 -51.5 -65.5s-51.5 -23.5 -87.5 -23.5zM129.001 564c-9.33301 23.333 -15.333 40.5 -18 51.5s-0.333984 18.167 6.99902 21.5l207 80c9.33301 -23.333 15.333 -40.333 18 -51
s0.333984 -17.667 -6.99902 -21z" />
    <glyph glyph-name="ntilde" unicode="&#xf1;" horiz-adv-x="382" 
d="M45 0l-0.00292969 476.002c13.333 6 29 11.5 47 16.5s36.667 9.16699 56 12.5s38 5 56 5c34.667 0 62.334 -4.5 83.001 -13.5s35.334 -23.167 44.001 -42.5s13 -45.333 13 -78v-360c0 -5.33301 -1.33301 -9 -4 -11s-9.66699 -3.33301 -21 -4s-31 -1 -59 -1v352
c0 31.333 -3.66699 53.666 -11 66.999s-23.333 20 -48 20c-11.333 0 -24 -1.33301 -38 -4s-26.333 -7.33398 -37 -14.001v-405c0 -5.33301 -1.16699 -9 -3.5 -11s-9.16602 -3.33301 -20.499 -4s-30.333 -1 -57 -1zM230.997 562.002c-14 0 -24.668 2.49902 -32.001 7.49902
s-13.5 10.5 -18.5 16.5s-10.167 11.5 -15.5 16.5s-12.333 7.5 -21 7.5c-12 0 -21.5 -3.16699 -28.5 -9.5s-12.667 -12.666 -17 -18.999s-8.83301 -9.5 -13.5 -9.5c-7.33301 0 -14.166 3.33301 -20.499 10s-11.166 13.334 -14.499 20.001l-5 10
c16.667 28 35.167 47.5 55.5 58.5s39.5 16.5 57.5 16.5c10.667 0 19.5 -2.33301 26.5 -7s13 -10.167 18 -16.5s10.833 -11.833 17.5 -16.5s15 -7 25 -7c16 0 27.667 3.16699 35 9.5s13 12.666 17 18.999s8.33301 9.5 13 9.5c6 0 11.167 -3.66699 15.5 -11
s7.66602 -14.833 9.99902 -22.5l3.5 -11.5c-1.33301 -2.66699 -4.83301 -7.66699 -10.5 -15s-13.334 -15.333 -23.001 -24s-20.667 -16.167 -33 -22.5s-26.166 -9.5 -41.499 -9.5z" />
    <glyph glyph-name="ograve" unicode="&#xf2;" horiz-adv-x="376" 
d="M184 -10c-25.333 0 -47.833 3.16602 -67.5 9.49902s-36.167 18.5 -49.5 36.5s-23.333 44.167 -30 78.5s-10 79.5 -10 135.5c0 91.333 14.667 157.5 44 198.5s70 61.5 122 61.5c35.333 0 64.5 -7.33301 87.5 -22s40.167 -40.667 51.5 -78s17 -89.666 17 -156.999
c0 -93.333 -14 -160.5 -42 -201.5s-69 -61.5 -123 -61.5zM186 58.999c14.667 0 27.499 5.16699 38.499 15.5s19.833 29.5 26.5 57.5s10 68 10 120c0 53.333 -2.66699 93.5 -8 120.5s-13 45.167 -23 54.5s-23.333 14 -40 14c-14.667 0 -27.667 -5.16699 -39 -15.5
s-20.166 -29.5 -26.499 -57.5s-9.5 -68 -9.5 -120c0 -40.667 1.66699 -73.667 5 -99s7.83301 -44.5 13.5 -57.5s13.167 -21.667 22.5 -26s19.333 -6.5 30 -6.5zM229.999 552.999c-8 4.66699 -19.1641 11.668 -33.4971 21.001s-28.833 19.333 -43.5 30
s-27.834 20.667 -39.501 30s-19.5 16.333 -23.5 21c2 12 6.33301 25.167 13 39.5s15 21.5 25 21.5c2 0 7.66699 -3.66699 17 -11l35 -28.5c14 -11.667 28.167 -24.334 42.5 -38.001s27.166 -27.167 38.499 -40.5l-3.5 -11c-2.33301 -7.33301 -5.83301 -14.833 -10.5 -22.5
s-10.334 -11.5 -17.001 -11.5z" />
    <glyph glyph-name="oacute" unicode="&#xf3;" horiz-adv-x="376" 
d="M184 -10c-25.333 0 -47.833 3.16602 -67.5 9.49902s-36.167 18.5 -49.5 36.5s-23.333 44.167 -30 78.5s-10 79.5 -10 135.5c0 91.333 14.667 157.5 44 198.5s70 61.5 122 61.5c35.333 0 64.5 -7.33301 87.5 -22s40.167 -40.667 51.5 -78s17 -89.666 17 -156.999
c0 -93.333 -14 -160.5 -42 -201.5s-69 -61.5 -123 -61.5zM186 58.999c14.667 0 27.499 5.16699 38.499 15.5s19.833 29.5 26.5 57.5s10 68 10 120c0 53.333 -2.66699 93.5 -8 120.5s-13 45.167 -23 54.5s-23.333 14 -40 14c-14.667 0 -27.667 -5.16699 -39 -15.5
s-20.166 -29.5 -26.499 -57.5s-9.5 -68 -9.5 -120c0 -40.667 1.66699 -73.667 5 -99s7.83301 -44.5 13.5 -57.5s13.167 -21.667 22.5 -26s19.333 -6.5 30 -6.5zM141.999 559.999c-6 0 -11.3311 3.66602 -15.998 10.999s-8.33398 14.833 -11.001 22.5l-4 11.5
c11.333 12.667 24.166 25.834 38.499 39.501s28.5 26.5 42.5 38.5s25.833 21.5 35.5 28.5s15.5 10.5 17.5 10.5c9.33301 0 17.5 -7.16699 24.5 -21.5s11.167 -27.5 12.5 -39.5c-3.33301 -4.66699 -11 -11.5 -23 -20.5l-40 -29.5l-43 -30
c-14 -9.33301 -25.333 -16.333 -34 -21z" />
    <glyph glyph-name="ocircumflex" unicode="&#xf4;" horiz-adv-x="376" 
d="M184 -10c-25.333 0 -47.833 3.16602 -67.5 9.49902s-36.167 18.5 -49.5 36.5s-23.333 44.167 -30 78.5s-10 79.5 -10 135.5c0 91.333 14.667 157.5 44 198.5s70 61.5 122 61.5c35.333 0 64.5 -7.33301 87.5 -22s40.167 -40.667 51.5 -78s17 -89.666 17 -156.999
c0 -93.333 -14 -160.5 -42 -201.5s-69 -61.5 -123 -61.5zM186 58.999c14.667 0 27.499 5.16699 38.499 15.5s19.833 29.5 26.5 57.5s10 68 10 120c0 53.333 -2.66699 93.5 -8 120.5s-13 45.167 -23 54.5s-23.333 14 -40 14c-14.667 0 -27.667 -5.16699 -39 -15.5
s-20.166 -29.5 -26.499 -57.5s-9.5 -68 -9.5 -120c0 -40.667 1.66699 -73.667 5 -99s7.83301 -44.5 13.5 -57.5s13.167 -21.667 22.5 -26s19.333 -6.5 30 -6.5zM258.999 560.999l-8.49902 8c-5.66699 5.33301 -12.167 12.333 -19.5 21l-21.5 26
c-7 8.66699 -12.5 16 -16.5 22l-8.5 -11.5c-5.66699 -7.66699 -12.834 -16.667 -21.501 -27s-17.167 -19.166 -25.5 -26.499s-14.5 -11 -18.5 -11c-14 0 -25.5 2.16699 -34.5 6.5s-16.167 9.83301 -21.5 16.5l114 123c5.33301 2 11 3 17 3c4.66699 0 9 -0.833008 13 -2.5
s8 -4.83398 12 -9.50098l15 -15c10 -10 21.333 -22 34 -36s24 -27.167 34 -39.5s15 -20.5 15 -24.5c0 -7.33301 -6 -13 -18 -17s-25.333 -6 -40 -6z" />
    <glyph glyph-name="otilde" unicode="&#xf5;" horiz-adv-x="376" 
d="M184 -10c-25.333 0 -47.833 3.16602 -67.5 9.49902s-36.167 18.5 -49.5 36.5s-23.333 44.167 -30 78.5s-10 79.5 -10 135.5c0 91.333 14.667 157.5 44 198.5s70 61.5 122 61.5c35.333 0 64.5 -7.33301 87.5 -22s40.167 -40.667 51.5 -78s17 -89.666 17 -156.999
c0 -93.333 -14 -160.5 -42 -201.5s-69 -61.5 -123 -61.5zM186 58.999c14.667 0 27.499 5.16699 38.499 15.5s19.833 29.5 26.5 57.5s10 68 10 120c0 53.333 -2.66699 93.5 -8 120.5s-13 45.167 -23 54.5s-23.333 14 -40 14c-14.667 0 -27.667 -5.16699 -39 -15.5
s-20.166 -29.5 -26.499 -57.5s-9.5 -68 -9.5 -120c0 -40.667 1.66699 -73.667 5 -99s7.83301 -44.5 13.5 -57.5s13.167 -21.667 22.5 -26s19.333 -6.5 30 -6.5zM228.999 561.999c-14 0 -24.668 2.49902 -32.001 7.49902s-13.5 10.5 -18.5 16.5s-10.167 11.5 -15.5 16.5
s-12.333 7.5 -21 7.5c-12 0 -21.5 -3.16699 -28.5 -9.5s-12.667 -12.666 -17 -18.999s-8.83301 -9.5 -13.5 -9.5c-7.33301 0 -14.166 3.33301 -20.499 10s-11.166 13.334 -14.499 20.001l-5 10c16.667 28 35.167 47.5 55.5 58.5s39.5 16.5 57.5 16.5
c10.667 0 19.5 -2.33301 26.5 -7s13 -10.167 18 -16.5s10.833 -11.833 17.5 -16.5s15 -7 25 -7c16 0 27.667 3.16699 35 9.5s13 12.666 17 18.999s8.33301 9.5 13 9.5c6 0 11.167 -3.66699 15.5 -11s7.66602 -14.833 9.99902 -22.5l3.5 -11.5
c-1.33301 -2.66699 -4.83301 -7.66699 -10.5 -15s-13.334 -15.333 -23.001 -24s-20.667 -16.167 -33 -22.5s-26.166 -9.5 -41.499 -9.5z" />
    <glyph glyph-name="odieresis" unicode="&#xf6;" horiz-adv-x="376" 
d="M184 -10c-25.333 0 -47.833 3.16602 -67.5 9.49902s-36.167 18.5 -49.5 36.5s-23.333 44.167 -30 78.5s-10 79.5 -10 135.5c0 91.333 14.667 157.5 44 198.5s70 61.5 122 61.5c35.333 0 64.5 -7.33301 87.5 -22s40.167 -40.667 51.5 -78s17 -89.666 17 -156.999
c0 -93.333 -14 -160.5 -42 -201.5s-69 -61.5 -123 -61.5zM186 58.999c14.667 0 27.499 5.16699 38.499 15.5s19.833 29.5 26.5 57.5s10 68 10 120c0 53.333 -2.66699 93.5 -8 120.5s-13 45.167 -23 54.5s-23.333 14 -40 14c-14.667 0 -27.667 -5.16699 -39 -15.5
s-20.166 -29.5 -26.499 -57.5s-9.5 -68 -9.5 -120c0 -40.667 1.66699 -73.667 5 -99s7.83301 -44.5 13.5 -57.5s13.167 -21.667 22.5 -26s19.333 -6.5 30 -6.5zM127.999 571.999c-12.667 0 -22.5 4.33301 -29.5 13s-10.167 24.334 -9.5 47.001
c0 17.333 3.5 31.166 10.5 41.499s18.167 15.5 33.5 15.5c14.667 0 25 -4.16699 31 -12.5s8.66699 -22.5 8 -42.5c0 -20 -3.66699 -35.333 -11 -46s-18.333 -16 -33 -16zM246.999 571.999c-12.667 0 -22.499 4.33301 -29.499 13s-10.5 24.334 -10.5 47.001
c0.666992 17.333 4.66699 31.166 12 41.499s18.333 15.5 33 15.5c15.333 0 25.666 -4.16699 30.999 -12.5s8 -22.5 8 -42.5s-3.66699 -35.333 -11 -46s-18.333 -16 -33 -16z" />
    <glyph glyph-name="divide" unicode="&#xf7;" horiz-adv-x="418" 
d="M34 246c0 26 0.666992 44.333 2 55s6.33301 16 15 16h333c0 -24.667 -0.666992 -42.667 -2 -54s-6 -17 -14 -17h-334zM207 80c-18 0 -30.668 4.66602 -38.001 13.999s-11 22 -11 38c0 14 4.33301 26 13 36s20.667 15 36 15c18.667 0 31.834 -4.66699 39.501 -14
s11.5 -21.666 11.5 -36.999c0 -14 -4.5 -26.167 -13.5 -36.5s-21.5 -15.5 -37.5 -15.5zM206.999 375.999c-18 0 -30.668 4.66699 -38.001 14s-11 21.666 -11 36.999c0 14 4.33301 26 13 36s20.667 15 36 15c18.667 0 31.834 -4.66699 39.501 -14s11.5 -21.666 11.5 -36.999
c0 -14 -4.5 -26 -13.5 -36s-21.5 -15 -37.5 -15z" />
    <glyph glyph-name="oslash" unicode="&#xf8;" horiz-adv-x="412" 
d="M207 -10c-26 0 -49 3.16602 -69 9.49902s-36.667 18.5 -50 36.5s-23.333 44.167 -30 78.5s-10 79.5 -10 135.5c0 91.333 14.5 157.5 43.5 198.5s69.5 61.5 121.5 61.5c35.333 0 64.5 -7.33301 87.5 -22s40.167 -40.667 51.5 -78s17 -89.666 17 -156.999
c0 -93.333 -14 -160.5 -42 -201.5s-68 -61.5 -120 -61.5zM62 -26.001c-10 1.33301 -20.001 5.16895 -30.001 11.502s-15 13.833 -15 22.5c0 2 2.83301 8.16699 8.5 18.5l19.5 34.5l19.5 33.5l8.5 14.5l10.5 -4.5c7 -3 13.833 -7.33301 20.5 -13s10 -11.834 10 -18.501
c0 -2.66699 -2.5 -8.83398 -7.5 -18.501l-17 -32l-17.5 -31.5c-5.33301 -9.33301 -8.66602 -15 -9.99902 -17zM206.999 59.002c14.667 0 27.501 5.16699 38.501 15.5s19.667 29.5 26 57.5s9.5 68 9.5 120c0 53.333 -2.5 93.333 -7.5 120s-12.667 44.5 -23 53.5
s-23.5 13.5 -39.5 13.5c-14.667 0 -27.834 -5 -39.501 -15s-20.5 -28.833 -26.5 -56.5s-9 -67.5 -9 -119.5c0 -40.667 1.5 -73.667 4.5 -99s7.5 -44.5 13.5 -57.5s13.5 -21.667 22.5 -26s19.167 -6.5 30.5 -6.5zM131 67.002
c-3.33301 1.33301 -8.16602 3.16602 -14.499 5.49902s-12 5.33301 -17 9s-7.5 8.5 -7.5 14.5l184 327l10 -1.5c6.66699 -1 13.167 -3.5 19.5 -7.5s9.5 -9.33301 9.5 -16c0 -1.33301 -3.33301 -8.16602 -10 -20.499l-26 -48l-35.5 -63.5l-39 -68.5l-36 -63.5l-26.5 -47
c-6.66699 -12 -10.334 -18.667 -11.001 -20zM334 356.002l-8 4c-5.33301 2.66699 -11.5 6 -18.5 10s-13 8.33301 -18 13s-7.5 9.33398 -7.5 14.001l6 11.5c4 7.66699 9.5 17.334 16.5 29.001l21 35.5c7 12 13.5 22.5 19.5 31.5s10 14.833 12 17.5l11.5 -4
c7.66699 -2.66699 15.334 -6.5 23.001 -11.5s11.5 -10.833 11.5 -17.5c0 -2.66699 -2.33301 -8.83398 -7 -18.501s-10.334 -20.834 -17.001 -33.501l-20.5 -37.5l-17.5 -31z" />
    <glyph glyph-name="ugrave" unicode="&#xf9;" horiz-adv-x="389" 
d="M194 -10c-40 0 -70.6699 6 -92.0029 18s-36.166 30.333 -44.499 55s-12.5 55.667 -12.5 93v328c0 5.33301 1 9 3 11s8.83301 3.33301 20.5 4s31.5 1 59.5 1v-351c0 -21.333 1.83301 -38.5 5.5 -51.5s10.334 -22.333 20.001 -28s23.5 -8.5 41.5 -8.5
c9.33301 0 20.333 1.33301 33 4s24.334 7.33398 35.001 14.001v405c0 5.33301 1.16699 9 3.5 11s9 3.33301 20 4s30.167 1 57.5 1v-474c-19.333 -10.667 -42.333 -19.334 -69 -26.001s-53.667 -10 -81 -10zM234.997 553c-8 4.66699 -19.1641 11.668 -33.4971 21.001
s-28.833 19.333 -43.5 30s-27.834 20.667 -39.501 30s-19.5 16.333 -23.5 21c2 12 6.33301 25.167 13 39.5s15 21.5 25 21.5c2 0 7.66699 -3.66699 17 -11l35 -28.5c14 -11.667 28.167 -24.334 42.5 -38.001s27.166 -27.167 38.499 -40.5l-3.5 -11
c-2.33301 -7.33301 -5.83301 -14.833 -10.5 -22.5s-10.334 -11.5 -17.001 -11.5z" />
    <glyph glyph-name="uacute" unicode="&#xfa;" horiz-adv-x="389" 
d="M194 -10c-40 0 -70.6699 6 -92.0029 18s-36.166 30.333 -44.499 55s-12.5 55.667 -12.5 93v328c0 5.33301 1 9 3 11s8.83301 3.33301 20.5 4s31.5 1 59.5 1v-351c0 -21.333 1.83301 -38.5 5.5 -51.5s10.334 -22.333 20.001 -28s23.5 -8.5 41.5 -8.5
c9.33301 0 20.333 1.33301 33 4s24.334 7.33398 35.001 14.001v405c0 5.33301 1.16699 9 3.5 11s9 3.33301 20 4s30.167 1 57.5 1v-474c-19.333 -10.667 -42.333 -19.334 -69 -26.001s-53.667 -10 -81 -10zM145.997 560c-6 0 -11.3311 3.66602 -15.998 10.999
s-8.33398 14.833 -11.001 22.5l-4 11.5c11.333 12.667 24.166 25.834 38.499 39.501s28.5 26.5 42.5 38.5s25.833 21.5 35.5 28.5s15.5 10.5 17.5 10.5c9.33301 0 17.5 -7.16699 24.5 -21.5s11.167 -27.5 12.5 -39.5c-3.33301 -4.66699 -11 -11.5 -23 -20.5l-40 -29.5
l-43 -30c-14 -9.33301 -25.333 -16.333 -34 -21z" />
    <glyph glyph-name="ucircumflex" unicode="&#xfb;" horiz-adv-x="389" 
d="M194 -10c-40 0 -70.6699 6 -92.0029 18s-36.166 30.333 -44.499 55s-12.5 55.667 -12.5 93v328c0 5.33301 1 9 3 11s8.83301 3.33301 20.5 4s31.5 1 59.5 1v-351c0 -21.333 1.83301 -38.5 5.5 -51.5s10.334 -22.333 20.001 -28s23.5 -8.5 41.5 -8.5
c9.33301 0 20.333 1.33301 33 4s24.334 7.33398 35.001 14.001v405c0 5.33301 1.16699 9 3.5 11s9 3.33301 20 4s30.167 1 57.5 1v-474c-19.333 -10.667 -42.333 -19.334 -69 -26.001s-53.667 -10 -81 -10zM263.997 561l-8.49902 8
c-5.66699 5.33301 -12.167 12.333 -19.5 21l-21.5 26c-7 8.66699 -12.5 16 -16.5 22l-8.5 -11.5c-5.66699 -7.66699 -12.834 -16.667 -21.501 -27s-17.167 -19.166 -25.5 -26.499s-14.5 -11 -18.5 -11c-14 0 -25.5 2.16699 -34.5 6.5s-16.167 9.83301 -21.5 16.5l114 123
c5.33301 2 11 3 17 3c4.66699 0 9 -0.833008 13 -2.5s8 -4.83398 12 -9.50098l15 -15c10 -10 21.333 -22 34 -36s24 -27.167 34 -39.5s15 -20.5 15 -24.5c0 -7.33301 -6 -13 -18 -17s-25.333 -6 -40 -6z" />
    <glyph glyph-name="udieresis" unicode="&#xfc;" horiz-adv-x="389" 
d="M194 -10c-40 0 -70.6699 6 -92.0029 18s-36.166 30.333 -44.499 55s-12.5 55.667 -12.5 93v328c0 5.33301 1 9 3 11s8.83301 3.33301 20.5 4s31.5 1 59.5 1v-351c0 -21.333 1.83301 -38.5 5.5 -51.5s10.334 -22.333 20.001 -28s23.5 -8.5 41.5 -8.5
c9.33301 0 20.333 1.33301 33 4s24.334 7.33398 35.001 14.001v405c0 5.33301 1.16699 9 3.5 11s9 3.33301 20 4s30.167 1 57.5 1v-474c-19.333 -10.667 -42.333 -19.334 -69 -26.001s-53.667 -10 -81 -10zM132.997 572c-12.667 0 -22.5 4.33301 -29.5 13
s-10.167 24.334 -9.5 47.001c0 17.333 3.5 31.166 10.5 41.499s18.167 15.5 33.5 15.5c14.667 0 25 -4.16699 31 -12.5s8.66699 -22.5 8 -42.5c0 -20 -3.66699 -35.333 -11 -46s-18.333 -16 -33 -16zM251.997 572c-12.667 0 -22.499 4.33301 -29.499 13
s-10.5 24.334 -10.5 47.001c0.666992 17.333 4.66699 31.166 12 41.499s18.333 15.5 33 15.5c15.333 0 25.666 -4.16699 30.999 -12.5s8 -22.5 8 -42.5s-3.66699 -35.333 -11 -46s-18.333 -16 -33 -16z" />
    <glyph glyph-name="yacute" unicode="&#xfd;" horiz-adv-x="356" 
d="M77 -193c-29.333 0 -50.168 3.66992 -62.501 11.0029s-18.5 16.666 -18.5 27.999c0 8 1 16.333 3 25s5 15.667 9 21c6.66699 -4.66699 16 -8.5 28 -11.5s23.667 -4.5 35 -4.5c16 0 30.333 7.66699 43 23s22.667 43.666 30 84.999l-120 494
c-2 7.33301 -2.16699 12.5 -0.5 15.5s8.33398 4.83301 20.001 5.5s31.5 1 59.5 1l54 -239c4 -20 7.66699 -40.333 11 -61s6 -39.834 8 -57.501s3.83301 -31.834 5.5 -42.501l2.5 -16l1.5 16c1 10.667 2.66699 24.834 5 42.501l8 58c3 21 6.16699 41.5 9.5 61.5l45 214
c1.33301 8.66699 3.33301 14.5 6 17.5s10 4.83301 22 5.5s31.667 1 59 1l-123 -527c-10 -42 -21.167 -75.167 -33.5 -99.5s-27 -41.5 -44 -51.5s-37.833 -15 -62.5 -15zM129.998 560.003c-6 0 -11.3311 3.66602 -15.998 10.999s-8.33398 14.833 -11.001 22.5l-4 11.5
c11.333 12.667 24.166 25.834 38.499 39.501s28.5 26.5 42.5 38.5s25.833 21.5 35.5 28.5s15.5 10.5 17.5 10.5c9.33301 0 17.5 -7.16699 24.5 -21.5s11.167 -27.5 12.5 -39.5c-3.33301 -4.66699 -11 -11.5 -23 -20.5l-40 -29.5l-43 -30
c-14 -9.33301 -25.333 -16.333 -34 -21z" />
    <glyph glyph-name="thorn" unicode="&#xfe;" horiz-adv-x="383" 
d="M79 -200c-14 0 -22.998 2.33105 -26.998 6.99805s-6 13.667 -6 27v636c20 12.667 42.667 22.334 68 29.001s51.333 10 78 10c33.333 0 62.166 -5.83301 86.499 -17.5s43.166 -32.667 56.499 -63s20 -73.166 20 -128.499c0 -53.333 -3.33301 -98.333 -10 -135
s-15.5 -66.5 -26.5 -89.5s-23.167 -40.667 -36.5 -53s-26.833 -20.833 -40.5 -25.5s-26.5 -7 -38.5 -7c-18 0 -33.167 2.5 -45.5 7.5s-22.5 11.167 -30.5 18.5v-210c-6.66699 -2 -14 -3.5 -22 -4.5s-16.667 -1.5 -26 -1.5zM178.002 59.998
c8 0 16.832 2.66504 26.499 7.99805s19.167 16 28.5 32s17 39.5 23 70.5s9 71.833 9 122.5c0 42 -3 73.333 -9 94s-14.667 34.334 -26 41.001s-25.666 10 -42.999 10c-11.333 0 -22 -1.66699 -32 -5s-19.333 -8.66602 -28 -15.999v-329c6 -10.667 13.5 -18 22.5 -22
s18.5 -6 28.5 -6zM46.001 234.996v463c0 12.667 2.16699 21.5 6.5 26.5s12.5 8 24.5 9s28.667 1.5 50 1.5v-484z" />
    <glyph glyph-name="ydieresis" unicode="&#xff;" horiz-adv-x="356" 
d="M77 -193c-29.333 0 -50.168 3.66992 -62.501 11.0029s-18.5 16.666 -18.5 27.999c0 8 1 16.333 3 25s5 15.667 9 21c6.66699 -4.66699 16 -8.5 28 -11.5s23.667 -4.5 35 -4.5c16 0 30.333 7.66699 43 23s22.667 43.666 30 84.999l-120 494
c-2 7.33301 -2.16699 12.5 -0.5 15.5s8.33398 4.83301 20.001 5.5s31.5 1 59.5 1l54 -239c4 -20 7.66699 -40.333 11 -61s6 -39.834 8 -57.501s3.83301 -31.834 5.5 -42.501l2.5 -16l1.5 16c1 10.667 2.66699 24.834 5 42.501l8 58c3 21 6.16699 41.5 9.5 61.5l45 214
c1.33301 8.66699 3.33301 14.5 6 17.5s10 4.83301 22 5.5s31.667 1 59 1l-123 -527c-10 -42 -21.167 -75.167 -33.5 -99.5s-27 -41.5 -44 -51.5s-37.833 -15 -62.5 -15zM115.998 572.003c-12.667 0 -22.5 4.33301 -29.5 13s-10.167 24.334 -9.5 47.001
c0 17.333 3.5 31.166 10.5 41.499s18.167 15.5 33.5 15.5c14.667 0 25 -4.16699 31 -12.5s8.66699 -22.5 8 -42.5c0 -20 -3.66699 -35.333 -11 -46s-18.333 -16 -33 -16zM234.998 572.003c-12.667 0 -22.499 4.33301 -29.499 13s-10.5 24.334 -10.5 47.001
c0.666992 17.333 4.66699 31.166 12 41.499s18.333 15.5 33 15.5c15.333 0 25.666 -4.16699 30.999 -12.5s8 -22.5 8 -42.5s-3.66699 -35.333 -11 -46s-18.333 -16 -33 -16z" />
    <glyph glyph-name="Amacron" unicode="&#x100;" 
d="M56 -2c-5.33301 0 -12.6641 0.333984 -21.9971 1.00098l-29 2l178 688c2 9.33301 12.333 14 31 14c6.66699 0 13.5 -0.333008 20.5 -1s12.833 -1.33398 17.5 -2.00098l179 -685c1.33301 -5.33301 -0.166992 -9.5 -4.5 -12.5s-14.5 -4.5 -30.5 -4.5
c-6 0 -12.833 0.166992 -20.5 0.5s-16.834 0.833008 -27.501 1.5l-94 394c-5.33301 22.667 -10.333 45.667 -15 69s-8.83398 45.833 -12.501 67.5s-6.16699 40.5 -7.5 56.5c-1.33301 -16 -3.83301 -34.833 -7.5 -56.5s-7.83398 -44.167 -12.501 -67.5s-10 -46.333 -16 -69
l-89 -380c-1.33301 -5.33301 -4 -9.33301 -8 -12s-14 -4 -30 -4zM108.002 178.001v74h239v-74h-239zM90.002 787.001c-2 6.66699 -3.33496 13.002 -4.00195 19.002s-1 12 -1 18c0 11.333 2.83301 20.833 8.5 28.5s13.834 11.5 24.501 11.5h227
c2.66699 -6.66699 4.66699 -12.834 6 -18.501s2 -11.167 2 -16.5c-0.666992 -12.667 -3.66699 -22.834 -9 -30.501s-12.666 -11.5 -21.999 -11.5h-232z" />
    <glyph glyph-name="amacron" unicode="&#x101;" horiz-adv-x="354" 
d="M172 -10c-18.667 0 -36.501 1.49902 -53.501 4.49902s-32.167 9.66699 -45.5 20s-24 25.5 -32 45.5s-12 47.333 -12 82s3.66699 62.834 11 84.501s17.333 38.334 30 50.001s27 19.5 43 23.5s32.333 6 49 6c10.667 0 23.167 -1 37.5 -3s26.5 -5.33301 36.5 -10v14v32.5
v32.5c0 16 -2.5 28.167 -7.5 36.5s-12 14.333 -21 18s-20.167 5.5 -33.5 5.5c-26 0 -51 -2.33301 -75 -7s-43.333 -10 -58 -16c-4.66699 8 -7.66699 16.167 -9 24.5s-2 15.833 -2 22.5c0 4.66699 0.833008 9.66699 2.5 15s4.5 9.33301 8.5 12
c8.66699 5.33301 26.667 11.166 54 17.499s60 9.5 98 9.5c43.333 0 74.833 -9 94.5 -27s29.5 -49.667 29.5 -95v-53c0 -38 -0.166992 -76.167 -0.5 -114.5s-0.833008 -74.333 -1.5 -108s-2 -63.167 -4 -88.5c-13.333 -8 -31.666 -15.667 -54.999 -23s-51.333 -11 -84 -11z
M179.999 57.999c10.667 0 21.002 1.66504 31.002 4.99805s17 7.33301 21 12c1.33301 10.667 2.16602 25.334 2.49902 44.001s0.666016 38.334 0.999023 59.001s0.5 40 0.5 58c-6.66699 3.33301 -14.5 5.66602 -23.5 6.99902s-16.833 2 -23.5 2
c-10.667 0 -20.5 -1.16699 -29.5 -3.5s-16.833 -7 -23.5 -14s-12 -17.167 -16 -30.5s-6 -31 -6 -53c0 -18 1.5 -32.667 4.5 -44s7.5 -20.166 13.5 -26.499s13 -10.5 21 -12.5s17 -3 27 -3zM46.001 586.997c-2 6.66699 -3.33496 13.002 -4.00195 19.002s-1 12 -1 18
c0 11.333 2.83301 20.833 8.5 28.5s13.834 11.5 24.501 11.5h227c2.66699 -6.66699 4.66699 -12.834 6 -18.501s2 -11.167 2 -16.5c-0.666992 -12.667 -3.66699 -22.834 -9 -30.501s-12.666 -11.5 -21.999 -11.5h-232z" />
    <glyph glyph-name="Abreve" unicode="&#x102;" 
d="M56 -2c-5.33301 0 -12.6641 0.333984 -21.9971 1.00098l-29 2l178 688c2 9.33301 12.333 14 31 14c6.66699 0 13.5 -0.333008 20.5 -1s12.833 -1.33398 17.5 -2.00098l179 -685c1.33301 -5.33301 -0.166992 -9.5 -4.5 -12.5s-14.5 -4.5 -30.5 -4.5
c-6 0 -12.833 0.166992 -20.5 0.5s-16.834 0.833008 -27.501 1.5l-94 394c-5.33301 22.667 -10.333 45.667 -15 69s-8.83398 45.833 -12.501 67.5s-6.16699 40.5 -7.5 56.5c-1.33301 -16 -3.83301 -34.833 -7.5 -56.5s-7.83398 -44.167 -12.501 -67.5s-10 -46.333 -16 -69
l-89 -380c-1.33301 -5.33301 -4 -9.33301 -8 -12s-14 -4 -30 -4zM108.002 178.001v74h239v-74h-239zM215.002 757.001c-17.333 0 -33.4951 3.66504 -48.4951 10.998s-28.333 16.833 -40 28.5s-20.834 23.834 -27.501 36.501s-10 24.334 -10 35.001
c0 11.333 3.5 20.333 10.5 27s18.167 12.667 33.5 18c4 -10 9.33301 -21.167 16 -33.5s15.667 -23 27 -32s24.666 -13.5 39.999 -13.5s27.666 3.5 36.999 10.5s17.166 15.667 23.499 26s11.833 20.166 16.5 29.499c5.33301 8.66699 12 12 20 10s15.5 -7.16699 22.5 -15.5
s11.5 -17.166 13.5 -26.499c-6.66699 -19.333 -15.834 -37.5 -27.501 -54.5s-26.167 -30.667 -43.5 -41s-38.333 -15.5 -63 -15.5z" />
    <glyph glyph-name="abreve" unicode="&#x103;" horiz-adv-x="354" 
d="M172 -10c-18.667 0 -36.501 1.49902 -53.501 4.49902s-32.167 9.66699 -45.5 20s-24 25.5 -32 45.5s-12 47.333 -12 82s3.66699 62.834 11 84.501s17.333 38.334 30 50.001s27 19.5 43 23.5s32.333 6 49 6c10.667 0 23.167 -1 37.5 -3s26.5 -5.33301 36.5 -10v14v32.5
v32.5c0 16 -2.5 28.167 -7.5 36.5s-12 14.333 -21 18s-20.167 5.5 -33.5 5.5c-26 0 -51 -2.33301 -75 -7s-43.333 -10 -58 -16c-4.66699 8 -7.66699 16.167 -9 24.5s-2 15.833 -2 22.5c0 4.66699 0.833008 9.66699 2.5 15s4.5 9.33301 8.5 12
c8.66699 5.33301 26.667 11.166 54 17.499s60 9.5 98 9.5c43.333 0 74.833 -9 94.5 -27s29.5 -49.667 29.5 -95v-53c0 -38 -0.166992 -76.167 -0.5 -114.5s-0.833008 -74.333 -1.5 -108s-2 -63.167 -4 -88.5c-13.333 -8 -31.666 -15.667 -54.999 -23s-51.333 -11 -84 -11z
M179.999 57.999c10.667 0 21.002 1.66504 31.002 4.99805s17 7.33301 21 12c1.33301 10.667 2.16602 25.334 2.49902 44.001s0.666016 38.334 0.999023 59.001s0.5 40 0.5 58c-6.66699 3.33301 -14.5 5.66602 -23.5 6.99902s-16.833 2 -23.5 2
c-10.667 0 -20.5 -1.16699 -29.5 -3.5s-16.833 -7 -23.5 -14s-12 -17.167 -16 -30.5s-6 -31 -6 -53c0 -18 1.5 -32.667 4.5 -44s7.5 -20.166 13.5 -26.499s13 -10.5 21 -12.5s17 -3 27 -3zM171.001 556.997c-17.333 0 -33.4951 3.66504 -48.4951 10.998
s-28.333 16.833 -40 28.5s-20.834 23.834 -27.501 36.501s-10 24.334 -10 35.001c0 11.333 3.5 20.333 10.5 27s18.167 12.667 33.5 18c4 -10 9.33301 -21.167 16 -33.5s15.667 -23 27 -32s24.666 -13.5 39.999 -13.5s27.666 3.5 36.999 10.5s17.166 15.667 23.499 26
s11.833 20.166 16.5 29.499c5.33301 8.66699 12 12 20 10s15.5 -7.16699 22.5 -15.5s11.5 -17.166 13.5 -26.499c-6.66699 -19.333 -15.834 -37.5 -27.501 -54.5s-26.167 -30.667 -43.5 -41s-38.333 -15.5 -63 -15.5z" />
    <glyph glyph-name="Aogonek" unicode="&#x104;" 
d="M368 -195c-23.333 0 -42.8311 6.33301 -58.498 19s-23.5 34.667 -23.5 66c0 16 2.83301 31 8.5 45s13.167 27 22.5 39s19.333 22.333 30 31l-42 173h-172l-39 -164c-1.33301 -5.33301 -4 -9.33301 -8 -12s-14 -4 -30 -4c-5.33301 0 -12.666 0.333008 -21.999 1l-29 2
l178 688c2 9.33301 12.333 14 31 14c6.66699 0 13.5 -0.333008 20.5 -1s12.833 -1.33398 17.5 -2.00098l177 -676c2 -6 2.16699 -10.833 0.5 -14.5s-4.83398 -7.5 -9.50098 -11.5c-16 -12 -30.333 -26.5 -43 -43.5s-19 -35.167 -19 -54.5
c0 -11.333 2.66699 -20.166 8 -26.499s13.666 -9.5 24.999 -9.5c6.66699 0 12.167 0.666992 16.5 2s8.16602 3.33301 11.499 6c2.66699 -6 5 -12.167 7 -18.5s3 -11.5 3 -15.5c0 -12 -6 -20.5 -18 -25.5s-26.333 -7.5 -43 -7.5zM148.002 252h141.002l-35 142
c-5.33301 22.667 -10.333 45.667 -15 69s-8.83398 45.833 -12.501 67.5s-6.16699 40.5 -7.5 56.5c-1.33301 -16 -3.83301 -34.833 -7.5 -56.5s-7.83398 -44.167 -12.501 -67.5s-10 -46.333 -16 -69z" />
    <glyph glyph-name="aogonek" unicode="&#x105;" horiz-adv-x="354" 
d="M250 -195c-23.333 0 -42.8311 6.66602 -58.498 19.999s-23.5 36 -23.5 68c0 19.333 3.66699 37.5 11 54.5s16.333 31.833 27 44.5c-4.66699 -0.666992 -10 -1.16699 -16 -1.5s-12 -0.5 -18 -0.5c-18.667 0 -36.5 1.5 -53.5 4.5s-32.167 9.66699 -45.5 20
s-24 25.5 -32 45.5s-12 47.333 -12 82s3.66699 62.834 11 84.501s17.333 38.334 30 50.001s27 19.5 43 23.5s32.333 6 49 6c10.667 0 23.167 -1 37.5 -3s26.5 -5.33301 36.5 -10v79c0 16 -2.5 28.167 -7.5 36.5s-12 14.333 -21 18s-20.167 5.5 -33.5 5.5
c-26 0 -51 -2.33301 -75 -7s-43.333 -10 -58 -16c-4.66699 8 -7.66699 16.167 -9 24.5s-2 15.833 -2 22.5c0 4.66699 0.833008 9.66699 2.5 15s4.5 9.33301 8.5 12c8.66699 5.33301 26.667 11.166 54 17.499s60 9.5 98 9.5c43.333 0 74.833 -9 94.5 -27
s29.5 -49.667 29.5 -95v-53c0 -38 -0.166992 -76.167 -0.5 -114.5s-0.833008 -74.333 -1.5 -108s-2 -63.167 -4 -88.5c-18.667 -14.667 -35 -33 -49 -55s-21 -43.667 -21 -65c0 -13.333 2.5 -23.333 7.5 -30s13.167 -10 24.5 -10c5.33301 0 10.166 0.666992 14.499 2
s8.83301 3.33301 13.5 6c3.33301 -5.33301 5.66602 -10.833 6.99902 -16.5s2 -10.5 2 -14.5c0.666992 -6.66699 -0.333008 -11.667 -3 -15c-2.66699 -8 -9.16699 -13.5 -19.5 -16.5s-22.833 -4.5 -37.5 -4.5zM180.002 57.999c10.667 0 21.002 1.66504 31.002 4.99805
s17 7.33301 21 12c1.33301 10.667 2.16602 25.334 2.49902 44.001s0.666016 38.334 0.999023 59.001s0.5 40 0.5 58c-6.66699 3.33301 -14.5 5.66602 -23.5 6.99902s-16.833 2 -23.5 2c-10.667 0 -20.5 -1.16699 -29.5 -3.5s-16.833 -7 -23.5 -14s-12 -17.167 -16 -30.5
s-6 -31 -6 -53c0 -18 1.5 -32.667 4.5 -44s7.5 -20.166 13.5 -26.499s13 -10.5 21 -12.5s17 -3 27 -3z" />
    <glyph glyph-name="Cacute" unicode="&#x106;" horiz-adv-x="341" 
d="M196 -10c-19.333 0 -37.334 2.33594 -54.001 7.00293s-31.834 13.334 -45.501 26.001s-25.5 31.167 -35.5 55.5s-17.667 56.333 -23 96s-8 88.5 -8 146.5c0 68.667 3.83301 126.167 11.5 172.5s18.167 83.666 31.5 111.999s28.5 50.166 45.5 65.499
s34.833 25.666 53.5 30.999s37 8 55 8c24.667 0 43.834 -2.83301 57.501 -8.5s23.167 -12.667 28.5 -21s8 -16.833 8 -25.5c0 -9.33301 -1.33301 -18.333 -4 -27s-5.66699 -16 -9 -22c-3.33301 2.66699 -8.16602 5.83398 -14.499 9.50098s-13.833 7 -22.5 10
s-18 4.5 -28 4.5c-12.667 0 -25.167 -2.16699 -37.5 -6.5s-24 -12.666 -35 -24.999s-20.5 -29.833 -28.5 -52.5s-14.5 -52 -19.5 -88s-7.5 -80.333 -7.5 -133c0 -50.667 2.5 -92 7.5 -124s11.833 -56.833 20.5 -74.5s19.167 -29.834 31.5 -36.501s25.833 -10 40.5 -10
c19.333 0 37.333 3.33301 54 10s29.334 13.667 38.001 21c3.33301 -6.66699 6.33301 -14.334 9 -23.001s4 -17.334 4 -26.001c0 -12.667 -5.16699 -24.5 -15.5 -35.5s-24.833 -19.833 -43.5 -26.5s-40.334 -10 -65.001 -10zM152.999 760.003
c-6 0 -11.3311 3.66602 -15.998 10.999s-8.33398 14.833 -11.001 22.5l-4 11.5c11.333 12.667 24.166 25.834 38.499 39.501s28.5 26.5 42.5 38.5s25.833 21.5 35.5 28.5s15.5 10.5 17.5 10.5c9.33301 0 17.5 -7.16699 24.5 -21.5s11.167 -27.5 12.5 -39.5
c-3.33301 -4.66699 -11 -11.5 -23 -20.5l-40 -29.5l-43 -30c-14 -9.33301 -25.333 -16.333 -34 -21z" />
    <glyph glyph-name="cacute" unicode="&#x107;" horiz-adv-x="312" 
d="M180 -10c-24.667 0 -46.166 3.16211 -64.499 9.49512s-33.833 18.333 -46.5 36s-22.167 42.834 -28.5 75.501s-9.5 75.334 -9.5 128.001c0 60 5.33301 108 16 144s24.834 63.167 42.501 81.5s37 30.5 58 36.5s41.833 9 62.5 9c23.333 0 43 -4.16699 59 -12.5
s24 -19.166 24 -32.499c0 -5.33301 -0.5 -12 -1.5 -20s-3.16699 -16.333 -6.5 -25c-8 4.66699 -18.333 8.83398 -31 12.501s-26 5.5 -40 5.5c-11.333 0 -22.833 -2.16699 -34.5 -6.5s-22.5 -13.166 -32.5 -26.499s-17.833 -33.333 -23.5 -60s-8.5 -62 -8.5 -106
c0 -35.333 1.83301 -64.5 5.5 -87.5s9.16699 -41 16.5 -54s16.666 -22.167 27.999 -27.5s24.333 -8 39 -8c16 0 31.167 2.5 45.5 7.5s25.833 10.167 34.5 15.5c2.66699 -8.66699 4.5 -16.5 5.5 -23.5s1.5 -13.833 1.5 -20.5c0 -14 -10.333 -26 -31 -36
s-47.334 -15 -80.001 -15zM118.001 559.995c-6 0 -11.3311 3.66602 -15.998 10.999s-8.33398 14.833 -11.001 22.5l-4 11.5c11.333 12.667 24.166 25.834 38.499 39.501s28.5 26.5 42.5 38.5s25.833 21.5 35.5 28.5s15.5 10.5 17.5 10.5c9.33301 0 17.5 -7.16699 24.5 -21.5
s11.167 -27.5 12.5 -39.5c-3.33301 -4.66699 -11 -11.5 -23 -20.5l-40 -29.5l-43 -30c-14 -9.33301 -25.333 -16.333 -34 -21z" />
    <glyph glyph-name="Cdotaccent" unicode="&#x10a;" horiz-adv-x="341" 
d="M196 -10c-19.333 0 -37.334 2.33594 -54.001 7.00293s-31.834 13.334 -45.501 26.001s-25.5 31.167 -35.5 55.5s-17.667 56.333 -23 96s-8 88.5 -8 146.5c0 68.667 3.83301 126.167 11.5 172.5s18.167 83.666 31.5 111.999s28.5 50.166 45.5 65.499
s34.833 25.666 53.5 30.999s37 8 55 8c24.667 0 43.834 -2.83301 57.501 -8.5s23.167 -12.667 28.5 -21s8 -16.833 8 -25.5c0 -9.33301 -1.33301 -18.333 -4 -27s-5.66699 -16 -9 -22c-3.33301 2.66699 -8.16602 5.83398 -14.499 9.50098s-13.833 7 -22.5 10
s-18 4.5 -28 4.5c-12.667 0 -25.167 -2.16699 -37.5 -6.5s-24 -12.666 -35 -24.999s-20.5 -29.833 -28.5 -52.5s-14.5 -52 -19.5 -88s-7.5 -80.333 -7.5 -133c0 -50.667 2.5 -92 7.5 -124s11.833 -56.833 20.5 -74.5s19.167 -29.834 31.5 -36.501s25.833 -10 40.5 -10
c19.333 0 37.333 3.33301 54 10s29.334 13.667 38.001 21c3.33301 -6.66699 6.33301 -14.334 9 -23.001s4 -17.334 4 -26.001c0 -12.667 -5.16699 -24.5 -15.5 -35.5s-24.833 -19.833 -43.5 -26.5s-40.334 -10 -65.001 -10zM197.999 769.003
c-12.667 0.666992 -22.667 5.5 -30 14.5s-11 25.167 -11 48.5c0.666992 18 4.66699 32.5 12 43.5s19 16.5 35 16.5c15.333 0 26 -4.33301 32 -13s8.66699 -23.667 8 -45c0 -20 -3.83301 -35.833 -11.5 -47.5s-19.167 -17.5 -34.5 -17.5z" />
    <glyph glyph-name="cdotaccent" unicode="&#x10b;" horiz-adv-x="312" 
d="M180 -10c-24.667 0 -46.166 3.16211 -64.499 9.49512s-33.833 18.333 -46.5 36s-22.167 42.834 -28.5 75.501s-9.5 75.334 -9.5 128.001c0 60 5.33301 108 16 144s24.834 63.167 42.501 81.5s37 30.5 58 36.5s41.833 9 62.5 9c23.333 0 43 -4.16699 59 -12.5
s24 -19.166 24 -32.499c0 -5.33301 -0.5 -12 -1.5 -20s-3.16699 -16.333 -6.5 -25c-8 4.66699 -18.333 8.83398 -31 12.501s-26 5.5 -40 5.5c-11.333 0 -22.833 -2.16699 -34.5 -6.5s-22.5 -13.166 -32.5 -26.499s-17.833 -33.333 -23.5 -60s-8.5 -62 -8.5 -106
c0 -35.333 1.83301 -64.5 5.5 -87.5s9.16699 -41 16.5 -54s16.666 -22.167 27.999 -27.5s24.333 -8 39 -8c16 0 31.167 2.5 45.5 7.5s25.833 10.167 34.5 15.5c2.66699 -8.66699 4.5 -16.5 5.5 -23.5s1.5 -13.833 1.5 -20.5c0 -14 -10.333 -26 -31 -36
s-47.334 -15 -80.001 -15zM163.001 568.995c-12.667 0.666992 -22.667 5.5 -30 14.5s-11 25.167 -11 48.5c0.666992 18 4.66699 32.5 12 43.5s19 16.5 35 16.5c15.333 0 26 -4.33301 32 -13s8.66699 -23.667 8 -45c0 -20 -3.83301 -35.833 -11.5 -47.5
s-19.167 -17.5 -34.5 -17.5z" />
    <glyph glyph-name="Ccaron" unicode="&#x10c;" horiz-adv-x="341" 
d="M196 -10c-19.333 0 -37.334 2.33594 -54.001 7.00293s-31.834 13.334 -45.501 26.001s-25.5 31.167 -35.5 55.5s-17.667 56.333 -23 96s-8 88.5 -8 146.5c0 68.667 3.83301 126.167 11.5 172.5s18.167 83.666 31.5 111.999s28.5 50.166 45.5 65.499
s34.833 25.666 53.5 30.999s37 8 55 8c24.667 0 43.834 -2.83301 57.501 -8.5s23.167 -12.667 28.5 -21s8 -16.833 8 -25.5c0 -9.33301 -1.33301 -18.333 -4 -27s-5.66699 -16 -9 -22c-3.33301 2.66699 -8.16602 5.83398 -14.499 9.50098s-13.833 7 -22.5 10
s-18 4.5 -28 4.5c-12.667 0 -25.167 -2.16699 -37.5 -6.5s-24 -12.666 -35 -24.999s-20.5 -29.833 -28.5 -52.5s-14.5 -52 -19.5 -88s-7.5 -80.333 -7.5 -133c0 -50.667 2.5 -92 7.5 -124s11.833 -56.833 20.5 -74.5s19.167 -29.834 31.5 -36.501s25.833 -10 40.5 -10
c19.333 0 37.333 3.33301 54 10s29.334 13.667 38.001 21c3.33301 -6.66699 6.33301 -14.334 9 -23.001s4 -17.334 4 -26.001c0 -12.667 -5.16699 -24.5 -15.5 -35.5s-24.833 -19.833 -43.5 -26.5s-40.334 -10 -65.001 -10zM206.999 757.003
c-4 0 -10.165 2.99805 -18.498 8.99805s-17.833 13.833 -28.5 23.5l-32 30.5l-28 28.5c-8 8.33301 -13.333 14.833 -16 19.5c3.33301 10.667 8.66602 21.834 15.999 33.501s14.333 17.5 21 17.5c4 0 9.5 -3 16.5 -9s14.667 -13.167 23 -21.5s16.166 -16.833 23.499 -25.5
l18.5 -21.5l7.5 -8.5c12.667 18 24.667 33.167 36 45.5s20.833 21.833 28.5 28.5l11.5 10c9.33301 -5.33301 17 -11.166 23 -17.499s9 -12.833 9 -19.5c0 -4 -3.16699 -10.667 -9.5 -20s-14.5 -19.833 -24.5 -31.5l-30.5 -34c-10.333 -11 -19.833 -20 -28.5 -27
s-14.667 -10.5 -18 -10.5z" />
    <glyph glyph-name="ccaron" unicode="&#x10d;" horiz-adv-x="312" 
d="M180 -10c-24.667 0 -46.166 3.16211 -64.499 9.49512s-33.833 18.333 -46.5 36s-22.167 42.834 -28.5 75.501s-9.5 75.334 -9.5 128.001c0 60 5.33301 108 16 144s24.834 63.167 42.501 81.5s37 30.5 58 36.5s41.833 9 62.5 9c23.333 0 43 -4.16699 59 -12.5
s24 -19.166 24 -32.499c0 -5.33301 -0.5 -12 -1.5 -20s-3.16699 -16.333 -6.5 -25c-8 4.66699 -18.333 8.83398 -31 12.501s-26 5.5 -40 5.5c-11.333 0 -22.833 -2.16699 -34.5 -6.5s-22.5 -13.166 -32.5 -26.499s-17.833 -33.333 -23.5 -60s-8.5 -62 -8.5 -106
c0 -35.333 1.83301 -64.5 5.5 -87.5s9.16699 -41 16.5 -54s16.666 -22.167 27.999 -27.5s24.333 -8 39 -8c16 0 31.167 2.5 45.5 7.5s25.833 10.167 34.5 15.5c2.66699 -8.66699 4.5 -16.5 5.5 -23.5s1.5 -13.833 1.5 -20.5c0 -14 -10.333 -26 -31 -36
s-47.334 -15 -80.001 -15zM172.001 556.995c-4 0 -10.165 2.99805 -18.498 8.99805s-17.833 13.833 -28.5 23.5l-32 30.5l-28 28.5c-8 8.33301 -13.333 14.833 -16 19.5c3.33301 10.667 8.66602 21.834 15.999 33.501s14.333 17.5 21 17.5c4 0 9.5 -3 16.5 -9
s14.667 -13.167 23 -21.5s16.166 -16.833 23.499 -25.5l18.5 -21.5l7.5 -8.5c12.667 18 24.667 33.167 36 45.5s20.833 21.833 28.5 28.5l11.5 10c9.33301 -5.33301 17 -11.166 23 -17.499s9 -12.833 9 -19.5c0 -4 -3.16699 -10.667 -9.5 -20s-14.5 -19.833 -24.5 -31.5
l-30.5 -34c-10.333 -11 -19.833 -20 -28.5 -27s-14.667 -10.5 -18 -10.5z" />
    <glyph glyph-name="Dcaron" unicode="&#x10e;" horiz-adv-x="387" 
d="M44 0l-0.00195312 681.002c0 6 1.83301 10.667 5.5 14s10.834 5 21.501 5h97c32.667 0 61.334 -5 86.001 -15s45 -26.833 61 -50.5s28.167 -55.834 36.5 -96.501s12.5 -91.334 12.5 -152.001c0 -73.333 -4.33301 -134.833 -13 -184.5s-21.5 -89.167 -38.5 -118.5
s-37.5 -50.5 -61.5 -63.5s-51.333 -19.5 -82 -19.5h-125zM124.998 77.002h44.999c13.333 0 26 3.66699 38 11s22.833 21.833 32.5 43.5s17.334 53.5 23.001 95.5s8.5 97.667 8.5 167c0 46 -2.16699 84 -6.5 114s-10.666 53.667 -18.999 71s-18.833 29.333 -31.5 36
s-27.334 10 -44.001 10h-46v-548zM184.997 757.002c-4 0 -10.165 2.99805 -18.498 8.99805s-17.833 13.833 -28.5 23.5l-32 30.5l-28 28.5c-8 8.33301 -13.333 14.833 -16 19.5c3.33301 10.667 8.66602 21.834 15.999 33.501s14.333 17.5 21 17.5c4 0 9.5 -3 16.5 -9
s14.667 -13.167 23 -21.5s16.166 -16.833 23.499 -25.5l18.5 -21.5l7.5 -8.5c12.667 18 24.667 33.167 36 45.5s20.833 21.833 28.5 28.5l11.5 10c9.33301 -5.33301 17 -11.166 23 -17.499s9 -12.833 9 -19.5c0 -4 -3.16699 -10.667 -9.5 -20s-14.5 -19.833 -24.5 -31.5
l-30.5 -34c-10.333 -11 -19.833 -20 -28.5 -27s-14.667 -10.5 -18 -10.5z" />
    <glyph glyph-name="dcaron" unicode="&#x10f;" horiz-adv-x="474" 
d="M193 -10c-22 0 -42.6689 2.50098 -62.002 7.50098s-36.666 15.667 -51.999 32s-27.166 40.666 -35.499 72.999s-12.5 75.5 -12.5 129.5c0 66 6.83301 119.5 20.5 160.5s32 70.833 55 89.5s48.833 28 77.5 28c15.333 0 29 -1.66699 41 -5s22 -8.33301 30 -15v208
c0 12.667 2.16699 21.5 6.5 26.5s12.5 8 24.5 9s28.667 1.5 50 1.5v-715c-16 -8 -36.167 -15 -60.5 -21s-51.833 -9 -82.5 -9zM195.998 63.001c11.333 0 22.0029 1.16602 32.0029 3.49902s19 6.16602 27 11.499v348c-6 5.33301 -12.5 8.83301 -19.5 10.5
s-15.833 2.5 -26.5 2.5s-21.334 -2.66699 -32.001 -8s-20.334 -15.166 -29.001 -29.499s-15.334 -34.333 -20.001 -60s-7 -59.167 -7 -100.5c0 -38 1.66699 -68.667 5 -92s8.33301 -41.166 15 -53.499s14.5 -20.833 23.5 -25.5s19.5 -7 31.5 -7zM400.001 522
c-7.33301 0 -13.833 1.66406 -19.5 4.99707s-9.5 9.33301 -11.5 18c11.333 22.667 16.5 41.834 15.5 57.501s-3.5 30.334 -7.5 44.001s-6 28.167 -6 43.5c0 14.667 4.5 27.167 13.5 37.5s21.167 15.5 36.5 15.5c17.333 0 30.833 -5.16699 40.5 -15.5
s14.5 -25.166 14.5 -44.499c0 -18 -3 -36.5 -9 -55.5s-13.333 -36.333 -22 -52s-17.167 -28.5 -25.5 -38.5s-14.833 -15 -19.5 -15z" />
    <glyph glyph-name="Dcroat" unicode="&#x110;" horiz-adv-x="387" 
d="M44 0l-0.00195312 681.002c0 6 1.83301 10.667 5.5 14s10.834 5 21.501 5h97c32.667 0 61.334 -5 86.001 -15s45 -26.833 61 -50.5s28.167 -55.834 36.5 -96.501s12.5 -91.334 12.5 -152.001c0 -73.333 -4.33301 -134.833 -13 -184.5s-21.5 -89.167 -38.5 -118.5
s-37.5 -50.5 -61.5 -63.5s-51.333 -19.5 -82 -19.5h-125zM124.998 77.002h44.999c13.333 0 26 3.66699 38 11s22.833 21.833 32.5 43.5s17.334 53.5 23.001 95.5s8.5 97.667 8.5 167c0 46 -2.16699 84 -6.5 114s-10.666 53.667 -18.999 71s-18.833 29.333 -31.5 36
s-27.334 10 -44.001 10h-46v-548zM-17.0029 302.002c-2 5.33301 -3.16602 10.501 -3.49902 15.501s-0.5 10.167 -0.5 15.5c0 10 2.5 18 7.5 24s11.5 9 19.5 9h203c2 -5.33301 3.5 -10.333 4.5 -15s1.5 -9.33398 1.5 -14.001
c-0.666992 -10.667 -3.33398 -19.167 -8.00098 -25.5s-11 -9.5 -19 -9.5h-205z" />
    <glyph glyph-name="dcroat" unicode="&#x111;" horiz-adv-x="393" 
d="M193 -10c-22 0 -42.6689 2.50098 -62.002 7.50098s-36.666 15.667 -51.999 32s-27.166 40.666 -35.499 72.999s-12.5 75.5 -12.5 129.5c0 66 6.83301 119.5 20.5 160.5s32 70.833 55 89.5s48.833 28 77.5 28c15.333 0 29 -1.66699 41 -5s22 -8.33301 30 -15v208
c0 12.667 2.16699 21.5 6.5 26.5s12.5 8 24.5 9s28.667 1.5 50 1.5v-715c-16 -8 -36.167 -15 -60.5 -21s-51.833 -9 -82.5 -9zM195.998 63.001c11.333 0 22.0029 1.16602 32.0029 3.49902s19 6.16602 27 11.499v348c-6 5.33301 -12.5 8.83301 -19.5 10.5
s-15.833 2.5 -26.5 2.5s-21.334 -2.66699 -32.001 -8s-20.334 -15.166 -29.001 -29.499s-15.334 -34.333 -20.001 -60s-7 -59.167 -7 -100.5c0 -38 1.66699 -68.667 5 -92s8.33301 -41.166 15 -53.499s14.5 -20.833 23.5 -25.5s19.5 -7 31.5 -7zM128.001 577
c-2 6.66699 -3.33496 13.002 -4.00195 19.002s-1 12 -1 18c0 11.333 2.83301 20.833 8.5 28.5s13.834 11.5 24.501 11.5h227c2.66699 -6.66699 4.66699 -12.834 6 -18.501s2 -11.167 2 -16.5c-0.666992 -12.667 -3.66699 -22.834 -9 -30.501s-12.666 -11.5 -21.999 -11.5
h-232z" />
    <glyph glyph-name="Emacron" unicode="&#x112;" horiz-adv-x="320" 
d="M44 0v684l2.5 8c1.66699 5.33301 6.5 8 14.5 8h240c0 -22 -0.333008 -38 -1 -48s-2 -16.667 -4 -20s-5.33301 -5 -10 -5h-161v-554h172c0 -22.667 -0.333008 -39.167 -1 -49.5s-2 -16.833 -4 -19.5s-5.66699 -4 -11 -4h-237zM55 344l-0.000976562 74h221
c0 -30.667 -0.666992 -50.667 -2 -60s-5.66602 -14 -12.999 -14h-206zM40.999 787c-2 6.66699 -3.33496 13.002 -4.00195 19.002s-1 12 -1 18c0 11.333 2.83301 20.833 8.5 28.5s13.834 11.5 24.501 11.5h227c2.66699 -6.66699 4.66699 -12.834 6 -18.501s2 -11.167 2 -16.5
c-0.666992 -12.667 -3.66699 -22.834 -9 -30.501s-12.666 -11.5 -21.999 -11.5h-232z" />
    <glyph glyph-name="emacron" unicode="&#x113;" horiz-adv-x="360" 
d="M189 -10c-22.667 0 -43.8359 3.16602 -63.5029 9.49902s-36.667 17.833 -51 34.5s-25.333 40.334 -33 71.001s-11.5 70.334 -11.5 119.001c0 62.667 5 113 15 151s23.333 66.667 40 86s35.667 32.333 57 39s43 10 65 10c42 0 73.667 -13.333 95 -40s32 -67 32 -121
c0 -22 -0.833008 -44.667 -2.5 -68s-4.83398 -44 -9.50098 -62c-22.667 -4.66699 -48 -8 -76 -10s-54.667 -3.5 -80 -4.5s-46.166 -1.5 -62.499 -1.5h-24.5l1 66l19 -0.5c12.667 -0.333008 28.167 -0.333008 46.5 0s37 1.33301 56 3s35.167 4.5 48.5 8.5
c2 9.33301 3.33301 19.333 4 30s1 20.667 1 30c-0.666992 36 -4.83398 61.5 -12.501 76.5s-22.5 22.5 -44.5 22.5c-11.333 0 -22.166 -3.16699 -32.499 -9.5s-19.5 -17.333 -27.5 -33s-14.167 -37.167 -18.5 -64.5s-6.5 -62.333 -6.5 -105
c0 -31.333 1.83301 -57.333 5.5 -78s9.33398 -36.667 17.001 -48s17.334 -19.5 29.001 -24.5s25.834 -7.5 42.501 -7.5c20 0 39.833 2.66699 59.5 8s37.5 13 53.5 23c3.33301 -8 5.5 -17.167 6.5 -27.5s1.5 -19.5 1.5 -27.5c0 -10 -6.33301 -19.333 -19 -28
s-29.5 -15.334 -50.5 -20.001s-44.167 -7 -69.5 -7zM59.998 586.999c-2 6.66699 -3.33496 13.002 -4.00195 19.002s-1 12 -1 18c0 11.333 2.83301 20.833 8.5 28.5s13.834 11.5 24.501 11.5h227c2.66699 -6.66699 4.66699 -12.834 6 -18.501s2 -11.167 2 -16.5
c-0.666992 -12.667 -3.66699 -22.834 -9 -30.501s-12.666 -11.5 -21.999 -11.5h-232z" />
    <glyph glyph-name="Edotaccent" unicode="&#x116;" horiz-adv-x="320" 
d="M44 0v684l2.5 8c1.66699 5.33301 6.5 8 14.5 8h240c0 -22 -0.333008 -38 -1 -48s-2 -16.667 -4 -20s-5.33301 -5 -10 -5h-161v-554h172c0 -22.667 -0.333008 -39.167 -1 -49.5s-2 -16.833 -4 -19.5s-5.66699 -4 -11 -4h-237zM55 344l-0.000976562 74h221
c0 -30.667 -0.666992 -50.667 -2 -60s-5.66602 -14 -12.999 -14h-206zM166.999 769c-12.667 0.666992 -22.667 5.5 -30 14.5s-11 25.167 -11 48.5c0.666992 18 4.66699 32.5 12 43.5s19 16.5 35 16.5c15.333 0 26 -4.33301 32 -13s8.66699 -23.667 8 -45
c0 -20 -3.83301 -35.833 -11.5 -47.5s-19.167 -17.5 -34.5 -17.5z" />
    <glyph glyph-name="edotaccent" unicode="&#x117;" horiz-adv-x="360" 
d="M189 -10c-22.667 0 -43.8359 3.16602 -63.5029 9.49902s-36.667 17.833 -51 34.5s-25.333 40.334 -33 71.001s-11.5 70.334 -11.5 119.001c0 62.667 5 113 15 151s23.333 66.667 40 86s35.667 32.333 57 39s43 10 65 10c42 0 73.667 -13.333 95 -40s32 -67 32 -121
c0 -22 -0.833008 -44.667 -2.5 -68s-4.83398 -44 -9.50098 -62c-22.667 -4.66699 -48 -8 -76 -10s-54.667 -3.5 -80 -4.5s-46.166 -1.5 -62.499 -1.5h-24.5l1 66l19 -0.5c12.667 -0.333008 28.167 -0.333008 46.5 0s37 1.33301 56 3s35.167 4.5 48.5 8.5
c2 9.33301 3.33301 19.333 4 30s1 20.667 1 30c-0.666992 36 -4.83398 61.5 -12.501 76.5s-22.5 22.5 -44.5 22.5c-11.333 0 -22.166 -3.16699 -32.499 -9.5s-19.5 -17.333 -27.5 -33s-14.167 -37.167 -18.5 -64.5s-6.5 -62.333 -6.5 -105
c0 -31.333 1.83301 -57.333 5.5 -78s9.33398 -36.667 17.001 -48s17.334 -19.5 29.001 -24.5s25.834 -7.5 42.501 -7.5c20 0 39.833 2.66699 59.5 8s37.5 13 53.5 23c3.33301 -8 5.5 -17.167 6.5 -27.5s1.5 -19.5 1.5 -27.5c0 -10 -6.33301 -19.333 -19 -28
s-29.5 -15.334 -50.5 -20.001s-44.167 -7 -69.5 -7zM185.998 568.999c-12.667 0.666992 -22.667 5.5 -30 14.5s-11 25.167 -11 48.5c0.666992 18 4.66699 32.5 12 43.5s19 16.5 35 16.5c15.333 0 26 -4.33301 32 -13s8.66699 -23.667 8 -45
c0 -20 -3.83301 -35.833 -11.5 -47.5s-19.167 -17.5 -34.5 -17.5z" />
    <glyph glyph-name="Eogonek" unicode="&#x118;" horiz-adv-x="320" 
d="M231 -195c-23.333 0 -42.834 6.33105 -58.501 18.998s-23.5 34.334 -23.5 65.001c0 22.667 5.5 43.667 16.5 63s23.833 35.333 38.5 48h-160v684l2.5 8c1.66699 5.33301 6.5 8 14.5 8h240c0 -22 -0.333008 -38 -1 -48s-2 -16.667 -4 -20s-5.33301 -5 -10 -5h-161v-209
h151c0 -30.667 -0.666992 -50.667 -2 -60s-5.66602 -14 -12.999 -14h-136v-271h172c0 -21.333 -0.333008 -36.833 -1 -46.5s-2 -16.167 -4 -19.5s-5.33301 -7 -10 -11c-13.333 -10 -26.833 -23.667 -40.5 -41s-20.5 -35.666 -20.5 -54.999c0 -24 11 -36 33 -36
c10.667 0 20 2.66699 28 8c2.66699 -6 5 -12.167 7 -18.5s3 -11.5 3 -15.5c0 -12 -6 -20.5 -18 -25.5s-26.333 -7.5 -43 -7.5z" />
    <glyph glyph-name="eogonek" unicode="&#x119;" horiz-adv-x="360" 
d="M264 -195c-23.333 0 -42.8311 6.33301 -58.498 19s-23.5 34.667 -23.5 66c0 18.667 3.16699 37 9.5 55s13.5 34 21.5 48c-3.33301 -0.666992 -7.33301 -1.33398 -12 -2.00098s-9.66699 -1 -15 -1c-22.667 0 -43.5 3.33301 -62.5 10s-35.5 18.334 -49.5 35.001
s-24.833 40.334 -32.5 71.001s-11.5 70 -11.5 118c0 62.667 5 113 15 151s23.333 66.667 40 86s35.667 32.333 57 39s43 10 65 10c42 0 73.667 -13.333 95 -40s32 -67 32 -121c0 -22 -0.833008 -44.667 -2.5 -68s-4.83398 -44 -9.50098 -62c-17.333 -3.33301 -36 -6 -56 -8
s-39.5 -3.5 -58.5 -4.5s-36.667 -1.66699 -53 -2s-29.833 -0.5 -40.5 -0.5c0 -28 2.33301 -50.833 7 -68.5s10.834 -31.334 18.501 -41.001s17.167 -16.334 28.5 -20.001s24.333 -5.5 39 -5.5c20 0 39.833 2.66699 59.5 8s37.5 13 53.5 23c3.33301 -8 5.5 -17.167 6.5 -27.5
s1.5 -19.5 1.5 -27.5c0 -4.66699 -1.66699 -9.16699 -5 -13.5s-7 -8.5 -11 -12.5c-16 -13.333 -29.667 -31 -41 -53s-17 -44 -17 -66c0 -11.333 2.66699 -20.166 8 -26.499s13.666 -9.5 24.999 -9.5c5.33301 0 10.166 0.666992 14.499 2s8.83301 3.33301 13.5 6
c3.33301 -5.33301 5.5 -10.833 6.5 -16.5l2.5 -14.5c0 -6.66699 -1 -11.667 -3 -15c-2.66699 -8 -9.16699 -13.5 -19.5 -16.5s-22.833 -4.5 -37.5 -4.5zM114.002 269l27.0029 -0.00292969c11.333 0 23.666 0.333008 36.999 1s26.166 1.83398 38.499 3.50098
s23.5 3.83398 33.5 6.50098c2 9.33301 3.33301 19.333 4 30s1 20.667 1 30c-0.666992 36 -4.83398 61.5 -12.501 76.5s-22.5 22.5 -44.5 22.5c-10.667 0 -20.667 -2.5 -30 -7.5s-18 -13.667 -26 -26s-14.333 -29.666 -19 -51.999s-7.66699 -50.5 -9 -84.5z" />
    <glyph glyph-name="Ecaron" unicode="&#x11a;" horiz-adv-x="320" 
d="M44 0v684l2.5 8c1.66699 5.33301 6.5 8 14.5 8h240c0 -22 -0.333008 -38 -1 -48s-2 -16.667 -4 -20s-5.33301 -5 -10 -5h-161v-554h172c0 -22.667 -0.333008 -39.167 -1 -49.5s-2 -16.833 -4 -19.5s-5.66699 -4 -11 -4h-237zM55 344l-0.000976562 74h221
c0 -30.667 -0.666992 -50.667 -2 -60s-5.66602 -14 -12.999 -14h-206zM175.999 757c-4 0 -10.165 2.99805 -18.498 8.99805s-17.833 13.833 -28.5 23.5l-32 30.5l-28 28.5c-8 8.33301 -13.333 14.833 -16 19.5c3.33301 10.667 8.66602 21.834 15.999 33.501
s14.333 17.5 21 17.5c4 0 9.5 -3 16.5 -9s14.667 -13.167 23 -21.5s16.166 -16.833 23.499 -25.5l18.5 -21.5l7.5 -8.5c12.667 18 24.667 33.167 36 45.5s20.833 21.833 28.5 28.5l11.5 10c9.33301 -5.33301 17 -11.166 23 -17.499s9 -12.833 9 -19.5
c0 -4 -3.16699 -10.667 -9.5 -20s-14.5 -19.833 -24.5 -31.5l-30.5 -34c-10.333 -11 -19.833 -20 -28.5 -27s-14.667 -10.5 -18 -10.5z" />
    </font>
</defs>
</svg>
