<svg width="409" height="412" viewBox="0 0 409 412" fill="none" xmlns="http://www.w3.org/2000/svg">
<g filter="url(#filter0_d_427_1149)">
<circle cx="207" cy="209" r="143" fill="url(#paint0_radial_427_1149)"/>
</g>
<path d="M248.862 201.31C255.435 205.316 255.206 214.936 248.45 218.625L192.744 249.043C185.988 252.732 177.771 247.724 177.954 240.028L179.465 176.576C179.648 168.881 188.094 164.269 194.667 168.276L248.862 201.31Z" fill="white"/>
<g clip-path="url(#clip0_427_1149)">
<path d="M33.5345 140.575L17.5396 134.285L20.0559 127.887L23.1458 129.102L21.9091 132.247L25.0263 133.473L26.213 130.455L29.2211 131.638L28.0344 134.656L31.6969 136.096L33.0158 132.743L36.133 133.968L33.5345 140.575Z" fill="white"/>
<path d="M45.163 115.97C44.4082 117.345 43.5208 118.151 42.5008 118.386C41.4839 118.615 40.2278 118.319 38.7323 117.499L37.2597 116.691L38.8945 113.711L40.7781 114.745C41.1262 114.936 41.4284 115.035 41.6845 115.042C41.9381 115.04 42.1369 114.907 42.281 114.645C42.4313 114.371 42.4547 114.139 42.3513 113.948C42.251 113.752 42.0182 113.554 41.6529 113.353C41.1905 113.1 40.7802 112.934 40.4219 112.856C40.0579 112.775 39.6734 112.772 39.2684 112.847C38.8609 112.913 38.3592 113.042 37.7632 113.235L35.7368 113.883C34.2293 114.371 32.8619 114.278 31.6348 113.604C30.3506 112.9 29.5345 112.066 29.1867 111.103C28.842 110.134 28.9797 109.084 29.5998 107.954C30.3577 106.573 31.263 105.796 32.3156 105.624C33.3713 105.445 34.6497 105.768 36.1508 106.592L34.4691 109.657L33.4332 109.088C33.2277 108.976 33.035 108.948 32.8551 109.005C32.6783 109.057 32.5351 109.182 32.4255 109.382C32.2939 109.622 32.2653 109.836 32.3397 110.026C32.4115 110.206 32.5529 110.354 32.7641 110.47C32.9753 110.586 33.2349 110.654 33.543 110.675C33.8511 110.695 34.2573 110.625 34.7617 110.463L37.3848 109.641C37.9069 109.475 38.4333 109.348 38.964 109.26C39.489 109.17 40.0455 109.171 40.6335 109.263C41.2157 109.352 41.8579 109.589 42.5599 109.975C43.9754 110.751 44.9415 111.623 45.4582 112.59C45.9723 113.547 45.8739 114.674 45.163 115.97Z" fill="white"/>
<path d="M60.6752 92.5629C59.9178 93.549 58.9999 94.1082 57.9214 94.2404C56.847 94.3674 55.7573 94.0066 54.6524 93.158L48.3635 88.3278C47.0417 87.3126 46.23 86.2746 45.9284 85.2138C45.6307 84.1478 45.9359 83.0236 46.844 81.8412C47.3397 81.1958 47.8987 80.7139 48.5209 80.3955C49.147 80.0719 49.8087 79.948 50.5057 80.0237C51.1977 80.0954 51.9025 80.4069 52.6202 80.9582L54.9746 82.7665L52.8926 85.4772L50.879 83.9306C50.4711 83.6173 50.1578 83.4587 49.939 83.4549C49.7152 83.4472 49.5199 83.5517 49.3534 83.7685C49.159 84.0215 49.1211 84.2633 49.2396 84.4938C49.3529 84.7204 49.5618 84.9507 49.8665 85.1847L56.6897 90.4253C57.0666 90.7148 57.3742 90.8648 57.6123 90.8753C57.8545 90.8807 58.0549 90.7801 58.2135 90.5736C58.392 90.3413 58.4214 90.1053 58.3017 89.8656C58.186 89.6208 57.9758 89.3814 57.6712 89.1474L55.2161 87.2617L57.3219 84.5201L59.9009 86.5009C61.0988 87.4209 61.7368 88.3912 61.815 89.4117C61.8879 90.4282 61.508 91.4786 60.6752 92.5629Z" fill="white"/>
<path d="M79.7205 71.5859C78.6861 72.5766 77.6475 73.0169 76.6046 72.9069C75.5572 72.7922 74.4931 72.1706 73.4124 71.0422L64.7056 61.9511L67.1177 59.6411L75.7299 68.6334C75.928 68.8402 76.1312 69.0288 76.3393 69.1991C76.5429 69.3646 76.7456 69.468 76.9473 69.5092C77.149 69.5504 77.3439 69.4809 77.532 69.3008C77.7248 69.1162 77.8072 68.9246 77.7793 68.7259C77.7468 68.5226 77.6477 68.3156 77.4818 68.1048C77.3207 67.8895 77.1411 67.6784 76.943 67.4716L68.3307 58.4793L70.7428 56.1692L79.4496 65.2602C80.5303 66.3886 81.1054 67.4785 81.1748 68.5299C81.2397 69.5765 80.7549 70.5952 79.7205 71.5859Z" fill="white"/>
<path d="M101.778 53.7106C100.759 54.4236 99.7158 54.6811 98.6475 54.4831C97.5845 54.2814 96.6536 53.6098 95.8548 52.4684L91.308 45.9717C90.3523 44.6062 89.89 43.3723 89.9211 42.2698C89.9575 41.1637 90.5864 40.1832 91.8079 39.3283C92.4746 38.8617 93.1525 38.5701 93.8416 38.4533C94.5361 38.3329 95.2044 38.4135 95.8465 38.6951C96.4849 38.9715 97.0635 39.4803 97.5824 40.2218L99.2847 42.654L96.4844 44.6138L95.0285 42.5336C94.7336 42.1122 94.4824 41.8668 94.2749 41.7975C94.0637 41.7228 93.8461 41.7638 93.6221 41.9206C93.3607 42.1035 93.2519 42.3227 93.2956 42.5782C93.3356 42.8283 93.4657 43.1108 93.6859 43.4255L98.6191 50.4742C98.8916 50.8636 99.1398 51.0991 99.3638 51.1807C99.5932 51.2586 99.8145 51.2229 100.028 51.0736C100.268 50.9056 100.367 50.6893 100.325 50.4248C100.288 50.1565 100.159 49.865 99.9392 49.5503L98.1642 47.014L100.997 45.0319L102.861 47.6961C103.727 48.9336 104.044 50.0507 103.812 51.0475C103.576 52.039 102.898 52.9267 101.778 53.7106Z" fill="white"/>
<path d="M122.586 41.0662L115.006 25.6402L118.074 24.133L120.783 29.646L122.238 28.9312L119.529 23.4181L122.597 21.9109L130.176 37.3369L127.108 38.8441L123.672 31.8498L122.217 32.5647L125.653 39.559L122.586 41.0662Z" fill="white"/>
<path d="M148.67 30.1545L145.166 13.2464L150.735 11.52L157.382 27.4536L154.276 28.4166L153.222 25.8398L151.244 26.4529L151.86 29.1655L148.67 30.1545ZM150.665 23.7596L152.157 23.2969L148.851 15.1714L148.701 15.2176L150.665 23.7596Z" fill="white"/>
<path d="M201.702 20.9542L201.477 3.76822L208.351 3.67829L208.395 6.99831L205.016 7.04251L205.06 10.3918L208.302 10.3494L208.344 13.5816L205.102 13.624L205.154 17.5592L208.757 17.512L208.801 20.8614L201.702 20.9542Z" fill="white"/>
<path d="M229.16 22.2491L231.457 5.21584L234.864 5.67535L232.958 19.8052L236.461 20.2777L236.07 23.1811L229.16 22.2491Z" fill="white"/>
<path d="M280.787 36.3881L286.415 23.6933L284.55 22.8661L285.888 19.8486L292.762 22.8963L291.424 25.9138L289.558 25.0866L283.929 37.7814L280.787 36.3881Z" fill="white"/>
<path d="M303.592 48.3293L312.852 33.8496L317.295 36.6907C318.036 37.1642 318.486 37.692 318.647 38.274C318.812 38.8506 318.762 39.4837 318.499 40.1731C318.245 40.8606 317.857 41.613 317.334 42.4302C316.829 43.22 316.324 43.7859 315.819 44.1278C315.32 44.4732 314.736 44.5593 314.066 44.386C314.462 44.7704 314.634 45.2014 314.584 45.6792C314.542 46.1549 314.339 46.678 313.974 47.2484L310.47 52.7277L307.615 50.902L311.241 45.2336C311.511 44.8112 311.589 44.4946 311.477 44.2836C311.374 44.0707 311.13 43.8414 310.746 43.5959L306.521 50.2023L303.592 48.3293ZM312.367 41.0972L313.067 41.5444C313.467 41.8004 313.946 41.4924 314.504 40.6203C314.865 40.0554 315.058 39.6571 315.082 39.4255C315.107 39.1939 314.998 39.0009 314.757 38.8466L314.083 38.4151L312.367 41.0972Z" fill="white"/>
<path d="M326.207 64.7526L338.807 52.9452L343.184 56.7962L333.055 70.7775L330.613 68.6295L332.262 66.386L330.708 65.0184L328.715 66.9588L326.207 64.7526ZM332.704 63.1194L333.877 64.1515L339.086 57.0928L338.968 56.9896L332.704 63.1194Z" fill="white"/>
<path d="M346.736 85.153L359.816 74.0033L361.97 76.5301L348.89 87.6799L346.736 85.153Z" fill="white"/>
<path d="M361.731 105.072L376.252 95.8779L378.091 98.7822L366.045 106.409L367.936 109.396L365.461 110.963L361.731 105.072Z" fill="white"/>
<path d="M374.898 128.962L390.618 122.013L393.398 128.3L390.361 129.643L388.995 126.553L385.931 127.907L387.242 130.872L384.286 132.179L382.975 129.214L379.376 130.805L380.833 134.101L377.769 135.456L374.898 128.962Z" fill="white"/>
<path d="M384.444 154.695L401.036 150.211L402.412 155.302C402.641 156.15 402.62 156.844 402.347 157.383C402.081 157.92 401.618 158.355 400.96 158.688C400.309 159.026 399.516 159.321 398.579 159.574C397.674 159.819 396.92 159.898 396.317 159.811C395.715 159.731 395.225 159.402 394.846 158.823C394.88 159.374 394.718 159.809 394.359 160.128C394.008 160.452 393.506 160.703 392.852 160.879L386.574 162.576L385.69 159.305L392.185 157.549C392.669 157.419 392.94 157.237 392.999 157.006C393.066 156.779 393.04 156.445 392.921 156.005L385.351 158.051L384.444 154.695ZM395.801 155.247L396.018 156.048C396.142 156.507 396.704 156.601 397.703 156.331C398.35 156.156 398.761 155.991 398.935 155.836C399.109 155.682 399.158 155.466 399.084 155.189L398.875 154.416L395.801 155.247Z" fill="white"/>
<path d="M384.938 255.246L401.44 260.053L399.517 266.654L396.329 265.725L397.274 262.481L394.058 261.544L393.151 264.657L390.048 263.753L390.955 260.64L387.176 259.54L386.168 262.999L382.952 262.062L384.938 255.246Z" fill="white"/>
<path d="M375.595 280.809C376.222 279.37 377.033 278.488 378.027 278.162C379.019 277.841 380.297 278.022 381.861 278.703L383.401 279.374L382.043 282.49L380.073 281.631C379.709 281.473 379.399 281.401 379.144 281.418C378.891 281.443 378.705 281.593 378.586 281.867C378.461 282.154 378.458 282.387 378.579 282.567C378.696 282.753 378.946 282.93 379.328 283.096C379.812 283.307 380.235 283.435 380.599 283.48C380.969 283.527 381.352 283.495 381.749 283.384C382.149 283.281 382.636 283.107 383.212 282.861L385.172 282.032C386.629 281.41 387.999 281.378 389.282 281.938C390.625 282.523 391.513 283.279 391.947 284.207C392.378 285.141 392.336 286.198 391.821 287.38C391.192 288.824 390.361 289.68 389.328 289.947C388.293 290.22 386.99 290.015 385.421 289.331L386.818 286.126L387.901 286.598C388.116 286.692 388.31 286.702 388.484 286.629C388.655 286.561 388.787 286.423 388.878 286.214C388.987 285.964 388.996 285.747 388.905 285.566C388.817 285.392 388.663 285.258 388.442 285.161C388.221 285.065 387.956 285.021 387.648 285.028C387.339 285.036 386.941 285.143 386.453 285.349L383.915 286.406C383.41 286.619 382.898 286.793 382.377 286.928C381.862 287.066 381.308 287.116 380.714 287.077C380.126 287.041 379.465 286.863 378.731 286.543C377.251 285.898 376.21 285.118 375.608 284.202C375.009 283.295 375.005 282.164 375.595 280.809Z" fill="white"/>
<path d="M362.26 305.521C362.926 304.471 363.79 303.831 364.852 303.602C365.91 303.379 367.028 303.641 368.205 304.386L374.903 308.631C376.311 309.523 377.213 310.484 377.609 311.513C378.001 312.548 377.798 313.695 377 314.954C376.565 315.642 376.051 316.172 375.46 316.545C374.866 316.924 374.218 317.107 373.517 317.094C372.822 317.085 372.092 316.838 371.327 316.354L368.819 314.765L370.649 311.877L372.794 313.237C373.228 313.512 373.554 313.642 373.773 313.626C373.996 313.613 374.181 313.492 374.328 313.261C374.498 312.991 374.514 312.747 374.376 312.528C374.243 312.313 374.014 312.102 373.689 311.896L366.422 307.291C366.021 307.037 365.701 306.915 365.463 306.926C365.221 306.942 365.03 307.061 364.891 307.281C364.734 307.528 364.726 307.766 364.867 307.994C365.004 308.227 365.235 308.447 365.559 308.652L368.174 310.309L366.324 313.229L363.577 311.489C362.301 310.68 361.578 309.771 361.409 308.762C361.245 307.756 361.528 306.676 362.26 305.521Z" fill="white"/>
<path d="M345.172 328.13C346.113 327.051 347.108 326.519 348.157 326.535C349.21 326.556 350.326 327.079 351.503 328.106L360.99 336.381L358.794 338.898L349.411 330.713C349.195 330.525 348.976 330.355 348.753 330.204C348.536 330.058 348.324 329.973 348.12 329.95C347.915 329.927 347.727 330.014 347.556 330.21C347.381 330.411 347.316 330.609 347.361 330.805C347.412 331.004 347.529 331.202 347.713 331.397C347.893 331.597 348.091 331.791 348.307 331.979L357.69 340.163L355.495 342.68L346.008 334.406C344.831 333.379 344.16 332.345 343.997 331.304C343.839 330.268 344.23 329.21 345.172 328.13Z" fill="white"/>
<path d="M324.821 347.898C325.771 347.096 326.788 346.746 327.869 346.847C328.946 346.952 329.934 347.537 330.832 348.602L335.945 354.664C337.019 355.938 337.591 357.125 337.659 358.226C337.722 359.331 337.184 360.364 336.044 361.325C335.422 361.85 334.773 362.201 334.097 362.379C333.417 362.562 332.744 362.542 332.079 362.319C331.418 362.101 330.796 361.646 330.213 360.955L328.299 358.685L330.911 356.482L332.548 358.422C332.88 358.816 333.152 359.037 333.365 359.088C333.582 359.143 333.795 359.083 334.004 358.906C334.248 358.701 334.337 358.473 334.27 358.222C334.208 357.977 334.053 357.707 333.805 357.413L328.258 350.837C327.952 350.474 327.683 350.261 327.453 350.2C327.218 350.143 327 350.199 326.801 350.367C326.577 350.556 326.498 350.78 326.564 351.04C326.625 351.303 326.779 351.582 327.026 351.876L329.022 354.242L326.38 356.471L324.283 353.985C323.309 352.831 322.893 351.747 323.035 350.733C323.18 349.724 323.776 348.779 324.821 347.898Z" fill="white"/>
<path d="M305.219 362.38L314.162 377.057L311.243 378.836L308.047 373.59L306.663 374.433L309.859 379.679L306.94 381.457L297.997 366.78L300.916 365.002L304.971 371.656L306.355 370.813L302.3 364.158L305.219 362.38Z" fill="white"/>
<path d="M280.236 375.611L285.265 392.13L279.877 394.356L271.806 379.094L274.812 377.852L276.096 380.322L278.01 379.532L277.149 376.886L280.236 375.611ZM278.832 382.161L277.388 382.758L281.42 390.548L281.565 390.489L278.832 382.161Z" fill="white"/>
<path d="M228.282 389.581L230.047 406.678L223.208 407.383L222.867 404.08L226.228 403.734L225.884 400.402L222.659 400.734L222.328 397.519L225.553 397.186L225.149 393.272L221.564 393.641L221.22 390.309L228.282 389.581Z" fill="white"/>
<path d="M200.804 390.744L200.048 407.915L196.614 407.764L197.241 393.52L193.709 393.364L193.838 390.437L200.804 390.744Z" fill="white"/>
<path d="M148.108 381.356L143.659 394.511L145.592 395.165L144.534 398.291L137.411 395.882L138.469 392.755L140.402 393.409L144.852 380.255L148.108 381.356Z" fill="white"/>
<path d="M124.298 371.522L116.383 386.779L111.702 384.35C110.922 383.946 110.425 383.461 110.212 382.896C109.997 382.336 109.989 381.701 110.188 380.991C110.379 380.283 110.698 379.499 111.145 378.638C111.577 377.806 112.028 377.196 112.5 376.81C112.966 376.421 113.54 376.283 114.223 376.395C113.794 376.048 113.583 375.634 113.591 375.154C113.589 374.676 113.744 374.137 114.056 373.536L117.051 367.763L120.059 369.323L116.96 375.296C116.73 375.741 116.68 376.063 116.811 376.263C116.933 376.466 117.196 376.672 117.601 376.882L121.212 369.921L124.298 371.522ZM116.212 379.517L115.475 379.135C115.053 378.916 114.604 379.266 114.127 380.185C113.818 380.78 113.662 381.194 113.659 381.427C113.655 381.66 113.781 381.842 114.035 381.974L114.746 382.343L116.212 379.517Z" fill="white"/>
<path d="M100.31 357.216L88.8219 370.107L84.1165 366.665L92.9484 351.831L95.573 353.751L94.1325 356.133L95.8035 357.356L97.6144 355.244L100.31 357.216ZM93.9862 359.426L92.7251 358.504L88.1714 366.002L88.2975 366.094L93.9862 359.426Z" fill="white"/>
<path d="M78.0206 338.731L65.9922 351.008L63.6205 348.684L75.6489 336.407L78.0206 338.731Z" fill="white"/>
<path d="M61.3066 320.24L47.6717 330.704L45.5788 327.977L56.8896 319.297L54.7373 316.492L57.0614 314.708L61.3066 320.24Z" fill="white"/>
<path d="M46.042 297.649L31.0177 305.996L27.6787 299.986L30.5811 298.374L32.2221 301.328L35.1502 299.701L33.5755 296.867L36.4012 295.297L37.9758 298.131L41.416 296.22L39.6659 293.07L42.594 291.443L46.042 297.649Z" fill="white"/>
<path d="M34.1855 272.866L18.0703 278.842L16.2368 273.898C15.9312 273.073 15.8896 272.381 16.1118 271.819C16.328 271.26 16.7488 270.784 17.3744 270.393C17.9915 269.997 18.7548 269.631 19.6644 269.294C20.5434 268.968 21.2872 268.82 21.896 268.851C22.5024 268.877 23.0207 269.16 23.4507 269.702C23.3666 269.157 23.4887 268.709 23.8168 268.358C24.1367 268.003 24.614 267.708 25.2488 267.473L31.347 265.211L32.5252 268.389L26.2164 270.728C25.7464 270.902 25.4927 271.108 25.4552 271.344C25.4094 271.576 25.4657 271.906 25.6242 272.333L32.9768 269.607L34.1855 272.866ZM22.8247 273.35L22.5361 272.572C22.3709 272.126 21.8029 272.084 20.8324 272.443C20.2036 272.677 19.8097 272.878 19.6506 273.048C19.4915 273.218 19.4617 273.438 19.5613 273.706L19.8397 274.457L22.8247 273.35Z" fill="white"/>
<path d="M5.45939 222.049C7.66228 222.049 9.44808 220.263 9.44808 218.06C9.44808 215.857 7.66228 214.071 5.45939 214.071C3.2565 214.071 1.4707 215.857 1.4707 218.06C1.4707 220.263 3.2565 222.049 5.45939 222.049Z" fill="#FD9122"/>
<path d="M3.98918 191.672C6.19207 191.672 7.97787 189.886 7.97787 187.683C7.97787 185.48 6.19207 183.694 3.98918 183.694C1.78629 183.694 0.000488281 185.48 0.000488281 187.683C0.000488281 189.886 1.78629 191.672 3.98918 191.672Z" fill="#FF0085"/>
<path d="M404.704 226.551C406.906 226.551 408.692 224.766 408.692 222.563C408.692 220.36 406.906 218.574 404.704 218.574C402.501 218.574 400.715 220.36 400.715 222.563C400.715 224.766 402.501 226.551 404.704 226.551Z" fill="#FD9122"/>
<path d="M403.233 196.174C405.436 196.174 407.222 194.389 407.222 192.186C407.222 189.983 405.436 188.197 403.233 188.197C401.03 188.197 399.245 189.983 399.245 192.186C399.245 194.389 401.03 196.174 403.233 196.174Z" fill="#FF0085"/>
</g>
<defs>
<filter id="filter0_d_427_1149" x="50" y="50" width="326" height="326" filterUnits="userSpaceOnUse" color-interpolation-filters="sRGB">
<feFlood flood-opacity="0" result="BackgroundImageFix"/>
<feColorMatrix in="SourceAlpha" type="matrix" values="0 0 0 0 0 0 0 0 0 0 0 0 0 0 0 0 0 0 127 0" result="hardAlpha"/>
<feMorphology radius="9" operator="dilate" in="SourceAlpha" result="effect1_dropShadow_427_1149"/>
<feOffset dx="6" dy="4"/>
<feGaussianBlur stdDeviation="5.5"/>
<feComposite in2="hardAlpha" operator="out"/>
<feColorMatrix type="matrix" values="0 0 0 0 0 0 0 0 0 0 0 0 0 0 0 0 0 0 0.4 0"/>
<feBlend mode="normal" in2="BackgroundImageFix" result="effect1_dropShadow_427_1149"/>
<feBlend mode="normal" in="SourceGraphic" in2="effect1_dropShadow_427_1149" result="shape"/>
</filter>
<radialGradient id="paint0_radial_427_1149" cx="0" cy="0" r="1" gradientUnits="userSpaceOnUse" gradientTransform="translate(211.5 209.75) rotate(46.0649) scale(142.683)">
<stop stop-color="#FF13A1"/>
<stop offset="0.505208" stop-color="#121213"/>
<stop offset="0.640625" stop-color="#121213"/>
<stop offset="0.791667" stop-color="#19191A"/>
<stop offset="0.994792"/>
</radialGradient>
<clipPath id="clip0_427_1149">
<rect width="409" height="412" fill="white"/>
</clipPath>
</defs>
</svg>
