<svg width="38" height="38" viewBox="0 0 38 38" fill="none" xmlns="http://www.w3.org/2000/svg">
<path d="M35.15 3.7999H30.4V2.8499C30.4 2.3255 29.9744 1.8999 29.45 1.8999C28.9256 1.8999 28.5 2.3255 28.5 2.8499V3.7999H9.5V2.8499C9.5 2.3255 9.0744 1.8999 8.55 1.8999C8.0256 1.8999 7.6 2.3255 7.6 2.8499V3.7999H2.85C1.2787 3.7999 0 5.0786 0 6.6499V33.2499C0 34.8212 1.2787 36.0999 2.85 36.0999H35.15C36.7213 36.0999 38 34.8212 38 33.2499V6.6499C38 5.0786 36.7213 3.7999 35.15 3.7999ZM2.85 5.6999H7.6V8.5499C7.6 9.0743 8.0256 9.4999 8.55 9.4999C9.0744 9.4999 9.5 9.0743 9.5 8.5499V5.6999H28.5V8.5499C28.5 9.0743 28.9256 9.4999 29.45 9.4999C29.9744 9.4999 30.4 9.0743 30.4 8.5499V5.6999H35.15C35.6744 5.6999 36.1 6.1255 36.1 6.6499V11.3999H1.9V6.6499C1.9 6.1255 2.3256 5.6999 2.85 5.6999ZM35.15 34.1999H2.85C2.3256 34.1999 1.9 33.7743 1.9 33.2499V13.2999H36.1V33.2499C36.1 33.7743 35.6744 34.1999 35.15 34.1999Z" fill="#FF13A1"/>
<path d="M14.2499 19.0001H12.3499C11.8255 19.0001 11.3999 18.5745 11.3999 18.0501C11.3999 17.5257 11.8255 17.1001 12.3499 17.1001H14.2499C14.7743 17.1001 15.1999 17.5257 15.1999 18.0501C15.1999 18.5745 14.7743 19.0001 14.2499 19.0001Z" fill="#FF13A1"/>
<path d="M19.9501 19.0001H18.0501C17.5257 19.0001 17.1001 18.5745 17.1001 18.0501C17.1001 17.5257 17.5257 17.1001 18.0501 17.1001H19.9501C20.4745 17.1001 20.9001 17.5257 20.9001 18.0501C20.9001 18.5745 20.4745 19.0001 19.9501 19.0001Z" fill="#FF13A1"/>
<path d="M25.65 19.0001H23.75C23.2256 19.0001 22.8 18.5745 22.8 18.0501C22.8 17.5257 23.2256 17.1001 23.75 17.1001H25.65C26.1744 17.1001 26.6 17.5257 26.6 18.0501C26.6 18.5745 26.1744 19.0001 25.65 19.0001Z" fill="#FF13A1"/>
<path d="M31.35 19.0001H29.45C28.9256 19.0001 28.5 18.5745 28.5 18.0501C28.5 17.5257 28.9256 17.1001 29.45 17.1001H31.35C31.8744 17.1001 32.3 17.5257 32.3 18.0501C32.3 18.5745 31.8744 19.0001 31.35 19.0001Z" fill="#FF13A1"/>
<path d="M8.54995 22.7999H6.64995C6.12555 22.7999 5.69995 22.3743 5.69995 21.8499C5.69995 21.3255 6.12555 20.8999 6.64995 20.8999H8.54995C9.07435 20.8999 9.49995 21.3255 9.49995 21.8499C9.49995 22.3743 9.07435 22.7999 8.54995 22.7999Z" fill="#FF13A1"/>
<path d="M14.2499 22.7999H12.3499C11.8255 22.7999 11.3999 22.3743 11.3999 21.8499C11.3999 21.3255 11.8255 20.8999 12.3499 20.8999H14.2499C14.7743 20.8999 15.1999 21.3255 15.1999 21.8499C15.1999 22.3743 14.7743 22.7999 14.2499 22.7999Z" fill="#FF13A1"/>
<path d="M19.9501 22.7999H18.0501C17.5257 22.7999 17.1001 22.3743 17.1001 21.8499C17.1001 21.3255 17.5257 20.8999 18.0501 20.8999H19.9501C20.4745 20.8999 20.9001 21.3255 20.9001 21.8499C20.9001 22.3743 20.4745 22.7999 19.9501 22.7999Z" fill="#FF13A1"/>
<path d="M25.65 22.7999H23.75C23.2256 22.7999 22.8 22.3743 22.8 21.8499C22.8 21.3255 23.2256 20.8999 23.75 20.8999H25.65C26.1744 20.8999 26.6 21.3255 26.6 21.8499C26.6 22.3743 26.1744 22.7999 25.65 22.7999Z" fill="#FF13A1"/>
<path d="M31.35 22.7999H29.45C28.9256 22.7999 28.5 22.3743 28.5 21.8499C28.5 21.3255 28.9256 20.8999 29.45 20.8999H31.35C31.8744 20.8999 32.3 21.3255 32.3 21.8499C32.3 22.3743 31.8744 22.7999 31.35 22.7999Z" fill="#FF13A1"/>
<path d="M8.54995 26.6H6.64995C6.12555 26.6 5.69995 26.1744 5.69995 25.65C5.69995 25.1256 6.12555 24.7 6.64995 24.7H8.54995C9.07435 24.7 9.49995 25.1256 9.49995 25.65C9.49995 26.1744 9.07435 26.6 8.54995 26.6Z" fill="#FF13A1"/>
<path d="M14.2499 26.6H12.3499C11.8255 26.6 11.3999 26.1744 11.3999 25.65C11.3999 25.1256 11.8255 24.7 12.3499 24.7H14.2499C14.7743 24.7 15.1999 25.1256 15.1999 25.65C15.1999 26.1744 14.7743 26.6 14.2499 26.6Z" fill="#FF13A1"/>
<path d="M19.9501 26.6H18.0501C17.5257 26.6 17.1001 26.1744 17.1001 25.65C17.1001 25.1256 17.5257 24.7 18.0501 24.7H19.9501C20.4745 24.7 20.9001 25.1256 20.9001 25.65C20.9001 26.1744 20.4745 26.6 19.9501 26.6Z" fill="#FF13A1"/>
<path d="M25.65 26.6H23.75C23.2256 26.6 22.8 26.1744 22.8 25.65C22.8 25.1256 23.2256 24.7 23.75 24.7H25.65C26.1744 24.7 26.6 25.1256 26.6 25.65C26.6 26.1744 26.1744 26.6 25.65 26.6Z" fill="#FF13A1"/>
<path d="M31.35 26.6H29.45C28.9256 26.6 28.5 26.1744 28.5 25.65C28.5 25.1256 28.9256 24.7 29.45 24.7H31.35C31.8744 24.7 32.3 25.1256 32.3 25.65C32.3 26.1744 31.8744 26.6 31.35 26.6Z" fill="#FF13A1"/>
<path d="M8.54995 30.4H6.64995C6.12555 30.4 5.69995 29.9744 5.69995 29.45C5.69995 28.9256 6.12555 28.5 6.64995 28.5H8.54995C9.07435 28.5 9.49995 28.9256 9.49995 29.45C9.49995 29.9744 9.07435 30.4 8.54995 30.4Z" fill="#FF13A1"/>
<path d="M14.2499 30.4H12.3499C11.8255 30.4 11.3999 29.9744 11.3999 29.45C11.3999 28.9256 11.8255 28.5 12.3499 28.5H14.2499C14.7743 28.5 15.1999 28.9256 15.1999 29.45C15.1999 29.9744 14.7743 30.4 14.2499 30.4Z" fill="#FF13A1"/>
<path d="M19.9501 30.4H18.0501C17.5257 30.4 17.1001 29.9744 17.1001 29.45C17.1001 28.9256 17.5257 28.5 18.0501 28.5H19.9501C20.4745 28.5 20.9001 28.9256 20.9001 29.45C20.9001 29.9744 20.4745 30.4 19.9501 30.4Z" fill="#FF13A1"/>
<path d="M25.65 30.4H23.75C23.2256 30.4 22.8 29.9744 22.8 29.45C22.8 28.9256 23.2256 28.5 23.75 28.5H25.65C26.1744 28.5 26.6 28.9256 26.6 29.45C26.6 29.9744 26.1744 30.4 25.65 30.4Z" fill="#FF13A1"/>
<path d="M31.35 30.4H29.45C28.9256 30.4 28.5 29.9744 28.5 29.45C28.5 28.9256 28.9256 28.5 29.45 28.5H31.35C31.8744 28.5 32.3 28.9256 32.3 29.45C32.3 29.9744 31.8744 30.4 31.35 30.4Z" fill="#FF13A1"/>
</svg>
