<svg width="32" height="32" viewBox="0 0 32 32" fill="none" xmlns="http://www.w3.org/2000/svg">
<g clip-path="url(#clip0_421_1277)">
<path d="M26.112 27.3808C28.8784 24.5296 30.4 20.7824 30.4 16.8C30.4 13.008 29.0208 9.42719 26.4992 6.63199L27.6 5.53119L28.6352 6.56479C28.792 6.72159 28.9968 6.79839 29.2 6.79839C29.4032 6.79839 29.6096 6.71999 29.7648 6.56479C30.0768 6.25279 30.0768 5.74559 29.7648 5.43359L26.5648 2.23359C26.2528 1.92159 25.7456 1.92159 25.4336 2.23359C25.1216 2.54559 25.1216 3.05279 25.4336 3.36479L26.4688 4.39839L25.368 5.49919C22.5728 2.97759 18.992 1.59839 15.2 1.59839C11.408 1.59839 7.8272 2.97759 5.032 5.49919L3.9312 4.39839L4.9648 3.36479C5.2768 3.05279 5.2768 2.54559 4.9648 2.23359C4.6528 1.92159 4.1456 1.92159 3.8336 2.23359L0.6336 5.43359C0.3216 5.74559 0.3216 6.25279 0.6336 6.56479C0.7904 6.72159 0.9952 6.79839 1.2 6.79839C1.4048 6.79839 1.6096 6.71999 1.7664 6.56479L2.8 5.53119L3.9008 6.63199C1.3792 9.42719 0 13.008 0 16.8C0 20.7824 1.5216 24.5296 4.288 27.3808L1.0336 30.6352C0.7216 30.9472 0.7216 31.4544 1.0336 31.7664C1.1904 31.9232 1.3952 32.0016 1.6 32.0016C1.8048 32.0016 2.0096 31.9232 2.1664 31.7664L5.4624 28.472C8.1904 30.7568 11.6 32.0016 15.2016 32.0016C18.8032 32.0016 22.2128 30.7568 24.9408 28.472L28.2352 31.7664C28.392 31.9232 28.5968 32.0016 28.8016 32.0016C29.0064 32.0016 29.2112 31.9232 29.3664 31.7664C29.6784 31.4544 29.6784 30.9472 29.3664 30.6352L26.112 27.3808ZM1.6 16.8C1.6 9.30079 7.7008 3.19999 15.2 3.19999C22.6992 3.19999 28.8 9.30079 28.8 16.8C28.8 24.2992 22.6992 30.4 15.2 30.4C7.7008 30.4 1.6 24.2992 1.6 16.8Z" fill="#FF13A1"/>
<path d="M24.2063 11.6C23.9855 11.2176 23.4959 11.0864 23.1135 11.3072L15.2415 15.8528L9.10553 11.5568C8.74393 11.304 8.24473 11.392 7.99193 11.7536C7.73913 12.1152 7.82713 12.6144 8.18873 12.8672L14.7423 17.456L14.7455 17.4592C14.7599 17.4688 14.7743 17.4784 14.7887 17.4864C14.7919 17.488 14.7951 17.4912 14.7983 17.4928C14.8127 17.5008 14.8271 17.5088 14.8415 17.5168C14.8447 17.5184 14.8479 17.52 14.8511 17.5216C14.8671 17.5296 14.8831 17.536 14.9007 17.544C14.9103 17.5488 14.9215 17.552 14.9311 17.5552C14.9375 17.5568 14.9439 17.56 14.9519 17.5632C14.9631 17.5664 14.9743 17.5696 14.9855 17.5728C14.9919 17.5744 14.9983 17.576 15.0047 17.5776C15.0159 17.5808 15.0271 17.5824 15.0399 17.5856C15.0463 17.5872 15.0527 17.5888 15.0591 17.5888C15.0703 17.5904 15.0815 17.592 15.0927 17.5936C15.1007 17.5952 15.1087 17.5952 15.1167 17.5968C15.1263 17.5984 15.1359 17.5984 15.1455 17.6C15.1599 17.6016 15.1743 17.6016 15.1887 17.6016C15.1919 17.6016 15.1951 17.6016 15.1983 17.6016H15.1999C15.2303 17.6016 15.2591 17.6 15.2895 17.5968H15.2943C15.3231 17.5936 15.3519 17.5888 15.3807 17.5808C15.3839 17.5808 15.3855 17.5792 15.3887 17.5792C15.4159 17.5728 15.4431 17.5648 15.4687 17.5552C15.4735 17.5536 15.4783 17.552 15.4815 17.5504C15.5071 17.5408 15.5311 17.5312 15.5551 17.5184C15.5615 17.5152 15.5663 17.512 15.5727 17.5088C15.5807 17.504 15.5903 17.5008 15.5983 17.496L23.9119 12.696C24.2943 12.4752 24.4255 11.9856 24.2047 11.6032L24.2063 11.6Z" fill="#FF13A1"/>
</g>
<defs>
<clipPath id="clip0_421_1277">
<rect width="32" height="32" fill="white"/>
</clipPath>
</defs>
</svg>
