<?xml version="1.0" encoding="UTF-8" standalone="no"?>
<!DOCTYPE svg PUBLIC "-//W3C//DTD SVG 1.1//EN" "http://www.w3.org/Graphics/SVG/1.1/DTD/svg11.dtd">
<svg width="100%" height="100%" viewBox="0 0 179 177" version="1.1" xmlns="http://www.w3.org/2000/svg" xmlns:xlink="http://www.w3.org/1999/xlink" xml:space="preserve" xmlns:serif="http://www.serif.com/" style="fill-rule:evenodd;clip-rule:evenodd;stroke-linejoin:round;stroke-miterlimit:2;">
    <g transform="matrix(1,0,0,1,-35.1425,-9.0976)">
        <g transform="matrix(2.93694,0,0,2.93694,-1656.73,-1560.05)">
            <path d="M606.415,591.781C591.039,591.781 578.596,579.481 578.596,564.281C578.596,549.081 591.039,536.781 606.415,536.781C621.791,536.781 634.233,549.081 634.233,564.281C634.233,579.481 621.791,591.781 606.415,591.781ZM606.415,534.281C589.622,534.281 576.067,547.681 576.067,564.281C576.067,580.881 589.622,594.281 606.415,594.281C623.207,594.281 636.763,580.881 636.763,564.281C636.763,547.681 623.207,534.281 606.415,534.281Z" style="fill:white;fill-rule:nonzero;"/>
            <path d="M618.655,552.181C618.149,551.681 617.34,551.681 616.834,552.181L606.415,562.481L595.895,552.181C595.389,551.681 594.579,551.681 594.073,552.181C593.567,552.681 593.567,553.481 594.073,553.981L604.594,564.381L594.175,574.681C593.669,575.181 593.669,575.981 594.175,576.481C594.681,576.981 595.489,576.981 595.995,576.481L606.516,566.081L617.036,576.481C617.542,576.981 618.352,576.981 618.857,576.481C619.363,575.981 619.363,575.181 618.857,574.681L608.235,564.281L618.756,553.881C619.161,553.381 619.161,552.681 618.655,552.181Z" style="fill:white;fill-rule:nonzero;"/>
        </g>
    </g>
</svg>
