<?xml version="1.0" encoding="UTF-8" standalone="no"?>
<!DOCTYPE svg PUBLIC "-//W3C//DTD SVG 1.1//EN" "http://www.w3.org/Graphics/SVG/1.1/DTD/svg11.dtd">
<svg width="100%" height="100%" viewBox="0 0 64 40" version="1.1" xmlns="http://www.w3.org/2000/svg" xmlns:xlink="http://www.w3.org/1999/xlink" xml:space="preserve" xmlns:serif="http://www.serif.com/" style="fill-rule:evenodd;clip-rule:evenodd;stroke-linejoin:round;stroke-miterlimit:2;">
    <g transform="matrix(1,0,0,1,-407.917,-90.2284)">
        <g>
            <path d="M425.19,98.865C425.19,94.098 421.32,90.228 416.554,90.228C411.787,90.228 407.917,94.098 407.917,98.865L407.917,121.453C407.917,126.22 411.787,130.09 416.554,130.09C421.32,130.09 425.19,126.22 425.19,121.453L425.19,98.865Z" style="fill:rgb(255,129,3);"/>
            <g transform="matrix(1,0,0,1,23,0)">
                <path d="M425.19,98.865C425.19,94.098 421.32,90.228 416.554,90.228C411.787,90.228 407.917,94.098 407.917,98.865L407.917,121.453C407.917,126.22 411.787,130.09 416.554,130.09C421.32,130.09 425.19,126.22 425.19,121.453L425.19,98.865Z" style="fill:rgb(255,129,3);"/>
            </g>
            <g transform="matrix(1,0,0,1,46,0)">
                <path d="M425.19,98.865C425.19,94.098 421.32,90.228 416.554,90.228C411.787,90.228 407.917,94.098 407.917,98.865L407.917,121.453C407.917,126.22 411.787,130.09 416.554,130.09C421.32,130.09 425.19,126.22 425.19,121.453L425.19,98.865Z" style="fill:rgb(255,129,3);"/>
            </g>
        </g>
    </g>
</svg>
