<svg width="292" height="257" viewBox="0 0 292 257" fill="none" xmlns="http://www.w3.org/2000/svg">
<g clip-path="url(#clip0_1751_2463)">
<path fill-rule="evenodd" clip-rule="evenodd" d="M256.596 144.578C255.437 112.477 255.603 112.414 257.109 109.969C268.926 90.7837 217.406 7.46168 131.246 18.2647C51.5569 28.2562 29.0165 100.367 34.3805 109.717C36.545 113.491 36.203 113.728 35.6735 164.087C35.492 181.31 -13.0781 169.274 3.41741 121.933C7.45541 110.342 14.6869 114.463 16.9564 102.496C35.1574 6.48668 143.165 -20.0123 207.62 14.3812C274.638 50.1412 275.106 105.197 277.386 108.109C282.98 115.255 293.127 112.252 291.242 149.035C291.006 153.655 287.37 165.883 272.315 170.209C253.119 175.724 256.688 164.449 256.596 144.578ZM90.7834 193.384C104.888 192.49 104.694 191.783 117.932 187.016C126.609 183.892 170.604 208.73 165.158 249.476C163.959 258.44 158.847 256.004 111.782 256.393C104.451 256.453 24.092 257.116 20.1425 256.091C8.67795 253.114 14.8144 213.814 34.2454 199.142C60.5134 179.306 75.8659 191.126 78.6634 191.639C84.7294 192.752 84.6649 192.601 90.7834 193.384ZM92.2834 64.4317C97.2304 65.0542 120.279 64.5322 133.628 89.4367C137.259 96.2122 145.119 136.352 130.535 159.053C111.117 189.278 66.9619 187.439 50.6869 154.885C46.3954 146.299 26.9539 69.2632 92.2834 64.4317ZM154.593 122.077C154.598 117.713 152.229 94.8487 166.04 80.3107C168.344 77.8852 183.461 61.9702 204.836 64.7032C253.361 70.9057 246.624 118.849 246.276 138.547C245.814 164.53 208.299 196.67 175.298 172.385C150.639 154.238 154.523 125.924 154.593 122.077ZM201.779 193.39C214.905 191.51 214.848 191.552 227.426 187.249C231.188 185.962 267.365 194.137 275.628 223.976C285.197 258.529 271.679 256.333 266.279 256.289C262.106 256.255 177.159 256.381 174.638 256.246C170.754 256.036 174.764 244.859 173.507 237.545C168.803 210.191 162.12 207.634 155.753 199.735C152.402 195.578 170.928 185.722 174.651 187.003C187.931 191.57 187.709 192.494 201.779 193.39Z" fill="white"/>
</g>
<defs>
<clipPath id="clip0_1751_2463">
<rect width="292" height="257" fill="white"/>
</clipPath>
</defs>
</svg>
