<svg width="154" height="309" viewBox="0 0 154 309" fill="none" xmlns="http://www.w3.org/2000/svg">
<g clip-path="url(#clip0_1751_2459)">
<path fill-rule="evenodd" clip-rule="evenodd" d="M105.365 72.5585C118.831 55.922 133.42 44.8235 132.814 53.5295C130.262 90.2375 158.857 95.366 146.333 140.588C143.759 149.884 128.662 171.596 127.229 165.798C123.898 152.33 136.655 109.436 93.4015 93.098C62.5255 81.434 27.0415 104.265 26.674 140.538C26.542 153.737 27.751 169.418 23.647 165.359C-26.0735 116.195 32.8675 44.1095 39.8305 47.267C42.733 48.5825 44.077 72.047 49.348 63.104C63.0985 39.773 74.7655 41.8655 77.806 2.59098C78.6955 -8.89752 101.764 19.829 103.18 48.9485C103.885 63.452 103.877 64.196 103.865 65.5235C103.822 69.9905 102.268 70.799 105.365 72.5585ZM102.628 177.206C96.4615 177.314 80.17 175.295 82.9555 184.082C84.058 187.56 88.549 187.586 89.116 187.59C90.556 187.598 90.5395 187.581 107.128 187.599C107.804 187.601 115.028 187.608 115.271 189.888C122.045 253.646 39.4615 244.862 38.626 203.501C38.506 197.564 37.042 187.645 41.1745 187.579C44.125 187.532 70.5205 190.247 63.829 179.363C60.616 174.135 37.852 181.455 37.786 173.532C37.7785 172.703 37.7035 163.831 39.7225 163.333C42.619 162.617 68.725 166.775 63.727 155.469C60.76 148.757 38.311 156.779 37.7425 149.556C36.8935 138.765 40.198 138.836 41.107 138.809C45.6025 138.679 68.5015 141.353 63.781 131.435C61.2295 126.075 38.9875 132.341 41.8525 125.749C59.056 86.15 102.385 101.732 112.129 125.352C113.212 127.977 112.948 128.858 110.184 128.939C99.9685 129.24 78.3085 126.297 82.8415 136.181C85.774 142.572 114.491 134.417 115.042 141.954C115.105 142.818 115.782 152.067 113.145 152.61C109.164 153.429 78.2155 149.286 83.827 159.681C87.9925 167.394 115.009 159.11 115.291 165.921C115.327 166.772 115.686 175.457 114.645 176.538C112.926 178.322 112.61 177.135 102.628 177.206ZM67.444 283.022C67.4425 277.463 67.444 277.499 67.4425 277.019C67.423 268.614 63.955 270.441 60.5575 269.777C24.0205 262.629 1.02702 229.631 0.21402 197.525C-0.17898 181.98 -0.829978 171.557 6.52452 170.045C20.2525 167.221 16.5685 188.484 16.567 190.017C16.4965 255.396 84.034 267.422 116.055 240.935C150.151 212.732 126.796 172.381 143.077 170.11C154.277 168.547 153.409 181.868 152.653 205.04C151.936 227.027 135.179 250.448 118.831 260.013C99.895 271.094 90.6805 269.676 86.2555 271.436C83.101 272.688 84.172 284.882 84.199 286.056C84.4255 295.64 124.143 280.396 124.677 298.051C125.038 310.025 118.857 308.082 65.1265 308.052C45.844 308.04 26.2585 310.803 27.3355 297.996C28.36 285.839 47.8315 289.032 50.1265 289.052C61.2955 289.145 66.4855 294.143 67.444 283.022Z" fill="white"/>
</g>
<defs>
<clipPath id="clip0_1751_2459">
<rect width="154" height="309" fill="white"/>
</clipPath>
</defs>
</svg>
