<svg width="451" height="204" viewBox="0 0 451 204" fill="none" xmlns="http://www.w3.org/2000/svg">
<g clip-path="url(#clip0_1751_2467)">
<path fill-rule="evenodd" clip-rule="evenodd" d="M82.3842 32.9247C82.3932 24.3327 80.1433 11.0772 92.2543 3.21422C97.6408 -0.28228 98.1988 0.0147208 267.573 0.0252208C355.837 0.0312208 357.274 -0.807286 364.314 6.70471C370.599 13.4112 371.236 14.5092 370.33 121.426C369.783 185.916 374.929 198.351 350.103 202.636C347.563 203.076 324.033 203.007 322.989 202.681C321.417 202.192 318.702 194.248 318.436 193.471C305.655 156.081 306.282 150.561 299.067 150.535C287.548 150.493 169.543 150.073 155.077 150.529C149.989 150.69 149.737 151.843 144.295 167.832C134.518 196.56 134.122 202.78 129.591 202.896C97.6167 203.721 91.1203 202.368 84.8338 191.778C81.5638 186.268 82.4217 185.733 82.3842 32.9247ZM339.57 20.1102C204.247 20.1687 204.33 19.9077 192.573 20.1222C108.858 21.6492 103.714 16.9167 102.181 26.8767C101.988 28.1262 102.048 125.833 102.144 128.953C102.418 137.881 110.647 136.525 150.573 136.465C342.319 136.183 342.505 136.81 345.814 135.477C351.309 133.263 350.584 131.271 350.562 56.9262C350.553 26.7222 353.223 20.8692 339.57 20.1102ZM328.215 97.6002C320.547 121.701 308.428 118.129 243.573 118.173C142.99 118.24 142.173 118.702 134.617 113.19C113.653 97.8942 121.552 54.3027 144.511 51.9912C145.207 51.9207 301.99 49.7772 310.794 53.1222C331.962 61.1637 331.228 85.6257 328.215 97.6002ZM256.489 73.2837C257.589 69.2367 257.683 69.2757 257.676 68.9127C257.622 65.9832 255.841 66.5337 204.574 66.5307C196.32 66.5307 191.077 64.1592 193.549 72.0897C197.889 86.0142 194.931 86.1837 192.372 100.438C192.031 102.336 199.435 102.373 200.07 102.376C204.517 102.399 253.633 102.651 255.648 102.37C263.448 101.287 251.806 96.3102 256.489 73.2837ZM158.089 68.1222C122.862 76.2417 152.871 116.037 171.15 95.5572C175.168 91.0542 181.479 70.7787 158.089 68.1222ZM294.526 101.229C313.23 97.4352 311.701 79.3197 303.346 72.2022C282.642 54.5637 258.376 98.4957 294.526 101.229ZM215.073 161.308L290.076 161.335C298.125 161.358 296.934 164.287 300.145 174.055C308.433 199.275 311.143 202.966 305.085 202.956C159.982 202.71 160.105 203.365 147.504 202.984C142.857 202.843 145.348 200.572 146.829 196.218C156.807 166.863 156.648 166.908 158.125 163.455C159.235 160.858 160.269 161.329 215.073 161.308ZM169.486 187.611C176.089 201.084 189.937 184.087 178.767 179.143C178.591 179.065 174.538 177.804 171.705 180.094C168.375 182.787 169.072 183.265 169.486 187.611ZM282.873 181.176C282.471 180.819 279.573 178.246 276.616 178.714C272.166 179.418 270.994 182.478 270.787 183.019C265.902 195.787 290.916 194.146 282.873 181.176Z" fill="white"/>
<path fill-rule="evenodd" clip-rule="evenodd" d="M448.264 111.07C447.287 114.681 439.451 143.67 426.145 152.259C422.582 154.558 407.425 152.037 418.744 139.135C436.312 119.112 443.771 79.1967 419.99 48.3672C418.997 47.0802 409.823 39.4392 417.853 33.3237C428.764 25.0152 449.743 63.1527 450.089 86.9367C450.359 105.4 449.297 105.25 448.264 111.07ZM418.258 91.4232C418.138 94.8717 417.215 121.245 402.292 131.497C395.879 135.903 387.559 127.05 392.764 120.435C424.369 80.2812 378.109 62.0907 394.942 53.6952C397.162 52.5882 406.439 47.9607 416.009 76.4457C416.668 78.4077 416.504 78.4272 418.258 91.4232Z" fill="white"/>
<path fill-rule="evenodd" clip-rule="evenodd" d="M1.36977 106.531C1.13427 105.272 -6.03722 76.5354 14.9358 44.5224C19.3923 37.7199 24.2973 29.0154 32.1303 32.8239C43.6443 38.4249 24.2807 49.3104 17.7887 73.5819C7.58275 111.737 31.1208 137.969 34.4928 142.789C38.7873 148.931 30.0408 157.456 23.0763 151.42C8.48878 138.778 2.22927 110.425 1.36977 106.531ZM34.4598 79.2534C35.2953 76.7124 44.6567 48.2229 56.1422 53.8014C71.9912 61.4979 28.2678 80.3139 56.8713 118.946C65.6298 130.775 51.8778 136.721 45.5433 128.953C26.0373 105.028 34.3848 79.7049 34.4598 79.2534Z" fill="white"/>
</g>
<defs>
<clipPath id="clip0_1751_2467">
<rect width="451" height="204" fill="white"/>
</clipPath>
</defs>
</svg>
