<svg width="39" height="39" viewBox="0 0 39 39" fill="none" xmlns="http://www.w3.org/2000/svg">
<path fill-rule="evenodd" clip-rule="evenodd" d="M2.25 19.5C2.25 9.97308 9.97308 2.25 19.5 2.25C29.027 2.25 36.75 9.97309 36.75 19.5C36.75 28.111 30.4414 35.2463 22.1941 36.5405C21.9053 36.5858 21.6112 36.5025 21.3891 36.3125C21.1669 36.1225 21.0391 35.8449 21.0391 35.5526V24.1972C21.0391 23.645 21.4868 23.1972 22.0391 23.1972H24.9671L25.3808 20.5H22.0391C21.4868 20.5 21.0391 20.0523 21.0391 19.5V16.4518C21.0391 15.6639 21.2303 14.7632 21.8497 14.0469C22.4925 13.3035 23.4607 12.9141 24.6872 12.9141H25.7363V10.7819C25.6521 10.7713 25.563 10.7605 25.4695 10.7497C24.802 10.6727 23.9344 10.5977 23.0987 10.5977C21.4449 10.5977 20.1878 11.0951 19.3453 11.9383C18.5039 12.7806 17.9609 14.0832 17.9609 15.9199V19.5C17.9609 20.0523 17.5132 20.5 16.9609 20.5H13.835V23.1972H16.9609C17.5132 23.1972 17.9609 23.645 17.9609 24.1972V35.5526C17.9609 35.8449 17.8331 36.1225 17.6109 36.3125C17.3888 36.5025 17.0947 36.5858 16.8059 36.5405C8.5585 35.2463 2.25 28.111 2.25 19.5ZM26.7363 9.91504L26.9045 8.92929C27.3849 9.01128 27.7363 9.42767 27.7363 9.91504V13.9141C27.7363 14.4663 27.2886 14.9141 26.7363 14.9141H24.6872C23.8951 14.9141 23.5391 15.1509 23.3626 15.3551C23.1625 15.5864 23.0391 15.9546 23.0391 16.4518V18.5H26.5458C26.8375 18.5 27.1147 18.6274 27.3046 18.8487C27.4946 19.07 27.5785 19.3633 27.5343 19.6516L26.8139 24.3488C26.7391 24.8369 26.3192 25.1972 25.8255 25.1972H23.0391V34.3372C29.7545 32.7416 34.75 26.7035 34.75 19.5C34.75 11.0776 27.9224 4.25 19.5 4.25C11.0777 4.25 4.25 11.0777 4.25 19.5C4.25 26.7035 9.24542 32.7416 15.9609 34.3372V25.1972H12.835C12.2827 25.1972 11.835 24.7495 11.835 24.1972V19.5C11.835 18.9477 12.2827 18.5 12.835 18.5H15.9609V15.9199C15.9609 13.684 16.6309 11.8255 17.9305 10.5248C19.2289 9.22505 21.0408 8.59766 23.0987 8.59766C24.0409 8.59766 24.9921 8.68133 25.6989 8.76295C26.0545 8.804 26.3529 8.8451 26.5636 8.87611C26.669 8.89162 26.7526 8.90465 26.8107 8.91392L26.8781 8.92487L26.8966 8.92796L26.9019 8.92885L26.9045 8.92929C26.9046 8.9293 26.9045 8.92929 26.7363 9.91504Z" fill="white"/>
</svg>
