<svg width="233" height="43" viewBox="0 0 233 43" fill="none" xmlns="http://www.w3.org/2000/svg">
<g clip-path="url(#clip0_419_773)">
<path d="M24.4567 13.9643H19.116V29.4002H24.4567V13.9643Z" fill="#FCB72A"/>
<path d="M3.09137 17.5723C4.57181 17.5723 5.77185 18.7644 5.77185 20.2351C5.77185 21.7058 4.57181 22.8979 3.09137 22.8979C1.61093 22.8979 0.410889 21.7058 0.410889 20.2351C0.410889 18.7644 1.61093 17.5723 3.09137 17.5723Z" fill="#266AB4"/>
<path d="M3.09137 20.4666C4.57181 20.4666 5.77185 21.6587 5.77185 23.1293C5.77185 24.5995 4.57181 25.7921 3.09137 25.7921C1.61093 25.7921 0.410889 24.5995 0.410889 23.1293C0.410889 21.6587 1.61093 20.4666 3.09137 20.4666Z" fill="#266AB4"/>
<path d="M5.7719 20.2351H0.430664V23.1293H5.7719V20.2351Z" fill="#266AB4"/>
<path d="M40.481 20.4666C41.9615 20.4666 43.1615 21.6587 43.1615 23.1293C43.1615 24.5995 41.9615 25.7921 40.481 25.7921C39.0006 25.7921 37.8005 24.5995 37.8005 23.1293C37.8005 21.6587 39.0006 20.4666 40.481 20.4666Z" fill="#4D7CBE"/>
<path d="M40.481 17.5723C41.9615 17.5723 43.1615 18.7644 43.1615 20.2351C43.1615 21.7058 41.9615 22.8979 40.481 22.8979C39.0006 22.8979 37.8005 21.7058 37.8005 20.2351C37.8005 18.7644 39.0006 17.5723 40.481 17.5723Z" fill="#4D7CBE"/>
<path d="M43.1615 20.2351H37.8198V23.1293H43.1615V20.2351Z" fill="#4D7CBE"/>
<path d="M12.3174 26.2545C13.7974 26.2545 14.9979 27.447 14.9979 28.9172C14.9979 30.3879 13.7974 31.58 12.3174 31.58C10.837 31.58 9.63696 30.3879 9.63696 28.9172C9.63696 27.447 10.837 26.2545 12.3174 26.2545Z" fill="#F05040"/>
<path d="M12.3174 29.1487C13.7974 29.1487 14.9979 30.3413 14.9979 31.8115C14.9979 33.2826 13.7974 34.4742 12.3174 34.4742C10.837 34.4742 9.63696 33.2826 9.63696 31.8115C9.63696 30.3413 10.837 29.1487 12.3174 29.1487Z" fill="#F05040"/>
<path d="M14.9787 28.9172H9.63745V31.8114H14.9787V28.9172Z" fill="#F05040"/>
<path d="M12.3174 8.88977C13.7974 8.88977 14.9979 10.0819 14.9979 11.5525C14.9979 13.0232 13.7974 14.2153 12.3174 14.2153C10.837 14.2153 9.63696 13.0232 9.63696 11.5525C9.63696 10.0819 10.837 8.88977 12.3174 8.88977Z" fill="#F05040"/>
<path d="M12.3174 18.3054C13.7974 18.3054 14.9979 19.4975 14.9979 20.9681C14.9979 22.4388 13.7974 23.6309 12.3174 23.6309C10.837 23.6309 9.63696 22.4388 9.63696 20.9681C9.63696 19.4975 10.837 18.3054 12.3174 18.3054Z" fill="#F05040"/>
<path d="M14.9787 11.5525H9.63745V21.0264H14.9787V11.5525Z" fill="#F05040"/>
<path d="M31.2549 11.7839C32.7354 11.7839 33.9354 12.976 33.9354 14.4467C33.9354 15.9174 32.7354 17.1095 31.2549 17.1095C29.7745 17.1095 28.5745 15.9174 28.5745 14.4467C28.5745 12.976 29.7745 11.7839 31.2549 11.7839Z" fill="#30B261"/>
<path d="M31.2549 8.88977C32.7354 8.88977 33.9354 10.0819 33.9354 11.5525C33.9354 13.0232 32.7354 14.2153 31.2549 14.2153C29.7745 14.2153 28.5745 13.0232 28.5745 11.5525C28.5745 10.0819 29.7745 8.88977 31.2549 8.88977Z" fill="#30B261"/>
<path d="M33.9354 11.5525H28.5938V14.4467H33.9354V11.5525Z" fill="#30B261"/>
<path d="M21.7964 3.35193C23.2769 3.35193 24.4769 4.54404 24.4769 6.0147C24.4769 7.4849 23.2769 8.67747 21.7964 8.67747C20.316 8.67747 19.116 7.4849 19.116 6.0147C19.116 4.54404 20.316 3.35193 21.7964 3.35193Z" fill="#FCB72A"/>
<path d="M21.7964 0.457703C23.2769 0.457703 24.4769 1.64982 24.4769 3.12048C24.4769 4.59067 23.2769 5.78325 21.7964 5.78325C20.316 5.78325 19.116 4.59067 19.116 3.12048C19.116 1.64982 20.316 0.457703 21.7964 0.457703Z" fill="#FCB72A"/>
<path d="M24.4567 3.12048H19.116V6.01468H24.4567V3.12048Z" fill="#FCB72A"/>
<path d="M21.7964 37.5999C23.2769 37.5999 24.4769 38.7924 24.4769 40.2626C24.4769 41.7338 23.2769 42.9254 21.7964 42.9254C20.316 42.9254 19.116 41.7338 19.116 40.2626C19.116 38.7924 20.316 37.5999 21.7964 37.5999Z" fill="#FCB72A"/>
<path d="M21.7964 34.7056C23.2769 34.7056 24.4769 35.8982 24.4769 37.3684C24.4769 38.8395 23.2769 40.0312 21.7964 40.0312C20.316 40.0312 19.116 38.8395 19.116 37.3684C19.116 35.8982 20.316 34.7056 21.7964 34.7056Z" fill="#FCB72A"/>
<path d="M24.4567 37.3684H19.116V40.2626H24.4567V37.3684Z" fill="#FCB72A"/>
<path d="M31.2549 29.1487C32.7354 29.1487 33.9354 30.3413 33.9354 31.8115C33.9354 33.2826 32.7354 34.4742 31.2549 34.4742C29.7745 34.4742 28.5745 33.2826 28.5745 31.8115C28.5745 30.3413 29.7745 29.1487 31.2549 29.1487Z" fill="#30B261"/>
<path d="M31.2549 19.7522C32.7354 19.7522 33.9354 20.9448 33.9354 22.415C33.9354 23.8861 32.7354 25.0782 31.2549 25.0782C29.7745 25.0782 28.5745 23.8861 28.5745 22.415C28.5745 20.9448 29.7745 19.7522 31.2549 19.7522Z" fill="#30B261"/>
<path d="M33.9354 22.415H28.5938V31.8315H33.9354V22.415Z" fill="#30B261"/>
<path d="M21.7964 11.3015C23.2769 11.3015 24.4769 12.4936 24.4769 13.9643C24.4769 15.4349 23.2769 16.6271 21.7964 16.6271C20.316 16.6271 19.116 15.4349 19.116 13.9643C19.116 12.4936 20.316 11.3015 21.7964 11.3015Z" fill="#FCB72A"/>
<path d="M21.7964 26.7374C23.2769 26.7374 24.4769 27.9295 24.4769 29.4001C24.4769 30.8708 23.2769 32.0629 21.7964 32.0629C20.316 32.0629 19.116 30.8708 19.116 29.4001C19.116 27.9295 20.316 26.7374 21.7964 26.7374Z" fill="#FCB72A"/>
<path d="M126.476 18.5951C124.98 18.5951 122.941 19.888 123.018 22.3959L128.884 19.9841C128.573 19.1737 127.602 18.6138 126.456 18.6138L126.476 18.5951ZM126.67 26.5633C128.146 26.5633 129.156 25.8304 129.913 24.7498L132.147 26.2353C130.924 28.0508 128.868 29.1375 126.67 29.1295C123.13 29.1739 120.224 26.3585 120.181 22.8419C120.18 22.764 120.181 22.6861 120.183 22.6077C120.183 18.7491 122.999 16.1054 126.398 16.1054C129.777 16.1054 131.448 18.7682 131.991 20.2347L132.283 20.9681L123.504 24.5757C124.183 25.8686 125.213 26.5433 126.689 26.5433L126.67 26.5633ZM115.91 28.6863V9.5453H118.764V28.6863H115.91ZM107.888 26.3702C109.83 26.3702 111.384 24.7297 111.384 22.4346C111.384 20.1381 109.829 18.4784 107.888 18.4784C105.906 18.4784 104.237 20.1381 104.237 22.4346C104.237 24.7115 105.906 26.3702 107.888 26.3702ZM111.19 16.3182H113.948V28.0111C113.948 32.8347 111.092 34.8032 107.713 34.8032C105.159 34.8186 102.853 33.2914 101.886 30.9441L104.411 29.9022C104.838 30.9632 105.926 32.2178 107.693 32.2178C109.83 32.2178 111.189 30.8666 111.189 28.3975V27.4527H111.092C110.217 28.4297 108.952 28.9737 107.635 28.9382C104.11 28.8235 101.319 25.9391 101.342 22.436C101.342 18.7701 104.353 15.8945 107.635 15.8945C109.189 15.8945 110.451 16.5893 111.092 17.361H111.189L111.19 16.3182ZM93.5724 26.5442C95.554 26.5442 97.2627 24.9229 97.2627 22.5886C97.2627 20.2347 95.5727 18.6334 93.5724 18.6334C91.572 18.6334 89.8628 20.2347 89.8628 22.5886C89.8628 24.9229 91.5922 26.5442 93.5526 26.5442H93.5724ZM93.5724 16.1059C97.1438 16.0522 100.084 18.8853 100.138 22.4336C100.139 22.492 100.139 22.5503 100.138 22.6081C100.192 26.156 97.3397 29.0763 93.7682 29.1305C93.7029 29.1314 93.6381 29.1314 93.5724 29.1305C90.0009 29.1949 87.0532 26.3702 86.9879 22.8223C86.9865 22.7514 86.9865 22.6795 86.9879 22.6081C86.9339 19.071 89.7759 16.16 93.337 16.105C93.4155 16.104 93.4939 16.104 93.5724 16.1059ZM79.1996 26.5442C81.1812 26.5442 82.9096 24.9229 82.9096 22.5886C82.9096 20.2347 81.1807 18.6334 79.2189 18.6334C77.1992 18.6334 75.5093 20.2347 75.5093 22.5886C75.5088 24.9233 77.2189 26.5442 79.1996 26.5442ZM79.1996 16.1059C82.7711 16.0415 85.7193 18.8662 85.7836 22.4141C85.7845 22.4789 85.785 22.5433 85.7841 22.6081C85.8386 26.156 82.9871 29.0763 79.4152 29.1305C79.3438 29.1314 79.2715 29.1314 79.1996 29.1305C75.6281 29.1841 72.6893 26.3511 72.6344 22.8032C72.6334 22.7379 72.6334 22.673 72.6344 22.6081C72.5808 19.071 75.4233 16.16 78.984 16.1059C79.0563 16.1045 79.1277 16.105 79.1996 16.1059ZM51.8716 18.9035C51.8716 13.3083 56.5722 8.77358 62.2046 8.77358C64.8193 8.73299 67.3401 9.74173 69.1968 11.5717L67.2156 13.5014C64.282 10.7509 59.6594 10.8853 56.8925 13.7996C55.5929 15.1685 54.8794 16.9845 54.9015 18.8652C54.9015 22.9362 58.1066 26.2167 62.2051 26.2167C64.1326 26.2969 66.0039 25.5607 67.3523 24.1903C68.1292 23.4186 68.6731 22.2601 68.867 20.7176H62.2046V17.9587H71.5856C71.6828 18.4598 71.741 19.0383 71.741 19.6948C71.8265 22.0804 70.9604 24.4026 69.333 26.1588C67.473 28.0718 64.8794 29.1029 62.2046 28.9947C56.5614 29.0059 51.9566 24.5095 51.8716 18.9035ZM227.611 29.0138C225.284 29.0997 223.157 27.7139 222.308 25.5607L224.348 24.7306C224.989 26.2363 226.096 27.008 227.65 27.008C228.349 27.008 228.932 26.834 229.398 26.5251C229.824 26.2587 230.081 25.7916 230.078 25.291C230.078 24.5193 229.514 23.978 228.407 23.6892L225.959 23.1107C225.147 22.8942 224.392 22.5055 223.745 21.9722C223.059 21.4417 222.669 20.6168 222.697 19.7536C222.697 18.673 223.182 17.8238 224.134 17.1487C225.127 16.4708 226.309 16.1194 227.514 16.1455C228.601 16.1455 229.553 16.3966 230.408 16.8785C231.243 17.3605 231.845 18.0357 232.214 18.9628L230.233 19.7727C229.786 18.7117 228.854 18.171 227.455 18.171C226.776 18.171 226.193 18.3063 225.727 18.5951C225.261 18.8657 225.047 19.2511 225.047 19.7144C225.047 20.4092 225.571 20.872 226.659 21.123L229.068 21.7016C230.194 21.9521 231.049 22.415 231.593 23.0523C232.136 23.6892 232.408 24.4036 232.408 25.2331C232.408 26.3128 231.962 27.2203 231.068 27.9342C230.174 28.6672 229.029 29.0138 227.611 29.0138ZM219.628 28.8207C218.346 28.8207 217.375 28.4931 216.695 27.818C215.98 27.0351 215.616 25.9983 215.686 24.9424V18.6147H213.549V16.5309H215.686V12.8459H217.978V16.5309H220.949V18.6147H217.978V24.7889C217.978 26.1014 218.521 26.7565 219.609 26.7565C220.036 26.7565 220.386 26.68 220.658 26.5643L221.435 28.4936C220.949 28.725 220.347 28.8216 219.608 28.8216H219.628V28.8207ZM207.974 29.0138C205.648 29.0997 203.521 27.7139 202.672 25.5607L204.711 24.7306C205.353 26.2363 206.46 27.008 208.013 27.008C208.712 27.008 209.295 26.834 209.762 26.5251C210.188 26.2587 210.445 25.7916 210.441 25.291C210.441 24.5193 209.878 23.978 208.77 23.6892L206.323 23.1107C205.511 22.8942 204.756 22.5055 204.109 21.9722C203.422 21.4417 203.032 20.6168 203.061 19.7536C203.061 18.673 203.546 17.8238 204.498 17.1487C205.491 16.4708 206.673 16.1194 207.877 16.1455C208.965 16.1455 209.917 16.3966 210.771 16.8785C211.606 17.3605 212.209 18.0357 212.578 18.9628L210.597 19.7727C210.15 18.7117 209.217 18.171 207.819 18.171C207.139 18.171 206.556 18.3063 206.09 18.5951C205.644 18.8657 205.411 19.2511 205.411 19.7144C205.411 20.4092 205.935 20.872 207.023 21.123L209.431 21.7016C210.558 21.9521 211.412 22.415 211.956 23.0523C212.5 23.6892 212.772 24.4036 212.772 25.2331C212.772 26.3128 212.326 27.2203 211.432 27.9342C210.538 28.6672 209.392 29.0138 207.974 29.0138ZM195.388 26.9497C196.321 26.9497 197.175 26.6025 197.952 25.9083C198.729 25.1944 199.117 24.3644 199.117 23.4191C198.457 22.8984 197.485 22.6478 196.204 22.6478C195.097 22.6478 194.262 22.8792 193.679 23.3421C193.135 23.8241 192.844 24.3835 192.844 25.0204C192.844 25.6185 193.116 26.0818 193.621 26.4294C194.126 26.7766 194.727 26.9497 195.369 26.9497H195.388ZM195.019 29.0138C193.718 29.0138 192.63 28.6476 191.776 27.9146C190.912 27.1867 190.433 26.1056 190.474 24.9812C190.474 23.6692 190.979 22.6277 192.009 21.8947C193.119 21.1132 194.456 20.7148 195.816 20.7568C197.156 20.7568 198.243 21.0073 199.117 21.4893V21.1422C199.117 20.2547 198.807 19.56 198.185 19.0197C197.563 18.4794 196.759 18.1896 195.932 18.2097C195.272 18.2097 194.67 18.3637 194.126 18.6917C193.582 19.0006 193.213 19.4251 193.019 19.9654L190.94 19.078C191.212 18.3637 191.775 17.6881 192.611 17.0712C193.426 16.4535 194.515 16.1451 195.874 16.1451C197.428 16.1451 198.729 16.5888 199.759 17.4958C200.788 18.4029 201.313 19.6762 201.313 21.3162V28.6284H199.118V26.9497H199.021C198.153 28.3084 196.617 29.0978 195 29.0148H195.019V29.0138ZM184.181 29.0138C182.355 29.0138 180.86 28.4161 179.675 27.1802C178.509 25.9657 177.926 24.4217 177.926 22.5886C177.926 20.7362 178.509 19.2124 179.675 17.9773C180.84 16.7619 182.355 16.1441 184.181 16.1441C186.523 16.0564 188.666 17.4496 189.522 19.6169L187.424 20.4847C186.931 19.0561 185.543 18.1266 184.026 18.2083C183.016 18.2083 182.122 18.6329 181.345 19.4429C180.568 20.2724 180.2 21.3148 180.2 22.5876C180.2 23.8413 180.588 24.9033 181.365 25.7132C182.141 26.5424 183.016 26.9478 184.026 26.9478C185.735 26.9478 186.9 26.1761 187.561 24.6709L189.6 25.5392C188.706 27.7125 186.542 29.1001 184.181 29.0138ZM170.196 26.9497C171.265 26.9497 172.178 26.5643 172.915 25.7734C173.692 24.9816 174.061 23.9206 174.061 22.5895C174.061 21.2387 173.673 20.1973 172.935 19.4065C172.158 18.6152 171.264 18.2102 170.177 18.2102C169.129 18.2102 168.215 18.596 167.458 19.4065C166.681 20.1973 166.293 21.2583 166.293 22.5704C166.293 23.9015 166.681 24.963 167.458 25.7538C168.215 26.5442 169.129 26.9497 170.177 26.9497H170.196ZM169.808 29.0138C168.254 29.0138 166.895 28.3965 165.729 27.1802C164.581 25.9283 163.968 24.2813 164.02 22.5886C164.02 20.7558 164.602 19.2315 165.729 17.9965C167.358 16.0984 170.094 15.5768 172.314 16.7423C173.051 17.1272 173.595 17.6297 173.964 18.2088H174.062L173.964 16.53V10.9539H176.237V28.6275H174.062V26.9487H173.964C173.577 27.5278 173.052 28.0293 172.314 28.4348C171.576 28.8207 170.74 29.0138 169.808 29.0138ZM153.862 25.773C155.32 27.3071 157.754 27.3771 159.298 25.9288C159.352 25.8789 159.405 25.8262 159.456 25.773C160.233 24.962 160.621 23.9006 160.621 22.589C160.621 21.277 160.233 20.216 159.456 19.406C158.679 18.6343 157.747 18.2097 156.659 18.2097C155.591 18.2097 154.658 18.6147 153.862 19.406C153.085 20.216 152.697 21.2775 152.697 22.589C152.696 23.9006 153.085 24.962 153.862 25.773ZM152.172 17.9969C153.337 16.7624 154.833 16.1446 156.659 16.1446C158.485 16.1446 159.98 16.7619 161.165 17.9778C162.33 19.2124 162.913 20.7367 162.913 22.589C162.913 24.4217 162.331 25.9657 161.165 27.1811C160 28.4161 158.485 29.0148 156.659 29.0148C154.833 29.0148 153.357 28.4166 152.172 27.1811C151.007 25.9661 150.404 24.4217 150.404 22.589C150.404 20.7367 150.987 19.2128 152.153 17.9969H152.172ZM140.926 19.3094H144.752C145.724 19.3094 146.501 18.9814 147.083 18.3445C147.646 17.6885 147.938 16.9938 147.938 16.2221C147.938 15.4503 147.646 14.736 147.064 14.0996C146.481 13.4431 145.704 13.1352 144.752 13.1352H140.926V19.3094ZM140.926 28.628H138.654V10.9544H144.714C146.209 10.9544 147.511 11.4559 148.618 12.4596C149.725 13.4431 150.269 14.6973 150.269 16.2216C150.269 17.7268 149.725 18.981 148.618 19.9841C147.556 20.9583 146.159 21.4907 144.714 21.4697H140.926V28.628Z" fill="white"/>
</g>
<defs>
<clipPath id="clip0_419_773">
<rect width="233" height="43" fill="white"/>
</clipPath>
</defs>
</svg>
