<svg width="305" height="268" viewBox="0 0 305 268" fill="none" xmlns="http://www.w3.org/2000/svg">
<g clip-path="url(#clip0_1751_2473)">
<path fill-rule="evenodd" clip-rule="evenodd" d="M119.945 243.4C119.946 255.094 122.351 266.391 111.743 266.779C90.8149 267.549 52.4194 266.887 47.2624 266.799C34.9774 266.587 37.2199 260.871 37.2319 220.899C37.2499 152.853 37.4014 151.953 35.4634 151.371C28.8904 149.4 -0.604067 156.637 0.00943266 142.923C0.451933 133.05 43.5844 108.688 39.4954 104.088C31.3924 94.9721 22.5274 91.03 17.0314 61.9285C10.5679 27.697 47.1139 -12.0034 44.4559 3.42855C43.3924 9.60555 37.4899 15.9731 43.3999 36.2276C49.6609 57.6866 78.0694 73.9211 87.1849 67.1606C101.345 56.6576 144.698 16.8881 152.258 17.0051C161.909 17.1551 214.974 69.4346 222.75 69.0401C242.973 68.0126 272.469 40.5551 262.586 6.56355C255.783 -16.8334 309.26 36.6745 282.077 85.5295C272.433 102.862 262.248 103.621 271.343 110.691C306.107 137.716 305.48 140.605 304.677 144.306C301.775 157.687 269.855 146.557 269.628 153.45C269.039 171.342 270.546 259.116 268.803 262.701C266.243 267.964 264.489 267.652 195.765 266.806C181.67 266.632 187.073 256.201 186.23 180.399C186.09 167.839 180.336 170.317 150.762 170.326C131.808 170.331 120.275 168.274 120.087 177.345C119.916 185.682 120.23 235.414 119.945 243.4Z" fill="white"/>
</g>
<defs>
<clipPath id="clip0_1751_2473">
<rect width="305" height="268" fill="white"/>
</clipPath>
</defs>
</svg>
