<?xml version="1.0" encoding="UTF-8" standalone="no"?>
<!DOCTYPE svg PUBLIC "-//W3C//DTD SVG 1.1//EN" "http://www.w3.org/Graphics/SVG/1.1/DTD/svg11.dtd">
<svg width="100%" height="100%" viewBox="0 0 2931 2931" version="1.1" xmlns="http://www.w3.org/2000/svg" xmlns:xlink="http://www.w3.org/1999/xlink" xml:space="preserve" xmlns:serif="http://www.serif.com/" style="fill-rule:evenodd;clip-rule:evenodd;stroke-linejoin:round;stroke-miterlimit:2;">
    <g transform="matrix(44.5124,0,0,44.5124,4.24401,440.661)">
        <path d="M64.304,7.232C65.656,12.369 65.656,23.024 65.656,23.024C65.656,23.024 65.656,33.678 64.304,38.816C63.547,41.628 61.33,43.845 58.517,44.603C53.379,45.955 32.828,45.955 32.828,45.955C32.828,45.955 12.277,45.955 7.139,44.603C4.327,43.845 2.109,41.628 1.352,38.816C0,33.732 0,23.024 0,23.024C0,23.024 0,12.369 1.352,7.232C2.109,4.419 4.327,2.202 7.139,1.445C12.277,0.093 32.828,0.093 32.828,0.093C32.828,0.093 53.379,0.093 58.517,1.445C61.33,2.202 63.547,4.419 64.304,7.232ZM26.23,32.921L43.32,23.078L26.23,13.181L26.23,32.921Z" style="fill:rgb(238,49,36);"/>
    </g>
</svg>
