<svg width="307" height="252" viewBox="0 0 307 252" fill="none" xmlns="http://www.w3.org/2000/svg">
<g clip-path="url(#clip0_1751_2455)">
<path fill-rule="evenodd" clip-rule="evenodd" d="M306.503 174.285C306.995 224.081 298.241 235.176 275.881 240.563C269.768 242.036 265.795 239.184 262.756 242.193C238.888 265.824 224.494 240.216 224.399 231.297C224.336 225.176 225.26 225.294 225.529 154.79C225.598 136.605 243.683 127.727 256.345 132.182C260.92 133.791 263.402 137.087 263.438 132.239C264.167 32.8171 137.537 -10.593 72.3112 57.768C41.2162 90.357 42.5572 129.869 42.5182 130.781C42.0727 141.368 53.5253 124.179 69.9188 134.411C80.1398 140.789 80.2822 152.972 80.3032 154.802C81.2392 235.037 82.7257 235.724 78.8707 241.49C73.2397 249.914 57.9698 257.771 43.5833 244.497C34.2728 235.904 25.1633 246.24 9.16429 227.993C5.98579 224.369 -2.20271 215.028 0.558794 168.354C1.31629 155.558 15.4553 145.091 17.3753 143.67C26.1443 137.178 8.21029 118.218 38.9378 63.3631C73.6598 1.37556 183.403 -33.5489 254.903 46.7026C286.669 82.3561 286.597 131.919 286.585 139.785C286.573 147.777 304.96 144.765 306.503 174.285ZM177.448 82.7536C168.061 133.151 160.363 144.338 167.809 144.327C192.209 144.29 209.468 141.147 200.182 152.787C195.074 159.188 146.036 220.646 136.159 232.662C135.607 233.334 127.835 245.154 125.755 238.808C124.103 233.772 143.251 176.343 140.951 174.14C137.998 171.311 96.3052 178.185 102.148 168.468C104.732 164.166 115.471 153.29 168.568 85.2121C172.714 79.8946 175.316 76.4296 177.448 82.7536Z" fill="white"/>
</g>
<defs>
<clipPath id="clip0_1751_2455">
<rect width="307" height="252" fill="white"/>
</clipPath>
</defs>
</svg>
