<?xml version="1.0" encoding="UTF-8" standalone="no"?>
<!DOCTYPE svg PUBLIC "-//W3C//DTD SVG 1.1//EN" "http://www.w3.org/Graphics/SVG/1.1/DTD/svg11.dtd">
<svg width="100%" height="100%" viewBox="0 0 235 232" version="1.1" xmlns="http://www.w3.org/2000/svg" xmlns:xlink="http://www.w3.org/1999/xlink" xml:space="preserve" xmlns:serif="http://www.serif.com/" style="fill-rule:evenodd;clip-rule:evenodd;stroke-linejoin:round;stroke-miterlimit:2;">
    <g>
        <g>
            <g>
                <g>
                    <path d="M117.089,221.848C57.765,221.848 9.761,174.392 9.761,115.747C9.761,57.102 57.765,9.646 117.089,9.646C176.417,9.646 224.421,57.102 224.421,115.747C224.421,174.392 176.417,221.848 117.089,221.848ZM117.089,0C52.302,0 0,51.7 0,115.747C0,179.793 52.302,231.493 117.089,231.493C181.88,231.493 234.179,179.793 234.179,115.747C234.179,51.7 181.88,0 117.089,0Z" style="fill:white;fill-rule:nonzero;"/>
                </g>
                <path d="M105.736,81.101L105.736,162.189C105.736,168.386 100.706,173.416 94.509,173.416L78.896,173.416C72.699,173.416 67.669,168.386 67.669,162.189L67.669,81.101C67.669,74.904 72.699,69.874 78.896,69.874L94.509,69.874C100.706,69.874 105.736,74.904 105.736,81.101ZM98.896,81.101C98.896,78.68 96.93,76.714 94.509,76.714L78.896,76.714C76.475,76.714 74.509,78.68 74.509,81.101L74.509,162.189C74.509,164.61 76.475,166.576 78.896,166.576L94.509,166.576C96.93,166.576 98.896,164.61 98.896,162.189L98.896,81.101Z" style="fill:white;"/>
                <path d="M165.736,81.101L165.736,162.189C165.736,168.386 160.706,173.416 154.509,173.416L138.896,173.416C132.699,173.416 127.669,168.386 127.669,162.189L127.669,81.101C127.669,74.904 132.699,69.874 138.896,69.874L154.509,69.874C160.706,69.874 165.736,74.904 165.736,81.101ZM158.896,81.101C158.896,78.68 156.93,76.714 154.509,76.714L138.896,76.714C136.475,76.714 134.509,78.68 134.509,81.101L134.509,162.189C134.509,164.61 136.475,166.576 138.896,166.576L154.509,166.576C156.93,166.576 158.896,164.61 158.896,162.189L158.896,81.101Z" style="fill:white;"/>
            </g>
        </g>
    </g>
</svg>
