<?xml version="1.0" encoding="UTF-8" standalone="no"?>
<!DOCTYPE svg PUBLIC "-//W3C//DTD SVG 1.1//EN" "http://www.w3.org/Graphics/SVG/1.1/DTD/svg11.dtd">
<svg width="100%" height="100%" viewBox="0 0 235 232" version="1.1" xmlns="http://www.w3.org/2000/svg" xmlns:xlink="http://www.w3.org/1999/xlink" xml:space="preserve" xmlns:serif="http://www.serif.com/" style="fill-rule:evenodd;clip-rule:evenodd;stroke-linecap:round;stroke-linejoin:round;stroke-miterlimit:1.5;">
    <g>
        <g>
            <g>
                <g>
                    <path d="M117.089,221.848C57.765,221.848 9.761,174.392 9.761,115.747C9.761,57.102 57.765,9.646 117.089,9.646C176.417,9.646 224.421,57.102 224.421,115.747C224.421,174.392 176.417,221.848 117.089,221.848ZM117.089,0C52.302,0 0,51.7 0,115.747C0,179.793 52.302,231.493 117.089,231.493C181.88,231.493 234.179,179.793 234.179,115.747C234.179,51.7 181.88,0 117.089,0Z" style="fill:white;fill-rule:nonzero;"/>
                </g>
                <g>
                    <path d="M102.316,81.101C102.316,76.792 98.818,73.294 94.509,73.294L78.896,73.294C74.587,73.294 71.089,76.792 71.089,81.101L71.089,162.189C71.089,166.498 74.587,169.996 78.896,169.996L94.509,169.996C98.818,169.996 102.316,166.498 102.316,162.189L102.316,81.101Z" style="fill:none;stroke:white;stroke-width:6.84px;"/>
                </g>
                <g>
                    <path d="M162.316,81.101C162.316,76.792 158.818,73.294 154.509,73.294L138.896,73.294C134.587,73.294 131.089,76.792 131.089,81.101L131.089,162.189C131.089,166.498 134.587,169.996 138.896,169.996L154.509,169.996C158.818,169.996 162.316,166.498 162.316,162.189L162.316,81.101Z" style="fill:none;stroke:white;stroke-width:6.84px;"/>
                </g>
            </g>
        </g>
    </g>
</svg>
