<?xml version="1.0" encoding="UTF-8" standalone="no"?>
<!DOCTYPE svg PUBLIC "-//W3C//DTD SVG 1.1//EN" "http://www.w3.org/Graphics/SVG/1.1/DTD/svg11.dtd">
<svg width="100%" height="100%" viewBox="0 0 235 232" version="1.1" xmlns="http://www.w3.org/2000/svg" xmlns:xlink="http://www.w3.org/1999/xlink" xml:space="preserve" xmlns:serif="http://www.serif.com/" style="fill-rule:evenodd;clip-rule:evenodd;stroke-linejoin:round;stroke-miterlimit:2;">
    <g transform="matrix(1,0,0,1,-15.4635,-22.4041)">
        <g transform="matrix(1,0,0,1,-734.328,-243.769)">
            <g transform="matrix(3.85822,0,0,3.85822,-981.03,-2281.34)">
                <path d="M478.954,717.781C463.578,717.781 451.136,705.481 451.136,690.281C451.136,675.081 463.578,662.781 478.954,662.781C494.331,662.781 506.773,675.081 506.773,690.281C506.773,705.481 494.331,717.781 478.954,717.781ZM478.954,660.281C462.162,660.281 448.606,673.681 448.606,690.281C448.606,706.881 462.162,720.281 478.954,720.281C495.747,720.281 509.302,706.881 509.302,690.281C509.302,673.681 495.747,660.281 478.954,660.281Z" style="fill:white;fill-rule:nonzero;"/>
            </g>
            <g transform="matrix(3.85822,0,0,3.85822,-981.03,-2281.34)">
                <path d="M471.367,699.481L471.367,681.081L490.082,690.281L471.367,699.481ZM493.42,689.181L470.659,677.881C469.851,677.481 468.839,678.081 468.839,678.981L468.839,701.481C468.839,702.381 469.851,702.981 470.659,702.581L493.42,691.281C494.331,690.981 494.331,689.581 493.42,689.181Z" style="fill:white;fill-rule:nonzero;"/>
            </g>
        </g>
    </g>
</svg>
