<?xml version="1.0" encoding="UTF-8" standalone="no"?>
<!DOCTYPE svg PUBLIC "-//W3C//DTD SVG 1.1//EN" "http://www.w3.org/Graphics/SVG/1.1/DTD/svg11.dtd">
<svg width="100%" height="100%" viewBox="0 0 165 163" version="1.1" xmlns="http://www.w3.org/2000/svg" xmlns:xlink="http://www.w3.org/1999/xlink" xml:space="preserve" xmlns:serif="http://www.serif.com/" style="fill-rule:evenodd;clip-rule:evenodd;stroke-linejoin:round;stroke-miterlimit:2;">
    <g transform="matrix(1,0,0,1,-37.6243,-1.50147)">
        <g transform="matrix(2.70413,0,0,2.70413,-124.042,-46.141)">
            <g transform="matrix(1,0,0,1,-388.821,-642.663)">
                <path d="M478.954,717.781C463.578,717.781 451.136,705.481 451.136,690.281C451.136,675.081 463.578,662.781 478.954,662.781C494.331,662.781 506.773,675.081 506.773,690.281C506.773,705.481 494.331,717.781 478.954,717.781ZM478.954,660.281C462.162,660.281 448.606,673.681 448.606,690.281C448.606,706.881 462.162,720.281 478.954,720.281C495.747,720.281 509.302,706.881 509.302,690.281C509.302,673.681 495.747,660.281 478.954,660.281Z" style="fill:white;fill-rule:nonzero;"/>
            </g>
            <g transform="matrix(-0.0026222,-0.369796,0.369796,-0.0026222,-158.501,272.441)">
                <path d="M606.415,663.781L633.121,703.981L579.709,703.981L606.415,663.781ZM577.281,706.481C581.935,706.481 638.179,706.481 635.447,706.481C636.459,706.481 637.065,705.281 636.459,704.481L607.426,660.881C606.921,660.081 605.808,660.081 605.302,660.881L576.27,704.581C575.764,705.381 576.37,706.481 577.281,706.481Z" style="fill:white;fill-rule:nonzero;"/>
            </g>
            <g transform="matrix(-0.0026222,-0.369796,0.369796,-0.0026222,-158.501,272.441)">
                <path d="M635.575,707.427C635.562,707.429 635.549,707.431 635.537,707.431L577.281,707.431C575.666,707.431 574.57,705.492 575.468,704.073C575.471,704.067 575.475,704.061 575.479,704.056C575.479,704.056 604.506,660.363 604.504,660.367C605.392,658.973 607.333,658.972 608.222,660.363C608.222,660.363 637.236,703.934 637.229,703.926C638.25,705.301 637.265,707.338 635.575,707.427ZM635.447,705.531C635.691,705.531 635.848,705.247 635.702,705.054C635.69,705.039 635.679,705.023 635.669,705.007L606.636,661.407C606.631,661.401 606.627,661.394 606.623,661.388C606.5,661.193 606.228,661.193 606.105,661.389C606.101,661.395 606.097,661.401 606.093,661.406C606.093,661.406 577.069,705.094 577.062,705.106C576.965,705.287 577.08,705.531 577.281,705.531L635.447,705.531ZM607.206,663.256L633.912,703.456C634.106,703.747 634.123,704.121 633.958,704.43C633.792,704.738 633.471,704.931 633.121,704.931L579.709,704.931C579.359,704.931 579.038,704.738 578.872,704.43C578.707,704.121 578.724,703.747 578.918,703.456L605.624,663.256C605.8,662.991 606.097,662.831 606.415,662.831C606.733,662.831 607.03,662.991 607.206,663.256ZM606.415,665.497L581.48,703.031C581.48,703.031 631.35,703.031 631.35,703.031L606.415,665.497Z" style="fill:white;"/>
            </g>
            <g transform="matrix(-0.0024059,-0.339292,0.417287,-0.00295895,-216.114,254.348)">
                <path d="M634.233,717.781L578.596,717.781L578.596,713.981L634.233,713.981L634.233,717.781ZM635.447,711.481L577.281,711.481C576.573,711.481 575.966,712.081 575.966,712.781L575.966,719.081C575.966,719.781 576.573,720.381 577.281,720.381L635.447,720.381C636.155,720.381 636.763,719.781 636.763,719.081L636.763,712.781C636.763,712.081 636.155,711.481 635.447,711.481Z" style="fill:white;fill-rule:nonzero;"/>
            </g>
            <g transform="matrix(-0.0024059,-0.339292,0.417287,-0.00295895,-216.114,254.348)">
                <path d="M635.447,710.64C636.654,710.64 637.798,711.588 637.798,712.781L637.798,719.081C637.798,720.274 636.654,721.222 635.447,721.222L577.281,721.222C576.074,721.222 574.931,720.275 574.931,719.081L574.931,712.781C574.931,711.587 576.074,710.64 577.281,710.64L635.447,710.64ZM635.447,712.322L577.281,712.322C577.227,712.322 577.194,712.367 577.157,712.403C577.058,712.501 577.001,712.637 577.001,712.781L577.001,719.081C577.001,719.225 577.058,719.361 577.157,719.459C577.194,719.495 577.227,719.54 577.281,719.54L635.447,719.54C635.501,719.54 635.535,719.495 635.572,719.459C635.671,719.361 635.728,719.225 635.728,719.081L635.728,712.781C635.728,712.637 635.671,712.501 635.572,712.403C635.535,712.367 635.501,712.322 635.447,712.322ZM634.233,718.622L578.596,718.622C578.024,718.622 577.561,718.246 577.561,717.781L577.561,713.981C577.561,713.516 578.024,713.14 578.596,713.14L634.233,713.14C634.805,713.14 635.268,713.516 635.268,713.981L635.268,717.781C635.268,718.246 634.805,718.622 634.233,718.622ZM633.198,716.94L633.198,714.822L579.631,714.822L579.631,716.94L633.198,716.94Z" style="fill:white;"/>
            </g>
        </g>
    </g>
</svg>
