<svg width="283" height="264" viewBox="0 0 283 264" fill="none" xmlns="http://www.w3.org/2000/svg">
<g clip-path="url(#clip0_1751_2451)">
<path fill-rule="evenodd" clip-rule="evenodd" d="M132.342 149.56C151.439 149.416 164.436 149.189 161.961 153.067C157.122 160.646 155.414 159.179 94.2633 242.803C92.5428 245.155 60.6513 267.334 54.6063 262.397C49.4643 258.199 51.1908 256.514 66.0528 180.202C68.1468 169.456 69.3678 169.105 67.4268 167.089C50.4258 149.417 0.744257 106.727 0.0527567 100.783C-1.29424 89.1891 23.4303 92.2791 42.4278 89.3436C55.0113 87.3981 86.5292 84.9141 90.3722 84.6111C98.6372 83.9586 98.0162 80.4171 108.971 57.5946C133.965 5.52814 132.515 4.28315 136.755 1.63715C147.443 -5.02885 150.537 9.17613 162.032 34.8861C179.193 73.2711 181.775 74.5972 176.418 81.6937C154.757 110.398 154.926 110.32 132.981 138.758C132.458 139.438 127.469 145.903 126.552 147.338C125.145 149.542 127.346 148.727 132.342 149.56ZM219.383 86.5821C223.206 87.0951 243.767 89.8566 267.362 91.3836C300.026 93.4956 272.25 113.335 262.341 122.723C259.688 125.237 259.614 125.038 228.732 153.679C214.52 166.859 214.548 167.531 215.139 171.205C218.229 190.42 232.907 254.779 231.692 258.362C226.853 272.647 209.376 255.601 170.067 235.316C144.852 222.304 144.717 217.283 135.38 222.32C115.565 233.006 116.108 233.701 109.838 237.241C109.607 237.371 104.892 237.844 109.325 233.978C114.261 229.672 116.367 227.834 165.378 174.287C188.42 149.113 200.978 137.963 190.806 137.321C164.894 135.689 152.108 138.712 158.564 129.776C161.247 126.061 189.665 86.7231 194.048 84.7986C196.739 83.6151 217.368 86.3181 219.383 86.5821Z" fill="white"/>
</g>
<defs>
<clipPath id="clip0_1751_2451">
<rect width="283" height="264" fill="white"/>
</clipPath>
</defs>
</svg>
