<svg width="158" height="50" viewBox="0 0 158 50" fill="none" xmlns="http://www.w3.org/2000/svg">
<path d="M23.6305 1.33112C10.715 1.33112 0.24585 11.8584 0.24585 24.8433C0.24585 37.8282 10.715 48.3536 23.6305 48.3536C36.5477 48.3536 47.0169 37.8282 47.0169 24.8433C47.0169 11.8603 36.5477 1.33112 23.6305 1.33112ZM34.3545 35.2415C33.9364 35.9329 33.0378 36.1523 32.352 35.7264C26.8598 32.3562 19.9482 31.5911 11.808 33.4624C11.0231 33.6412 10.2419 33.149 10.0622 32.3581C9.88246 31.569 10.3721 30.7836 11.1588 30.6029C20.0674 28.5583 27.707 29.4377 33.8722 33.2264C34.5599 33.6486 34.7781 34.552 34.3545 35.2415ZM37.2189 28.8404C36.6908 29.7032 35.5685 29.9742 34.7103 29.4432C28.424 25.5605 18.8424 24.434 11.4064 26.7036C10.4418 26.9967 9.42401 26.451 9.13244 25.4831C8.84087 24.5133 9.3855 23.4919 10.3482 23.1951C18.8406 20.6047 29.3996 21.8603 36.6174 26.3201C37.4756 26.851 37.7452 27.9794 37.2189 28.8404ZM37.4646 22.1737C29.9259 17.6715 17.4909 17.2585 10.2951 19.4543C9.13978 19.8083 7.91663 19.1519 7.56821 17.9886C7.21795 16.8271 7.86895 15.5992 9.02608 15.2452C17.2855 12.7249 31.0188 13.2117 39.6964 18.3923C40.738 19.0118 41.0791 20.3614 40.4629 21.4049C39.8486 22.4502 38.5007 22.795 37.4646 22.1737Z" fill="#4FBA6A"/>
<path d="M63.8696 23.0365C59.8334 22.0686 59.1146 21.3883 59.1146 19.9613C59.1146 18.6117 60.3762 17.7046 62.2559 17.7046C64.0768 17.7046 65.8813 18.3942 67.7756 19.8119C67.8306 19.8562 67.9021 19.8728 67.9736 19.8617C68.047 19.8507 68.1075 19.8101 68.1497 19.7529L70.121 16.9598C70.2017 16.8437 70.1797 16.6851 70.0697 16.5966C67.8178 14.7806 65.2816 13.8956 62.3164 13.8956C57.9556 13.8956 54.9078 16.5265 54.9078 20.2895C54.9078 24.3271 57.5375 25.7559 62.078 26.8584C65.94 27.7526 66.5946 28.503 66.5946 29.8433C66.5946 31.3293 65.2761 32.253 63.1544 32.253C60.7962 32.253 58.8725 31.451 56.7215 29.5815C56.6683 29.5336 56.5949 29.5133 56.5289 29.517C56.4556 29.5225 56.3932 29.5575 56.3474 29.6091L54.1358 32.2548C54.0441 32.3673 54.0551 32.5295 54.1615 32.6254C56.6628 34.8691 59.7399 36.0564 63.0646 36.0564C67.7609 36.0564 70.7977 33.4771 70.7977 29.4819C70.8032 26.1099 68.797 24.2423 63.8788 23.0383L63.8696 23.0365ZM81.4246 19.0339C79.389 19.0339 77.7185 19.8396 76.3394 21.4915V19.6313C76.3394 19.4856 76.2221 19.3639 76.0772 19.3639H72.461C72.3161 19.3639 72.1987 19.4856 72.1987 19.6313V40.2968C72.1987 40.4406 72.3161 40.5623 72.461 40.5623H76.0772C76.2221 40.5623 76.3394 40.4406 76.3394 40.2968V33.774C77.7185 35.3282 79.389 36.0878 81.4246 36.0878C85.2095 36.0878 89.0385 33.16 89.0385 27.5608C89.0458 21.9617 85.2132 19.0339 81.4282 19.0339H81.4246ZM84.8336 27.5608C84.8336 30.4111 83.0897 32.4004 80.5865 32.4004C78.1164 32.4004 76.2496 30.3208 76.2496 27.5608C76.2496 24.8027 78.1164 22.7212 80.5865 22.7212C83.0475 22.7212 84.8336 24.7548 84.8336 27.5608ZM98.8567 19.0339C93.9824 19.0339 90.1663 22.806 90.1663 27.6217C90.1663 32.3857 93.9567 36.1173 98.7998 36.1173C103.689 36.1173 107.516 32.358 107.516 27.5608C107.516 22.7784 103.713 19.0339 98.8567 19.0339ZM98.8567 32.4281C96.2637 32.4281 94.3107 30.3337 94.3107 27.5608C94.3107 24.7714 96.1995 22.7489 98.7998 22.7489C101.406 22.7489 103.373 24.8414 103.373 27.6198C103.373 30.4075 101.473 32.4281 98.8567 32.4281ZM117.921 19.3639H113.941V15.2765C113.941 15.129 113.824 15.0092 113.679 15.0092H110.063C109.916 15.0092 109.799 15.129 109.799 15.2765V19.3639H108.06C107.914 19.3639 107.798 19.4856 107.798 19.6313V22.7544C107.798 22.9019 107.914 23.0218 108.06 23.0218H109.799V31.1062C109.799 34.3713 111.413 36.0269 114.605 36.0269C115.902 36.0269 116.976 35.7596 117.989 35.1788C118.075 35.1364 118.126 35.0461 118.126 34.9484V31.9746C118.126 31.8842 118.077 31.7957 118 31.7496C117.921 31.6999 117.825 31.6962 117.743 31.7367C117.048 32.0907 116.375 32.253 115.619 32.253C114.462 32.253 113.941 31.7201 113.941 30.5365V23.0236H117.921C118.066 23.0236 118.183 22.9038 118.183 22.7563V19.6331C118.19 19.4875 118.071 19.3658 117.925 19.3658L117.921 19.3639ZM131.783 19.3824V18.8791C131.783 17.4023 132.349 16.7423 133.609 16.7423C134.365 16.7423 134.97 16.8916 135.646 17.122C135.733 17.146 135.819 17.1331 135.887 17.0833C135.954 17.0335 135.995 16.9524 135.995 16.8676V13.8053C135.995 13.6855 135.923 13.5841 135.808 13.549C135.093 13.3333 134.176 13.1139 132.804 13.1139C129.465 13.1139 127.699 15.0037 127.699 18.5804V19.3492H125.962C125.815 19.3492 125.698 19.469 125.698 19.6147V22.7544C125.698 22.9019 125.815 23.0218 125.962 23.0218H127.699V35.4886C127.699 35.6361 127.818 35.7559 127.965 35.7559H131.575C131.726 35.7559 131.843 35.6361 131.843 35.4886V23.0236H135.217L140.389 35.4886C139.805 36.7957 139.226 37.0594 138.437 37.0594C137.803 37.0594 137.13 36.8676 136.442 36.4878C136.382 36.4547 136.303 36.4491 136.235 36.4694C136.167 36.4934 136.105 36.545 136.077 36.6132L134.852 39.316C134.794 39.4451 134.845 39.5944 134.966 39.6608C136.246 40.3577 137.398 40.6545 138.828 40.6545C141.496 40.6545 142.971 39.4027 144.271 36.038L150.542 19.7437C150.579 19.6626 150.564 19.5704 150.515 19.4985C150.467 19.4266 150.388 19.3824 150.3 19.3824H146.535C146.42 19.3824 146.321 19.4543 146.284 19.5612L142.428 30.6324L138.208 19.5538C138.168 19.4506 138.069 19.3824 137.961 19.3824H131.783ZM123.745 19.3639H120.131C119.984 19.3639 119.866 19.4856 119.866 19.6313V35.4886C119.866 35.6361 119.984 35.7559 120.131 35.7559H123.745C123.892 35.7559 124.011 35.6361 124.011 35.4886V19.6331C124.011 19.4856 123.895 19.3639 123.745 19.3639ZM121.957 12.1442C120.525 12.1442 119.364 13.3094 119.364 14.7493C119.364 16.191 120.525 17.358 121.957 17.358C123.391 17.358 124.552 16.191 124.552 14.7493C124.552 13.3094 123.387 12.1442 121.957 12.1442ZM153.634 24.4635C152.202 24.4635 151.087 23.3075 151.087 21.9063C151.087 20.5015 152.215 19.3344 153.649 19.3344C155.077 19.3344 156.19 20.4886 156.19 21.8897C156.19 23.2928 155.063 24.4635 153.634 24.4635ZM153.649 19.587C152.341 19.587 151.356 20.6305 151.356 21.9063C151.356 23.1822 152.338 24.2072 153.634 24.2072C154.938 24.2072 155.923 23.1674 155.923 21.8897C155.923 20.6158 154.942 19.587 153.649 19.587ZM154.21 22.1552L154.931 23.1674H154.322L153.673 22.2382H153.119V23.1674H152.609V20.4812H153.799C154.423 20.4812 154.83 20.802 154.83 21.3385C154.833 21.7791 154.58 22.0465 154.214 22.1552H154.21ZM153.781 20.9421H153.119V21.792H153.781C154.111 21.792 154.307 21.6298 154.307 21.3661C154.307 21.0896 154.111 20.9421 153.781 20.9421Z" fill="white"/>
</svg>
