<svg width="33" height="33" viewBox="0 0 33 33" fill="none" xmlns="http://www.w3.org/2000/svg">
<path d="M4.02012 0.120117C1.87479 0.120117 0.120117 1.87479 0.120117 4.02012V28.9801C0.120117 31.1254 1.87479 32.8801 4.02012 32.8801H28.9801C31.1254 32.8801 32.8801 31.1254 32.8801 28.9801V4.02012C32.8801 1.87479 31.1254 0.120117 28.9801 0.120117H4.02012ZM4.02012 1.68012H28.9801C30.2839 1.68012 31.3201 2.71629 31.3201 4.02012V28.9801C31.3201 30.2839 30.2839 31.3201 28.9801 31.3201H4.02012C2.71629 31.3201 1.68012 30.2839 1.68012 28.9801V4.02012C1.68012 2.71629 2.71629 1.68012 4.02012 1.68012ZM17.3136 4.80012C17.107 4.80014 16.9089 4.88211 16.7626 5.02806C16.6164 5.174 16.5341 5.372 16.5336 5.57859C16.5336 5.57859 16.5251 9.38126 16.5169 13.1927C16.5127 15.0985 16.5078 17.0062 16.5047 18.4425C16.5016 19.8788 16.5001 20.7876 16.5001 20.8632C16.5001 22.2791 15.2142 23.4363 13.7488 23.4363C12.295 23.4363 11.1346 22.2743 11.1346 20.8206C11.1346 19.3668 12.295 18.2064 13.7488 18.2064C13.798 18.2064 13.8973 18.2225 14.0672 18.2429C14.1768 18.2561 14.2879 18.2458 14.3932 18.2128C14.4985 18.1798 14.5956 18.1249 14.6781 18.0516C14.7606 17.9783 14.8266 17.8884 14.8718 17.7877C14.917 17.687 14.9402 17.5779 14.9401 17.4675V14.1906C14.9401 13.9922 14.8645 13.8012 14.7286 13.6566C14.5928 13.5119 14.4069 13.4245 14.2089 13.4121C14.0873 13.4045 13.9344 13.3893 13.7488 13.3893C9.65416 13.3893 6.31746 16.726 6.31746 20.8206C6.31746 24.9152 9.65416 28.2519 13.7488 28.2519C17.8433 28.2519 21.1801 24.9152 21.1801 20.8206V13.7625C22.3147 14.67 23.7288 15.2448 25.2904 15.2448C25.5033 15.2448 25.7059 15.2322 25.8997 15.2143C26.0934 15.1965 26.2734 15.1069 26.4045 14.9631C26.5355 14.8194 26.6082 14.6319 26.6081 14.4374V10.7948C26.6082 10.5976 26.5337 10.4077 26.3994 10.2633C26.2651 10.1189 26.0812 10.0306 25.8845 10.0164C23.4317 9.84039 21.4764 7.92965 21.2212 5.49937C21.2013 5.30759 21.111 5.13001 20.9678 5.00088C20.8246 4.87175 20.6386 4.80023 20.4458 4.80012H17.3136ZM18.0921 6.36012H19.8715C20.4384 8.9331 22.449 10.8954 25.0481 11.3875V13.6223C23.3798 13.5376 21.9145 12.7054 21.0521 11.3936C20.9599 11.2532 20.8248 11.1463 20.667 11.0889C20.5091 11.0314 20.3369 11.0264 20.176 11.0747C20.0151 11.123 19.8741 11.2219 19.774 11.3568C19.6738 11.4916 19.6198 11.6552 19.6201 11.8232V20.8206C19.6201 24.072 17.0003 26.6919 13.7488 26.6919C10.4974 26.6919 7.87746 24.072 7.87746 20.8206C7.87746 17.7002 10.3117 15.2234 13.3801 15.0239V16.721C11.2635 16.918 9.57457 18.6547 9.57457 20.8206C9.57457 23.1171 11.4523 24.9963 13.7488 24.9963C16.0336 24.9963 18.0601 23.1976 18.0601 20.8632C18.0601 20.9014 18.0616 19.8819 18.0647 18.4455C18.0677 17.0092 18.0728 15.1015 18.0769 13.1958C18.0842 9.774 18.0907 7.0225 18.0921 6.36012Z" fill="white"/>
</svg>
