<?xml version="1.0" encoding="UTF-8" standalone="no"?>
<!DOCTYPE svg PUBLIC "-//W3C//DTD SVG 1.1//EN" "http://www.w3.org/Graphics/SVG/1.1/DTD/svg11.dtd">
<svg width="100%" height="100%" viewBox="0 0 2777 2791" version="1.1" xmlns="http://www.w3.org/2000/svg" xmlns:xlink="http://www.w3.org/1999/xlink" xml:space="preserve" xmlns:serif="http://www.serif.com/" style="fill-rule:evenodd;clip-rule:evenodd;stroke-linejoin:round;stroke-miterlimit:2;">
    <g transform="matrix(1,0,0,1,-9086.27,-229.74)">
        <g transform="matrix(4.16667,0,0,4.16667,0,0)">
            <g transform="matrix(1,0,0,1,-115.225,-609.991)">
                <g>
                    <path d="M2669.63,1292.34C2684.6,1303.33 2703.34,1304.85 2719.86,1296.51C2736.41,1288.14 2746.26,1272.11 2746.26,1253.59L2746.26,746.498C2746.26,727.203 2735.79,710.881 2718.28,702.802C2700.82,694.69 2681.53,697.34 2666.86,709.912L2496.34,855.737L2392.11,855.737C2357.33,855.737 2329.02,884.048 2329.02,918.824L2329.02,1107.15C2329.02,1141.92 2357.33,1170.24 2392.11,1170.24L2503.58,1170.24L2669.63,1292.37L2669.63,1292.34ZM2698.07,1334.87C2681.14,1334.87 2664.3,1329.51 2650.05,1319.03L2650.05,1319L2492.72,1203.33L2392.11,1203.33C2339.07,1203.33 2295.93,1160.19 2295.93,1107.15L2295.93,918.824C2295.93,865.788 2339.07,822.642 2392.11,822.642L2484.12,822.642L2645.33,684.768C2669.76,663.921 2702.92,659.268 2732.14,672.745C2761.26,686.157 2779.36,714.437 2779.36,746.498L2779.36,1253.59C2779.36,1284.39 2762.29,1312.15 2734.82,1326.05C2723.16,1331.96 2710.58,1334.87 2698.07,1334.87Z" style="fill:white;"/>
                    <path d="M2896.65,1142.35C2892.67,1142.35 2888.66,1140.92 2885.49,1138.01C2878.74,1131.87 2878.26,1121.4 2884.43,1114.65C2913.65,1082.62 2929.09,1044.03 2929.09,1003.02C2929.09,962.003 2913.65,923.414 2884.43,891.385C2878.26,884.63 2878.74,874.159 2885.49,868.018C2892.25,861.845 2902.75,862.33 2908.86,869.085C2943.74,907.286 2962.19,953.6 2962.19,1003.02C2962.19,1052.43 2943.74,1098.75 2908.86,1136.95C2905.6,1140.53 2901.14,1142.35 2896.65,1142.35Z" style="fill:white;"/>
                    <path d="M2849.33,1095.03C2845.45,1095.03 2841.54,1093.67 2838.41,1090.92C2831.55,1084.88 2830.88,1074.41 2836.89,1067.56C2853.92,1048.2 2862.9,1025.87 2862.9,1003.02C2862.9,980.167 2853.92,957.834 2836.89,938.474C2830.88,931.623 2831.55,921.151 2838.41,915.107C2845.23,909.096 2855.7,909.775 2861.77,916.627C2884.17,942.127 2896,971.989 2896,1003.02C2896,1034.04 2884.17,1063.91 2861.77,1089.41C2858.48,1093.12 2853.92,1095.03 2849.33,1095.03Z" style="fill:white;"/>
                </g>
            </g>
        </g>
    </g>
</svg>
