<?xml version="1.0" encoding="UTF-8" standalone="no"?>
<!DOCTYPE svg PUBLIC "-//W3C//DTD SVG 1.1//EN" "http://www.w3.org/Graphics/SVG/1.1/DTD/svg11.dtd">
<svg width="100%" height="100%" viewBox="0 0 2015 2791" version="1.1" xmlns="http://www.w3.org/2000/svg" xmlns:xlink="http://www.w3.org/1999/xlink" xml:space="preserve" xmlns:serif="http://www.serif.com/" style="fill-rule:evenodd;clip-rule:evenodd;stroke-linejoin:round;stroke-miterlimit:2;">
    <g transform="matrix(1,0,0,1,-1138.83,-228.118)">
        <g transform="matrix(4.16667,0,0,4.16667,0,0)">
            <g transform="matrix(1,0,0,1,-348.789,-610.381)">
                <path d="M995.815,1292.34C1010.75,1303.33 1029.52,1304.85 1046.04,1296.51C1062.59,1288.14 1072.44,1272.11 1072.44,1253.59L1072.44,746.498C1072.44,727.203 1061.97,710.881 1044.46,702.802C1026.91,694.657 1007.71,697.372 993.068,709.912L822.519,855.737L718.289,855.737C683.513,855.737 655.201,884.048 655.201,918.824L655.201,1107.15C655.201,1141.92 683.513,1170.24 718.289,1170.24L829.759,1170.24L995.815,1292.37L995.815,1292.34ZM1024.26,1334.87C1007.32,1334.87 990.483,1329.51 976.23,1319.03L976.23,1319L818.899,1203.33L718.289,1203.33C665.253,1203.33 622.107,1160.19 622.107,1107.15L622.107,918.824C622.107,865.788 665.253,822.642 718.289,822.642L810.302,822.642L971.543,684.768C995.912,663.921 1029.17,659.268 1058.29,672.745C1087.44,686.157 1105.54,714.404 1105.54,746.498L1105.54,1253.59C1105.54,1284.39 1088.47,1312.15 1061,1326.05C1049.34,1331.96 1036.76,1334.87 1024.26,1334.87Z" style="fill:white;fill-rule:nonzero;"/>
            </g>
        </g>
    </g>
</svg>
