<?xml version="1.0" encoding="UTF-8" standalone="no"?>
<!DOCTYPE svg PUBLIC "-//W3C//DTD SVG 1.1//EN" "http://www.w3.org/Graphics/SVG/1.1/DTD/svg11.dtd">
<svg width="100%" height="100%" viewBox="0 0 2501 2791" version="1.1" xmlns="http://www.w3.org/2000/svg" xmlns:xlink="http://www.w3.org/1999/xlink" xml:space="preserve" xmlns:serif="http://www.serif.com/" style="fill-rule:evenodd;clip-rule:evenodd;stroke-linejoin:round;stroke-miterlimit:2;">
    <g transform="matrix(1,0,0,1,-5948.85,70.3253)">
        <g transform="matrix(4.16667,0,0,4.16667,0,0)">
            <g transform="matrix(1,0,0,1,-18.6851,-682.007)">
                <path d="M1820.09,1292.34C1834.99,1303.33 1853.8,1304.85 1870.34,1296.51C1886.86,1288.14 1896.72,1272.11 1896.72,1253.59L1896.72,746.498C1896.72,727.203 1886.25,710.881 1868.73,702.802C1851.24,694.69 1831.98,697.34 1817.34,709.912L1646.82,855.737L1542.59,855.737C1507.82,855.737 1479.51,884.048 1479.51,918.824L1479.51,1107.15C1479.51,1141.92 1507.82,1170.24 1542.59,1170.24L1654.03,1170.24L1820.09,1292.34ZM1848.53,1334.87C1831.59,1334.87 1814.79,1329.51 1800.5,1319.03L1800.5,1319L1643.17,1203.33L1542.59,1203.33C1489.56,1203.33 1446.41,1160.19 1446.41,1107.15L1446.41,918.824C1446.41,865.788 1489.56,822.642 1542.59,822.642L1634.61,822.642L1795.82,684.768C1820.25,663.921 1853.47,659.268 1882.59,672.745C1911.71,686.157 1929.81,714.437 1929.81,746.498L1929.81,1253.59C1929.81,1284.39 1912.75,1312.15 1885.28,1326.05C1873.61,1331.93 1861.04,1334.87 1848.53,1334.87Z" style="fill:white;fill-rule:nonzero;"/>
                <path d="M1999.82,1095.03C1995.94,1095.03 1992.03,1093.67 1988.89,1090.92C1982.04,1084.88 1981.36,1074.41 1987.37,1067.56C2004.41,1048.2 2013.39,1025.87 2013.39,1003.02C2013.39,980.167 2004.41,957.834 1987.37,938.474C1981.36,931.623 1982.04,921.151 1988.89,915.107C1995.74,909.096 2006.18,909.775 2012.26,916.627C2034.66,942.127 2046.49,971.989 2046.49,1003.02C2046.49,1034.04 2034.66,1063.91 2012.26,1089.41C2008.96,1093.12 2004.41,1095.03 1999.82,1095.03Z" style="fill:white;fill-rule:nonzero;"/>
            </g>
        </g>
    </g>
</svg>
