<?xml version="1.0" encoding="UTF-8" standalone="no"?>
<!DOCTYPE svg PUBLIC "-//W3C//DTD SVG 1.1//EN" "http://www.w3.org/Graphics/SVG/1.1/DTD/svg11.dtd">
<svg width="100%" height="100%" viewBox="0 0 1471 330" version="1.1" xmlns="http://www.w3.org/2000/svg" xmlns:xlink="http://www.w3.org/1999/xlink" xml:space="preserve" xmlns:serif="http://www.serif.com/" style="fill-rule:evenodd;clip-rule:evenodd;stroke-linejoin:round;stroke-miterlimit:2;">
    <g transform="matrix(4.16667,0,0,4.16667,0,0)">
        <path d="M45.187,22.975L45.187,56.451C54.944,50.841 64.518,45.337 74.309,39.707C64.465,34.052 54.914,28.564 45.187,22.975ZM74.779,0.426C75.244,1.091 75.935,0.734 76.508,0.76C83.101,1.056 89.696,1.29 96.257,2.105C105.113,3.205 109.605,7.448 110.932,16.277C112.662,27.794 112.724,39.376 112.109,50.977C111.867,55.562 111.488,60.131 110.642,64.654C109.263,72.028 104.662,76.37 97.202,77.257C84.922,78.717 72.576,78.827 60.237,78.968C47.604,79.112 34.978,78.771 22.37,77.938C19.509,77.749 16.653,77.45 13.827,76.929C7.686,75.796 3.432,71.705 2.092,65.602C1.031,60.764 0.748,55.833 0.359,50.914C0.318,50.396 0.646,49.752 0,49.36L0,30.062C0.649,29.673 0.317,29.029 0.358,28.512C0.706,24.171 1.007,19.827 1.738,15.525C3.106,7.481 7.675,3.142 15.772,2.111C22.209,1.292 28.683,1.095 35.151,0.77C35.722,0.741 36.416,1.103 36.873,0.426L74.779,0.426Z" style="fill:rgb(238,52,45);fill-rule:nonzero;"/>
        <path d="M334.303,40.307C334.303,41.67 334.323,43.275 334.293,44.878C334.281,45.539 334.357,45.948 335.192,45.929C337.311,45.881 339.432,45.91 341.552,45.916C342.045,45.917 342.468,45.897 342.454,45.218C342.375,41.329 342.614,37.415 341.811,33.578C341.394,31.585 340.083,30.711 338.079,30.753C336.391,30.788 335.448,31.621 334.938,33.581C334.385,35.708 334.49,37.899 334.303,40.307ZM352.878,62.111C352.211,62.617 352.556,63.379 352.435,64.011C351.428,69.27 348.293,72.391 343.092,73.531C339.78,74.257 336.47,74.261 333.212,73.375C328.203,72.014 325.834,68.245 324.673,63.529C324.25,61.812 323.856,60.042 323.808,58.287C323.582,50.099 322.814,41.871 324.646,33.767C326.256,26.642 330.266,23.445 337.62,23.117C339.231,23.045 340.848,23.03 342.429,23.322C348.124,24.371 351.068,27.475 352.183,33.382C352.387,34.46 352.235,35.625 352.878,36.61L352.878,52.462C346.97,52.423 341.063,52.387 335.155,52.343C334.622,52.339 334.286,52.467 334.298,53.102C334.366,56.655 334.173,60.23 334.962,63.728C335.4,65.667 336.627,66.56 338.515,66.589C340.418,66.618 341.625,65.771 342.234,63.905C342.699,62.479 342.921,61 342.891,59.502C342.872,58.602 343.033,58.148 344.119,58.241C346.633,58.457 349.158,58.586 351.681,58.642C352.319,58.656 352.501,59.087 352.878,59.354L352.878,62.111Z" style="fill:rgb(34,37,41);fill-rule:nonzero;"/>
        <path d="M307.377,49.338C307.377,46.587 307.438,43.833 307.359,41.084C307.284,38.511 307.171,35.916 306.303,33.459C305.475,31.114 303.291,30.349 301.188,31.688C299.409,32.821 298.341,34.427 298.346,36.657C298.367,45.142 298.354,53.626 298.355,62.111C298.356,64.2 299.434,65.529 301.459,65.953C303.647,66.411 305.188,65.655 306.02,63.622C306.34,62.838 306.575,62 306.713,61.164C307.359,57.249 307.345,53.29 307.377,49.338ZM298.2,29.347C300.213,26.197 302.535,24.195 305.782,23.402C310.718,22.197 314.879,24.347 316.71,29.047C317.807,31.866 318.17,34.838 318.307,37.799C318.67,45.653 318.997,53.517 318.05,61.359C317.775,63.638 317.257,65.865 316.364,67.991C314.963,71.326 312.718,73.749 308.953,74.115C304.82,74.518 301.264,73.246 298.645,69.853C298.406,69.542 298.193,69.211 297.873,68.756C297.708,69.187 297.565,69.474 297.486,69.777C296.536,73.434 296.538,73.434 292.848,73.434C291.528,73.434 290.2,73.348 288.889,73.459C287.647,73.565 287.382,73.106 287.387,71.926C287.432,61.42 287.413,50.914 287.413,40.408C287.413,28.696 287.452,16.984 287.368,5.273C287.357,3.675 287.838,3.381 289.275,3.453C291.623,3.572 293.99,3.613 296.332,3.443C298.016,3.32 298.244,3.978 298.231,5.445C298.164,13.244 298.2,21.045 298.2,29.347Z" style="fill:rgb(34,37,41);fill-rule:nonzero;"/>
        <path d="M214.092,67.226C212.112,70.798 209.723,73.12 206.134,73.997C199.763,75.555 194.903,72.266 194.02,65.785C193.779,64.017 193.673,62.251 193.675,60.468C193.687,48.931 193.702,37.393 193.652,25.856C193.646,24.556 193.904,24.083 195.308,24.149C198,24.274 200.704,24.253 203.399,24.155C204.64,24.11 204.901,24.522 204.896,25.695C204.853,36.888 204.862,48.081 204.879,59.274C204.882,60.989 204.842,62.715 205.362,64.391C205.775,65.721 206.629,66.349 208.027,66.343C210.69,66.331 212.648,64.402 212.648,61.733C212.649,49.736 212.672,37.739 212.615,25.743C212.609,24.434 212.95,24.107 214.225,24.153C217.034,24.256 219.85,24.227 222.662,24.163C223.663,24.14 223.903,24.478 223.902,25.433C223.876,41.046 223.879,56.659 223.896,72.272C223.897,73.098 223.774,73.53 222.788,73.499C220.551,73.431 218.31,73.433 216.073,73.501C215.225,73.527 215.02,73.199 214.926,72.448C214.728,70.877 214.433,69.319 214.092,67.226Z" style="fill:rgb(34,37,41);fill-rule:nonzero;"/>
        <path d="M271.045,67.24C269.241,70.5 267.121,72.768 263.931,73.772C257.008,75.951 251.604,72.32 250.873,65.107C250.548,61.896 250.607,58.686 250.603,55.473C250.592,45.596 250.628,35.719 250.566,25.843C250.557,24.476 250.921,24.099 252.269,24.153C254.964,24.261 257.668,24.249 260.364,24.156C261.571,24.115 261.885,24.462 261.881,25.672C261.833,36.984 261.85,48.296 261.857,59.609C261.858,61.097 261.795,62.59 262.221,64.052C262.749,65.867 263.613,66.482 265.499,66.306C267.922,66.079 269.586,64.29 269.587,61.891C269.589,49.89 269.607,37.888 269.561,25.887C269.556,24.599 269.783,24.081 271.219,24.148C273.97,24.276 276.731,24.227 279.486,24.163C280.495,24.14 280.856,24.348 280.853,25.465C280.813,41.027 280.815,56.589 280.849,72.15C280.851,73.189 280.626,73.552 279.53,73.504C277.41,73.413 275.282,73.45 273.158,73.492C272.344,73.507 271.94,73.363 271.859,72.405C271.726,70.832 271.379,69.277 271.045,67.24Z" style="fill:rgb(34,37,41);fill-rule:nonzero;"/>
        <path d="M168.552,48.699C168.552,51.853 168.482,55.009 168.576,58.16C168.639,60.269 168.747,62.404 169.565,64.404C170.112,65.743 171.107,66.522 172.574,66.582C174.078,66.643 175.066,65.825 175.656,64.531C176.157,63.433 176.385,62.25 176.478,61.042C177.045,53.653 176.735,46.255 176.683,38.862C176.669,36.876 176.491,34.848 175.687,32.965C175.114,31.624 174.093,30.87 172.624,30.878C171.156,30.885 170.135,31.64 169.586,32.996C169.154,34.062 168.95,35.182 168.808,36.325C168.298,40.442 168.625,44.575 168.552,48.699ZM188.036,50.035C187.95,53.441 188.052,57.975 187.156,62.456C185.506,70.706 181.065,74.369 172.663,74.287C170.885,74.269 169.114,74.108 167.374,73.699C161.946,72.424 159.331,68.633 158.191,63.494C157.705,61.304 157.417,59.084 157.35,56.852C157.132,49.575 156.704,42.288 158.124,35.065C159.983,25.607 166.189,22.517 175.121,23.351C182.083,24.001 186.017,27.595 187.448,37.062C188.041,40.99 188.051,44.952 188.036,50.035Z" style="fill:rgb(34,37,41);fill-rule:nonzero;"/>
        <path d="M123.727,5.946C127.196,5.946 130.578,5.976 133.958,5.927C134.93,5.913 134.905,6.604 135.02,7.162C137.203,17.808 139.782,28.373 141.627,39.089C141.645,39.196 141.709,39.296 141.787,39.482C142.9,34.138 143.961,28.861 145.104,23.602C146.305,18.071 147.599,12.56 148.808,7.03C148.962,6.324 149.081,5.914 149.945,5.926C153.268,5.973 156.592,5.945 160.12,5.945C159.033,9.826 157.989,13.56 156.942,17.294C153.84,28.355 150.741,39.417 147.627,50.475C147.405,51.264 147.38,52.056 147.38,52.86C147.381,59.116 147.341,65.373 147.412,71.628C147.427,73.005 147.148,73.549 145.646,73.47C143.128,73.339 140.594,73.363 138.073,73.464C136.757,73.516 136.299,73.197 136.34,71.789C136.448,68.119 136.201,64.433 136.416,60.772C136.774,54.677 135.666,48.87 133.97,43.045C130.474,31.031 127.251,18.936 123.919,6.874C123.846,6.609 123.806,6.335 123.727,5.946Z" style="fill:rgb(34,37,41);fill-rule:nonzero;"/>
        <path d="M242.982,44.212C242.982,53.401 242.951,62.589 243.017,71.777C243.027,73.158 242.64,73.517 241.304,73.459C238.839,73.35 236.362,73.34 233.899,73.461C232.465,73.531 232.084,73.099 232.089,71.668C232.14,56.278 232.121,40.887 232.121,25.497C232.121,22.453 232.081,19.409 232.142,16.366C232.163,15.284 231.918,14.861 230.725,14.903C227.972,14.999 225.212,14.894 222.457,14.955C221.464,14.977 221.022,14.807 221.077,13.665C221.178,11.545 221.154,9.415 221.084,7.292C221.051,6.282 221.275,5.916 222.389,5.921C232.496,5.967 242.603,5.967 252.71,5.921C253.798,5.916 254.066,6.219 254.027,7.264C253.947,9.443 253.959,11.628 254.024,13.809C254.051,14.726 253.756,14.971 252.866,14.953C250.225,14.899 247.579,15.017 244.942,14.901C243.441,14.835 242.921,15.167 242.938,16.82C243.031,25.95 242.982,35.081 242.982,44.212Z" style="fill:rgb(34,37,41);fill-rule:nonzero;"/>
        <path d="M45.187,22.975C54.914,28.564 64.465,34.052 74.309,39.707C64.518,45.337 54.944,50.841 45.187,56.451L45.187,22.975Z" style="fill:rgb(253,253,253);fill-rule:nonzero;"/>
    </g>
</svg>
