<svg width="39" height="39" viewBox="0 0 39 39" fill="none" xmlns="http://www.w3.org/2000/svg">
<path d="M19.5 7.3125C14.9106 7.3125 10.8545 7.78857 8.37891 8.15039C6.33179 8.45032 4.67981 9.9928 4.30371 12.0352C3.98474 13.7728 3.65625 16.3151 3.65625 19.5C3.65625 22.6849 3.98474 25.2272 4.30371 26.9648C4.67981 29.0072 6.33179 30.5544 8.37891 30.8496C10.864 31.2114 14.9344 31.6875 19.5 31.6875C24.0656 31.6875 28.136 31.2114 30.6211 30.8496C32.6682 30.5544 34.3202 29.0072 34.6963 26.9648C35.0153 25.2224 35.3438 22.6754 35.3438 19.5C35.3438 16.3246 35.02 13.7776 34.6963 12.0352C34.3202 9.9928 32.6682 8.45032 30.6211 8.15039C28.1455 7.78857 24.0894 7.3125 19.5 7.3125ZM19.5 9.75C23.9275 9.75 27.8837 10.2023 30.2783 10.5498C31.3066 10.7021 32.1112 11.4781 32.2969 12.4922C32.592 14.1013 32.9062 16.4865 32.9062 19.5C32.9062 22.5088 32.592 24.8987 32.2969 26.5078C32.1112 27.5219 31.3114 28.3026 30.2783 28.4502C27.8741 28.7977 23.8989 29.25 19.5 29.25C15.1011 29.25 11.1211 28.7977 8.72168 28.4502C7.69336 28.3026 6.88879 27.5219 6.70312 26.5078C6.40796 24.8987 6.09375 22.5183 6.09375 19.5C6.09375 16.4769 6.40796 14.1013 6.70312 12.4922C6.88879 11.4781 7.6886 10.7021 8.72168 10.5498C11.1116 10.2023 15.0725 9.75 19.5 9.75ZM15.8438 12.5303V26.4697L17.6719 25.4414L26.2031 20.5664L28.0312 19.5L26.2031 18.4336L17.6719 13.5586L15.8438 12.5303ZM18.2812 16.7197L23.1182 19.5L18.2812 22.2803V16.7197Z" fill="white"/>
</svg>
