<svg width="206" height="46" viewBox="0 0 206 46" fill="none" xmlns="http://www.w3.org/2000/svg">
<path d="M64.304 7.2316C63.5469 4.41931 61.3295 2.20193 58.5172 1.44477C53.3794 0.0927124 32.828 0.0927124 32.828 0.0927124C32.828 0.0927124 12.2767 0.0927124 7.13888 1.44477C4.3266 2.20193 2.10922 4.41931 1.35206 7.2316C0 12.3694 0 23.0237 0 23.0237C0 23.0237 0 33.732 1.35206 38.8157C2.10922 41.628 4.3266 43.8454 7.13888 44.6026C12.2767 45.9546 32.828 45.9546 32.828 45.9546C32.828 45.9546 53.3794 45.9546 58.5172 44.6026C61.3295 43.8454 63.5469 41.628 64.304 38.8157C65.6561 33.6779 65.6561 23.0237 65.6561 23.0237C65.6561 23.0237 65.6561 12.3694 64.304 7.2316Z" fill="#EE3124"/>
<path d="M26.23 32.9208L43.32 23.0777L26.23 13.1807V32.9208Z" fill="white"/>
<path d="M95.3473 41.8984C94.0493 41.0331 93.1299 39.681 92.5891 37.7882C92.0482 35.9494 91.7778 33.4616 91.7778 30.4329V26.2686C91.7778 23.1859 92.1023 20.6981 92.6972 18.8052C93.3462 16.9123 94.3197 15.5603 95.6177 14.695C96.9697 13.8296 98.7004 13.397 100.864 13.397C102.973 13.397 104.704 13.8296 106.002 14.695C107.299 15.5603 108.219 16.9664 108.814 18.8052C109.409 20.644 109.733 23.1318 109.733 26.2686V30.4329C109.733 33.5156 109.463 35.9493 108.868 37.8422C108.273 39.681 107.354 41.0872 106.056 41.9525C104.758 42.8178 102.973 43.2505 100.756 43.2505C98.43 43.1964 96.6452 42.7637 95.3473 41.8984ZM102.648 37.4096C103.027 36.4902 103.189 34.9218 103.189 32.8126V23.8349C103.189 21.7798 103.027 20.2654 102.648 19.292C102.27 18.3185 101.675 17.8858 100.756 17.8858C99.8902 17.8858 99.2412 18.3726 98.9167 19.292C98.5381 20.2654 98.3759 21.7798 98.3759 23.8349V32.8126C98.3759 34.9218 98.5381 36.4902 98.9167 37.4096C99.2412 38.329 99.8902 38.8157 100.81 38.8157C101.621 38.8157 102.27 38.329 102.648 37.4096Z" fill="white"/>
<path d="M195.129 30.487V31.9473C195.129 33.7861 195.183 35.1922 195.292 36.1116C195.4 37.031 195.616 37.7341 195.995 38.1127C196.319 38.5453 196.86 38.7616 197.617 38.7616C198.591 38.7616 199.24 38.3831 199.618 37.6259C199.997 36.8688 200.159 35.6249 200.213 33.8401L205.784 34.1646C205.838 34.4351 205.838 34.7595 205.838 35.1922C205.838 37.8422 205.135 39.8433 203.674 41.1413C202.214 42.4393 200.159 43.0882 197.509 43.0882C194.318 43.0882 192.101 42.0607 190.803 40.0596C189.505 38.0586 188.856 34.9759 188.856 30.7574V25.7278C188.856 21.4012 189.505 18.2644 190.857 16.2634C192.209 14.2623 194.48 13.2888 197.671 13.2888C199.889 13.2888 201.619 13.7215 202.809 14.5327C203.999 15.344 204.81 16.6419 205.297 18.3185C205.784 20.0491 206 22.4287 206 25.4574V30.3789H195.129V30.487ZM195.941 18.3726C195.616 18.8052 195.4 19.4542 195.292 20.3736C195.183 21.293 195.129 22.6992 195.129 24.592V26.6472H199.889V24.592C199.889 22.7532 199.834 21.3471 199.726 20.3736C199.618 19.4001 199.348 18.7511 199.023 18.3726C198.699 17.994 198.158 17.7777 197.509 17.7777C196.806 17.7777 196.265 17.994 195.941 18.3726Z" fill="white"/>
<path d="M79.5554 29.9462L72.2002 3.28357H78.636L81.232 15.344C81.8809 18.3185 82.3677 20.8604 82.6922 22.9696H82.8544C83.0708 21.4553 83.5575 18.9675 84.3147 15.398L87.0188 3.28357H93.4546L85.9912 29.9462V42.7638H79.6095V29.9462H79.5554Z" fill="white"/>
<path d="M130.609 13.9378V42.7637H125.525L124.984 39.2484H124.822C123.47 41.8984 121.361 43.2505 118.603 43.2505C116.71 43.2505 115.304 42.6015 114.384 41.3576C113.465 40.1137 113.032 38.1667 113.032 35.4626V13.9378H119.522V35.084C119.522 36.382 119.684 37.3014 119.955 37.8422C120.225 38.3831 120.712 38.6535 121.361 38.6535C121.902 38.6535 122.443 38.4912 122.983 38.1127C123.524 37.7882 123.903 37.3555 124.119 36.8147V13.9378H130.609Z" fill="white"/>
<path d="M163.87 13.9378V42.7637H158.786L158.245 39.2484H158.083C156.731 41.8984 154.622 43.2505 151.863 43.2505C149.971 43.2505 148.564 42.6015 147.645 41.3576C146.726 40.1137 146.293 38.1667 146.293 35.4626V13.9378H152.783V35.084C152.783 36.382 152.945 37.3014 153.216 37.8422C153.486 38.3831 153.973 38.6535 154.622 38.6535C155.162 38.6535 155.703 38.4912 156.244 38.1127C156.785 37.7882 157.164 37.3555 157.38 36.8147V13.9378H163.87Z" fill="white"/>
<path d="M148.24 8.52955H141.804V42.7637H135.477V8.58364H129.041V3.39172H148.24V8.52955Z" fill="white"/>
<path d="M185.34 18.5348C184.962 16.696 184.313 15.3981 183.448 14.5868C182.582 13.7756 181.338 13.3429 179.824 13.3429C178.634 13.3429 177.499 13.6674 176.471 14.3705C175.443 15.0195 174.632 15.9389 174.091 17.0205H174.037V1.82336H167.764V42.7638H173.118L173.767 40.0596H173.929C174.416 41.0331 175.173 41.7903 176.201 42.3852C177.228 42.926 178.31 43.2505 179.554 43.2505C181.771 43.2505 183.339 42.2229 184.367 40.2219C185.395 38.2208 185.935 35.03 185.935 30.7575V26.2145C185.935 22.8614 185.719 20.3736 185.34 18.5348ZM179.391 30.2707C179.391 32.3799 179.283 34.0024 179.121 35.1922C178.959 36.382 178.634 37.2474 178.256 37.7341C177.823 38.2208 177.282 38.4913 176.633 38.4913C176.092 38.4913 175.606 38.3831 175.173 38.1127C174.74 37.8423 174.362 37.4637 174.091 36.9769V20.644C174.308 19.8869 174.686 19.2379 175.227 18.6971C175.768 18.2103 176.363 17.9399 176.958 17.9399C177.607 17.9399 178.148 18.2103 178.472 18.6971C178.851 19.2379 179.067 20.1032 179.229 21.293C179.391 22.5369 179.445 24.2676 179.445 26.4849V30.2707H179.391Z" fill="white"/>
</svg>
